<svg xmlns="http://www.w3.org/2000/svg" width="261" height="37" viewBox="0 0 261 37">
  <g fill="none" fill-rule="evenodd" transform="translate(0 -4)">
    <path fill="#000" fill-rule="nonzero" d="M47.594,37 L47.594,35.2 L41.582,35.2 L41.582,31.528 L47.036,31.528 L47.036,29.728 L41.582,29.728 L41.582,26.236 L47.594,26.236 L47.594,24.436 L39.548,24.436 L39.548,37 L47.594,37 Z M52.04,37 L52.04,31.024 C52.04,30.052 52.904,29.53 54.452,29.53 L55.226,29.53 L55.226,27.64 L54.704,27.64 C53.21,27.64 52.4,28.486 52.13,29.44 L52.04,29.44 L52.04,27.64 L50.078,27.64 L50.078,37 L52.04,37 Z M58.934,37 L58.934,30.718 C58.934,29.638 59.942,29.116 60.968,29.116 C62.174,29.116 62.732,29.854 62.732,31.294 L62.732,37 L64.694,37 L64.694,31.06 C64.694,28.756 63.56,27.424 61.652,27.424 C60.212,27.424 59.42,28.18 59.024,29.188 L58.934,29.188 L58.934,23.68 L56.972,23.68 L56.972,37 L58.934,37 Z M71.75,37 L74.972,27.64 L73.1,27.64 L71.642,31.906 L70.688,35.182 L70.58,35.182 L69.626,31.906 L68.204,27.64 L66.26,27.64 L69.446,37 L71.75,37 Z M80.3,37.216 C82.046,37.216 83.414,36.46 84.116,35.326 L82.964,34.192 C82.424,35.056 81.65,35.596 80.498,35.596 C78.914,35.596 78.032,34.57 78.032,33.13 L78.032,32.824 L84.458,32.824 L84.458,32.086 C84.458,29.494 83.054,27.424 80.3,27.424 C77.636,27.424 75.998,29.332 75.998,32.32 C75.998,35.308 77.636,37.216 80.3,37.216 Z M82.388,31.528 L78.032,31.528 L78.032,31.402 C78.032,29.962 78.95,28.954 80.3,28.954 C81.596,28.954 82.388,29.908 82.388,31.348 L82.388,31.528 Z M88.598,37 L88.598,31.024 C88.598,30.052 89.462,29.53 91.01,29.53 L91.784,29.53 L91.784,27.64 L91.262,27.64 C89.768,27.64 88.958,28.486 88.688,29.44 L88.598,29.44 L88.598,27.64 L86.636,27.64 L86.636,37 L88.598,37 Z M97.868,37 L101.09,27.64 L99.218,27.64 L97.76,31.906 L96.806,35.182 L96.698,35.182 L95.744,31.906 L94.322,27.64 L92.378,27.64 L95.564,37 L97.868,37 Z M105.716,37.216 C107.966,37.216 109.424,36.01 109.424,34.21 C109.424,32.698 108.506,31.798 106.454,31.492 L105.59,31.384 C104.6,31.222 104.15,30.898 104.15,30.178 C104.15,29.476 104.654,29.008 105.734,29.008 C106.742,29.008 107.534,29.494 108.02,30.07 L109.226,28.918 C108.38,27.982 107.426,27.424 105.734,27.424 C103.682,27.424 102.26,28.486 102.26,30.304 C102.26,32.032 103.43,32.86 105.338,33.094 L106.202,33.202 C107.174,33.328 107.534,33.778 107.534,34.372 C107.534,35.164 106.958,35.632 105.824,35.632 C104.708,35.632 103.862,35.128 103.178,34.3 L101.918,35.452 C102.8,36.55 103.952,37.216 105.716,37.216 Z M114.086,37 L114.086,29.242 L116.048,29.242 L116.048,27.64 L114.086,27.64 L114.086,25.282 L116.048,25.282 L116.048,23.68 L114.5,23.68 C112.934,23.68 112.124,24.58 112.124,26.092 L112.124,27.64 L110.702,27.64 L110.702,29.242 L112.124,29.242 L112.124,37 L114.086,37 Z M119.72,37 L119.72,31.024 C119.72,30.052 120.584,29.53 122.132,29.53 L122.906,29.53 L122.906,27.64 L122.384,27.64 C120.89,27.64 120.08,28.486 119.81,29.44 L119.72,29.44 L119.72,27.64 L117.758,27.64 L117.758,37 L119.72,37 Z M128.324,37.216 C130.07,37.216 131.438,36.46 132.14,35.326 L130.988,34.192 C130.448,35.056 129.674,35.596 128.522,35.596 C126.938,35.596 126.056,34.57 126.056,33.13 L126.056,32.824 L132.482,32.824 L132.482,32.086 C132.482,29.494 131.078,27.424 128.324,27.424 C125.66,27.424 124.022,29.332 124.022,32.32 C124.022,35.308 125.66,37.216 128.324,37.216 Z M130.412,31.528 L126.056,31.528 L126.056,31.402 C126.056,29.962 126.974,28.954 128.324,28.954 C129.62,28.954 130.412,29.908 130.412,31.348 L130.412,31.528 Z M136.622,37 L136.622,30.718 C136.622,29.638 137.576,29.116 138.548,29.116 C139.7,29.116 140.258,29.836 140.258,31.294 L140.258,37 L142.22,37 L142.22,30.718 C142.22,29.638 143.138,29.116 144.128,29.116 C145.316,29.116 145.856,29.854 145.856,31.294 L145.856,37 L147.818,37 L147.818,31.06 C147.818,28.756 146.72,27.424 144.866,27.424 C143.354,27.424 142.382,28.288 142.04,29.332 L141.986,29.332 C141.536,28.036 140.474,27.424 139.214,27.424 C137.792,27.424 137.09,28.216 136.712,29.188 L136.622,29.188 L136.622,27.64 L134.66,27.64 L134.66,37 L136.622,37 Z M152.498,37 L152.498,30.718 C152.498,29.638 153.452,29.116 154.424,29.116 C155.576,29.116 156.134,29.836 156.134,31.294 L156.134,37 L158.096,37 L158.096,30.718 C158.096,29.638 159.014,29.116 160.004,29.116 C161.192,29.116 161.732,29.854 161.732,31.294 L161.732,37 L163.694,37 L163.694,31.06 C163.694,28.756 162.596,27.424 160.742,27.424 C159.23,27.424 158.258,28.288 157.916,29.332 L157.862,29.332 C157.412,28.036 156.35,27.424 155.09,27.424 C153.668,27.424 152.966,28.216 152.588,29.188 L152.498,29.188 L152.498,27.64 L150.536,27.64 L150.536,37 L152.498,37 Z M170.084,37.216 C171.83,37.216 173.198,36.46 173.9,35.326 L172.748,34.192 C172.208,35.056 171.434,35.596 170.282,35.596 C168.698,35.596 167.816,34.57 167.816,33.13 L167.816,32.824 L174.242,32.824 L174.242,32.086 C174.242,29.494 172.838,27.424 170.084,27.424 C167.42,27.424 165.782,29.332 165.782,32.32 C165.782,35.308 167.42,37.216 170.084,37.216 Z M172.172,31.528 L167.816,31.528 L167.816,31.402 C167.816,29.962 168.734,28.954 170.084,28.954 C171.38,28.954 172.172,29.908 172.172,31.348 L172.172,31.528 Z M181.1,37.216 C183.458,37.216 184.826,35.398 184.826,32.32 C184.826,29.242 183.458,27.424 181.1,27.424 C179.858,27.424 178.868,28.072 178.472,29.188 L178.382,29.188 L178.382,23.68 L176.42,23.68 L176.42,37 L178.382,37 L178.382,35.452 L178.472,35.452 C178.868,36.55 179.858,37.216 181.1,37.216 Z M180.506,35.524 C179.318,35.524 178.382,34.876 178.382,33.922 L178.382,30.718 C178.382,29.764 179.318,29.116 180.506,29.116 C181.856,29.116 182.756,30.07 182.756,31.51 L182.756,33.13 C182.756,34.57 181.856,35.524 180.506,35.524 Z M190.748,37.216 C192.494,37.216 193.862,36.46 194.564,35.326 L193.412,34.192 C192.872,35.056 192.098,35.596 190.946,35.596 C189.362,35.596 188.48,34.57 188.48,33.13 L188.48,32.824 L194.906,32.824 L194.906,32.086 C194.906,29.494 193.502,27.424 190.748,27.424 C188.084,27.424 186.446,29.332 186.446,32.32 C186.446,35.308 188.084,37.216 190.748,37.216 Z M192.836,31.528 L188.48,31.528 L188.48,31.402 C188.48,29.962 189.398,28.954 190.748,28.954 C192.044,28.954 192.836,29.908 192.836,31.348 L192.836,31.528 Z M200.054,37.216 C202.304,37.216 203.762,36.01 203.762,34.21 C203.762,32.698 202.844,31.798 200.792,31.492 L199.928,31.384 C198.938,31.222 198.488,30.898 198.488,30.178 C198.488,29.476 198.992,29.008 200.072,29.008 C201.08,29.008 201.872,29.494 202.358,30.07 L203.564,28.918 C202.718,27.982 201.764,27.424 200.072,27.424 C198.02,27.424 196.598,28.486 196.598,30.304 C196.598,32.032 197.768,32.86 199.676,33.094 L200.54,33.202 C201.512,33.328 201.872,33.778 201.872,34.372 C201.872,35.164 201.296,35.632 200.162,35.632 C199.046,35.632 198.2,35.128 197.516,34.3 L196.256,35.452 C197.138,36.55 198.29,37.216 200.054,37.216 Z M210.278,37 L210.278,35.398 L208.46,35.398 L208.46,29.242 L210.422,29.242 L210.422,27.64 L208.46,27.64 L208.46,25.084 L206.696,25.084 L206.696,26.722 C206.696,27.37 206.48,27.64 205.832,27.64 L205.04,27.64 L205.04,29.242 L206.498,29.242 L206.498,34.966 C206.498,36.244 207.218,37 208.568,37 L210.278,37 Z M213.77,40.6 C215.228,40.6 215.786,40.114 216.236,38.854 L220.178,27.64 L218.288,27.64 L216.416,33.148 L215.822,35.182 L215.732,35.182 L215.192,33.148 L213.32,27.64 L211.358,27.64 L214.76,37.414 L214.22,38.998 L212.636,38.998 L212.636,40.6 L213.77,40.6 Z M223.76,37 L223.76,31.024 C223.76,30.052 224.624,29.53 226.172,29.53 L226.946,29.53 L226.946,27.64 L226.424,27.64 C224.93,27.64 224.12,28.486 223.85,29.44 L223.76,29.44 L223.76,27.64 L221.798,27.64 L221.798,37 L223.76,37 Z M232.364,37.216 C234.11,37.216 235.478,36.46 236.18,35.326 L235.028,34.192 C234.488,35.056 233.714,35.596 232.562,35.596 C230.978,35.596 230.096,34.57 230.096,33.13 L230.096,32.824 L236.522,32.824 L236.522,32.086 C236.522,29.494 235.118,27.424 232.364,27.424 C229.7,27.424 228.062,29.332 228.062,32.32 C228.062,35.308 229.7,37.216 232.364,37.216 Z M234.452,31.528 L230.096,31.528 L230.096,31.402 C230.096,29.962 231.014,28.954 232.364,28.954 C233.66,28.954 234.452,29.908 234.452,31.348 L234.452,31.528 Z M241.958,37 L241.958,35.398 L240.662,35.398 L240.662,23.68 L238.7,23.68 L238.7,35.056 C238.7,36.262 239.366,37 240.698,37 L241.958,37 Z M246.8,37.216 C249.05,37.216 250.508,36.01 250.508,34.21 C250.508,32.698 249.59,31.798 247.538,31.492 L246.674,31.384 C245.684,31.222 245.234,30.898 245.234,30.178 C245.234,29.476 245.738,29.008 246.818,29.008 C247.826,29.008 248.618,29.494 249.104,30.07 L250.31,28.918 C249.464,27.982 248.51,27.424 246.818,27.424 C244.766,27.424 243.344,28.486 243.344,30.304 C243.344,32.032 244.514,32.86 246.422,33.094 L247.286,33.202 C248.258,33.328 248.618,33.778 248.618,34.372 C248.618,35.164 248.042,35.632 246.908,35.632 C245.792,35.632 244.946,35.128 244.262,34.3 L243.002,35.452 C243.884,36.55 245.036,37.216 246.8,37.216 Z M256.394,37.216 C258.14,37.216 259.508,36.46 260.21,35.326 L259.058,34.192 C258.518,35.056 257.744,35.596 256.592,35.596 C255.008,35.596 254.126,34.57 254.126,33.13 L254.126,32.824 L260.552,32.824 L260.552,32.086 C260.552,29.494 259.148,27.424 256.394,27.424 C253.73,27.424 252.092,29.332 252.092,32.32 C252.092,35.308 253.73,37.216 256.394,37.216 Z M258.482,31.528 L254.126,31.528 L254.126,31.402 C254.126,29.962 255.044,28.954 256.394,28.954 C257.69,28.954 258.482,29.908 258.482,31.348 L258.482,31.528 Z"/>
    <path fill="#252525" fill-rule="nonzero" d="M43.056,16 C45.984,16 47.504,14.112 47.504,10.416 C47.504,6.72 45.984,4.832 43.056,4.832 L39.664,4.832 L39.664,16 L43.056,16 Z M43.056,15.472 L40.256,15.472 L40.256,5.36 L43.056,5.36 C45.616,5.36 46.864,7.104 46.864,9.84 L46.864,10.992 C46.864,13.728 45.616,15.472 43.056,15.472 Z M52.218909,16.192 C53.626909,16.192 54.426909,15.568 54.810909,14.736 L54.874909,14.736 L54.874909,15.328 C54.890909,15.76 55.098909,16 55.562909,16 L56.666909,16 L56.666909,15.504 L55.418909,15.504 L55.418909,10.368 C55.418909,8.64 54.458909,7.68 52.650909,7.68 C51.146909,7.68 50.314909,8.352 49.866909,9.344 L50.266909,9.616 C50.714909,8.64 51.466909,8.176 52.634909,8.176 C54.090909,8.176 54.858909,8.896 54.858909,10.432 L54.858909,11.52 L52.730909,11.52 C50.394909,11.52 49.578909,12.48 49.578909,13.872 C49.578909,15.344 50.538909,16.192 52.218909,16.192 Z M52.266909,15.696 C51.034909,15.696 50.170909,15.136 50.170909,14.08 L50.170909,13.632 C50.170909,12.624 50.938909,11.968 52.730909,11.968 L54.858909,11.968 L54.858909,13.632 C54.858909,14.976 53.674909,15.696 52.266909,15.696 Z M59.269818,16 L59.269818,10.224 C59.269818,8.848 60.437818,8.176 61.685818,8.176 C63.189818,8.176 64.021818,9.024 64.021818,10.88 L64.021818,16 L64.581818,16 L64.581818,10.784 C64.581818,8.768 63.589818,7.68 61.813818,7.68 C60.405818,7.68 59.637818,8.336 59.317818,9.12 L59.269818,9.12 L59.269818,7.872 L58.709818,7.872 L58.709818,16 L59.269818,16 Z M68.304727,16 L68.304727,10.224 C68.304727,8.848 69.424727,8.176 70.656727,8.176 C72.144727,8.176 72.960727,9.024 72.960727,10.864 L72.960727,16 L73.520727,16 L73.520727,10.24 C73.520727,8.864 74.608727,8.176 75.856727,8.176 C77.376727,8.176 78.160727,9.04 78.160727,10.864 L78.160727,16 L78.720727,16 L78.720727,10.784 C78.720727,8.768 77.744727,7.68 75.968727,7.68 C74.496727,7.68 73.648727,8.432 73.344727,9.44 L73.296727,9.44 C72.944727,8.272 72.016727,7.68 70.752727,7.68 C69.360727,7.68 68.672727,8.368 68.352727,9.12 L68.304727,9.12 L68.304727,7.872 L67.744727,7.872 L67.744727,16 L68.304727,16 Z M83.835636,16.192 C85.243636,16.192 86.043636,15.568 86.427636,14.736 L86.491636,14.736 L86.491636,15.328 C86.507636,15.76 86.715636,16 87.179636,16 L88.283636,16 L88.283636,15.504 L87.035636,15.504 L87.035636,10.368 C87.035636,8.64 86.075636,7.68 84.267636,7.68 C82.763636,7.68 81.931636,8.352 81.483636,9.344 L81.883636,9.616 C82.331636,8.64 83.083636,8.176 84.251636,8.176 C85.707636,8.176 86.475636,8.896 86.475636,10.432 L86.475636,11.52 L84.347636,11.52 C82.011636,11.52 81.195636,12.48 81.195636,13.872 C81.195636,15.344 82.155636,16.192 83.835636,16.192 Z M83.883636,15.696 C82.651636,15.696 81.787636,15.136 81.787636,14.08 L81.787636,13.632 C81.787636,12.624 82.555636,11.968 84.347636,11.968 L86.475636,11.968 L86.475636,13.632 C86.475636,14.976 85.291636,15.696 83.883636,15.696 Z M90.886545,16 L90.886545,10.416 C90.886545,9.088 92.022545,8.4 93.350545,8.4 L94.054545,8.4 L94.054545,7.872 L93.446545,7.872 C91.990545,7.872 91.302545,8.528 90.950545,9.296 L90.886545,9.296 L90.886545,7.872 L90.326545,7.872 L90.326545,16 L90.886545,16 Z M96.529454,16 L96.529454,12.976 L97.905454,11.616 L101.361454,16 L102.049454,16 L98.305454,11.248 L101.649454,7.872 L100.945454,7.872 L97.857454,10.992 L96.577454,12.288 L96.529454,12.288 L96.529454,4.16 L95.969454,4.16 L95.969454,16 L96.529454,16 Z M106.140363,16.192 C107.852363,16.192 108.908363,15.344 108.908363,13.904 C108.908363,12.528 108.044363,11.888 106.540363,11.648 L105.852363,11.536 C104.556363,11.328 103.916363,10.896 103.916363,9.808 C103.916363,8.752 104.732363,8.176 106.012363,8.176 C107.244363,8.176 107.884363,8.688 108.348363,9.248 L108.748363,8.88 C108.188363,8.24 107.404363,7.68 106.028363,7.68 C104.524363,7.68 103.372363,8.416 103.372363,9.824 C103.372363,11.264 104.316363,11.84 105.756363,12.064 L106.444363,12.176 C107.740363,12.384 108.364363,12.88 108.364363,13.952 C108.364363,15.072 107.596363,15.696 106.156363,15.696 C105.020363,15.696 104.236363,15.312 103.516363,14.352 L103.084363,14.672 C103.836363,15.712 104.796363,16.192 106.140363,16.192 Z"/>
    <g fill="#0052FE" transform="translate(0 5)">
      <circle cx="11.5" cy="20.5" r="2.5"/>
      <circle cx="2.5" cy="29.5" r="2.5"/>
      <circle cx="11.5" cy="11.5" r="2.5"/>
      <circle cx="2.5" cy="11.5" r="2.5"/>
      <circle cx="2.5" cy="20.5" r="2.5"/>
      <circle cx="20.5" cy="11.5" r="2.5"/>
      <circle cx="11.5" cy="2.5" r="2.5"/>
      <circle cx="20.5" cy="2.5" r="2.5"/>
      <circle cx="11.5" cy="29.5" r="2.5"/>
      <circle cx="20.5" cy="29.5" r="2.5"/>
    </g>
  </g>
</svg>
