<svg xmlns="http://www.w3.org/2000/svg" xmlns:vectornator="http://vectornator.io" fill-rule="evenodd" stroke-linecap="round" stroke-linejoin="round" clip-rule="evenodd" viewBox="0 0 112.168 40.901"><g vectornator:layerName="Lag 1"><path fill="#074ea2" d="M73.311 26.96h38.124V.734H73.311V26.96z"/><path fill="#fff" d="M72.579 0V27.694h39.589V0h-39.59zm1.466 1.466h36.657v24.762H74.045V1.466z"/><path fill="#fff200" d="M88.315 5.35l.312.92h.975l-.803.59.312.916-.796-.557-.795.557.3-.931-.837-.574h1.026l.306-.921z"/><path fill="none" d="M88.315 5.35l.312.92h.975l-.803.59.312.916-.796-.557-.795.557.3-.931-.837-.574h1.026l.306-.921z"/><path fill="#fff200" d="M85.479 8.318l.312.92h.975l-.803.589.313.917-.797-.56-.795.56.301-.932-.838-.574h1.026l.306-.92z"/><path fill="none" d="M85.479 8.318l.312.92h.975l-.803.589.313.917-.797-.56-.795.56.301-.932-.838-.574h1.026l.306-.92z"/><path fill="#fff200" d="M92.428 4.402l.311.92h.976l-.804.59.312.916-.795-.557-.797.557.301-.93-.838-.575h1.027l.307-.921z"/><path fill="none" d="M92.428 4.402l.311.92h.976l-.804.59.312.916-.795-.557-.797.557.301-.93-.838-.575h1.027l.307-.921z"/><path fill="#fff200" d="M84.173 12.427l.312.92h.974l-.802.59.312.916-.796-.557-.796.557.301-.93-.838-.576h1.027l.306-.92z"/><path fill="none" d="M84.173 12.427l.312.92h.974l-.802.59.312.916-.796-.557-.796.557.301-.93-.838-.576h1.027l.306-.92z"/><path fill="#fff200" d="M85.479 16.496l.312.92h.975l-.803.591.313.916-.797-.558-.795.558.301-.93-.838-.577h1.026l.306-.92z"/><path fill="none" d="M85.479 16.496l.312.92h.975l-.803.591.313.916-.797-.558-.795.558.301-.93-.838-.577h1.026l.306-.92z"/><path fill="#fff200" d="M88.315 19.515l.312.922h.975l-.803.589.312.916-.796-.558-.795.558.3-.932-.837-.573h1.026l.306-.922z"/><path fill="none" d="M88.315 19.515l.312.922h.975l-.803.589.312.916-.796-.558-.795.558.3-.932-.837-.573h1.026l.306-.922z"/><path fill="#fff200" d="M92.428 20.574l.311.921h.976l-.804.59.312.916-.795-.557-.797.557.301-.93-.838-.576h1.027l.307-.92z"/><path fill="none" d="M92.428 20.574l.311.921h.976l-.804.59.312.916-.795-.557-.797.557.301-.93-.838-.576h1.027l.307-.92z"/><path fill="#fff200" d="M96.54 5.35l-.313.92h-.975l.803.59-.312.916.797-.557.795.557-.3-.931.837-.574h-1.025l-.306-.921z"/><path fill="none" d="M96.54 5.35l-.313.92h-.975l.803.59-.312.916.797-.557.795.557-.3-.931.837-.574h-1.025l-.306-.921z"/><path fill="#fff200" d="M99.376 8.318l-.313.92h-.974l.802.589-.313.917.797-.56.796.56-.3-.932.837-.574h-1.025l-.308-.92z"/><path fill="none" d="M99.376 8.318l-.313.92h-.974l.802.589-.313.917.797-.56.796.56-.3-.932.837-.574h-1.025l-.308-.92z"/><path fill="#fff200" d="M100.682 12.427l-.312.92h-.975l.803.59-.313.916.797-.557.795.557-.3-.93.837-.576h-1.027l-.305-.92z"/><path fill="none" d="M100.682 12.427l-.312.92h-.975l.803.59-.313.916.797-.557.795.557-.3-.93.837-.576h-1.027l-.305-.92z"/><path fill="#fff200" d="M99.376 16.496l-.313.92h-.974l.802.591-.313.916.797-.558.796.558-.3-.93.837-.577h-1.025l-.308-.92z"/><path fill="none" d="M99.376 16.496l-.313.92h-.974l.802.591-.313.916.797-.558.796.558-.3-.93.837-.577h-1.025l-.308-.92z"/><path fill="#fff200" d="M96.54 19.515l-.313.922h-.975l.803.589-.312.916.797-.558.795.558-.3-.932.837-.573h-1.025l-.306-.922z"/><path fill="none" d="M96.54 19.515l-.313.922h-.975l.803.589-.312.916.797-.558.795.558-.3-.932.837-.573h-1.025l-.306-.922z"/><g fill="#231f20"><path d="M31.373 39.026l1.905-5.355h-.742l-1.545 4.642h-.015l-1.53-4.642h-.765l1.882 5.355h.81zM34.283 34.45v-.78h-.637v.78h.637zm-.637.698v3.878h.637v-3.878h-.637zM38.033 34.45v-.78h-.637v.78h.637zm-.637.698v3.878h.637v-3.878h-.637zM39.023 35.148v3.878h.638v-2.19c0-.175.023-.337.07-.484.048-.148.12-.276.215-.386a.95.95 0 0 1 .356-.255 1.3 1.3 0 0 1 .506-.09c.245 0 .438.07.578.21.14.14.21.33.21.57v2.625h.637v-2.55c0-.21-.021-.402-.064-.574a1.087 1.087 0 0 0-.22-.446 1.048 1.048 0 0 0-.413-.293 1.683 1.683 0 0 0-.638-.105c-.575 0-.995.235-1.26.705h-.015v-.615h-.6zM44.94 39.026l1.418-3.878h-.667l-1.058 3.233h-.015l-1.087-3.233h-.713l1.44 3.878h.683zM49.636 36.716h-2.228c.01-.15.043-.292.098-.424a1.13 1.13 0 0 1 .225-.349c.095-.1.208-.179.34-.236a1.11 1.11 0 0 1 .447-.086 1.09 1.09 0 0 1 1.016.667c.058.135.092.278.102.428zm.615 1.08h-.63c-.055.255-.17.445-.342.57-.172.125-.393.187-.663.187a1.32 1.32 0 0 1-.548-.105 1.073 1.073 0 0 1-.6-.686 1.54 1.54 0 0 1-.06-.484h2.903a3.087 3.087 0 0 0-.064-.742 2.15 2.15 0 0 0-.285-.72 1.698 1.698 0 0 0-.548-.544c-.227-.143-.513-.214-.858-.214a1.719 1.719 0 0 0-1.309.57c-.163.18-.289.393-.379.638-.09.245-.135.515-.135.81.01.295.054.567.131.817.078.25.194.465.35.645.154.18.345.32.573.42.227.1.496.15.806.15.44 0 .805-.11 1.095-.33.29-.22.478-.547.563-.982zM51.36 37.803h-.637c.01.24.06.444.15.611.09.168.21.303.36.405.15.103.323.177.518.222.195.045.4.067.615.067.195 0 .39-.019.588-.056.198-.038.375-.104.533-.199.157-.095.285-.22.382-.375a1.08 1.08 0 0 0 .147-.585.914.914 0 0 0-.11-.465.97.97 0 0 0-.284-.311 1.529 1.529 0 0 0-.405-.199 4.786 4.786 0 0 0-.469-.127c-.15-.035-.3-.07-.45-.102a2.596 2.596 0 0 1-.405-.12.928.928 0 0 1-.296-.18.359.359 0 0 1-.116-.273c0-.1.025-.182.075-.244a.536.536 0 0 1 .195-.15.972.972 0 0 1 .266-.079c.097-.015.194-.022.289-.022.105 0 .208.01.31.033a.954.954 0 0 1 .282.11c.085.05.155.115.21.198a.645.645 0 0 1 .098.311h.637a1.424 1.424 0 0 0-.15-.589 1.01 1.01 0 0 0-.341-.375 1.405 1.405 0 0 0-.491-.195 3.061 3.061 0 0 0-.608-.056c-.17 0-.341.021-.514.064a1.55 1.55 0 0 0-.465.195c-.137.087-.25.201-.337.341a.929.929 0 0 0-.131.503c0 .25.062.445.187.585.125.14.281.248.469.326.187.077.391.137.611.18.22.042.424.09.611.142.188.053.344.122.47.207.124.085.187.21.187.375a.47.47 0 0 1-.09.296.57.57 0 0 1-.23.176c-.092.04-.193.068-.303.083-.11.015-.215.022-.315.022a1.89 1.89 0 0 1-.379-.037 1.063 1.063 0 0 1-.33-.124.678.678 0 0 1-.236-.233.718.718 0 0 1-.097-.356zM55.606 35.148v-1.162h-.638v1.162h-.66v.563h.66v2.467c0 .18.018.325.053.435.035.11.088.195.16.255.073.06.168.101.286.124.117.022.259.034.424.034h.487v-.563h-.292c-.1 0-.182-.004-.244-.011a.315.315 0 0 1-.146-.049.185.185 0 0 1-.072-.105.696.696 0 0 1-.018-.18v-2.407h.772v-.563h-.772zM59.776 36.716h-2.228c.01-.15.043-.292.098-.424a1.13 1.13 0 0 1 .225-.349c.095-.1.208-.179.34-.236a1.11 1.11 0 0 1 .447-.086 1.09 1.09 0 0 1 1.016.667c.058.135.092.278.102.428zm.615 1.08h-.63c-.055.255-.17.445-.342.57-.172.125-.393.187-.663.187a1.32 1.32 0 0 1-.548-.105 1.073 1.073 0 0 1-.6-.686 1.54 1.54 0 0 1-.06-.484h2.903a3.087 3.087 0 0 0-.064-.742 2.15 2.15 0 0 0-.285-.72 1.698 1.698 0 0 0-.548-.544c-.227-.143-.513-.214-.858-.214a1.719 1.719 0 0 0-1.309.57c-.163.18-.289.393-.379.638-.09.245-.135.515-.135.81.01.295.054.567.131.817.078.25.194.465.35.645.154.18.345.32.573.42.227.1.496.15.806.15.44 0 .805-.11 1.095-.33.29-.22.478-.547.563-.982zM61.088 35.148v3.878h.638V37.3c0-.25.025-.472.075-.664.05-.193.13-.356.24-.491.11-.135.255-.238.435-.308s.397-.105.652-.105v-.675c-.345-.01-.63.06-.855.21-.225.15-.415.383-.57.698h-.015v-.818h-.6zM66.166 36.716h-2.228c.01-.15.043-.292.098-.424a1.13 1.13 0 0 1 .225-.349c.095-.1.208-.179.34-.236a1.11 1.11 0 0 1 .447-.086 1.09 1.09 0 0 1 1.016.667c.058.135.092.278.102.428zm.615 1.08h-.63c-.055.255-.17.445-.342.57-.172.125-.393.187-.663.187a1.32 1.32 0 0 1-.548-.105 1.073 1.073 0 0 1-.6-.686 1.54 1.54 0 0 1-.06-.484h2.903a3.087 3.087 0 0 0-.064-.742 2.15 2.15 0 0 0-.285-.72 1.698 1.698 0 0 0-.548-.544c-.227-.143-.513-.214-.858-.214a1.719 1.719 0 0 0-1.309.57c-.163.18-.289.393-.379.638-.09.245-.135.515-.135.81.01.295.054.567.131.817.078.25.194.465.35.645.154.18.345.32.573.42.227.1.496.15.806.15.44 0 .805-.11 1.095-.33.29-.22.478-.547.563-.982zM67.478 35.148v3.878h.638V37.3c0-.25.025-.472.075-.664.05-.193.13-.356.24-.491.11-.135.255-.238.435-.308s.397-.105.652-.105v-.675c-.345-.01-.63.06-.855.21-.225.15-.415.383-.57.698h-.015v-.818h-.6zM72.758 34.45v-.78h-.637v.78h.637zm-.637.698v3.878h.637v-3.878h-.637zM76.298 37.12c0-.19.02-.374.06-.554.04-.18.105-.34.195-.48.09-.14.21-.253.36-.338.15-.085.333-.127.548-.127.22 0 .407.04.562.123.155.083.281.192.379.327.097.135.169.29.214.468a2.234 2.234 0 0 1 .003 1.084 1.396 1.396 0 0 1-.206.469 1.097 1.097 0 0 1-.367.334c-.15.085-.333.127-.548.127-.205 0-.384-.04-.536-.12a1.066 1.066 0 0 1-.375-.322 1.427 1.427 0 0 1-.218-.462 1.983 1.983 0 0 1-.07-.528zm3 1.906V33.67h-.637v1.995h-.015a1.027 1.027 0 0 0-.26-.29 1.47 1.47 0 0 0-.325-.187 1.638 1.638 0 0 0-.345-.1 1.888 1.888 0 0 0-.323-.03c-.295 0-.554.053-.776.16a1.594 1.594 0 0 0-.555.435 1.836 1.836 0 0 0-.33.642 2.735 2.735 0 0 0-.109.78c0 .275.038.535.113.78.075.245.186.46.333.645.148.185.333.332.555.442.223.11.484.165.784.165.27 0 .518-.047.743-.142a.938.938 0 0 0 .495-.465h.015v.525h.637zM80.956 34.45v-.78h-.638v.78h.638zm-.638.698v3.878h.638v-3.878h-.638zM81.946 35.148v3.878h.637v-2.19c0-.175.024-.337.071-.484.048-.148.12-.276.214-.386a.95.95 0 0 1 .356-.255 1.3 1.3 0 0 1 .507-.09c.245 0 .437.07.577.21.14.14.21.33.21.57v2.625h.638v-2.55c0-.21-.022-.402-.064-.574a1.087 1.087 0 0 0-.221-.446 1.048 1.048 0 0 0-.413-.293 1.683 1.683 0 0 0-.637-.105c-.575 0-.995.235-1.26.705h-.015v-.615h-.6zM88.463 35.71v3.316h.638V35.71h.75v-.563h-.75v-.54c0-.17.042-.285.127-.345a.618.618 0 0 1 .36-.09c.055 0 .115.004.18.011a.79.79 0 0 1 .18.042v-.555a1.1 1.1 0 0 0-.206-.045 1.631 1.631 0 0 0-.206-.015c-.35 0-.617.08-.8.243-.182.163-.273.402-.273.717v.577h-.652v.563h.652zM90.398 35.148v3.878h.638V37.3c0-.25.025-.472.075-.664.05-.193.13-.356.24-.491.11-.135.255-.238.435-.308s.397-.105.652-.105v-.675c-.345-.01-.63.06-.855.21-.225.15-.415.383-.57.698h-.015v-.818h-.6zM95.476 36.716h-2.228c.01-.15.043-.292.098-.424a1.13 1.13 0 0 1 .225-.349c.095-.1.208-.179.34-.236a1.11 1.11 0 0 1 .447-.086 1.09 1.09 0 0 1 1.016.667c.058.135.092.278.102.428zm.615 1.08h-.63c-.055.255-.17.445-.342.57-.172.125-.393.187-.663.187a1.32 1.32 0 0 1-.548-.105 1.073 1.073 0 0 1-.6-.686 1.54 1.54 0 0 1-.06-.484h2.903a3.087 3.087 0 0 0-.064-.742 2.15 2.15 0 0 0-.285-.72 1.698 1.698 0 0 0-.548-.544c-.227-.143-.513-.214-.858-.214a1.719 1.719 0 0 0-1.309.57c-.163.18-.289.393-.379.638-.09.245-.135.515-.135.81.01.295.054.567.131.817.078.25.194.465.35.645.154.18.345.32.573.42.227.1.496.15.806.15.44 0 .805-.11 1.095-.33.29-.22.478-.547.563-.982zM96.81 35.148v3.878h.638V36.61a1.083 1.083 0 0 1 .559-.877.952.952 0 0 1 .476-.113c.145 0 .264.02.356.063a.543.543 0 0 1 .222.18.732.732 0 0 1 .116.274c.022.105.034.22.034.345v2.543h.637V36.61c0-.3.09-.54.27-.72.18-.18.428-.27.743-.27.155 0 .281.022.378.067a.56.56 0 0 1 .229.184.69.69 0 0 1 .113.274c.02.105.03.217.03.337v2.543h.637v-2.843c0-.2-.031-.371-.094-.514a.9.9 0 0 0-.262-.348 1.104 1.104 0 0 0-.405-.2 2.035 2.035 0 0 0-.529-.063c-.255 0-.489.058-.701.173a1.35 1.35 0 0 0-.514.487c-.08-.24-.217-.41-.412-.51-.195-.1-.413-.15-.653-.15-.545 0-.962.22-1.252.66h-.015v-.57h-.6zM104.093 35.148v-1.162h-.637v1.162h-.66v.563h.66v2.467c0 .18.017.325.052.435.035.11.089.195.161.255.073.06.168.101.285.124.118.022.259.034.424.034h.488v-.563h-.293c-.1 0-.181-.004-.244-.011a.316.316 0 0 1-.146-.049.183.183 0 0 1-.071-.105.673.673 0 0 1-.019-.18v-2.407h.773v-.563h-.773zM106.246 34.45v-.78h-.638v.78h.638zm-.638.698v3.878h.638v-3.878h-.638zM107.701 37.12c0-.19.02-.374.06-.554.04-.18.105-.34.195-.48.09-.14.21-.253.36-.338.15-.085.332-.127.547-.127.22 0 .408.04.563.123.155.083.281.192.378.327.098.135.169.29.214.468a2.234 2.234 0 0 1 .004 1.084 1.405 1.405 0 0 1-.206.469 1.099 1.099 0 0 1-.368.334c-.15.085-.332.127-.547.127-.205 0-.384-.04-.537-.12a1.075 1.075 0 0 1-.375-.322 1.426 1.426 0 0 1-.217-.462 1.963 1.963 0 0 1-.071-.528zm3 1.906V33.67h-.638v1.995h-.015a1.02 1.02 0 0 0-.259-.29 1.457 1.457 0 0 0-.326-.187 1.638 1.638 0 0 0-.345-.1 1.883 1.883 0 0 0-.322-.03 1.77 1.77 0 0 0-.777.16 1.603 1.603 0 0 0-.555.435 1.853 1.853 0 0 0-.33.642 2.753 2.753 0 0 0-.108.78c0 .275.037.535.112.78.075.245.186.46.334.645.147.185.332.332.555.442.222.11.484.165.784.165.27 0 .517-.047.742-.142a.938.938 0 0 0 .495-.465h.015v.525h.638z"/></g><path fill="none" stroke="#231f20" stroke-linecap="butt" stroke-linejoin="miter" d="M110.701 30.25H.453"/><g fill="#231f20"><path d="M6.242 4.61V1.645H7.1c.236 0 .434.033.594.1.161.066.292.162.394.289.102.126.175.28.22.46.044.18.066.385.066.613 0 .236-.024.437-.072.603-.048.166-.11.304-.185.415a.967.967 0 0 1-.254.262 1.248 1.248 0 0 1-.56.212 2.135 2.135 0 0 1-.214.013h-.846zm-.508-3.394v3.823h1.312c.317 0 .592-.044.824-.134.232-.089.423-.218.573-.388.15-.17.26-.378.332-.626.072-.248.107-.533.107-.854 0-.614-.159-1.071-.476-1.371-.318-.3-.771-.45-1.36-.45H5.734zM9.503 1.216v3.823h2.656v-.428h-2.147V3.288h1.987V2.86h-1.987V1.644h2.131v-.428h-2.64zM12.77 1.216v3.823h.482V1.971h.01l1.998 3.068h.557V1.216h-.482v3.1h-.011l-2.013-3.1h-.541zM18.13 1.216v3.823h2.656v-.428h-2.147V3.288h1.986V2.86H18.64V1.644h2.13v-.428h-2.64zM24.454 3.658V1.216h-.509v2.442c0 .342-.085.602-.254.779-.17.177-.417.265-.742.265-.343 0-.605-.088-.787-.265-.182-.177-.273-.437-.273-.78V1.217h-.509v2.442c0 .51.139.882.415 1.116.277.234.661.351 1.154.351.482 0 .853-.122 1.114-.367.26-.244.39-.611.39-1.1zM25.268 1.216v3.823h.508V3.406h1.243c.125 0 .225.019.3.056a.502.502 0 0 1 .182.15c.046.063.08.136.101.22.022.084.04.172.054.265.018.093.029.187.032.284l.01.27c.004.084.012.16.025.228a.32.32 0 0 0 .072.16h.568a.653.653 0 0 1-.12-.222 1.74 1.74 0 0 1-.062-.265 2.467 2.467 0 0 1-.027-.284 7.098 7.098 0 0 0-.016-.284 2.467 2.467 0 0 0-.046-.267.813.813 0 0 0-.09-.233.585.585 0 0 0-.167-.18.68.68 0 0 0-.27-.107v-.01c.232-.065.4-.184.506-.36a1.16 1.16 0 0 0 .158-.61c0-.31-.103-.555-.308-.733-.205-.179-.49-.268-.854-.268h-1.8zm1.569 1.762h-1.06V1.644h1.263c.24 0 .413.061.52.182.107.122.16.279.16.472 0 .139-.024.252-.072.34a.572.572 0 0 1-.193.209.737.737 0 0 1-.281.104 2.05 2.05 0 0 1-.337.027zM29.23 3.128c0-.193.025-.383.075-.57a1.55 1.55 0 0 1 .236-.507c.107-.15.244-.27.412-.361a1.24 1.24 0 0 1 .6-.137c.232 0 .432.046.6.137.167.091.305.211.412.361.107.15.186.319.235.506a2.203 2.203 0 0 1 0 1.141c-.05.187-.128.356-.235.506-.107.15-.245.27-.412.361a1.24 1.24 0 0 1-.6.137 1.24 1.24 0 0 1-.6-.137 1.205 1.205 0 0 1-.412-.361 1.549 1.549 0 0 1-.236-.506 2.203 2.203 0 0 1-.075-.57zm-.508 0c0 .26.038.511.115.752.076.241.192.454.345.64.154.186.345.333.573.442.229.109.494.163.798.163.303 0 .57-.054.798-.163.228-.11.42-.256.573-.442.153-.186.268-.399.345-.64.077-.24.115-.492.115-.752s-.038-.512-.115-.753a1.897 1.897 0 0 0-.345-.64 1.686 1.686 0 0 0-.573-.444 1.81 1.81 0 0 0-.798-.166c-.304 0-.57.055-.798.166-.228.11-.42.259-.573.444a1.895 1.895 0 0 0-.345.64 2.462 2.462 0 0 0-.115.753zM33.514 3.047V1.644h.996c.29 0 .5.06.635.18.133.12.2.293.2.522 0 .228-.067.403-.2.525-.134.121-.346.18-.635.176h-.996zm-.509-1.831v3.823h.51V3.476h1.166c.386.003.678-.095.876-.295.198-.2.297-.478.297-.835s-.099-.635-.297-.833c-.198-.198-.49-.297-.876-.297h-1.676zM38.237 1.644h.22v1.853h-1.12l.9-1.853zm-.284-.428l-1.928 3.823h.568l.546-1.113h1.317v1.113h2.394v-.428h-1.912V3.288h1.767V2.86h-1.767V1.644h1.88v-.428h-2.865zM41.455 1.216v3.823h.509V1.216h-.509zM45.032 2.335h.482a1.348 1.348 0 0 0-.12-.543 1.06 1.06 0 0 0-.3-.378 1.237 1.237 0 0 0-.442-.22 2.042 2.042 0 0 0-1.058-.002 1.406 1.406 0 0 0-.444.203 1.03 1.03 0 0 0-.313.348 1.012 1.012 0 0 0-.118.501c0 .175.035.32.104.437.07.116.163.21.279.283.116.074.247.132.393.177.147.045.296.084.447.118l.448.099c.146.032.277.074.393.126a.767.767 0 0 1 .279.2.48.48 0 0 1 .104.322c0 .14-.029.253-.086.343a.624.624 0 0 1-.225.211 1.017 1.017 0 0 1-.313.11 1.9 1.9 0 0 1-.345.032c-.143 0-.282-.018-.418-.054a1.04 1.04 0 0 1-.356-.166.853.853 0 0 1-.246-.286.863.863 0 0 1-.094-.415h-.482c0 .232.042.433.126.602.084.17.198.31.343.418.144.109.312.19.503.244a2.325 2.325 0 0 0 1.135.019c.177-.042.337-.108.48-.199.142-.09.26-.209.35-.353a.96.96 0 0 0 .137-.522.959.959 0 0 0-.105-.471.93.93 0 0 0-.278-.311 1.475 1.475 0 0 0-.394-.195 5.333 5.333 0 0 0-.447-.126c-.152-.036-.3-.069-.447-.1a2.346 2.346 0 0 1-.394-.114.774.774 0 0 1-.278-.18.399.399 0 0 1-.104-.286.62.62 0 0 1 .072-.314.562.562 0 0 1 .193-.2.84.84 0 0 1 .275-.107c.104-.022.21-.033.316-.033.264 0 .481.062.65.185.17.123.27.322.298.597zM46.29 1.216v3.823h.51V3.701l.636-.595 1.382 1.933h.643l-1.676-2.28 1.611-1.543h-.658l-1.939 1.906V1.216h-.508zM49.862 1.216v3.823h2.656v-.428h-2.147V3.288h1.986V2.86h-1.986V1.644h2.131v-.428h-2.64zM57.675 3.658V1.216h-.509v2.442c0 .342-.085.602-.254.779-.17.177-.417.265-.742.265-.343 0-.605-.088-.787-.265-.182-.177-.273-.437-.273-.78V1.217H54.6v2.442c0 .51.138.882.415 1.116.277.234.661.351 1.154.351.482 0 .853-.122 1.114-.367.26-.244.39-.611.39-1.1zM58.483 1.216v3.823h.482V1.971h.01l1.998 3.068h.557V1.216h-.482v3.1h-.01l-2.014-3.1h-.54zM62.376 1.216v3.823h.509V1.216h-.509zM64.036 3.128c0-.193.025-.383.075-.57a1.55 1.55 0 0 1 .236-.507c.107-.15.244-.27.412-.361a1.24 1.24 0 0 1 .6-.137c.232 0 .432.046.6.137.167.091.305.211.412.361.107.15.185.319.235.506a2.203 2.203 0 0 1 0 1.141c-.05.187-.128.356-.235.506-.107.15-.245.27-.412.361a1.24 1.24 0 0 1-.6.137 1.24 1.24 0 0 1-.6-.137 1.205 1.205 0 0 1-.412-.361 1.549 1.549 0 0 1-.236-.506 2.203 2.203 0 0 1-.075-.57zm-.509 0c0 .26.039.511.116.752.076.241.191.454.345.64.153.186.344.333.573.442.228.109.494.163.798.163.303 0 .57-.054.798-.163.228-.11.42-.256.573-.442.153-.186.268-.399.345-.64.077-.24.115-.492.115-.752s-.038-.512-.115-.753a1.897 1.897 0 0 0-.345-.64 1.686 1.686 0 0 0-.573-.444 1.81 1.81 0 0 0-.798-.166c-.304 0-.57.055-.798.166-.229.11-.42.259-.573.444a1.893 1.893 0 0 0-.345.64 2.462 2.462 0 0 0-.116.753zM67.806 1.216v3.823h.482V1.971h.01l1.998 3.068h.557V1.216h-.482v3.1h-.01l-2.014-3.1h-.541z"/></g><g fill="#231f20"><path d="M5.287 25.35v-2.984h.862c.237 0 .436.033.598.1a.97.97 0 0 1 .396.29c.103.128.176.282.221.464.045.181.067.387.067.617 0 .237-.024.439-.072.606-.049.167-.11.306-.186.417a.973.973 0 0 1-.256.264 1.257 1.257 0 0 1-.563.213 2.138 2.138 0 0 1-.216.014h-.851zm-.512-3.415v3.847h1.32c.32 0 .596-.045.83-.135.233-.09.426-.22.576-.39.151-.171.263-.382.334-.631.072-.25.108-.536.108-.86 0-.617-.16-1.077-.48-1.379-.319-.302-.775-.452-1.368-.452h-1.32zM10.427 24.122h-1.6a.954.954 0 0 1 .07-.304.813.813 0 0 1 .162-.25.74.74 0 0 1 .245-.17.798.798 0 0 1 .32-.063.784.784 0 0 1 .73.48c.042.097.066.2.073.307zm.442.776h-.453a.651.651 0 0 1-.245.41.793.793 0 0 1-.477.134.948.948 0 0 1-.393-.075.771.771 0 0 1-.431-.493 1.105 1.105 0 0 1-.043-.348h2.085a2.218 2.218 0 0 0-.046-.533 1.544 1.544 0 0 0-.204-.517 1.221 1.221 0 0 0-.394-.391 1.143 1.143 0 0 0-.617-.154 1.236 1.236 0 0 0-.94.41c-.117.13-.207.282-.272.458-.065.176-.097.37-.097.582.007.212.039.407.094.587.056.18.14.334.25.463.112.13.25.23.413.302.163.072.356.108.58.108.315 0 .578-.08.786-.237.208-.158.343-.393.404-.706zM11.386 22.996v2.786h.458v-1.574c0-.125.017-.241.051-.347a.788.788 0 0 1 .154-.278.681.681 0 0 1 .256-.183.934.934 0 0 1 .364-.064.56.56 0 0 1 .414.15c.1.1.151.237.151.41v1.886h.458V23.95c0-.151-.015-.289-.046-.412a.78.78 0 0 0-.159-.321.753.753 0 0 0-.296-.21 1.209 1.209 0 0 0-.458-.076c-.413 0-.715.17-.905.507h-.01v-.442h-.432zM15.955 21.935v3.847h2.673v-.431h-2.161V24.02h1.999v-.431h-1.999v-1.223h2.144v-.431h-2.656zM21.478 25.782v-2.786h-.458v1.573c0 .126-.017.242-.051.348a.788.788 0 0 1-.154.277.681.681 0 0 1-.256.184.934.934 0 0 1-.364.064.56.56 0 0 1-.415-.15.554.554 0 0 1-.15-.41v-1.886h-.458v1.832c0 .15.015.288.046.412a.73.73 0 0 0 .455.528c.122.049.275.073.458.073.204 0 .382-.04.533-.121a.935.935 0 0 0 .372-.38h.01v.442h.432zM22.151 22.996v2.786h.458v-1.24c0-.18.018-.338.054-.477a.914.914 0 0 1 .172-.352.739.739 0 0 1 .313-.221c.13-.05.286-.076.469-.076v-.485c-.248-.007-.453.043-.614.151a1.242 1.242 0 0 0-.41.501h-.01v-.587h-.432zM24.199 24.392c0-.17.022-.32.067-.45a.972.972 0 0 1 .186-.332.791.791 0 0 1 .277-.204.825.825 0 0 1 .337-.07c.119 0 .23.023.337.07a.792.792 0 0 1 .277.204c.08.09.141.2.186.332.045.13.068.28.068.45 0 .168-.023.318-.068.45a.94.94 0 0 1-.186.328.806.806 0 0 1-.614.272.825.825 0 0 1-.614-.272.941.941 0 0 1-.186-.329 1.386 1.386 0 0 1-.067-.45zm-.485 0c0 .204.029.395.086.57.057.177.144.33.259.461.114.131.256.234.425.307.169.074.363.11.582.11.223 0 .418-.036.585-.11.167-.073.308-.176.423-.307.115-.13.2-.284.258-.46.058-.176.087-.367.087-.572 0-.204-.03-.395-.087-.573a1.3 1.3 0 0 0-.258-.464 1.224 1.224 0 0 0-.423-.31 1.41 1.41 0 0 0-.585-.113c-.219 0-.413.038-.582.113-.169.076-.31.18-.425.31a1.3 1.3 0 0 0-.26.464c-.056.177-.085.369-.085.573zM26.973 22.996v3.847h.458V25.41h.011c.05.082.112.152.186.207a.98.98 0 0 0 .234.132 1.372 1.372 0 0 0 1.037-.022c.16-.075.293-.178.4-.31a1.32 1.32 0 0 0 .236-.46c.052-.176.078-.363.078-.56 0-.198-.026-.384-.08-.56a1.415 1.415 0 0 0-.24-.466 1.144 1.144 0 0 0-.399-.321 1.256 1.256 0 0 0-.563-.119c-.194 0-.372.035-.533.105a.685.685 0 0 0-.356.337h-.01v-.377h-.459zm2.156 1.369c0 .136-.015.269-.044.398-.028.13-.075.244-.14.345a.734.734 0 0 1-.256.242.783.783 0 0 1-.395.092.784.784 0 0 1-.676-.323.98.98 0 0 1-.154-.337 1.606 1.606 0 0 1-.003-.778c.03-.126.08-.238.148-.337a.788.788 0 0 1 .264-.24.786.786 0 0 1 .393-.091.767.767 0 0 1 .655.318c.07.096.122.207.156.33.034.125.052.251.052.38zM32.324 24.526h2.042c0-.215-.02-.42-.06-.614a1.42 1.42 0 0 0-.204-.51 1.035 1.035 0 0 0-.386-.344 1.29 1.29 0 0 0-.606-.127c-.169 0-.336.032-.5.095a.78.78 0 0 0-.389.31.585.585 0 0 0-.172-.21.832.832 0 0 0-.237-.125 1.218 1.218 0 0 0-.264-.056 2.625 2.625 0 0 0-.259-.014c-.154 0-.302.017-.442.049s-.264.085-.371.159a.815.815 0 0 0-.259.288.989.989 0 0 0-.108.436h.458c.011-.204.081-.343.21-.417a.969.969 0 0 1 .485-.11c.076 0 .151.004.226.013a.591.591 0 0 1 .203.06.38.38 0 0 1 .145.131.406.406 0 0 1 .057.227.3.3 0 0 1-.054.19.364.364 0 0 1-.167.108c-.076.027-.174.05-.294.068-.12.018-.265.043-.434.075a3.653 3.653 0 0 0-.347.081.976.976 0 0 0-.302.143.705.705 0 0 0-.213.245c-.054.1-.08.23-.08.388 0 .14.024.26.072.358.049.1.115.18.2.243a.799.799 0 0 0 .299.134c.114.027.238.04.371.04.259 0 .493-.041.704-.126a.902.902 0 0 0 .47-.412.832.832 0 0 0 .413.423c.088.041.182.07.283.089.1.018.205.027.313.027.316 0 .579-.08.789-.24.21-.16.35-.392.417-.698h-.468a.651.651 0 0 1-.256.407.772.772 0 0 1-.45.132.879.879 0 0 1-.37-.073.708.708 0 0 1-.26-.199.864.864 0 0 1-.154-.294 1.19 1.19 0 0 1-.051-.35zm-1.838.507c0-.087.016-.158.046-.216a.425.425 0 0 1 .121-.143.586.586 0 0 1 .178-.088c.068-.022.14-.04.216-.054a3.51 3.51 0 0 1 .229-.038c.08-.01.159-.023.234-.035.075-.013.146-.028.213-.046a.643.643 0 0 0 .17-.07v.469a.494.494 0 0 1-.052.207.635.635 0 0 1-.156.205.845.845 0 0 1-.27.156 1.108 1.108 0 0 1-.592.04.497.497 0 0 1-.172-.07.38.38 0 0 1-.119-.126.372.372 0 0 1-.046-.191zm3.395-.91h-1.557c0-.116.018-.22.053-.316a.708.708 0 0 1 .405-.412.865.865 0 0 1 .328-.06c.122 0 .231.021.326.062a.701.701 0 0 1 .24.167c.065.07.114.154.148.251.034.097.053.2.057.307zM35.325 22.495v-.56h-.458v.56h.458zm-.458.501v2.786h.458v-2.786h-.458zM36.316 24.903h-.458c.007.173.043.32.108.44a.81.81 0 0 0 .258.29c.108.074.232.127.372.16.14.032.288.048.442.048.14 0 .281-.014.423-.04a1.15 1.15 0 0 0 .383-.143.823.823 0 0 0 .274-.27.777.777 0 0 0 .105-.42.656.656 0 0 0-.078-.334.697.697 0 0 0-.204-.224 1.096 1.096 0 0 0-.291-.142 3.43 3.43 0 0 0-.337-.092c-.108-.025-.216-.05-.323-.073a1.854 1.854 0 0 1-.291-.086.666.666 0 0 1-.213-.13.258.258 0 0 1-.084-.196c0-.072.018-.13.054-.175a.385.385 0 0 1 .14-.108.7.7 0 0 1 .192-.056c.07-.011.139-.017.207-.017.075 0 .15.008.224.025a.686.686 0 0 1 .202.078.458.458 0 0 1 .15.143c.04.059.063.133.07.223h.459a1.024 1.024 0 0 0-.108-.423.724.724 0 0 0-.245-.27 1.008 1.008 0 0 0-.353-.14 2.195 2.195 0 0 0-.437-.04c-.122 0-.245.016-.369.046s-.235.077-.334.14a.771.771 0 0 0-.242.245.667.667 0 0 0-.095.361c0 .18.045.32.135.42.09.101.202.18.337.235.134.056.28.099.439.13.158.03.304.064.44.102.134.037.246.087.336.148.09.06.135.15.135.27a.337.337 0 0 1-.065.212.409.409 0 0 1-.164.127.832.832 0 0 1-.219.059c-.079.01-.154.016-.226.016-.093 0-.184-.009-.272-.027a.764.764 0 0 1-.237-.089.488.488 0 0 1-.17-.167.516.516 0 0 1-.07-.256zM38.757 21.935v3.847h.458v-1.056l.43-.4.954 1.456h.582l-1.185-1.773 1.105-1.013h-.615l-1.271 1.218v-2.28h-.458zM43.46 24.122h-1.6a.954.954 0 0 1 .07-.304.812.812 0 0 1 .162-.25.74.74 0 0 1 .245-.17.798.798 0 0 1 .32-.063.784.784 0 0 1 .73.48c.042.097.066.2.074.307zm.442.776h-.452a.651.651 0 0 1-.245.41.793.793 0 0 1-.477.134.949.949 0 0 1-.394-.075.772.772 0 0 1-.43-.493 1.106 1.106 0 0 1-.044-.348h2.085a2.218 2.218 0 0 0-.045-.533 1.544 1.544 0 0 0-.205-.517 1.221 1.221 0 0 0-.393-.391 1.143 1.143 0 0 0-.617-.154 1.237 1.237 0 0 0-.94.41c-.117.13-.208.282-.273.458-.064.176-.097.37-.097.582.008.212.039.407.095.587.055.18.139.334.25.463.112.13.249.23.412.302.164.072.357.108.58.108.316 0 .578-.08.786-.237.209-.158.343-.393.404-.706zM48.218 23.06h.485a1.355 1.355 0 0 0-.121-.546 1.064 1.064 0 0 0-.302-.38 1.244 1.244 0 0 0-.444-.221 2.055 2.055 0 0 0-1.065-.003 1.415 1.415 0 0 0-.447.205 1.036 1.036 0 0 0-.315.35 1.02 1.02 0 0 0-.118.504c0 .176.035.322.105.44.07.116.163.211.28.285.116.073.248.133.396.178.147.044.297.084.45.118l.45.1c.147.032.279.074.395.126.117.052.21.12.28.202.07.083.106.19.106.324 0 .14-.029.255-.087.345a.627.627 0 0 1-.226.212 1.024 1.024 0 0 1-.315.11 1.907 1.907 0 0 1-.348.033c-.143 0-.283-.018-.42-.054a1.045 1.045 0 0 1-.358-.167.857.857 0 0 1-.248-.288.87.87 0 0 1-.094-.418h-.485c0 .234.042.436.127.607.084.17.199.31.344.42.146.11.315.191.507.245a2.34 2.34 0 0 0 1.142.019c.178-.041.339-.108.482-.2.144-.091.262-.21.353-.355a.966.966 0 0 0 .138-.526.964.964 0 0 0-.105-.474.936.936 0 0 0-.28-.312 1.486 1.486 0 0 0-.397-.197 5.434 5.434 0 0 0-.45-.126c-.152-.036-.302-.07-.45-.1a2.36 2.36 0 0 1-.395-.116.777.777 0 0 1-.28-.18.4.4 0 0 1-.106-.289.565.565 0 0 1 .267-.517.842.842 0 0 1 .277-.108c.105-.021.21-.032.318-.032.266 0 .484.062.655.186.17.124.27.324.299.6zM49.743 24.392c0-.17.022-.32.067-.45a.97.97 0 0 1 .186-.332.792.792 0 0 1 .277-.204.826.826 0 0 1 .337-.07c.119 0 .231.023.337.07a.791.791 0 0 1 .277.204c.08.09.142.2.186.332.045.13.068.28.068.45 0 .168-.023.318-.068.45a.941.941 0 0 1-.185.328.805.805 0 0 1-.615.272.826.826 0 0 1-.614-.272.94.94 0 0 1-.186-.329 1.386 1.386 0 0 1-.067-.45zm-.485 0c0 .204.029.395.086.57.058.177.144.33.259.461.115.131.257.234.425.307.17.074.363.11.582.11.223 0 .418-.036.585-.11.167-.073.308-.176.423-.307.115-.13.201-.284.258-.46.058-.176.087-.367.087-.572 0-.204-.03-.395-.087-.573a1.3 1.3 0 0 0-.258-.464 1.224 1.224 0 0 0-.423-.31 1.41 1.41 0 0 0-.585-.113c-.219 0-.413.038-.582.113a1.219 1.219 0 0 0-.684.774c-.057.177-.086.369-.086.573zM54.393 23.89h.474a1.1 1.1 0 0 0-.13-.428.955.955 0 0 0-.26-.299 1.084 1.084 0 0 0-.367-.175 1.683 1.683 0 0 0-.445-.057c-.219 0-.411.039-.576.116a1.15 1.15 0 0 0-.412.318c-.11.135-.192.293-.246.474-.053.182-.08.377-.08.585 0 .208.027.4.083.574.056.174.138.324.248.45.11.125.246.222.41.29.163.069.35.103.563.103.355 0 .636-.094.843-.28.206-.187.335-.453.385-.798h-.469c-.029.216-.107.383-.234.501-.128.119-.305.178-.53.178a.722.722 0 0 1-.625-.315 1.008 1.008 0 0 1-.144-.326 1.552 1.552 0 0 1-.045-.377c0-.14.014-.276.043-.407.028-.131.076-.247.142-.348a.738.738 0 0 1 .267-.242.853.853 0 0 1 .415-.091c.194 0 .348.048.463.145.115.097.19.233.227.41zM55.88 22.495v-.56h-.458v.56h.458zm-.458.501v2.786h.458v-2.786h-.458zM59.059 25.77a.648.648 0 0 1-.33.07.394.394 0 0 1-.282-.099c-.07-.066-.105-.175-.105-.326-.126.151-.272.26-.44.326-.166.067-.347.1-.54.1-.126 0-.246-.015-.359-.043a.832.832 0 0 1-.294-.135.646.646 0 0 1-.196-.24.807.807 0 0 1-.073-.358c0-.158.027-.287.08-.388a.706.706 0 0 1 .214-.245.975.975 0 0 1 .301-.143c.114-.032.23-.06.348-.08.126-.026.245-.045.358-.057.113-.013.213-.03.3-.054a.499.499 0 0 0 .204-.102c.05-.045.075-.111.075-.197 0-.1-.018-.182-.056-.243a.388.388 0 0 0-.146-.14.593.593 0 0 0-.199-.064 1.502 1.502 0 0 0-.218-.017.969.969 0 0 0-.485.11c-.13.075-.2.214-.21.418h-.458a.99.99 0 0 1 .108-.436.817.817 0 0 1 .258-.288c.108-.074.23-.127.37-.16.138-.031.286-.048.444-.048.125 0 .25.01.374.027a.98.98 0 0 1 .337.11c.1.056.181.135.242.235a.75.75 0 0 1 .092.393v1.434c0 .107.006.186.019.237.012.05.055.075.127.075.039 0 .086-.009.14-.027v.356zm-.744-1.427a.57.57 0 0 1-.226.094c-.094.02-.191.036-.294.049a9.83 9.83 0 0 0-.31.043 1.137 1.137 0 0 0-.28.078.51.51 0 0 0-.202.154.43.43 0 0 0-.078.272c0 .075.015.139.046.19.03.053.07.095.118.128a.496.496 0 0 0 .17.07.94.94 0 0 0 .205.021c.15 0 .28-.02.388-.062a.816.816 0 0 0 .264-.156.616.616 0 0 0 .15-.205.517.517 0 0 0 .049-.207v-.469zM59.511 21.935v3.847h.458v-3.847h-.458zM60.869 23.4v2.382h.458V23.4h.539v-.404h-.54v-.388c0-.122.031-.205.093-.248a.444.444 0 0 1 .258-.064c.04 0 .083.002.13.008.046.005.09.015.129.03v-.4a1.17 1.17 0 0 0-.296-.043c-.252 0-.443.059-.574.176-.132.116-.197.288-.197.514v.415H60.4v.404h.469zM62.61 24.392c0-.17.022-.32.067-.45a.971.971 0 0 1 .185-.332.793.793 0 0 1 .615-.274c.118 0 .23.023.336.07a.791.791 0 0 1 .278.204c.079.09.14.2.186.332.045.13.067.28.067.45 0 .168-.022.318-.067.45a.941.941 0 0 1-.186.328.805.805 0 0 1-.614.272.826.826 0 0 1-.615-.272.941.941 0 0 1-.185-.329 1.386 1.386 0 0 1-.068-.45zm-.486 0c0 .204.029.395.087.57.057.177.143.33.258.461.115.131.257.234.426.307.169.074.363.11.582.11.222 0 .417-.036.584-.11.167-.073.308-.176.423-.307.115-.13.201-.284.259-.46.057-.176.086-.367.086-.572 0-.204-.029-.395-.086-.573a1.298 1.298 0 0 0-.259-.464 1.224 1.224 0 0 0-.423-.31 1.41 1.41 0 0 0-.584-.113c-.22 0-.413.038-.582.113a1.218 1.218 0 0 0-.684.774c-.058.177-.087.369-.087.573zM65.368 22.996v2.786h.458v-1.574c0-.125.017-.241.051-.347a.79.79 0 0 1 .154-.278.683.683 0 0 1 .255-.183.933.933 0 0 1 .364-.064.56.56 0 0 1 .415.15c.1.1.15.237.15.41v1.886h.459V23.95c0-.151-.015-.289-.046-.412a.78.78 0 0 0-.159-.321.753.753 0 0 0-.296-.21 1.209 1.209 0 0 0-.458-.076c-.413 0-.715.17-.905.507h-.011v-.442h-.431zM68.698 24.413c0-.136.014-.27.043-.399.028-.129.075-.244.14-.345a.728.728 0 0 1 .652-.334.785.785 0 0 1 .676.323.98.98 0 0 1 .153.337 1.602 1.602 0 0 1 .003.779c-.03.126-.08.238-.148.337a.788.788 0 0 1-.264.24.786.786 0 0 1-.393.091.766.766 0 0 1-.655-.318 1.026 1.026 0 0 1-.156-.331 1.421 1.421 0 0 1-.051-.38zm2.155 1.369v-3.847h-.458v1.433h-.011a.738.738 0 0 0-.186-.208 1.052 1.052 0 0 0-.234-.134 1.174 1.174 0 0 0-.248-.073 1.353 1.353 0 0 0-.232-.022c-.212 0-.398.039-.557.116-.16.077-.293.182-.4.313a1.32 1.32 0 0 0-.236.46 1.964 1.964 0 0 0-.078.56c0 .198.027.385.08.561.054.176.134.33.24.463.106.133.24.24.399.318.16.08.347.119.563.119.194 0 .372-.034.533-.103a.674.674 0 0 0 .356-.334h.01v.378h.459z"/></g></g></svg>