<svg xmlns="http://www.w3.org/2000/svg" xmlns:vectornator="http://vectornator.io" fill-rule="evenodd" stroke-linecap="round" stroke-linejoin="round" clip-rule="evenodd" viewBox="0 0 112.178 69.75"><g vectornator:layerName="Lag 1"><path fill="#074ea2" d="M73.321 29.583h38.124v26.228H73.321V29.583z"/><path fill="#fff" d="M110.712 28.85H72.589v27.694H112.177V28.848h-1.465zm-36.658 1.465h36.658v24.762H74.054V30.317z"/><path fill="#fff200" d="M88.325 34.2l.312.92h.975l-.803.59.312.915-.796-.557-.795.557.3-.93-.837-.575h1.026l.306-.92zM85.489 37.167l.312.92h.975l-.803.589.313.917-.797-.559-.795.559.3-.932-.837-.574h1.026l.306-.92zM92.438 33.251l.311.921h.976l-.804.589.312.916-.795-.557-.797.557.301-.93-.838-.575h1.027l.307-.921zM84.183 41.276l.312.92h.974l-.802.59.312.916-.796-.557-.796.557.301-.93-.838-.576h1.027l.306-.92zM85.489 45.346l.312.92h.975l-.803.59.313.917-.797-.558-.795.558.3-.931-.837-.576h1.026l.306-.92zM88.325 48.364l.312.922h.975l-.803.59.312.915-.796-.558-.795.558.3-.932-.837-.573h1.026l.306-.922zM92.438 49.424l.311.92h.976l-.804.59.312.917-.795-.557-.797.557.301-.931-.838-.575h1.027l.307-.921zM96.55 34.2l-.313.92h-.975l.803.59-.312.915.797-.557.795.557-.3-.93.836-.575h-1.025l-.306-.92zM99.385 37.167l-.312.92H98.1l.802.589-.313.917.797-.559.795.559-.3-.932.837-.574h-1.025l-.307-.92zM100.692 41.276l-.312.92h-.975l.803.59-.313.916.797-.557.795.557-.3-.93.837-.576h-1.027l-.305-.92zM99.385 45.346l-.312.92H98.1l.802.59-.313.917.797-.558.795.558-.3-.931.837-.576h-1.025l-.307-.92zM96.55 48.364l-.313.922h-.975l.803.59-.312.915.797-.558.795.558-.3-.932.836-.573h-1.025l-.306-.922z"/><path fill="#fff200" d="M88.325 34.2l.312.92h.975l-.803.59.312.915-.796-.557-.795.557.3-.93-.837-.575h1.026l.306-.92z"/><path fill="none" d="M88.325 34.2l.312.92h.975l-.803.59.312.915-.796-.557-.795.557.3-.93-.837-.575h1.026l.306-.92z"/><path fill="#fff200" d="M85.489 37.167l.312.92h.975l-.803.589.313.917-.797-.559-.795.559.3-.932-.837-.574h1.026l.306-.92z"/><path fill="none" d="M85.489 37.167l.312.92h.975l-.803.589.313.917-.797-.559-.795.559.3-.932-.837-.574h1.026l.306-.92z"/><path fill="#fff200" d="M92.438 33.251l.311.921h.976l-.804.589.312.916-.795-.557-.797.557.301-.93-.838-.575h1.027l.307-.921z"/><path fill="none" d="M92.438 33.251l.311.921h.976l-.804.589.312.916-.795-.557-.797.557.301-.93-.838-.575h1.027l.307-.921z"/><path fill="#fff200" d="M84.183 41.276l.312.92h.974l-.802.59.312.916-.796-.557-.796.557.301-.93-.838-.576h1.027l.306-.92z"/><path fill="none" d="M84.183 41.276l.312.92h.974l-.802.59.312.916-.796-.557-.796.557.301-.93-.838-.576h1.027l.306-.92z"/><path fill="#fff200" d="M85.489 45.346l.312.92h.975l-.803.59.313.917-.797-.558-.795.558.3-.931-.837-.576h1.026l.306-.92z"/><path fill="none" d="M85.489 45.346l.312.92h.975l-.803.59.313.917-.797-.558-.795.558.3-.931-.837-.576h1.026l.306-.92z"/><path fill="#fff200" d="M88.325 48.364l.312.922h.975l-.803.59.312.915-.796-.558-.795.558.3-.932-.837-.573h1.026l.306-.922z"/><path fill="none" d="M88.325 48.364l.312.922h.975l-.803.59.312.915-.796-.558-.795.558.3-.932-.837-.573h1.026l.306-.922z"/><path fill="#fff200" d="M92.438 49.424l.311.92h.976l-.804.59.312.917-.795-.557-.797.557.301-.931-.838-.575h1.027l.307-.921z"/><path fill="none" d="M92.438 49.424l.311.92h.976l-.804.59.312.917-.795-.557-.797.557.301-.931-.838-.575h1.027l.307-.921z"/><path fill="#fff200" d="M96.55 34.2l-.313.92h-.975l.803.59-.312.915.797-.557.795.557-.3-.93.836-.575h-1.025l-.306-.92z"/><path fill="none" d="M96.55 34.2l-.313.92h-.975l.803.59-.312.915.797-.557.795.557-.3-.93.836-.575h-1.025l-.306-.92z"/><path fill="#fff200" d="M99.385 37.167l-.312.92H98.1l.802.589-.313.917.797-.559.795.559-.3-.932.837-.574h-1.025l-.307-.92z"/><path fill="none" d="M99.385 37.167l-.312.92H98.1l.802.589-.313.917.797-.559.795.559-.3-.932.837-.574h-1.025l-.307-.92z"/><path fill="#fff200" d="M100.692 41.276l-.312.92h-.975l.803.59-.313.916.797-.557.795.557-.3-.93.837-.576h-1.027l-.305-.92z"/><path fill="none" d="M100.692 41.276l-.312.92h-.975l.803.59-.313.916.797-.557.795.557-.3-.93.837-.576h-1.027l-.305-.92z"/><path fill="#fff200" d="M99.385 45.346l-.312.92H98.1l.802.59-.313.917.797-.558.795.558-.3-.931.837-.576h-1.025l-.307-.92z"/><path fill="none" d="M99.385 45.346l-.312.92H98.1l.802.59-.313.917.797-.558.795.558-.3-.931.837-.576h-1.025l-.307-.92z"/><path fill="#fff200" d="M96.55 48.364l-.313.922h-.975l.803.59-.312.915.797-.558.795.558-.3-.932.836-.573h-1.025l-.306-.922z"/><path fill="none" d="M96.55 48.364l-.313.922h-.975l.803.59-.312.915.797-.558.795.558-.3-.932.836-.573h-1.025l-.306-.922z"/><g fill="#231f20"><path d="M35.407 67.522l1.809-5.083h-.705l-1.467 4.407h-.014l-1.453-4.407h-.726l1.787 5.083h.77zM38.17 63.18v-.741h-.606v.74h.606zm-.606.661v3.681h.606v-3.68h-.606zM41.73 63.18v-.741h-.606v.74h.605zm-.606.661v3.681h.605v-3.68h-.605zM42.67 63.841v3.681h.605v-2.079c0-.166.022-.319.067-.459.045-.14.113-.262.203-.367a.901.901 0 0 1 .338-.242c.136-.057.296-.085.48-.085.233 0 .416.066.55.2.132.132.198.312.198.54v2.492h.606v-2.42c0-.2-.02-.382-.06-.545a1.032 1.032 0 0 0-.21-.424.995.995 0 0 0-.393-.277 1.596 1.596 0 0 0-.605-.1c-.546 0-.944.223-1.196.67h-.014v-.585h-.57zM48.287 67.522l1.346-3.68h-.634l-1.004 3.068h-.014l-1.033-3.069h-.676l1.367 3.681h.648zM52.744 65.33h-2.115c.01-.143.04-.277.093-.403.052-.126.123-.236.213-.331a.979.979 0 0 1 .324-.224c.126-.055.267-.082.424-.082a1.035 1.035 0 0 1 .965.633c.054.129.086.264.096.406zm.584 1.025h-.598c-.053.242-.16.422-.324.54-.164.12-.374.179-.63.179-.2 0-.373-.034-.52-.1a1.02 1.02 0 0 1-.57-.651 1.46 1.46 0 0 1-.057-.46h2.756c.01-.223-.011-.458-.06-.705a2.04 2.04 0 0 0-.271-.683 1.613 1.613 0 0 0-.52-.516c-.216-.136-.488-.203-.815-.203a1.631 1.631 0 0 0-1.242.541c-.155.17-.275.373-.36.605a2.214 2.214 0 0 0-.128.769c.009.28.05.539.124.776s.184.441.331.612c.147.171.329.304.545.4.216.094.47.141.765.141.418 0 .764-.104 1.04-.313.275-.209.453-.52.534-.933zM54.381 66.362h-.605c.01.228.057.42.143.58.085.159.199.287.341.384.143.098.306.168.492.21.185.043.38.064.584.064.185 0 .37-.017.558-.053.188-.035.356-.098.506-.189.15-.09.27-.208.363-.356.093-.147.139-.332.139-.555a.868.868 0 0 0-.103-.441.92.92 0 0 0-.271-.296 1.453 1.453 0 0 0-.384-.188 4.557 4.557 0 0 0-.445-.122 27.296 27.296 0 0 0-.428-.096 2.468 2.468 0 0 1-.384-.114.88.88 0 0 1-.281-.17.34.34 0 0 1-.11-.26.36.36 0 0 1 .07-.232.51.51 0 0 1 .186-.142.92.92 0 0 1 .252-.075c.093-.014.184-.021.275-.021.1 0 .198.01.295.032a.906.906 0 0 1 .267.103c.08.047.147.11.2.189a.612.612 0 0 1 .092.295h.605a1.353 1.353 0 0 0-.142-.559.958.958 0 0 0-.324-.356 1.334 1.334 0 0 0-.467-.185 2.906 2.906 0 0 0-.576-.053c-.162 0-.324.02-.488.06-.164.04-.31.102-.441.185-.131.084-.238.191-.32.324a.881.881 0 0 0-.125.477c0 .238.059.423.178.556a1.2 1.2 0 0 0 .444.31c.179.073.372.13.58.17.21.04.403.086.581.136.178.05.326.115.445.195.119.081.178.2.178.356a.446.446 0 0 1-.085.282.541.541 0 0 1-.218.167 1.102 1.102 0 0 1-.288.078 2.221 2.221 0 0 1-.299.022 1.79 1.79 0 0 1-.36-.036 1.009 1.009 0 0 1-.313-.117.643.643 0 0 1-.224-.221.68.68 0 0 1-.093-.338zM58.411 63.841v-1.103h-.605v1.103h-.627v.534h.627v2.343c0 .17.017.308.05.413a.502.502 0 0 0 .153.242.59.59 0 0 0 .27.117c.112.022.246.032.403.032h.463v-.534h-.278c-.095 0-.172-.003-.231-.01a.298.298 0 0 1-.14-.047.176.176 0 0 1-.067-.1.664.664 0 0 1-.018-.17v-2.286h.734v-.534h-.734zM62.37 65.33h-2.115c.01-.143.04-.277.093-.403.052-.126.123-.236.213-.331a.979.979 0 0 1 .324-.224c.126-.055.267-.082.424-.082a1.035 1.035 0 0 1 .965.633c.054.129.086.264.096.406zm.584 1.025h-.598c-.053.242-.16.422-.324.54-.164.12-.374.179-.63.179-.2 0-.373-.034-.52-.1a1.02 1.02 0 0 1-.57-.651 1.46 1.46 0 0 1-.057-.46h2.756c.01-.223-.011-.458-.06-.705a2.04 2.04 0 0 0-.271-.683 1.613 1.613 0 0 0-.52-.516c-.216-.136-.488-.203-.815-.203a1.631 1.631 0 0 0-1.242.541c-.155.17-.275.373-.36.605a2.216 2.216 0 0 0-.129.769c.01.28.052.539.125.776.074.237.184.441.331.612.147.171.329.304.545.4.216.094.47.141.765.141.418 0 .764-.104 1.04-.313.275-.209.453-.52.534-.933zM63.616 63.841v3.681h.605v-1.637c0-.238.024-.448.071-.63.048-.183.124-.339.228-.467a.976.976 0 0 1 .413-.292c.17-.066.377-.1.62-.1v-.64c-.328-.01-.599.057-.812.2-.214.142-.394.362-.541.661h-.015v-.776h-.57zM68.436 65.33H66.32c.01-.143.04-.277.093-.403.052-.126.123-.236.213-.331a.979.979 0 0 1 .325-.224c.125-.055.266-.082.423-.082a1.035 1.035 0 0 1 .965.633c.054.129.086.264.096.406zm.584 1.025h-.598c-.052.242-.16.422-.324.54-.164.12-.374.179-.63.179-.2 0-.373-.034-.52-.1a1.02 1.02 0 0 1-.57-.651 1.46 1.46 0 0 1-.057-.46h2.756c.01-.223-.011-.458-.06-.705a2.039 2.039 0 0 0-.271-.683 1.612 1.612 0 0 0-.52-.516c-.216-.136-.488-.203-.815-.203a1.63 1.63 0 0 0-1.242.541c-.155.17-.275.373-.36.605a2.216 2.216 0 0 0-.128.769c.01.28.05.539.124.776s.184.441.331.612c.147.171.329.304.545.4.216.094.471.141.765.141.418 0 .764-.104 1.04-.313.275-.209.453-.52.534-.933zM69.682 63.841v3.681h.605v-1.637c0-.238.024-.448.071-.63.048-.183.124-.339.228-.467a.976.976 0 0 1 .413-.292c.17-.066.377-.1.62-.1v-.64c-.328-.01-.599.057-.812.2-.214.142-.394.362-.541.661h-.015v-.776h-.57zM74.694 63.18v-.741h-.605v.74h.605zm-.605.661v3.681h.605v-3.68h-.605zM78.055 65.714c0-.18.019-.356.057-.527.038-.171.1-.323.185-.456.085-.133.2-.24.342-.32a1.04 1.04 0 0 1 .52-.121c.208 0 .386.039.533.117.148.079.267.182.36.31.092.128.16.276.203.445a2.122 2.122 0 0 1 .003 1.029c-.04.166-.105.314-.195.445-.09.13-.207.236-.35.317-.142.08-.315.12-.519.12a1.012 1.012 0 0 1-.865-.42 1.356 1.356 0 0 1-.207-.437 1.886 1.886 0 0 1-.067-.502zm2.848 1.808V62.44h-.606v1.893h-.014a.974.974 0 0 0-.245-.274 1.396 1.396 0 0 0-.31-.178 1.557 1.557 0 0 0-.328-.096 1.792 1.792 0 0 0-.306-.028c-.28 0-.525.05-.737.153-.21.102-.386.24-.526.413s-.245.376-.314.609c-.069.232-.103.479-.103.74s.036.508.107.74c.071.233.177.437.317.613.14.175.315.315.527.42.21.104.459.156.744.156.256 0 .49-.045.704-.135a.89.89 0 0 0 .47-.441h.014v.498h.606zM82.476 63.18v-.741h-.605v.74h.605zm-.605.661v3.681h.605v-3.68h-.605zM83.416 63.841v3.681h.605v-2.079c0-.166.023-.319.068-.459.045-.14.113-.262.203-.367a.902.902 0 0 1 .338-.242c.135-.057.295-.085.48-.085.233 0 .416.066.549.2.133.132.2.312.2.54v2.492h.604v-2.42c0-.2-.02-.382-.06-.545a1.032 1.032 0 0 0-.21-.424.995.995 0 0 0-.392-.277 1.596 1.596 0 0 0-.605-.1c-.546 0-.945.223-1.196.67h-.014v-.585h-.57zM89.603 64.375v3.147h.605v-3.147h.712v-.534h-.712v-.512c0-.162.04-.27.121-.328a.586.586 0 0 1 .342-.085c.052 0 .11.003.171.01.062.008.119.02.17.04v-.527a1.054 1.054 0 0 0-.195-.043 1.549 1.549 0 0 0-.196-.014c-.332 0-.585.077-.758.231-.173.154-.26.381-.26.68v.548h-.62v.534h.62zM91.44 63.841v3.681h.605v-1.637c0-.238.024-.448.071-.63.048-.183.124-.339.228-.467a.976.976 0 0 1 .413-.292c.171-.066.378-.1.62-.1v-.64c-.328-.01-.598.057-.812.2-.214.142-.394.362-.541.661h-.014v-.776h-.57zM96.26 65.33h-2.114c.01-.143.04-.277.092-.403s.124-.236.214-.331a.979.979 0 0 1 .324-.224c.126-.055.267-.082.423-.082a1.035 1.035 0 0 1 .965.633c.055.129.087.264.096.406zm.584 1.025h-.598c-.052.242-.16.422-.324.54-.164.12-.374.179-.63.179-.2 0-.373-.034-.52-.1a1.02 1.02 0 0 1-.57-.651 1.46 1.46 0 0 1-.056-.46H96.9c.01-.223-.01-.458-.06-.705a2.04 2.04 0 0 0-.271-.683 1.612 1.612 0 0 0-.52-.516c-.216-.136-.488-.203-.815-.203a1.631 1.631 0 0 0-1.242.541c-.155.17-.275.373-.36.605a2.214 2.214 0 0 0-.128.769c.01.28.05.539.124.776s.184.441.331.612c.148.171.33.304.545.4.216.094.471.141.766.141.417 0 .764-.104 1.039-.313.275-.209.453-.52.534-.933zM97.528 63.841v3.681h.605V65.23a1.026 1.026 0 0 1 .53-.833.904.904 0 0 1 .452-.107c.138 0 .25.02.338.06.088.04.158.098.21.171.053.074.09.16.11.26.022.1.033.209.033.328v2.413h.605V65.23c0-.285.085-.513.256-.684.171-.17.406-.256.705-.256.147 0 .267.021.36.064.092.043.165.1.217.174.052.074.088.16.107.26.019.1.028.207.028.32v2.414h.605v-2.698c0-.19-.029-.353-.089-.488a.85.85 0 0 0-.249-.331 1.046 1.046 0 0 0-.384-.189c-.15-.04-.317-.06-.502-.06-.242 0-.464.054-.666.164-.202.109-.364.263-.488.462a.797.797 0 0 0-.391-.484 1.338 1.338 0 0 0-.62-.142c-.517 0-.913.209-1.189.626h-.014v-.54h-.57zM104.441 63.841v-1.103h-.605v1.103h-.627v.534h.627v2.343c0 .17.016.308.049.413a.508.508 0 0 0 .154.242.587.587 0 0 0 .27.117c.112.022.246.032.402.032h.463v-.534h-.277c-.095 0-.173-.003-.232-.01a.303.303 0 0 1-.139-.047.177.177 0 0 1-.067-.1.654.654 0 0 1-.018-.17v-2.286h.733v-.534h-.733zM106.484 63.18v-.741h-.605v.74h.605zm-.605.661v3.681h.605v-3.68h-.605zM107.865 65.714c0-.18.019-.356.057-.527.038-.171.1-.323.186-.456a.961.961 0 0 1 .341-.32c.143-.08.316-.121.52-.121.209 0 .387.039.534.117.147.079.267.182.36.31.092.128.16.276.202.445a2.108 2.108 0 0 1 .004 1.029c-.04.166-.106.314-.196.445-.09.13-.206.236-.349.317-.142.08-.315.12-.519.12-.195 0-.365-.037-.509-.113a1.005 1.005 0 0 1-.356-.306 1.345 1.345 0 0 1-.207-.438 1.887 1.887 0 0 1-.068-.502zm2.848 1.808V62.44h-.605v1.893h-.014a.959.959 0 0 0-.246-.274 1.387 1.387 0 0 0-.309-.178 1.576 1.576 0 0 0-.328-.096 1.787 1.787 0 0 0-.306-.028c-.28 0-.526.05-.737.153-.211.102-.387.24-.527.413s-.244.376-.313.609a2.59 2.59 0 0 0-.103.74c0 .261.035.508.106.74.072.233.177.437.317.613.14.175.316.315.527.42.211.104.459.156.744.156.257 0 .491-.045.705-.135a.89.89 0 0 0 .47-.441h.014v.498h.605z"/></g><path fill="none" stroke="#231f20" stroke-linecap="butt" stroke-linejoin="miter" d="M110.713 59.1H.44"/><g fill="#231f20"><path d="M6.25 34.66v-2.966h.856c.236 0 .434.033.595.1.16.066.292.162.393.289.102.126.175.28.22.46.044.18.067.385.067.613 0 .236-.024.437-.072.603-.049.166-.11.304-.185.415a.966.966 0 0 1-.255.262 1.246 1.246 0 0 1-.56.212 2.137 2.137 0 0 1-.213.013H6.25zm-.51-3.394v3.823h1.313c.318 0 .592-.044.824-.133a1.44 1.44 0 0 0 .573-.389c.15-.17.261-.378.332-.626.072-.248.107-.533.107-.854 0-.614-.158-1.071-.476-1.371-.318-.3-.771-.45-1.36-.45H5.74zM9.51 31.266v3.823h2.657v-.428h-2.148v-1.323h1.987v-.428h-1.987v-1.216h2.131v-.428H9.51zM12.777 31.266v3.823h.482v-3.068h.01l1.998 3.068h.557v-3.823h-.482v3.1h-.01l-2.014-3.1h-.541zM18.137 31.266v3.823h2.656v-.428h-2.147v-1.323h1.986v-.428h-1.986v-1.216h2.131v-.428h-2.64zM24.461 33.708v-2.442h-.509v2.442c0 .343-.084.602-.254.779-.17.177-.417.265-.742.265-.342 0-.605-.088-.787-.265-.182-.177-.273-.437-.273-.78v-2.441h-.509v2.442c0 .51.139.882.415 1.116.277.234.662.351 1.154.351.482 0 .854-.122 1.114-.367.26-.244.391-.611.391-1.1zM25.275 31.266v3.823h.509v-1.633h1.242c.125 0 .225.019.3.056a.5.5 0 0 1 .182.15c.046.063.08.136.102.22.021.084.039.172.053.265.018.093.029.187.032.284l.011.27c.004.084.012.16.024.228a.319.319 0 0 0 .072.16h.568a.652.652 0 0 1-.12-.222 1.74 1.74 0 0 1-.062-.265 2.466 2.466 0 0 1-.027-.284 7.115 7.115 0 0 0-.016-.284 2.468 2.468 0 0 0-.045-.267.813.813 0 0 0-.091-.233.586.586 0 0 0-.166-.18.68.68 0 0 0-.27-.107v-.01c.231-.065.4-.184.505-.36a1.16 1.16 0 0 0 .158-.61c0-.31-.102-.555-.308-.733-.205-.179-.49-.268-.854-.268h-1.799zm1.569 1.762h-1.06v-1.334h1.264c.239 0 .412.061.519.183.107.12.16.278.16.47 0 .14-.024.253-.072.34a.572.572 0 0 1-.193.21.739.739 0 0 1-.28.104c-.108.018-.22.027-.338.027zM29.238 33.178c0-.193.024-.383.075-.57.05-.188.128-.357.235-.507.107-.15.245-.27.412-.361a1.24 1.24 0 0 1 .6-.137c.232 0 .432.046.6.137.168.091.305.211.412.361.107.15.186.319.236.506a2.203 2.203 0 0 1 0 1.141c-.05.187-.129.356-.236.506-.107.15-.244.27-.412.361a1.24 1.24 0 0 1-.6.137 1.24 1.24 0 0 1-.6-.137 1.205 1.205 0 0 1-.412-.361 1.549 1.549 0 0 1-.235-.506 2.204 2.204 0 0 1-.075-.57zm-.51 0c0 .26.04.511.116.752.077.241.192.454.345.64.154.185.345.333.573.442.229.109.495.163.798.163.304 0 .57-.054.798-.163.229-.11.42-.257.573-.442.153-.186.269-.399.345-.64.077-.24.115-.492.115-.752s-.038-.512-.115-.753a1.898 1.898 0 0 0-.345-.64 1.686 1.686 0 0 0-.573-.444 1.81 1.81 0 0 0-.798-.166c-.303 0-.57.055-.798.166-.228.11-.42.259-.573.444a1.896 1.896 0 0 0-.345.64 2.463 2.463 0 0 0-.115.753zM33.521 33.097v-1.403h.996c.29 0 .501.06.635.18s.2.293.2.522c0 .228-.066.403-.2.525-.134.121-.346.18-.635.176h-.996zm-.508-1.831v3.823h.508v-1.563h1.168c.385.003.677-.095.875-.295.198-.2.297-.478.297-.835s-.099-.635-.297-.833c-.198-.198-.49-.297-.875-.297h-1.676zM38.244 31.694h.22v1.853h-1.12l.9-1.853zm-.284-.428l-1.927 3.823h.567l.547-1.114h1.317v1.114h2.393v-.428h-1.911v-1.323h1.767v-.428h-1.767v-1.216h1.88v-.428H37.96zM41.462 31.266v3.823h.51v-3.823h-.51zM45.04 32.385h.481a1.348 1.348 0 0 0-.12-.543 1.058 1.058 0 0 0-.3-.378 1.236 1.236 0 0 0-.442-.22 2.042 2.042 0 0 0-.546-.069c-.175 0-.345.022-.511.067a1.409 1.409 0 0 0-.445.203 1.03 1.03 0 0 0-.313.349 1.012 1.012 0 0 0-.118.5c0 .175.035.32.105.437.07.116.162.21.278.283.116.073.247.132.394.177.146.045.295.084.447.118l.447.099c.146.032.277.074.393.126a.766.766 0 0 1 .279.2.48.48 0 0 1 .104.322c0 .14-.028.253-.085.343a.624.624 0 0 1-.225.211 1.018 1.018 0 0 1-.313.11 1.893 1.893 0 0 1-.346.032c-.143 0-.282-.018-.418-.054a1.04 1.04 0 0 1-.356-.166.852.852 0 0 1-.246-.286.864.864 0 0 1-.094-.415h-.482c0 .232.042.433.126.602.084.17.198.31.343.418.145.109.312.19.503.244a2.322 2.322 0 0 0 1.135.019c.177-.042.337-.108.48-.199.142-.09.26-.209.35-.353a.96.96 0 0 0 .137-.522.959.959 0 0 0-.104-.471.929.929 0 0 0-.279-.311 1.472 1.472 0 0 0-.393-.195 5.334 5.334 0 0 0-.448-.126c-.151-.036-.3-.069-.447-.1a2.352 2.352 0 0 1-.393-.115.774.774 0 0 1-.279-.179.398.398 0 0 1-.104-.286.62.62 0 0 1 .072-.314.562.562 0 0 1 .193-.2.84.84 0 0 1 .276-.107c.103-.022.208-.033.316-.033.264 0 .48.062.65.185.17.123.269.322.297.597zM46.298 31.266v3.823h.508v-1.338l.638-.595 1.381 1.933h.643l-1.676-2.28 1.612-1.543h-.66l-1.938 1.906v-1.906h-.508zM49.87 31.266v3.823h2.655v-.428h-2.147v-1.323h1.987v-.428h-1.987v-1.216h2.131v-.428h-2.64zM57.682 33.708v-2.442h-.509v2.442c0 .343-.084.602-.254.779-.17.177-.417.265-.742.265-.342 0-.605-.088-.787-.265-.182-.177-.273-.437-.273-.78v-2.441h-.509v2.442c0 .51.139.882.415 1.116.277.234.662.351 1.154.351.482 0 .854-.122 1.114-.367.26-.244.391-.611.391-1.1zM58.49 31.266v3.823h.482v-3.068h.011l1.998 3.068h.556v-3.823h-.481v3.1h-.011l-2.014-3.1h-.54zM62.383 31.266v3.823h.51v-3.823h-.51zM64.043 33.178c0-.193.025-.383.075-.57.05-.188.129-.357.236-.507.107-.15.245-.27.412-.361a1.24 1.24 0 0 1 .6-.137c.232 0 .432.046.6.137.168.091.305.211.412.361.107.15.186.319.236.506a2.203 2.203 0 0 1 0 1.141c-.05.187-.129.356-.236.506-.107.15-.244.27-.412.361a1.24 1.24 0 0 1-.6.137 1.24 1.24 0 0 1-.6-.137 1.205 1.205 0 0 1-.412-.361 1.549 1.549 0 0 1-.236-.506 2.204 2.204 0 0 1-.075-.57zm-.508 0c0 .26.038.511.115.752.077.241.192.454.345.64.154.185.345.333.573.442.229.109.495.163.798.163.303 0 .57-.054.798-.163.228-.11.42-.257.573-.442.153-.186.269-.399.345-.64.077-.24.115-.492.115-.752s-.038-.512-.115-.753a1.898 1.898 0 0 0-.345-.64 1.686 1.686 0 0 0-.573-.444 1.81 1.81 0 0 0-.798-.166c-.303 0-.57.055-.798.166-.228.11-.42.259-.573.444a1.895 1.895 0 0 0-.345.64 2.463 2.463 0 0 0-.115.753zM67.813 31.266v3.823h.482v-3.068h.01l1.998 3.068h.557v-3.823h-.482v3.1h-.01l-2.014-3.1h-.54z"/></g><g fill="#231f20"><path d="M17.583 42.12v-3.04h.879c.241 0 .444.034.609.102.164.067.299.166.403.296.104.13.18.287.225.472.046.185.069.394.069.628 0 .242-.025.448-.074.618-.05.17-.113.312-.19.425a.99.99 0 0 1-.26.27 1.282 1.282 0 0 1-.574.216 2.2 2.2 0 0 1-.22.014h-.867zm-.521-3.479v3.919h1.345c.325 0 .607-.046.845-.137.238-.092.434-.225.587-.398.154-.174.267-.388.34-.642.074-.255.11-.547.11-.876 0-.63-.163-1.098-.488-1.405-.326-.307-.79-.461-1.394-.461h-1.345zM22.82 40.87h-1.63a.973.973 0 0 1 .07-.31.828.828 0 0 1 .165-.256.754.754 0 0 1 .25-.173.812.812 0 0 1 .327-.063.798.798 0 0 1 .743.489.954.954 0 0 1 .074.312zm.45.79h-.462a.663.663 0 0 1-.25.417.807.807 0 0 1-.485.137.967.967 0 0 1-.4-.077.787.787 0 0 1-.44-.502 1.123 1.123 0 0 1-.044-.354h2.124a2.256 2.256 0 0 0-.046-.543 1.573 1.573 0 0 0-.209-.527 1.243 1.243 0 0 0-.4-.398 1.164 1.164 0 0 0-.629-.157 1.257 1.257 0 0 0-.958.417 1.414 1.414 0 0 0-.277.467c-.066.18-.099.377-.099.593.008.216.04.415.096.598.057.183.142.34.256.472.113.132.253.234.42.307.166.074.363.11.59.11.322 0 .589-.08.8-.241.213-.161.35-.401.413-.72zM23.796 39.722v2.838h.467v-1.603c0-.128.017-.246.052-.354a.804.804 0 0 1 .156-.282.694.694 0 0 1 .261-.187.95.95 0 0 1 .37-.066c.18 0 .32.051.423.154a.563.563 0 0 1 .154.417v1.92h.466v-1.865c0-.154-.015-.294-.046-.42a.795.795 0 0 0-.162-.327.767.767 0 0 0-.302-.214 1.232 1.232 0 0 0-.466-.077c-.421 0-.729.172-.923.516h-.01v-.45h-.44zM28.45 38.641v3.919h2.723v-.44h-2.201v-1.355h2.036v-.439h-2.036V39.08h2.184v-.439h-2.705zM34.076 42.56v-2.838h-.466v1.603c0 .128-.018.246-.052.354a.803.803 0 0 1-.157.282.694.694 0 0 1-.26.187.951.951 0 0 1-.371.066.57.57 0 0 1-.423-.154.564.564 0 0 1-.153-.417v-1.92h-.467v1.865c0 .154.016.294.047.42a.743.743 0 0 0 .464.538c.124.05.28.074.466.074.209 0 .39-.041.544-.123a.954.954 0 0 0 .378-.387h.011v.45h.44zM34.762 39.722v2.838h.467v-1.263c0-.182.018-.344.055-.485a.93.93 0 0 1 .175-.36.752.752 0 0 1 .319-.225c.131-.051.29-.077.477-.077v-.494c-.252-.007-.46.044-.626.154-.164.11-.303.28-.417.51h-.01v-.598h-.44zM36.848 41.144c0-.172.023-.325.069-.459a.988.988 0 0 1 .189-.337.805.805 0 0 1 .283-.209.84.84 0 0 1 .343-.071.84.84 0 0 1 .343.071.805.805 0 0 1 .282.209.99.99 0 0 1 .19.337c.045.134.068.287.068.459 0 .172-.023.325-.068.458a.959.959 0 0 1-.19.335.82.82 0 0 1-.625.277.84.84 0 0 1-.626-.277.957.957 0 0 1-.19-.335 1.41 1.41 0 0 1-.068-.458zm-.494 0c0 .208.03.402.088.581.058.18.146.336.263.47.117.133.262.238.434.313.172.075.37.112.593.112.227 0 .425-.037.595-.112.17-.075.314-.18.431-.313.117-.134.205-.29.263-.47.059-.179.088-.373.088-.581 0-.209-.03-.404-.088-.585a1.249 1.249 0 0 0-.694-.788 1.435 1.435 0 0 0-.595-.115c-.224 0-.421.039-.593.116a1.242 1.242 0 0 0-.697.787 1.891 1.891 0 0 0-.088.585zM39.675 39.722v3.919h.466v-1.46h.011a.754.754 0 0 0 .19.211.997.997 0 0 0 .238.135 1.406 1.406 0 0 0 1.057-.022c.163-.077.298-.182.406-.316.108-.133.188-.29.241-.469a2 2 0 0 0 .08-.57c0-.202-.028-.392-.082-.572a1.441 1.441 0 0 0-.245-.474 1.167 1.167 0 0 0-.406-.327 1.28 1.28 0 0 0-.573-.12 1.35 1.35 0 0 0-.544.106.699.699 0 0 0-.362.343h-.01v-.384h-.468zm2.195 1.394c0 .14-.015.275-.044.407-.03.131-.077.248-.143.35a.749.749 0 0 1-.26.248.798.798 0 0 1-.404.093.798.798 0 0 1-.689-.33.999.999 0 0 1-.156-.342 1.637 1.637 0 0 1-.003-.793c.031-.129.082-.243.151-.343.07-.101.16-.182.27-.245a.801.801 0 0 1 .4-.093.78.78 0 0 1 .667.324c.071.099.124.211.159.337.035.127.052.256.052.387zM45.125 41.281h2.08c0-.22-.02-.428-.06-.626-.04-.197-.11-.37-.21-.518a1.055 1.055 0 0 0-.392-.352 1.316 1.316 0 0 0-.617-.129c-.172 0-.342.032-.51.096a.795.795 0 0 0-.396.316.594.594 0 0 0-.175-.214.846.846 0 0 0-.242-.126 1.233 1.233 0 0 0-.269-.058 2.631 2.631 0 0 0-.263-.014c-.157 0-.308.017-.45.05a1.104 1.104 0 0 0-.379.162.833.833 0 0 0-.263.293c-.066.121-.103.27-.11.445h.466c.011-.209.083-.35.214-.425a.987.987 0 0 1 .494-.113c.077 0 .154.005.23.014.078.009.146.029.207.06.06.031.11.076.148.135a.414.414 0 0 1 .057.23c0 .084-.018.15-.054.195a.37.37 0 0 1-.17.11c-.077.027-.177.05-.3.068-.122.019-.27.044-.442.077a3.69 3.69 0 0 0-.354.082.993.993 0 0 0-.307.146.718.718 0 0 0-.217.25.834.834 0 0 0-.082.395c0 .142.025.264.074.365.05.1.117.183.203.247.086.064.188.11.305.137.117.027.243.041.378.041.264 0 .503-.043.717-.129a.92.92 0 0 0 .48-.42.846.846 0 0 0 .42.431c.09.042.186.072.288.09.102.019.209.028.318.028.322 0 .59-.081.804-.244.215-.163.356-.4.426-.71h-.478a.663.663 0 0 1-.26.414.787.787 0 0 1-.459.134.896.896 0 0 1-.376-.074.723.723 0 0 1-.266-.203.88.88 0 0 1-.156-.3 1.212 1.212 0 0 1-.052-.356zm-1.872.516c0-.088.016-.161.047-.22a.432.432 0 0 1 .123-.145.602.602 0 0 1 .181-.09c.07-.023.143-.04.22-.056.073-.014.15-.027.233-.038a7.49 7.49 0 0 0 .239-.036c.077-.013.149-.028.217-.046a.655.655 0 0 0 .172-.072v.478a.506.506 0 0 1-.052.211.647.647 0 0 1-.159.209.861.861 0 0 1-.274.159 1.128 1.128 0 0 1-.604.041.507.507 0 0 1-.176-.071.388.388 0 0 1-.12-.13.38.38 0 0 1-.047-.194zm3.458-.928h-1.586c0-.117.018-.224.054-.32a.723.723 0 0 1 .412-.42.88.88 0 0 1 .335-.061c.124 0 .235.021.332.063a.715.715 0 0 1 .244.17.725.725 0 0 1 .151.255c.035.1.054.204.058.313zM48.182 39.212v-.571h-.467v.57h.467zm-.467.51v2.838h.467v-2.838h-.467zM49.191 41.665h-.466c.007.176.044.325.11.447a.827.827 0 0 0 .263.297c.11.075.236.129.379.162.143.033.293.05.45.05.143 0 .286-.015.43-.042.145-.028.275-.076.39-.145a.836.836 0 0 0 .28-.275.79.79 0 0 0 .108-.428.67.67 0 0 0-.08-.34.71.71 0 0 0-.209-.228 1.118 1.118 0 0 0-.296-.145 3.495 3.495 0 0 0-.343-.094l-.33-.074a1.896 1.896 0 0 1-.296-.088.68.68 0 0 1-.217-.131.263.263 0 0 1-.085-.2c0-.074.019-.133.055-.18a.392.392 0 0 1 .143-.109.71.71 0 0 1 .195-.058c.071-.01.142-.016.211-.016.077 0 .153.008.228.025a.699.699 0 0 1 .206.08.468.468 0 0 1 .153.145c.04.06.064.136.072.227h.466a1.04 1.04 0 0 0-.11-.43.739.739 0 0 0-.25-.275 1.029 1.029 0 0 0-.359-.143 2.242 2.242 0 0 0-.444-.04c-.125 0-.25.015-.376.046-.127.031-.24.079-.34.143a.787.787 0 0 0-.248.25.68.68 0 0 0-.096.367c0 .183.046.326.138.428a.927.927 0 0 0 .343.239c.137.057.286.1.447.132.16.03.31.066.447.104.138.038.252.089.343.151a.31.31 0 0 1 .138.274c0 .088-.022.16-.066.217-.044.057-.1.1-.168.13a.843.843 0 0 1-.222.06c-.08.01-.157.016-.23.016-.096 0-.188-.01-.278-.027a.776.776 0 0 1-.241-.091.497.497 0 0 1-.245-.43zM51.678 38.641v3.919h.466v-1.076l.44-.406.97 1.482h.594l-1.208-1.806 1.125-1.032h-.625l-1.296 1.24v-2.321h-.466zM56.47 40.87h-1.63a.973.973 0 0 1 .07-.31.83.83 0 0 1 .165-.256.755.755 0 0 1 .25-.173.812.812 0 0 1 .326-.063.798.798 0 0 1 .744.489.959.959 0 0 1 .074.312zm.45.79h-.462a.664.664 0 0 1-.25.417.808.808 0 0 1-.485.137.967.967 0 0 1-.4-.077.785.785 0 0 1-.44-.502 1.126 1.126 0 0 1-.044-.354h2.124a2.261 2.261 0 0 0-.046-.543 1.573 1.573 0 0 0-.209-.527 1.243 1.243 0 0 0-.4-.398 1.164 1.164 0 0 0-.63-.157 1.258 1.258 0 0 0-.958.417 1.417 1.417 0 0 0-.276.467 1.71 1.71 0 0 0-.099.593c.008.216.04.415.096.598.057.183.142.34.255.472.114.132.254.234.42.307.167.074.364.11.59.11.322 0 .59-.08.802-.241.212-.161.35-.401.411-.72zM59.049 38.641v3.919h.521v-1.795h1.8v-.439h-1.8V39.08h2.053v-.439h-2.574zM62.463 41.144c0-.172.023-.325.068-.459a.988.988 0 0 1 .19-.337.806.806 0 0 1 .282-.209.84.84 0 0 1 .343-.071c.121 0 .235.024.343.071a.805.805 0 0 1 .283.209.99.99 0 0 1 .19.337c.045.134.068.287.068.459 0 .172-.023.325-.069.458a.959.959 0 0 1-.189.335.82.82 0 0 1-.626.277.84.84 0 0 1-.625-.277.957.957 0 0 1-.19-.335 1.41 1.41 0 0 1-.068-.458zm-.494 0c0 .208.029.402.087.581.06.18.147.336.264.47.117.133.262.238.434.313.172.075.37.112.592.112.227 0 .426-.037.596-.112.17-.075.314-.18.43-.313.118-.134.206-.29.264-.47.059-.179.088-.373.088-.581 0-.209-.03-.404-.088-.585a1.249 1.249 0 0 0-.694-.788 1.435 1.435 0 0 0-.596-.115c-.223 0-.42.039-.592.116a1.242 1.242 0 0 0-.697.787 1.891 1.891 0 0 0-.088.585zM65.273 39.722v2.838h.466v-1.603c0-.128.018-.246.052-.354a.804.804 0 0 1 .157-.282.694.694 0 0 1 .26-.187.95.95 0 0 1 .371-.066c.18 0 .32.051.423.154a.563.563 0 0 1 .153.417v1.92h.467v-1.865c0-.154-.016-.294-.047-.42a.795.795 0 0 0-.162-.327.767.767 0 0 0-.302-.214 1.232 1.232 0 0 0-.466-.077c-.42 0-.728.172-.922.516h-.011v-.45h-.44zM68.665 41.166c0-.14.014-.275.044-.406.029-.132.076-.25.142-.352a.742.742 0 0 1 .664-.34.799.799 0 0 1 .689.33.999.999 0 0 1 .157.342 1.637 1.637 0 0 1 .002.793 1.022 1.022 0 0 1-.15.343c-.07.101-.16.183-.27.245a.802.802 0 0 1-.4.093.78.78 0 0 1-.667-.324 1.044 1.044 0 0 1-.16-.337 1.449 1.449 0 0 1-.051-.387zm2.195 1.394V38.64h-.466v1.46h-.012a.752.752 0 0 0-.189-.211 1.077 1.077 0 0 0-.239-.138 1.205 1.205 0 0 0-.252-.074 1.385 1.385 0 0 0-.804.096 1.164 1.164 0 0 0-.406.319c-.108.133-.189.29-.242.469a2 2 0 0 0-.08.57c0 .202.028.392.083.572.055.179.136.336.244.472.108.135.244.243.406.323.163.08.354.121.574.121.197 0 .379-.035.543-.104a.687.687 0 0 0 .362-.34h.011v.384h.467z"/><g><path d="M21.51 45.595v2.374h.456v-2.374h.537v-.403h-.537v-.387c0-.121.03-.204.092-.247a.443.443 0 0 1 .258-.064c.039 0 .082.002.128.008a.57.57 0 0 1 .13.03v-.398a1.18 1.18 0 0 0-.295-.043c-.252 0-.442.058-.573.175-.13.116-.196.287-.196.512v.414h-.467v.403h.467zM23.245 46.583c0-.168.022-.318.067-.448a.968.968 0 0 1 .185-.33.79.79 0 0 1 .612-.275c.118 0 .23.024.336.07a.79.79 0 0 1 .276.204c.08.09.141.2.186.33.044.131.067.28.067.449 0 .168-.023.318-.067.448a.938.938 0 0 1-.186.328.806.806 0 0 1-.612.271.824.824 0 0 1-.612-.271.938.938 0 0 1-.185-.328 1.383 1.383 0 0 1-.067-.448zm-.484 0c0 .204.029.394.086.57.057.175.143.328.258.458.114.131.256.233.424.306.169.074.362.11.58.11.222 0 .416-.036.583-.11a1.19 1.19 0 0 0 .421-.306c.115-.13.201-.283.258-.459.058-.175.086-.365.086-.57 0-.203-.028-.394-.086-.571a1.296 1.296 0 0 0-.258-.462 1.22 1.22 0 0 0-.421-.309 1.404 1.404 0 0 0-.583-.113c-.218 0-.412.038-.58.113a1.214 1.214 0 0 0-.682.771 1.849 1.849 0 0 0-.086.572zM25.978 45.192v2.777h.457v-1.236c0-.179.018-.337.053-.475a.91.91 0 0 1 .172-.352.736.736 0 0 1 .312-.22c.129-.05.284-.075.467-.075v-.483c-.247-.008-.451.042-.612.15a1.237 1.237 0 0 0-.408.5h-.011v-.586h-.43zM29.35 44.134v3.835h.511V46.33h1.246c.125 0 .226.02.3.057a.503.503 0 0 1 .183.15c.047.063.081.136.102.22.022.085.04.173.054.266.018.093.029.188.032.285l.011.271c.004.084.012.16.024.228a.32.32 0 0 0 .073.162h.57a.656.656 0 0 1-.122-.223 1.74 1.74 0 0 1-.062-.266 2.458 2.458 0 0 1-.026-.285 2.459 2.459 0 0 0-.062-.553.815.815 0 0 0-.091-.234.589.589 0 0 0-.167-.18.684.684 0 0 0-.271-.107v-.01c.233-.065.402-.185.507-.36.106-.176.159-.38.159-.613 0-.311-.103-.556-.309-.735-.206-.18-.491-.269-.857-.269h-1.804zm1.574 1.767h-1.063v-1.337h1.268c.24 0 .413.06.52.182.108.122.162.28.162.473 0 .14-.024.253-.073.34a.573.573 0 0 1-.193.21.739.739 0 0 1-.282.105c-.108.018-.22.027-.339.027zM34.883 46.314h-1.596a.952.952 0 0 1 .07-.303.808.808 0 0 1 .162-.25.737.737 0 0 1 .244-.169.795.795 0 0 1 .32-.062.78.78 0 0 1 .727.478.934.934 0 0 1 .073.306zm.44.774h-.451a.65.65 0 0 1-.245.408.79.79 0 0 1-.475.134.945.945 0 0 1-.392-.075.767.767 0 0 1-.43-.491 1.105 1.105 0 0 1-.042-.347h2.078a2.214 2.214 0 0 0-.046-.532 1.539 1.539 0 0 0-.204-.515 1.215 1.215 0 0 0-.392-.39 1.139 1.139 0 0 0-.615-.153 1.23 1.23 0 0 0-.937.408 1.384 1.384 0 0 0-.271.457 1.67 1.67 0 0 0-.097.58c.007.211.039.407.094.586.056.179.139.333.25.462.11.128.248.229.41.3.164.072.356.108.578.108.315 0 .576-.08.784-.237.208-.157.342-.392.403-.703zM38.234 47.732v-2.54h-.43v.397H37.8a.812.812 0 0 0-.344-.346 1.024 1.024 0 0 0-.483-.116c-.24 0-.442.046-.607.137a1.176 1.176 0 0 0-.398.35c-.1.141-.171.299-.214.472a2.112 2.112 0 0 0-.065.508c0 .19.026.37.078.54.052.17.13.318.234.445.103.127.232.228.386.304.154.075.335.112.543.112.179 0 .348-.04.507-.12a.767.767 0 0 0 .357-.38h.011v.184c0 .154-.015.295-.046.424a.886.886 0 0 1-.147.33.716.716 0 0 1-.258.215.847.847 0 0 1-.381.078c-.075 0-.154-.008-.237-.024a.858.858 0 0 1-.228-.078.568.568 0 0 1-.177-.14.337.337 0 0 1-.078-.21h-.456c.007.151.046.278.118.382a.85.85 0 0 0 .271.252c.11.065.23.111.365.14.134.029.266.043.395.043.444 0 .77-.113.977-.338.208-.226.312-.566.312-1.02zm-1.278-.134a.697.697 0 0 1-.376-.094.727.727 0 0 1-.242-.247 1.073 1.073 0 0 1-.129-.341 1.917 1.917 0 0 1-.038-.376c0-.133.016-.26.046-.381a.945.945 0 0 1 .145-.323.73.73 0 0 1 .631-.306c.143 0 .265.029.365.086.1.057.182.134.245.228.063.095.108.202.137.32.028.118.043.238.043.36 0 .129-.016.258-.046.386a1.13 1.13 0 0 1-.142.347.748.748 0 0 1-.255.247.74.74 0 0 1-.384.094zM39.405 44.693v-.559h-.457v.559h.457zm-.457.499v2.777h.457v-2.777h-.457zM40.447 46.583c0-.168.022-.318.067-.448a.97.97 0 0 1 .185-.33.79.79 0 0 1 .612-.275c.118 0 .23.024.336.07a.79.79 0 0 1 .276.204c.08.09.14.2.186.33.044.131.067.28.067.449 0 .168-.023.318-.067.448a.938.938 0 0 1-.186.328.805.805 0 0 1-.612.271.824.824 0 0 1-.612-.271.94.94 0 0 1-.185-.328 1.383 1.383 0 0 1-.068-.448zm-.484 0c0 .204.029.394.086.57.057.175.143.328.258.458.114.131.256.233.424.306.168.074.362.11.58.11.222 0 .416-.036.583-.11.166-.073.307-.175.422-.306a1.3 1.3 0 0 0 .257-.459c.057-.175.086-.365.086-.57 0-.203-.029-.394-.086-.571a1.22 1.22 0 0 0-.68-.77 1.404 1.404 0 0 0-.582-.114c-.218 0-.412.038-.58.113-.168.075-.31.178-.424.31-.115.13-.2.284-.258.461a1.849 1.849 0 0 0-.086.572zM43.196 45.192v2.777h.457V46.4c0-.125.017-.24.05-.346a.786.786 0 0 1 .154-.277.679.679 0 0 1 .255-.182.93.93 0 0 1 .362-.065c.176 0 .314.05.414.15.1.1.15.237.15.409v1.88h.457v-1.826c0-.15-.015-.288-.046-.411a.777.777 0 0 0-.158-.32.75.75 0 0 0-.296-.21 1.206 1.206 0 0 0-.456-.075c-.412 0-.713.169-.902.505h-.011v-.44h-.43zM48.642 47.958a.645.645 0 0 1-.328.07.393.393 0 0 1-.282-.1c-.07-.066-.104-.174-.104-.325-.126.15-.271.259-.438.325-.166.067-.346.1-.54.1-.125 0-.244-.015-.357-.043a.831.831 0 0 1-.293-.135.644.644 0 0 1-.196-.239.805.805 0 0 1-.072-.357c0-.157.027-.286.08-.386a.703.703 0 0 1 .213-.245.973.973 0 0 1 .3-.142c.113-.032.229-.06.347-.08.125-.026.244-.045.357-.057.113-.013.212-.03.298-.054a.495.495 0 0 0 .204-.102c.05-.044.075-.11.075-.196 0-.1-.019-.18-.056-.241a.386.386 0 0 0-.145-.14.589.589 0 0 0-.199-.065 1.506 1.506 0 0 0-.217-.016.965.965 0 0 0-.484.11c-.129.074-.198.212-.21.417h-.456a.988.988 0 0 1 .108-.435.815.815 0 0 1 .258-.288c.107-.073.23-.126.367-.158.138-.032.286-.049.444-.049.125 0 .25.01.373.027a.976.976 0 0 1 .335.11c.1.056.181.134.242.234.06.1.091.231.091.392v1.429c0 .107.007.186.02.236.012.05.054.075.125.075.04 0 .086-.009.14-.027v.355zm-.741-1.423a.568.568 0 0 1-.226.094 3.43 3.43 0 0 1-.292.048c-.102.013-.205.027-.31.043a1.136 1.136 0 0 0-.279.078.508.508 0 0 0-.2.153.429.429 0 0 0-.079.271c0 .075.016.139.046.19a.38.38 0 0 0 .118.127.495.495 0 0 0 .17.07.94.94 0 0 0 .203.021c.15 0 .28-.02.387-.062a.81.81 0 0 0 .263-.155.614.614 0 0 0 .15-.204.517.517 0 0 0 .049-.207v-.467zM49.093 44.134v3.835h.457v-3.835h-.457zM52.557 47.969v-2.777h-.456v1.568c0 .126-.017.241-.051.347a.787.787 0 0 1-.153.276.682.682 0 0 1-.255.183.932.932 0 0 1-.363.064.559.559 0 0 1-.414-.15.552.552 0 0 1-.15-.408v-1.88h-.457v1.826c0 .15.016.287.046.41a.728.728 0 0 0 .454.526c.122.05.274.074.456.074.205 0 .382-.04.532-.121a.934.934 0 0 0 .37-.379h.011v.44h.43zM53.578 46.604c0-.136.014-.268.042-.397.03-.129.076-.243.14-.344a.726.726 0 0 1 .65-.333.782.782 0 0 1 .674.322.98.98 0 0 1 .153.336 1.601 1.601 0 0 1 .003.776.998.998 0 0 1-.148.336.787.787 0 0 1-.263.239.784.784 0 0 1-.392.091.763.763 0 0 1-.652-.317 1.02 1.02 0 0 1-.156-.33 1.421 1.421 0 0 1-.051-.379zm2.148 1.365v-3.835h-.457v1.428h-.01a.735.735 0 0 0-.186-.206 1.051 1.051 0 0 0-.233-.135 1.172 1.172 0 0 0-.247-.072 1.355 1.355 0 0 0-.787.094c-.16.077-.292.18-.398.311-.105.131-.184.284-.236.46a1.959 1.959 0 0 0-.078.558c0 .197.027.383.08.559.054.175.134.33.24.462.105.132.238.238.397.316.16.08.347.119.561.119.194 0 .371-.034.532-.102a.671.671 0 0 0 .354-.333h.011v.376h.457zM57.68 47.969l1.016-2.777h-.478l-.758 2.315h-.01l-.779-2.315h-.51l1.03 2.777h.49zM59.598 44.693v-.559h-.456v.559h.456zm-.456.499v2.777h.456v-2.777h-.456zM60.334 44.134v3.835h.456v-1.053l.43-.397.95 1.45h.58l-1.181-1.767 1.1-1.01h-.611l-1.268 1.214v-2.272h-.456zM63.121 44.134v3.835h.457v-3.835h-.457zM64.77 44.693v-.559h-.457v.559h.457zm-.457.499v2.777h.457v-2.777h-.457zM65.479 45.192v2.777h.456V46.4c0-.125.017-.24.051-.346a.786.786 0 0 1 .153-.277.679.679 0 0 1 .255-.182.93.93 0 0 1 .363-.065c.175 0 .313.05.413.15.1.1.15.237.15.409v1.88h.457v-1.826c0-.15-.015-.288-.045-.411a.779.779 0 0 0-.159-.32.75.75 0 0 0-.295-.21 1.206 1.206 0 0 0-.457-.075c-.411 0-.712.169-.902.505h-.01v-.44h-.43zM70.86 47.732v-2.54h-.43v.397h-.005a.812.812 0 0 0-.344-.346 1.024 1.024 0 0 0-.483-.116c-.24 0-.442.046-.607.137a1.176 1.176 0 0 0-.397.35c-.1.141-.172.299-.215.472a2.112 2.112 0 0 0-.065.508c0 .19.026.37.078.54.052.17.13.318.234.445.104.127.233.228.387.304.153.075.334.112.542.112.179 0 .348-.04.507-.12a.768.768 0 0 0 .358-.38h.01v.184c0 .154-.015.295-.045.424a.886.886 0 0 1-.148.33.716.716 0 0 1-.258.215.847.847 0 0 1-.381.078c-.075 0-.154-.008-.236-.024a.858.858 0 0 1-.229-.078.568.568 0 0 1-.177-.14.337.337 0 0 1-.078-.21h-.456c.007.151.046.278.118.382a.85.85 0 0 0 .271.252c.11.065.231.111.365.14.135.029.266.043.395.043.444 0 .77-.113.978-.338.207-.226.311-.566.311-1.02zm-1.278-.134a.697.697 0 0 1-.376-.094.727.727 0 0 1-.242-.247 1.073 1.073 0 0 1-.129-.341 1.917 1.917 0 0 1-.037-.376c0-.133.015-.26.045-.381a.945.945 0 0 1 .145-.323.73.73 0 0 1 .631-.306c.144 0 .265.029.366.086.1.057.181.134.244.228.063.095.108.202.137.32.029.118.043.238.043.36 0 .129-.015.258-.046.386a1.13 1.13 0 0 1-.142.347.748.748 0 0 1-.255.247.74.74 0 0 1-.384.094z"/></g></g><g><path fill="#074ea2" d="M73.321 26.961h38.124V.733H73.321v26.228z"/><path fill="#fff" d="M72.589 0V27.694H112.178V0h-39.59zm1.465 1.466h36.658v24.762H74.054V1.466z"/><path fill="#fff200" d="M88.325 5.35l.312.921h.975l-.803.59.312.915-.796-.557-.795.557.3-.93-.837-.575h1.026l.306-.92zM85.489 8.318l.312.92h.975l-.803.589.313.917-.797-.56-.795.56.3-.932-.837-.574h1.026l.306-.92zM92.438 4.402l.311.92h.976l-.804.59.312.916-.795-.557-.797.557.301-.93-.838-.575h1.027l.307-.921zM84.183 12.427l.312.92h.974l-.802.59.312.916-.796-.557-.796.557.301-.93-.838-.576h1.027l.306-.92zM85.489 16.497l.312.92h.975l-.803.59.313.917-.797-.558-.795.558.3-.931-.837-.576h1.026l.306-.92zM88.325 19.515l.312.922h.975l-.803.59.312.915-.796-.558-.795.558.3-.932-.837-.573h1.026l.306-.922zM92.438 20.575l.311.92h.976l-.804.59.312.917-.795-.557-.797.557.301-.931-.838-.575h1.027l.307-.921zM96.55 5.35l-.313.921h-.975l.803.59-.312.915.797-.557.795.557-.3-.93.836-.575h-1.025l-.306-.92zM99.385 8.318l-.312.92H98.1l.802.589-.313.917.797-.56.795.56-.3-.932.837-.574h-1.025l-.307-.92zM100.692 12.427l-.312.92h-.975l.803.59-.313.916.797-.557.795.557-.3-.93.837-.576h-1.027l-.305-.92zM99.385 16.497l-.312.92H98.1l.802.59-.313.917.797-.558.795.558-.3-.931.837-.576h-1.025l-.307-.92zM96.55 19.515l-.313.922h-.975l.803.59-.312.915.797-.558.795.558-.3-.932.836-.573h-1.025l-.306-.922z"/><path fill="#fff200" d="M88.325 5.35l.312.921h.975l-.803.59.312.915-.796-.557-.795.557.3-.93-.837-.575h1.026l.306-.92z"/><path fill="none" d="M88.325 5.35l.312.921h.975l-.803.59.312.915-.796-.557-.795.557.3-.93-.837-.575h1.026l.306-.92z"/><path fill="#fff200" d="M85.489 8.318l.312.92h.975l-.803.589.313.917-.797-.56-.795.56.3-.932-.837-.574h1.026l.306-.92z"/><path fill="none" d="M85.489 8.318l.312.92h.975l-.803.589.313.917-.797-.56-.795.56.3-.932-.837-.574h1.026l.306-.92z"/><path fill="#fff200" d="M92.438 4.402l.311.92h.976l-.804.59.312.916-.795-.557-.797.557.301-.93-.838-.575h1.027l.307-.921z"/><path fill="none" d="M92.438 4.402l.311.92h.976l-.804.59.312.916-.795-.557-.797.557.301-.93-.838-.575h1.027l.307-.921z"/><path fill="#fff200" d="M84.183 12.427l.312.92h.974l-.802.59.312.916-.796-.557-.796.557.301-.93-.838-.576h1.027l.306-.92z"/><path fill="none" d="M84.183 12.427l.312.92h.974l-.802.59.312.916-.796-.557-.796.557.301-.93-.838-.576h1.027l.306-.92z"/><path fill="#fff200" d="M85.489 16.497l.312.92h.975l-.803.59.313.917-.797-.558-.795.558.3-.931-.837-.576h1.026l.306-.92z"/><path fill="none" d="M85.489 16.497l.312.92h.975l-.803.59.313.917-.797-.558-.795.558.3-.931-.837-.576h1.026l.306-.92z"/><path fill="#fff200" d="M88.325 19.515l.312.922h.975l-.803.59.312.915-.796-.558-.795.558.3-.932-.837-.573h1.026l.306-.922z"/><path fill="none" d="M88.325 19.515l.312.922h.975l-.803.59.312.915-.796-.558-.795.558.3-.932-.837-.573h1.026l.306-.922z"/><path fill="#fff200" d="M92.438 20.575l.311.92h.976l-.804.59.312.917-.795-.557-.797.557.301-.931-.838-.575h1.027l.307-.921z"/><path fill="none" d="M92.438 20.575l.311.92h.976l-.804.59.312.917-.795-.557-.797.557.301-.931-.838-.575h1.027l.307-.921z"/><path fill="#fff200" d="M96.55 5.35l-.313.921h-.975l.803.59-.312.915.797-.557.795.557-.3-.93.836-.575h-1.025l-.306-.92z"/><path fill="none" d="M96.55 5.35l-.313.921h-.975l.803.59-.312.915.797-.557.795.557-.3-.93.836-.575h-1.025l-.306-.92z"/><path fill="#fff200" d="M99.385 8.318l-.312.92H98.1l.802.589-.313.917.797-.56.795.56-.3-.932.837-.574h-1.025l-.307-.92z"/><path fill="none" d="M99.385 8.318l-.312.92H98.1l.802.589-.313.917.797-.56.795.56-.3-.932.837-.574h-1.025l-.307-.92z"/><path fill="#fff200" d="M100.692 12.427l-.312.92h-.975l.803.59-.313.916.797-.557.795.557-.3-.93.837-.576h-1.027l-.305-.92z"/><path fill="none" d="M100.692 12.427l-.312.92h-.975l.803.59-.313.916.797-.557.795.557-.3-.93.837-.576h-1.027l-.305-.92z"/><path fill="#fff200" d="M99.385 16.497l-.312.92H98.1l.802.59-.313.917.797-.558.795.558-.3-.931.837-.576h-1.025l-.307-.92z"/><path fill="none" d="M99.385 16.497l-.312.92H98.1l.802.59-.313.917.797-.558.795.558-.3-.931.837-.576h-1.025l-.307-.92z"/><path fill="#fff200" d="M96.55 19.515l-.313.922h-.975l.803.59-.312.915.797-.558.795.558-.3-.932.836-.573h-1.025l-.306-.922z"/><path fill="none" d="M96.55 19.515l-.313.922h-.975l.803.59-.312.915.797-.558.795.558-.3-.932.836-.573h-1.025l-.306-.922z"/></g><g fill="#231f20"><path d="M6.25 5.605V2.64h.856c.236 0 .434.033.595.099.16.066.292.162.393.289.102.127.175.28.22.46.044.18.067.385.067.614 0 .235-.024.436-.072.602-.049.166-.11.304-.185.415a.966.966 0 0 1-.255.262 1.248 1.248 0 0 1-.56.212 2.135 2.135 0 0 1-.213.013H6.25zM5.74 2.21v3.824h1.313c.318 0 .592-.045.824-.134.232-.09.423-.219.573-.388.15-.17.261-.379.332-.627.072-.248.107-.533.107-.854 0-.614-.158-1.07-.476-1.37-.318-.3-.771-.45-1.36-.45H5.74zM9.51 2.21v3.824h2.657v-.429h-2.148V4.283h1.987v-.429h-1.987V2.64h2.131V2.21H9.51zM12.777 2.21v3.824h.482V2.965h.01l1.998 3.069h.557V2.21h-.482v3.1h-.01l-2.014-3.1h-.541zM18.137 2.21v3.824h2.656v-.429h-2.147V4.283h1.986v-.429h-1.986V2.64h2.131V2.21h-2.64zM24.461 4.652V2.21h-.509v2.442c0 .343-.084.603-.254.78-.17.176-.417.264-.742.264-.342 0-.605-.088-.787-.265-.182-.176-.273-.436-.273-.779V2.21h-.509v2.442c0 .51.139.883.415 1.117.277.233.662.35 1.154.35.482 0 .854-.122 1.114-.366.26-.245.391-.612.391-1.1zM25.275 2.21v3.824h.509V4.4h1.242c.125 0 .225.018.3.056a.502.502 0 0 1 .182.15c.046.062.08.135.102.22.021.083.039.171.053.264.018.093.029.188.032.284l.011.27c.004.084.012.16.024.228a.32.32 0 0 0 .072.16h.568a.653.653 0 0 1-.12-.222 1.74 1.74 0 0 1-.062-.265 2.467 2.467 0 0 1-.027-.283 7.098 7.098 0 0 0-.016-.284 2.467 2.467 0 0 0-.045-.268.813.813 0 0 0-.091-.233.585.585 0 0 0-.166-.18.68.68 0 0 0-.27-.106V4.18c.231-.064.4-.184.505-.359a1.16 1.16 0 0 0 .158-.61c0-.31-.102-.555-.308-.734-.205-.178-.49-.268-.854-.268h-1.799zm1.569 1.762h-1.06V2.64h1.264c.239 0 .412.06.519.182.107.121.16.278.16.471 0 .14-.024.253-.072.34a.572.572 0 0 1-.193.209.737.737 0 0 1-.28.104 2.05 2.05 0 0 1-.338.027zM29.238 4.122c0-.193.024-.383.075-.57a1.55 1.55 0 0 1 .235-.506c.107-.15.245-.27.412-.362a1.24 1.24 0 0 1 .6-.136c.232 0 .432.045.6.136.168.091.305.212.412.362.107.15.186.318.236.506a2.203 2.203 0 0 1 0 1.14c-.05.188-.129.356-.236.506-.107.15-.244.27-.412.362a1.24 1.24 0 0 1-.6.136 1.24 1.24 0 0 1-.6-.136 1.205 1.205 0 0 1-.412-.362 1.549 1.549 0 0 1-.235-.506 2.203 2.203 0 0 1-.075-.57zm-.51 0c0 .26.04.511.116.752.077.241.192.455.345.64.154.186.345.333.573.442.229.109.495.163.798.163.304 0 .57-.054.798-.163.229-.109.42-.256.573-.442.153-.185.269-.399.345-.64.077-.24.115-.491.115-.752 0-.26-.038-.511-.115-.752a1.897 1.897 0 0 0-.345-.64 1.686 1.686 0 0 0-.573-.445 1.81 1.81 0 0 0-.798-.166c-.303 0-.57.056-.798.166-.228.111-.42.26-.573.445a1.895 1.895 0 0 0-.345.64 2.462 2.462 0 0 0-.115.752zM33.521 4.042V2.639h.996c.29 0 .501.06.635.18.134.119.2.293.2.521 0 .229-.066.404-.2.525s-.346.18-.635.177h-.996zm-.508-1.832v3.824h.508V4.47h1.168c.385.004.677-.094.875-.294.198-.2.297-.479.297-.836s-.099-.634-.297-.832c-.198-.199-.49-.298-.875-.298h-1.676zM38.244 2.639h.22v1.853h-1.12l.9-1.853zm-.284-.429l-1.927 3.824h.567l.547-1.114h1.317v1.114h2.393v-.429h-1.911V4.283h1.767v-.429h-1.767V2.64h1.88V2.21H37.96zM41.462 2.21v3.824h.51V2.21h-.51zM45.04 3.33h.481a1.348 1.348 0 0 0-.12-.544 1.06 1.06 0 0 0-.3-.377 1.237 1.237 0 0 0-.442-.22 2.042 2.042 0 0 0-1.057-.003 1.406 1.406 0 0 0-.445.204 1.03 1.03 0 0 0-.313.348 1.012 1.012 0 0 0-.118.5c0 .175.035.32.105.437.07.116.162.21.278.284.116.073.247.132.394.176.146.045.295.084.447.118l.447.1c.146.031.277.073.393.125a.767.767 0 0 1 .279.201.48.48 0 0 1 .104.321c0 .14-.028.254-.085.343a.624.624 0 0 1-.225.211 1.017 1.017 0 0 1-.313.11 1.9 1.9 0 0 1-.346.032c-.143 0-.282-.017-.418-.053a1.04 1.04 0 0 1-.356-.166.853.853 0 0 1-.246-.287.863.863 0 0 1-.094-.415h-.482c0 .232.042.433.126.603.084.17.198.309.343.417.145.11.312.19.503.244a2.325 2.325 0 0 0 1.135.019c.177-.041.337-.107.48-.198.142-.091.26-.21.35-.354a.96.96 0 0 0 .137-.522.959.959 0 0 0-.104-.471.93.93 0 0 0-.279-.31 1.475 1.475 0 0 0-.393-.196 5.333 5.333 0 0 0-.448-.126c-.151-.036-.3-.069-.447-.099a2.346 2.346 0 0 1-.393-.115.774.774 0 0 1-.279-.18.399.399 0 0 1-.104-.286.62.62 0 0 1 .072-.313.562.562 0 0 1 .193-.201.84.84 0 0 1 .276-.107c.103-.022.208-.032.316-.032.264 0 .48.061.65.185.17.123.269.322.297.597zM46.298 2.21v3.824h.508V4.695l.638-.594 1.381 1.933h.643l-1.676-2.281 1.612-1.543h-.66l-1.938 1.907V2.21h-.508zM49.87 2.21v3.824h2.655v-.429h-2.147V4.283h1.987v-.429h-1.987V2.64h2.131V2.21h-2.64zM57.682 4.652V2.21h-.509v2.442c0 .343-.084.603-.254.78-.17.176-.417.264-.742.264-.342 0-.605-.088-.787-.265-.182-.176-.273-.436-.273-.779V2.21h-.509v2.442c0 .51.139.883.415 1.117.277.233.662.35 1.154.35.482 0 .854-.122 1.114-.366.26-.245.391-.612.391-1.1zM58.49 2.21v3.824h.482V2.965h.011l1.998 3.069h.556V2.21h-.481v3.1h-.011l-2.014-3.1h-.54zM62.383 2.21v3.824h.51V2.21h-.51zM64.043 4.122c0-.193.025-.383.075-.57a1.55 1.55 0 0 1 .236-.506c.107-.15.245-.27.412-.362a1.24 1.24 0 0 1 .6-.136c.232 0 .432.045.6.136.168.091.305.212.412.362.107.15.186.318.236.506a2.203 2.203 0 0 1 0 1.14c-.05.188-.129.356-.236.506-.107.15-.244.27-.412.362a1.24 1.24 0 0 1-.6.136 1.24 1.24 0 0 1-.6-.136 1.205 1.205 0 0 1-.412-.362 1.549 1.549 0 0 1-.236-.506 2.203 2.203 0 0 1-.075-.57zm-.508 0c0 .26.038.511.115.752.077.241.192.455.345.64.154.186.345.333.573.442.229.109.495.163.798.163.303 0 .57-.054.798-.163.228-.109.42-.256.573-.442.153-.185.269-.399.345-.64.077-.24.115-.491.115-.752 0-.26-.038-.511-.115-.752a1.897 1.897 0 0 0-.345-.64 1.686 1.686 0 0 0-.573-.445 1.81 1.81 0 0 0-.798-.166c-.303 0-.57.056-.798.166-.228.111-.42.26-.573.445a1.893 1.893 0 0 0-.345.64 2.462 2.462 0 0 0-.115.752zM67.813 2.21v3.824h.482V2.965h.01l1.998 3.069h.557V2.21h-.482v3.1h-.01l-2.014-3.1h-.54z"/></g><g fill="#231f20"><path d="M5.294 13.213v-2.985h.862c.237 0 .437.033.598.1a.97.97 0 0 1 .396.29c.103.128.176.283.221.464.045.181.068.387.068.617 0 .237-.025.44-.073.606-.049.167-.11.306-.186.418a.973.973 0 0 1-.256.264 1.257 1.257 0 0 1-.563.213 2.138 2.138 0 0 1-.215.013h-.852zm-.512-3.416v3.847h1.32c.32 0 .597-.045.83-.135.234-.09.426-.22.577-.39.15-.171.262-.381.334-.63.072-.25.108-.537.108-.86 0-.618-.16-1.078-.48-1.38-.32-.301-.776-.452-1.369-.452h-1.32zM10.434 11.985h-1.6a.954.954 0 0 1 .07-.305.813.813 0 0 1 .162-.25.74.74 0 0 1 .245-.17.798.798 0 0 1 .32-.062.784.784 0 0 1 .73.48c.042.096.066.199.073.306zm.442.775h-.452a.651.651 0 0 1-.245.41.793.793 0 0 1-.477.135.948.948 0 0 1-.394-.076.771.771 0 0 1-.43-.493 1.105 1.105 0 0 1-.044-.347h2.085a2.218 2.218 0 0 0-.046-.534 1.544 1.544 0 0 0-.204-.517 1.221 1.221 0 0 0-.394-.39 1.143 1.143 0 0 0-.616-.154 1.236 1.236 0 0 0-.94.41c-.117.129-.208.281-.273.457-.064.176-.097.37-.097.582.007.212.039.408.095.587.055.18.139.335.25.464.111.13.249.23.412.301.164.072.357.108.58.108.316 0 .578-.079.786-.237.208-.158.343-.393.404-.706zM11.393 10.858v2.786h.458v-1.573c0-.126.017-.242.052-.348a.788.788 0 0 1 .153-.277.681.681 0 0 1 .256-.184.934.934 0 0 1 .364-.064.56.56 0 0 1 .415.15c.1.101.15.238.15.41v1.886h.459v-1.832c0-.15-.016-.288-.046-.412a.78.78 0 0 0-.16-.32.753.753 0 0 0-.296-.21 1.209 1.209 0 0 0-.458-.076c-.413 0-.714.169-.905.506h-.01v-.442h-.432zM15.962 9.797v3.847h2.673v-.431h-2.16v-1.33h1.998v-.432h-1.999v-1.223h2.145v-.431h-2.657zM21.485 13.644v-2.786h-.458v1.574c0 .125-.017.241-.051.347a.788.788 0 0 1-.154.278.681.681 0 0 1-.256.183.934.934 0 0 1-.363.065.56.56 0 0 1-.415-.151.554.554 0 0 1-.151-.41v-1.886h-.458v1.832c0 .151.015.289.046.412a.73.73 0 0 0 .455.528c.122.049.275.073.458.073.205 0 .383-.04.534-.121a.935.935 0 0 0 .371-.38h.011v.442h.431zM22.159 10.858v2.786h.457v-1.24c0-.179.018-.338.054-.476a.914.914 0 0 1 .173-.353.739.739 0 0 1 .312-.22c.13-.051.286-.076.47-.076v-.485c-.249-.007-.453.043-.615.15a1.242 1.242 0 0 0-.41.502h-.01v-.588h-.431zM24.206 12.254c0-.169.022-.319.067-.45a.972.972 0 0 1 .186-.331.791.791 0 0 1 .278-.205.825.825 0 0 1 .336-.07c.119 0 .231.023.337.07a.792.792 0 0 1 .278.205c.079.09.14.2.186.331.044.131.067.281.067.45 0 .169-.023.319-.067.45a.94.94 0 0 1-.186.328.806.806 0 0 1-.615.273.825.825 0 0 1-.614-.273.941.941 0 0 1-.186-.328 1.386 1.386 0 0 1-.067-.45zm-.485 0c0 .205.029.395.086.571.058.176.144.33.259.46.115.132.257.234.425.308.17.073.363.11.582.11.223 0 .418-.037.585-.11.167-.074.308-.176.423-.307.115-.131.201-.285.259-.461.057-.176.086-.366.086-.571 0-.205-.029-.396-.086-.574a1.3 1.3 0 0 0-.26-.463 1.224 1.224 0 0 0-.422-.31 1.41 1.41 0 0 0-.585-.113c-.219 0-.413.037-.582.113-.168.075-.31.179-.425.31a1.3 1.3 0 0 0-.259.463c-.057.178-.086.37-.086.574zM26.98 10.858v3.847h.459v-1.433h.01c.05.083.113.152.186.208a.98.98 0 0 0 .235.132 1.372 1.372 0 0 0 1.037-.022c.16-.075.293-.179.399-.31a1.32 1.32 0 0 0 .237-.46c.052-.176.078-.363.078-.56 0-.198-.027-.385-.081-.561a1.415 1.415 0 0 0-.24-.466 1.144 1.144 0 0 0-.399-.32 1.256 1.256 0 0 0-.563-.12c-.194 0-.371.036-.533.106a.685.685 0 0 0-.355.337h-.011v-.378h-.458zm2.156 1.369c0 .136-.014.27-.043.399-.029.129-.076.244-.14.345a.734.734 0 0 1-.256.242.783.783 0 0 1-.396.092.784.784 0 0 1-.676-.323.98.98 0 0 1-.154-.337 1.606 1.606 0 0 1-.003-.779c.03-.126.08-.238.148-.337a.788.788 0 0 1 .265-.24.786.786 0 0 1 .393-.091.767.767 0 0 1 .655.318c.07.097.122.207.156.331.034.124.05.25.05.38zM32.33 12.389h2.043c0-.216-.02-.42-.06-.615a1.42 1.42 0 0 0-.204-.509 1.035 1.035 0 0 0-.385-.345 1.29 1.29 0 0 0-.606-.126c-.17 0-.336.031-.502.094a.78.78 0 0 0-.387.31.585.585 0 0 0-.173-.21.83.83 0 0 0-.237-.124 1.218 1.218 0 0 0-.264-.057 2.625 2.625 0 0 0-.258-.013c-.155 0-.302.016-.442.048-.14.033-.264.086-.372.16a.815.815 0 0 0-.259.287.989.989 0 0 0-.108.437h.459c.01-.205.08-.344.21-.418a.969.969 0 0 1 .485-.11c.075 0 .15.004.226.013a.591.591 0 0 1 .202.06.38.38 0 0 1 .145.132.406.406 0 0 1 .057.226.3.3 0 0 1-.054.191.364.364 0 0 1-.167.108c-.075.027-.173.05-.294.067-.12.018-.265.043-.433.076a3.653 3.653 0 0 0-.348.08.974.974 0 0 0-.302.143.705.705 0 0 0-.212.245c-.054.101-.081.23-.081.388 0 .14.024.26.072.359.049.098.115.18.2.242a.799.799 0 0 0 .299.135c.115.027.239.04.372.04.258 0 .493-.042.703-.126a.902.902 0 0 0 .471-.412.832.832 0 0 0 .412.422c.088.042.183.071.283.09.1.017.205.026.313.026.316 0 .579-.08.79-.24.21-.16.348-.392.417-.697h-.47a.651.651 0 0 1-.255.406.772.772 0 0 1-.45.133.879.879 0 0 1-.369-.073.708.708 0 0 1-.261-.2.864.864 0 0 1-.154-.293 1.19 1.19 0 0 1-.051-.35zm-1.836.506c0-.086.015-.158.046-.215a.425.425 0 0 1 .12-.143.586.586 0 0 1 .178-.09c.069-.02.14-.039.216-.053a3.51 3.51 0 0 1 .229-.038c.08-.01.159-.022.234-.035.076-.012.147-.028.213-.046a.643.643 0 0 0 .17-.07v.47a.494.494 0 0 1-.051.207.635.635 0 0 1-.157.204.845.845 0 0 1-.269.157 1.108 1.108 0 0 1-.593.04.497.497 0 0 1-.172-.07.38.38 0 0 1-.119-.127.372.372 0 0 1-.045-.19zm3.394-.91h-1.557c0-.115.018-.22.054-.316a.708.708 0 0 1 .404-.412.865.865 0 0 1 .329-.06c.122 0 .23.022.326.063a.701.701 0 0 1 .24.167c.064.07.113.153.148.25.034.097.053.2.056.308zM35.332 10.357v-.56h-.458v.56h.458zm-.458.501v2.786h.458v-2.786h-.458zM36.323 12.766h-.458c.008.172.043.319.108.439a.81.81 0 0 0 .259.29c.108.074.232.127.372.16.14.032.287.048.441.048.14 0 .282-.013.423-.04a1.15 1.15 0 0 0 .383-.143.823.823 0 0 0 .275-.27.777.777 0 0 0 .105-.42.657.657 0 0 0-.078-.334.698.698 0 0 0-.205-.223 1.099 1.099 0 0 0-.291-.143 3.403 3.403 0 0 0-.337-.092c-.108-.025-.215-.049-.323-.072a1.854 1.854 0 0 1-.291-.087.666.666 0 0 1-.213-.129.258.258 0 0 1-.083-.197c0-.071.018-.13.054-.175a.385.385 0 0 1 .14-.107.7.7 0 0 1 .19-.057c.07-.01.14-.016.208-.016.076 0 .15.008.224.024a.686.686 0 0 1 .202.078.458.458 0 0 1 .15.143c.04.06.064.134.07.224h.459a1.024 1.024 0 0 0-.108-.423.724.724 0 0 0-.245-.27 1.008 1.008 0 0 0-.353-.14 2.195 2.195 0 0 0-.436-.04c-.123 0-.246.015-.37.046-.123.03-.235.077-.334.14a.771.771 0 0 0-.242.245.667.667 0 0 0-.094.36c0 .18.045.32.134.421.09.1.202.179.337.234.135.056.281.1.44.13.157.03.304.064.438.102.135.038.247.087.337.148.09.061.135.151.135.27a.337.337 0 0 1-.065.212.409.409 0 0 1-.164.127.832.832 0 0 1-.218.06c-.08.01-.155.016-.227.016-.093 0-.184-.01-.272-.027a.764.764 0 0 1-.237-.09.488.488 0 0 1-.17-.166.516.516 0 0 1-.07-.256zM38.764 9.797v3.847h.458v-1.056l.431-.399.954 1.455h.582l-1.186-1.773 1.105-1.013h-.614l-1.272 1.218V9.797h-.458zM43.468 11.985h-1.6a.954.954 0 0 1 .07-.305.812.812 0 0 1 .161-.25.74.74 0 0 1 .245-.17.798.798 0 0 1 .321-.062.784.784 0 0 1 .73.48c.041.096.066.199.073.306zm.442.775h-.453a.651.651 0 0 1-.245.41.793.793 0 0 1-.477.135.949.949 0 0 1-.393-.076.772.772 0 0 1-.431-.493 1.106 1.106 0 0 1-.043-.347h2.085a2.218 2.218 0 0 0-.046-.534 1.544 1.544 0 0 0-.205-.517 1.221 1.221 0 0 0-.393-.39 1.143 1.143 0 0 0-.617-.154 1.237 1.237 0 0 0-.94.41c-.117.129-.208.281-.272.457-.065.176-.097.37-.097.582.007.212.038.408.094.587.056.18.14.335.25.464.112.13.25.23.413.301.163.072.356.108.579.108.316 0 .578-.079.786-.237.209-.158.344-.393.405-.706zM48.225 10.923h.485a1.355 1.355 0 0 0-.121-.547 1.065 1.065 0 0 0-.302-.38 1.245 1.245 0 0 0-.444-.22 2.056 2.056 0 0 0-1.064-.003 1.415 1.415 0 0 0-.448.204 1.036 1.036 0 0 0-.315.35 1.02 1.02 0 0 0-.118.505c0 .175.035.322.105.439.07.116.163.211.28.285.117.074.249.133.396.178.147.045.297.084.45.118l.45.1c.147.033.28.075.396.127.117.052.21.12.28.202.07.082.105.19.105.323 0 .14-.029.255-.086.345a.627.627 0 0 1-.227.213 1.024 1.024 0 0 1-.315.11 1.907 1.907 0 0 1-.347.033c-.144 0-.284-.018-.42-.054a1.045 1.045 0 0 1-.359-.167.857.857 0 0 1-.248-.289.87.87 0 0 1-.094-.417h-.485c0 .233.042.435.127.606.084.17.2.31.345.42.145.11.314.191.506.245a2.34 2.34 0 0 0 1.142.019c.178-.041.339-.108.483-.2.143-.09.26-.21.352-.355a.966.966 0 0 0 .138-.525.964.964 0 0 0-.105-.474.936.936 0 0 0-.28-.313 1.486 1.486 0 0 0-.396-.196 5.396 5.396 0 0 0-.45-.127c-.153-.036-.303-.07-.45-.1a2.36 2.36 0 0 1-.396-.116.777.777 0 0 1-.28-.18.4.4 0 0 1-.105-.288c0-.126.024-.231.072-.315a.565.565 0 0 1 .194-.202.842.842 0 0 1 .278-.108c.104-.022.21-.033.318-.033.266 0 .484.062.654.186.17.124.27.325.3.601zM49.75 12.254c0-.169.023-.319.068-.45a.97.97 0 0 1 .185-.331.792.792 0 0 1 .278-.205.826.826 0 0 1 .337-.07c.118 0 .23.023.336.07a.791.791 0 0 1 .278.205c.079.09.14.2.186.331.045.131.067.281.067.45 0 .169-.022.319-.067.45a.941.941 0 0 1-.186.328.805.805 0 0 1-.614.273.826.826 0 0 1-.615-.273.94.94 0 0 1-.185-.328 1.386 1.386 0 0 1-.068-.45zm-.485 0c0 .205.029.395.086.571.058.176.144.33.259.46.115.132.257.234.426.308.169.073.362.11.582.11.222 0 .417-.037.584-.11.167-.074.308-.176.423-.307.115-.131.201-.285.259-.461.057-.176.086-.366.086-.571 0-.205-.029-.396-.086-.574a1.3 1.3 0 0 0-.259-.463 1.224 1.224 0 0 0-.423-.31 1.41 1.41 0 0 0-.584-.113c-.22 0-.413.037-.582.113a1.219 1.219 0 0 0-.685.773c-.057.178-.086.37-.086.574zM54.4 11.753h.474a1.1 1.1 0 0 0-.13-.428.955.955 0 0 0-.26-.3 1.084 1.084 0 0 0-.367-.175 1.683 1.683 0 0 0-.444-.056c-.22 0-.412.038-.577.116a1.15 1.15 0 0 0-.412.317c-.11.135-.191.293-.245.475-.054.181-.081.376-.081.584 0 .209.028.4.083.574.056.174.139.324.248.45.11.126.246.223.41.29.163.07.35.103.563.103.355 0 .636-.093.843-.28.206-.187.335-.453.385-.797h-.468c-.03.215-.107.382-.235.5-.127.12-.304.179-.53.179a.722.722 0 0 1-.625-.315 1.008 1.008 0 0 1-.143-.327 1.552 1.552 0 0 1-.046-.377c0-.14.014-.275.043-.407.029-.13.076-.246.143-.347a.738.738 0 0 1 .266-.242.853.853 0 0 1 .415-.092c.194 0 .349.048.464.145.115.097.19.234.226.41zM55.887 10.357v-.56h-.458v.56h.458zm-.458.501v2.786h.458v-2.786h-.458zM59.066 13.633a.648.648 0 0 1-.329.07.394.394 0 0 1-.283-.1c-.07-.066-.105-.175-.105-.325-.125.15-.272.26-.439.326-.167.066-.347.1-.541.1-.126 0-.245-.015-.359-.044a.832.832 0 0 1-.293-.135.646.646 0 0 1-.197-.24.807.807 0 0 1-.073-.358c0-.158.027-.287.081-.387a.706.706 0 0 1 .213-.246.973.973 0 0 1 .302-.143c.113-.032.229-.059.347-.08.126-.025.245-.044.358-.057.114-.012.213-.03.3-.054a.497.497 0 0 0 .204-.102c.05-.045.076-.11.076-.197 0-.1-.02-.181-.057-.242a.388.388 0 0 0-.145-.14.59.59 0 0 0-.2-.065 1.502 1.502 0 0 0-.218-.016.969.969 0 0 0-.485.11c-.13.074-.2.213-.21.418h-.458a.99.99 0 0 1 .108-.437.817.817 0 0 1 .259-.288c.107-.073.23-.126.369-.159.138-.032.286-.048.444-.048.126 0 .25.009.374.027a.98.98 0 0 1 .337.11c.1.056.182.134.243.235a.75.75 0 0 1 .091.393v1.433c0 .108.007.187.02.237.012.05.054.076.126.076.04 0 .086-.01.14-.027v.355zm-.744-1.428a.57.57 0 0 1-.226.095c-.093.02-.191.036-.294.048a9.83 9.83 0 0 0-.31.043 1.137 1.137 0 0 0-.28.078.51.51 0 0 0-.202.154.43.43 0 0 0-.078.272c0 .075.015.14.046.191.03.052.07.095.119.127a.496.496 0 0 0 .17.07.94.94 0 0 0 .204.022c.15 0 .28-.021.388-.062a.816.816 0 0 0 .264-.157.616.616 0 0 0 .15-.204.517.517 0 0 0 .05-.208v-.469zM59.518 9.797v3.847h.458V9.797h-.458zM60.876 11.262v2.382h.458v-2.382h.539v-.404h-.539v-.388c0-.122.03-.204.092-.247a.444.444 0 0 1 .258-.065c.04 0 .083.003.13.008.046.005.09.015.129.03v-.399a1.172 1.172 0 0 0-.296-.043c-.252 0-.443.058-.574.175-.131.117-.197.288-.197.514v.415h-.468v.404h.468zM62.617 12.254c0-.169.022-.319.067-.45a.971.971 0 0 1 .186-.331.793.793 0 0 1 .614-.275c.118 0 .23.023.337.07a.791.791 0 0 1 .277.205c.08.09.141.2.186.331.045.131.067.281.067.45 0 .169-.022.319-.067.45a.941.941 0 0 1-.186.328.805.805 0 0 1-.614.273.826.826 0 0 1-.614-.273.941.941 0 0 1-.186-.328 1.386 1.386 0 0 1-.067-.45zm-.485 0c0 .205.028.395.086.571.057.176.143.33.258.46.115.132.257.234.426.308.169.073.363.11.582.11.223 0 .417-.037.585-.11.167-.074.308-.176.422-.307.115-.131.202-.285.26-.461.057-.176.085-.366.085-.571 0-.205-.028-.396-.086-.574a1.298 1.298 0 0 0-.258-.463 1.224 1.224 0 0 0-.423-.31 1.41 1.41 0 0 0-.585-.113c-.22 0-.413.037-.582.113a1.218 1.218 0 0 0-.684.773c-.058.178-.086.37-.086.574zM65.375 10.858v2.786h.458v-1.573c0-.126.017-.242.051-.348a.79.79 0 0 1 .154-.277.683.683 0 0 1 .256-.184.933.933 0 0 1 .364-.064.56.56 0 0 1 .414.15c.1.101.151.238.151.41v1.886h.458v-1.832c0-.15-.015-.288-.046-.412a.78.78 0 0 0-.159-.32.753.753 0 0 0-.296-.21 1.209 1.209 0 0 0-.458-.076c-.413 0-.715.169-.905.506h-.01v-.442h-.432zM68.705 12.275c0-.136.014-.269.043-.398.029-.13.075-.245.14-.345a.728.728 0 0 1 .652-.334.785.785 0 0 1 .676.323.98.98 0 0 1 .154.337 1.602 1.602 0 0 1 .002.778c-.03.126-.08.238-.148.337a.788.788 0 0 1-.264.24.786.786 0 0 1-.393.092.766.766 0 0 1-.655-.318 1.026 1.026 0 0 1-.156-.332 1.421 1.421 0 0 1-.051-.38zm2.155 1.369V9.797h-.458v1.433h-.01a.74.74 0 0 0-.187-.207 1.055 1.055 0 0 0-.234-.135 1.174 1.174 0 0 0-.248-.073 1.353 1.353 0 0 0-.231-.021c-.212 0-.398.038-.558.116-.16.077-.293.181-.399.312a1.32 1.32 0 0 0-.237.46 1.964 1.964 0 0 0-.078.561c0 .198.027.384.08.56.055.176.135.33.24.464.106.133.24.239.4.318.16.079.347.118.562.118.194 0 .372-.034.534-.102a.674.674 0 0 0 .355-.334h.011v.377h.458z"/></g></g></svg>