<svg xmlns="http://www.w3.org/2000/svg" xmlns:vectornator="http://vectornator.io" fill-rule="evenodd" stroke-linecap="round" stroke-linejoin="round" clip-rule="evenodd" viewBox="0 0 107.402 40.861"><g vectornator:layerName="Lag 1"><g fill="#231f20"><path d="M26.608 37.401l1.905-5.355h-.743l-1.544 4.643h-.015l-1.53-4.643h-.765l1.882 5.355h.81zM29.518 32.826v-.78h-.637v.78h.637zm-.637.698V37.4h.637v-3.877h-.637zM33.268 32.826v-.78h-.638v.78h.638zm-.638.698V37.4h.638v-3.877h-.638zM34.258 33.524V37.4h.637v-2.19c0-.175.024-.336.072-.483.047-.148.119-.277.214-.387a.95.95 0 0 1 .356-.255c.142-.06.311-.09.506-.09.245 0 .438.07.578.21.14.14.21.33.21.57v2.625h.637v-2.55a2.4 2.4 0 0 0-.064-.573 1.087 1.087 0 0 0-.221-.447 1.048 1.048 0 0 0-.413-.292 1.683 1.683 0 0 0-.637-.105c-.575 0-.995.235-1.26.705h-.015v-.615h-.6zM40.175 37.401l1.418-3.877h-.668l-1.057 3.232h-.015l-1.087-3.232h-.713l1.44 3.877h.682zM44.87 35.091h-2.227c.01-.15.042-.29.097-.423a1.13 1.13 0 0 1 .225-.35c.095-.1.21-.178.342-.235a1.11 1.11 0 0 1 .446-.087 1.09 1.09 0 0 1 1.016.668c.058.135.092.277.102.427zm.616 1.08h-.63c-.056.255-.17.445-.342.57-.172.125-.394.188-.664.188a1.32 1.32 0 0 1-.547-.105 1.073 1.073 0 0 1-.6-.686 1.54 1.54 0 0 1-.06-.484h2.902a3.087 3.087 0 0 0-.063-.743 2.15 2.15 0 0 0-.285-.72 1.698 1.698 0 0 0-.548-.543c-.227-.143-.514-.214-.858-.214a1.719 1.719 0 0 0-1.309.57c-.163.18-.289.392-.379.637-.09.245-.135.515-.135.81.01.295.054.568.131.818.078.25.194.465.349.645.155.18.346.32.574.42.227.1.496.15.806.15.44 0 .805-.11 1.095-.33.29-.22.477-.548.563-.983zM46.596 36.179h-.638c.01.24.06.444.15.611.09.168.21.303.36.405.15.103.322.176.517.221.196.045.4.068.615.068.195 0 .392-.019.59-.056.197-.038.374-.104.532-.2.157-.094.285-.22.382-.374a1.08 1.08 0 0 0 .147-.585.914.914 0 0 0-.11-.465.97.97 0 0 0-.284-.311 1.529 1.529 0 0 0-.405-.2 4.788 4.788 0 0 0-.469-.127c-.15-.035-.3-.068-.45-.1a2.596 2.596 0 0 1-.405-.12.928.928 0 0 1-.296-.18.36.36 0 0 1-.117-.275c0-.1.025-.18.075-.243a.536.536 0 0 1 .196-.15.973.973 0 0 1 .266-.08c.097-.014.194-.022.288-.022.105 0 .21.012.312.034a.954.954 0 0 1 .281.109c.085.05.155.116.21.199a.645.645 0 0 1 .097.31h.638a1.424 1.424 0 0 0-.15-.588 1.01 1.01 0 0 0-.341-.375 1.406 1.406 0 0 0-.492-.195 3.061 3.061 0 0 0-.607-.056c-.17 0-.341.021-.514.064a1.55 1.55 0 0 0-.465.195c-.137.087-.25.2-.337.34a.929.929 0 0 0-.131.503c0 .25.062.445.187.585.125.14.281.25.469.327.187.077.391.137.611.18.22.042.424.09.611.142.188.053.344.121.469.206.125.085.188.21.188.375a.47.47 0 0 1-.09.297.57.57 0 0 1-.23.176c-.092.04-.193.067-.303.082-.11.015-.215.023-.315.023-.13 0-.256-.013-.379-.038a1.063 1.063 0 0 1-.33-.123.679.679 0 0 1-.236-.233.718.718 0 0 1-.097-.356zM50.84 33.524V32.36h-.637v1.163h-.66v.562h.66v2.468c0 .18.017.325.052.435.035.11.09.195.162.255.072.06.167.101.285.124.117.022.259.033.424.033h.487v-.562h-.292c-.1 0-.182-.004-.244-.011a.315.315 0 0 1-.146-.05.185.185 0 0 1-.072-.104.695.695 0 0 1-.019-.18v-2.408h.773v-.562h-.773zM55.01 35.091h-2.227c.01-.15.042-.29.097-.423a1.13 1.13 0 0 1 .225-.35c.096-.1.21-.178.342-.235a1.11 1.11 0 0 1 .446-.087 1.09 1.09 0 0 1 1.016.668c.058.135.092.277.102.427zm.616 1.08h-.63c-.056.255-.17.445-.342.57-.172.125-.394.188-.664.188a1.32 1.32 0 0 1-.547-.105 1.073 1.073 0 0 1-.6-.686 1.54 1.54 0 0 1-.06-.484h2.902a3.087 3.087 0 0 0-.063-.743 2.15 2.15 0 0 0-.285-.72 1.698 1.698 0 0 0-.548-.543c-.227-.143-.514-.214-.858-.214a1.719 1.719 0 0 0-1.309.57c-.163.18-.289.392-.379.637-.09.245-.135.515-.135.81.01.295.054.568.131.818.078.25.194.465.349.645.155.18.346.32.574.42.227.1.496.15.806.15.44 0 .805-.11 1.095-.33.29-.22.477-.548.563-.983zM56.323 33.524V37.4h.638v-1.725c0-.25.025-.47.075-.663.05-.193.13-.357.24-.492.11-.135.255-.237.434-.307.18-.07.398-.105.653-.105v-.675c-.345-.01-.63.06-.855.21-.225.15-.415.382-.57.697h-.015v-.817h-.6zM61.4 35.091h-2.227c.01-.15.042-.29.097-.423a1.13 1.13 0 0 1 .225-.35c.096-.1.21-.178.342-.235a1.11 1.11 0 0 1 .446-.087 1.09 1.09 0 0 1 1.016.668c.058.135.092.277.102.427zm.616 1.08h-.63c-.056.255-.17.445-.342.57-.172.125-.393.188-.663.188a1.32 1.32 0 0 1-.548-.105 1.073 1.073 0 0 1-.6-.686 1.54 1.54 0 0 1-.06-.484h2.902a3.087 3.087 0 0 0-.063-.743 2.15 2.15 0 0 0-.285-.72 1.698 1.698 0 0 0-.548-.543c-.227-.143-.514-.214-.858-.214a1.719 1.719 0 0 0-1.309.57c-.163.18-.289.392-.379.637-.09.245-.135.515-.135.81.01.295.054.568.131.818.078.25.194.465.349.645.155.18.346.32.574.42.227.1.496.15.806.15.44 0 .805-.11 1.095-.33.29-.22.477-.548.563-.983zM62.713 33.524V37.4h.637v-1.725c0-.25.026-.47.075-.663.05-.193.13-.357.24-.492.11-.135.255-.237.435-.307s.398-.105.653-.105v-.675c-.345-.01-.63.06-.855.21-.225.15-.415.382-.57.697h-.015v-.817h-.6zM67.993 32.826v-.78h-.637v.78h.637zm-.637.698V37.4h.637v-3.877h-.637zM71.533 35.496c0-.19.02-.375.06-.555.04-.18.105-.34.195-.48.09-.14.21-.252.36-.337.15-.085.333-.128.547-.128.22 0 .408.042.563.124.155.083.281.191.379.326.097.135.168.292.213.47a2.234 2.234 0 0 1 .004 1.083 1.396 1.396 0 0 1-.206.469 1.097 1.097 0 0 1-.367.333c-.15.085-.333.128-.548.128-.205 0-.384-.04-.536-.12a1.066 1.066 0 0 1-.375-.323 1.427 1.427 0 0 1-.218-.46 1.983 1.983 0 0 1-.071-.53zm3 1.905v-5.355h-.638v1.995h-.014a1.027 1.027 0 0 0-.26-.288 1.47 1.47 0 0 0-.325-.188 1.638 1.638 0 0 0-.346-.101 1.888 1.888 0 0 0-.322-.03c-.295 0-.554.054-.776.161a1.594 1.594 0 0 0-.555.435 1.836 1.836 0 0 0-.33.641 2.735 2.735 0 0 0-.109.78c0 .275.037.535.112.78.076.245.187.46.334.645.148.185.333.333.555.443.223.11.484.165.784.165.27 0 .517-.048.742-.143a.938.938 0 0 0 .495-.465h.016v.525h.637zM76.19 32.826v-.78h-.637v.78h.638zm-.637.698V37.4h.638v-3.877h-.638zM77.18 33.524V37.4h.638v-2.19c0-.175.024-.336.071-.483.048-.148.119-.277.214-.387a.95.95 0 0 1 .356-.255c.143-.06.311-.09.507-.09.245 0 .437.07.577.21.14.14.21.33.21.57v2.625h.638v-2.55a2.4 2.4 0 0 0-.064-.573 1.087 1.087 0 0 0-.221-.447 1.048 1.048 0 0 0-.413-.292 1.683 1.683 0 0 0-.638-.105c-.575 0-.995.235-1.26.705h-.014v-.615h-.6zM83.698 34.086v3.315h.638v-3.315h.75v-.562h-.75v-.54c0-.17.042-.285.127-.345a.618.618 0 0 1 .36-.09c.055 0 .115.004.18.011a.79.79 0 0 1 .18.041v-.555a1.1 1.1 0 0 0-.206-.045 1.633 1.633 0 0 0-.207-.015c-.35 0-.616.082-.798.244-.183.163-.274.401-.274.716v.578h-.652v.562h.652zM85.633 33.524V37.4h.638v-1.725c0-.25.025-.47.075-.663.05-.193.13-.357.24-.492.11-.135.255-.237.434-.307.18-.07.398-.105.653-.105v-.675c-.345-.01-.63.06-.855.21-.225.15-.415.382-.57.697h-.015v-.817h-.6zM90.71 35.091h-2.227c.01-.15.042-.29.097-.423a1.13 1.13 0 0 1 .225-.35c.095-.1.21-.178.342-.235a1.11 1.11 0 0 1 .446-.087 1.09 1.09 0 0 1 1.016.668c.058.135.092.277.102.427zm.616 1.08h-.63c-.055.255-.17.445-.342.57-.172.125-.394.188-.663.188a1.32 1.32 0 0 1-.548-.105 1.073 1.073 0 0 1-.6-.686 1.54 1.54 0 0 1-.06-.484h2.902a3.087 3.087 0 0 0-.063-.743 2.15 2.15 0 0 0-.285-.72 1.698 1.698 0 0 0-.548-.543c-.227-.143-.514-.214-.859-.214a1.719 1.719 0 0 0-1.309.57c-.162.18-.288.392-.378.637-.09.245-.135.515-.135.81.01.295.054.568.131.818.078.25.194.465.349.645.155.18.346.32.574.42.227.1.496.15.806.15.44 0 .805-.11 1.095-.33.29-.22.477-.548.563-.983zM92.046 33.524V37.4h.637v-2.415a1.083 1.083 0 0 1 .559-.877.952.952 0 0 1 .476-.113c.145 0 .264.022.356.064a.543.543 0 0 1 .222.18.732.732 0 0 1 .116.274c.022.105.033.22.033.345V37.4h.638v-2.415c0-.3.09-.54.27-.72.18-.18.428-.27.743-.27a.91.91 0 0 1 .378.068.561.561 0 0 1 .229.184.689.689 0 0 1 .112.273c.02.105.03.218.03.338V37.4h.638V34.56c0-.2-.031-.371-.094-.514a.901.901 0 0 0-.262-.349 1.097 1.097 0 0 0-.405-.198 2.03 2.03 0 0 0-.529-.064 1.45 1.45 0 0 0-.701.172 1.354 1.354 0 0 0-.514.488c-.08-.24-.218-.41-.412-.51-.195-.1-.413-.15-.653-.15-.545 0-.962.22-1.252.66h-.016v-.57h-.6zM99.328 33.524V32.36h-.638v1.163h-.66v.562h.66v2.468c0 .18.018.325.053.435.035.11.089.195.161.255.073.06.168.101.285.124.118.022.259.033.424.033h.488v-.562h-.293c-.1 0-.181-.004-.244-.011a.315.315 0 0 1-.146-.05.185.185 0 0 1-.071-.104.695.695 0 0 1-.019-.18v-2.408h.773v-.562h-.773zM101.481 32.826v-.78h-.638v.78h.638zm-.638.698V37.4h.638v-3.877h-.638zM102.936 35.496c0-.19.02-.375.06-.555.04-.18.105-.34.195-.48.09-.14.21-.252.36-.337.15-.085.332-.128.547-.128.22 0 .408.042.563.124.155.083.281.191.378.326.098.135.169.292.214.47a2.234 2.234 0 0 1 .004 1.083 1.405 1.405 0 0 1-.206.469 1.099 1.099 0 0 1-.368.333c-.15.085-.332.128-.547.128-.205 0-.384-.04-.537-.12a1.075 1.075 0 0 1-.375-.323 1.426 1.426 0 0 1-.217-.46 1.963 1.963 0 0 1-.071-.53zm3 1.905v-5.355h-.638v1.995h-.015a1.02 1.02 0 0 0-.259-.288 1.457 1.457 0 0 0-.326-.188 1.638 1.638 0 0 0-.345-.101 1.883 1.883 0 0 0-.322-.03 1.77 1.77 0 0 0-.777.161 1.603 1.603 0 0 0-.555.435 1.853 1.853 0 0 0-.33.641 2.753 2.753 0 0 0-.108.78c0 .275.037.535.112.78.075.245.186.46.334.645.147.185.332.333.555.443.222.11.484.165.784.165.27 0 .517-.048.742-.143a.938.938 0 0 0 .495-.465h.015v.525h.638z"/></g><path fill="none" stroke="#231f20" stroke-linecap="butt" stroke-linejoin="miter" d="M105.936 30.25H.435"/><g fill="#231f20"><path d="M13.277 18.921v-3.04h.878c.242 0 .445.034.61.101.164.068.298.167.403.297.104.13.18.287.225.472.046.184.068.394.068.628 0 .241-.024.447-.074.617-.05.17-.112.312-.189.426a.99.99 0 0 1-.26.269 1.28 1.28 0 0 1-.574.217c-.088.009-.161.013-.22.013h-.867zm-.521-3.48v3.92H14.1c.326 0 .608-.046.845-.138.238-.091.434-.224.588-.398.154-.174.267-.388.34-.642.073-.254.11-.546.11-.875 0-.63-.163-1.098-.489-1.405-.325-.308-.79-.461-1.394-.461h-1.344zM18.513 17.67h-1.63a.973.973 0 0 1 .071-.31.828.828 0 0 1 .165-.255.754.754 0 0 1 .25-.173.812.812 0 0 1 .326-.063.798.798 0 0 1 .744.488.954.954 0 0 1 .074.313zm.45.79h-.46a.663.663 0 0 1-.25.417.807.807 0 0 1-.486.138.967.967 0 0 1-.401-.077.787.787 0 0 1-.44-.502 1.123 1.123 0 0 1-.043-.354h2.124a2.256 2.256 0 0 0-.047-.544 1.573 1.573 0 0 0-.208-.527 1.243 1.243 0 0 0-.4-.398 1.164 1.164 0 0 0-.63-.156 1.257 1.257 0 0 0-.958.417 1.414 1.414 0 0 0-.276.467c-.066.179-.099.377-.099.592.007.216.04.416.096.599.057.183.142.34.255.472.114.131.254.234.42.307.167.073.363.11.59.11.322 0 .59-.08.802-.242.212-.16.349-.4.411-.719zM19.49 16.523v2.837h.466v-1.602c0-.128.018-.246.053-.354a.804.804 0 0 1 .156-.283.694.694 0 0 1 .26-.186.95.95 0 0 1 .371-.066c.18 0 .32.05.423.153a.563.563 0 0 1 .153.417v1.921h.467v-1.866c0-.153-.015-.293-.047-.42a.795.795 0 0 0-.162-.326.767.767 0 0 0-.301-.214 1.232 1.232 0 0 0-.467-.077c-.42 0-.728.172-.922.516h-.01v-.45h-.44zM24.144 15.442v3.918h2.723v-.439h-2.201v-1.355h2.036v-.44h-2.036v-1.245h2.184v-.44h-2.706zM29.77 19.36v-2.837h-.467v1.602c0 .128-.017.247-.052.355a.803.803 0 0 1-.156.282.694.694 0 0 1-.26.187.951.951 0 0 1-.371.066.57.57 0 0 1-.423-.154.564.564 0 0 1-.154-.417v-1.921h-.466v1.866c0 .154.015.294.047.42a.743.743 0 0 0 .464.538c.124.049.28.074.466.074.208 0 .39-.041.543-.124a.954.954 0 0 0 .379-.387h.01v.45h.44zM30.456 16.523v2.837h.466v-1.262c0-.183.019-.345.055-.486a.93.93 0 0 1 .176-.36.752.752 0 0 1 .318-.224c.132-.051.291-.077.478-.077v-.494c-.253-.007-.461.044-.626.154-.165.11-.304.28-.417.51h-.011v-.598h-.439zM32.542 17.944c0-.172.022-.324.068-.458a.988.988 0 0 1 .19-.338.805.805 0 0 1 .282-.208.84.84 0 0 1 .343-.071.84.84 0 0 1 .343.071.805.805 0 0 1 .283.208.99.99 0 0 1 .19.338c.045.134.068.286.068.458 0 .172-.023.325-.069.459a.959.959 0 0 1-.19.334.82.82 0 0 1-.625.278.84.84 0 0 1-.625-.278.957.957 0 0 1-.19-.334 1.41 1.41 0 0 1-.068-.459zm-.494 0c0 .209.029.403.087.582.059.18.147.336.264.47.117.133.261.237.434.312.171.075.369.113.592.113.227 0 .426-.038.596-.113.17-.075.313-.18.43-.313.118-.133.206-.29.264-.469.059-.18.088-.373.088-.582 0-.208-.03-.403-.088-.584a1.249 1.249 0 0 0-.694-.788 1.435 1.435 0 0 0-.596-.115c-.223 0-.42.038-.592.115a1.242 1.242 0 0 0-.698.788 1.891 1.891 0 0 0-.087.584zM35.368 16.523v3.919h.467v-1.46h.01a.754.754 0 0 0 .19.211.997.997 0 0 0 .239.134 1.406 1.406 0 0 0 1.057-.022c.162-.076.297-.181.405-.315.108-.134.189-.29.242-.47a2 2 0 0 0 .08-.57c0-.201-.028-.392-.083-.571a1.441 1.441 0 0 0-.244-.475 1.167 1.167 0 0 0-.406-.326 1.28 1.28 0 0 0-.574-.121 1.35 1.35 0 0 0-.543.107.699.699 0 0 0-.362.343h-.011v-.384h-.467zm2.195 1.394c0 .139-.014.274-.043.406-.03.132-.077.249-.143.351a.749.749 0 0 1-.26.247.798.798 0 0 1-.404.094.798.798 0 0 1-.689-.33.999.999 0 0 1-.156-.343 1.637 1.637 0 0 1-.003-.793c.03-.128.081-.242.15-.343.07-.1.16-.182.27-.244a.801.801 0 0 1 .4-.093.78.78 0 0 1 .667.324c.072.098.125.21.16.337.034.126.051.255.051.387zM40.818 18.082h2.08c0-.22-.02-.428-.06-.626-.04-.198-.11-.37-.209-.519a1.055 1.055 0 0 0-.392-.351 1.316 1.316 0 0 0-.617-.129c-.172 0-.343.032-.51.096a.795.795 0 0 0-.396.316.594.594 0 0 0-.176-.214.846.846 0 0 0-.241-.127 1.233 1.233 0 0 0-.27-.057 2.635 2.635 0 0 0-.263-.014c-.157 0-.307.016-.45.05a1.104 1.104 0 0 0-.378.161.833.833 0 0 0-.264.294c-.066.12-.102.269-.11.445h.467c.01-.21.082-.35.214-.426a.987.987 0 0 1 .494-.112c.077 0 .154.004.23.013.077.01.146.03.206.06.06.032.11.077.148.135a.414.414 0 0 1 .058.23c0 .085-.018.15-.055.196a.37.37 0 0 1-.17.11c-.077.027-.177.05-.299.068-.123.018-.27.044-.442.077a3.69 3.69 0 0 0-.354.082.993.993 0 0 0-.307.145.718.718 0 0 0-.217.25.834.834 0 0 0-.082.395c0 .143.024.265.074.365.05.101.117.183.203.247.086.064.187.11.304.138.117.027.244.04.38.04.263 0 .501-.042.715-.128a.92.92 0 0 0 .48-.42.846.846 0 0 0 .42.43c.09.043.186.073.289.091.102.019.208.028.318.028.322 0 .59-.082.804-.244.214-.163.356-.4.425-.711h-.477a.663.663 0 0 1-.26.414.787.787 0 0 1-.46.135.896.896 0 0 1-.375-.075.723.723 0 0 1-.266-.203.88.88 0 0 1-.157-.299 1.212 1.212 0 0 1-.052-.356zm-1.871.515c0-.087.015-.16.046-.22a.432.432 0 0 1 .124-.144.602.602 0 0 1 .18-.091c.07-.022.144-.04.22-.055.074-.015.151-.027.234-.038a7.49 7.49 0 0 0 .238-.036c.077-.013.15-.028.217-.047a.655.655 0 0 0 .173-.071v.477a.506.506 0 0 1-.052.212.647.647 0 0 1-.16.208.861.861 0 0 1-.274.16 1.128 1.128 0 0 1-.603.04.506.506 0 0 1-.176-.07.388.388 0 0 1-.12-.13.38.38 0 0 1-.047-.195zm3.457-.927h-1.586c0-.117.019-.224.055-.321a.723.723 0 0 1 .412-.42.88.88 0 0 1 .335-.06c.124 0 .235.02.332.063a.715.715 0 0 1 .244.17.725.725 0 0 1 .15.255c.036.099.055.203.058.313zM43.875 16.012v-.57h-.466v.57h.466zm-.466.51v2.838h.466v-2.837h-.466zM44.885 18.466h-.466c.007.175.044.325.11.447a.827.827 0 0 0 .263.296c.11.075.236.13.379.162.142.033.292.05.45.05.142 0 .286-.014.43-.041.145-.028.275-.076.39-.146a.836.836 0 0 0 .28-.274.79.79 0 0 0 .107-.428.67.67 0 0 0-.08-.34.71.71 0 0 0-.208-.228 1.118 1.118 0 0 0-.297-.146 3.495 3.495 0 0 0-.343-.093c-.11-.026-.219-.05-.329-.074a1.896 1.896 0 0 1-.296-.088.682.682 0 0 1-.217-.132.263.263 0 0 1-.085-.2c0-.073.018-.133.055-.179a.39.39 0 0 1 .143-.11.71.71 0 0 1 .194-.057c.072-.01.142-.016.212-.016.077 0 .153.008.227.024a.699.699 0 0 1 .206.08.468.468 0 0 1 .154.145c.04.06.064.137.071.228h.467a1.04 1.04 0 0 0-.11-.43.739.739 0 0 0-.25-.275 1.029 1.029 0 0 0-.36-.143 2.242 2.242 0 0 0-.444-.041c-.124 0-.25.015-.376.047-.126.03-.24.078-.34.142a.786.786 0 0 0-.247.25.68.68 0 0 0-.096.368c0 .183.046.325.137.428a.927.927 0 0 0 .343.239c.137.056.287.1.448.131.16.031.31.066.447.105.137.038.251.088.343.15a.31.31 0 0 1 .137.275c0 .088-.022.16-.066.217-.044.056-.1.1-.167.129a.843.843 0 0 1-.222.06c-.08.011-.158.017-.231.017-.095 0-.188-.01-.277-.028a.776.776 0 0 1-.242-.09.497.497 0 0 1-.244-.431zM47.371 15.442v3.918h.467v-1.075l.439-.407.971 1.482h.593l-1.207-1.805 1.125-1.032h-.626l-1.295 1.24v-2.321h-.467zM52.163 17.67h-1.63a.973.973 0 0 1 .071-.31.83.83 0 0 1 .165-.255.755.755 0 0 1 .25-.173.812.812 0 0 1 .326-.063.798.798 0 0 1 .744.488.956.956 0 0 1 .074.313zm.45.79h-.461a.664.664 0 0 1-.25.417.808.808 0 0 1-.486.138.967.967 0 0 1-.4-.077.785.785 0 0 1-.44-.502 1.126 1.126 0 0 1-.043-.354h2.124a2.261 2.261 0 0 0-.047-.544 1.573 1.573 0 0 0-.208-.527 1.243 1.243 0 0 0-.401-.398 1.164 1.164 0 0 0-.628-.156 1.258 1.258 0 0 0-.958.417 1.417 1.417 0 0 0-.277.467 1.71 1.71 0 0 0-.1.592c.008.216.04.416.097.599s.142.34.255.472c.114.131.254.234.42.307.166.073.363.11.59.11.322 0 .59-.08.801-.242.212-.16.35-.4.412-.719zM54.742 15.442v3.918h.522v-1.794h1.8v-.44h-1.8v-1.245h2.052v-.44h-2.574zM58.156 17.944c0-.172.023-.324.069-.458a.988.988 0 0 1 .19-.338.806.806 0 0 1 .282-.208.84.84 0 0 1 .343-.071c.12 0 .235.023.343.071a.805.805 0 0 1 .283.208.99.99 0 0 1 .189.338c.046.134.069.286.069.458 0 .172-.023.325-.069.459a.959.959 0 0 1-.19.334.82.82 0 0 1-.625.278.84.84 0 0 1-.626-.278.957.957 0 0 1-.19-.334 1.41 1.41 0 0 1-.068-.459zm-.494 0c0 .209.03.403.088.582.059.18.147.336.264.47.117.133.261.237.433.312.172.075.37.113.593.113.227 0 .425-.038.595-.113.17-.075.314-.18.431-.313.117-.133.205-.29.264-.469.058-.18.087-.373.087-.582 0-.208-.029-.403-.087-.584a1.249 1.249 0 0 0-.694-.788 1.435 1.435 0 0 0-.596-.115c-.223 0-.42.038-.593.115a1.242 1.242 0 0 0-.697.788 1.891 1.891 0 0 0-.088.584zM60.966 16.523v2.837h.467v-1.602c0-.128.017-.246.052-.354a.804.804 0 0 1 .157-.283.694.694 0 0 1 .26-.186.95.95 0 0 1 .37-.066c.18 0 .32.05.423.153a.563.563 0 0 1 .154.417v1.921h.466v-1.866c0-.153-.015-.293-.046-.42a.795.795 0 0 0-.162-.326.767.767 0 0 0-.302-.214 1.232 1.232 0 0 0-.466-.077c-.421 0-.729.172-.923.516h-.01v-.45h-.44zM64.358 17.966c0-.139.015-.274.044-.406.03-.132.077-.249.143-.351a.742.742 0 0 1 .664-.34.799.799 0 0 1 .689.33.999.999 0 0 1 .156.342 1.637 1.637 0 0 1 .003.793 1.022 1.022 0 0 1-.151.343c-.07.1-.16.182-.269.244a.802.802 0 0 1-.4.094.78.78 0 0 1-.667-.324 1.044 1.044 0 0 1-.16-.338 1.449 1.449 0 0 1-.052-.387zm2.196 1.394v-3.918h-.467v1.46h-.01a.752.752 0 0 0-.19-.212 1.077 1.077 0 0 0-.239-.137 1.205 1.205 0 0 0-.252-.074 1.385 1.385 0 0 0-.805.096 1.164 1.164 0 0 0-.406.318c-.108.134-.188.29-.241.47a2 2 0 0 0-.08.57c0 .202.028.392.083.571.054.18.136.337.244.472.108.136.243.244.406.324.163.08.354.12.574.12.197 0 .378-.034.543-.104a.687.687 0 0 0 .362-.34h.011v.384h.467z"/></g><g fill="#231f20"><path d="M17.203 23.395v2.374h.457v-2.374h.537v-.402h-.537v-.387c0-.122.03-.204.091-.247a.443.443 0 0 1 .258-.065c.04 0 .082.003.129.008a.57.57 0 0 1 .129.03v-.397a1.18 1.18 0 0 0-.295-.043c-.251 0-.442.058-.573.174-.13.117-.196.288-.196.513v.414h-.467v.402h.467zM18.938 24.384c0-.169.023-.318.067-.449a.968.968 0 0 1 .186-.33.79.79 0 0 1 .612-.274c.118 0 .23.023.335.07a.79.79 0 0 1 .277.204c.079.09.14.2.185.33.045.13.067.28.067.449 0 .168-.022.317-.067.448a.938.938 0 0 1-.185.328.806.806 0 0 1-.612.27.824.824 0 0 1-.612-.27.938.938 0 0 1-.186-.328 1.383 1.383 0 0 1-.067-.448zm-.483 0c0 .204.029.393.086.569.057.175.143.328.258.459.114.13.256.233.424.306.168.073.361.11.58.11.222 0 .416-.037.582-.11a1.19 1.19 0 0 0 .422-.306c.115-.13.2-.284.258-.46.057-.175.086-.364.086-.569 0-.203-.029-.394-.086-.571a1.296 1.296 0 0 0-.258-.462 1.22 1.22 0 0 0-.421-.31 1.404 1.404 0 0 0-.583-.112c-.219 0-.412.038-.58.113a1.214 1.214 0 0 0-.682.77 1.849 1.849 0 0 0-.086.573zM21.672 22.993v2.776h.456v-1.235c0-.18.018-.337.054-.475a.91.91 0 0 1 .172-.352.736.736 0 0 1 .311-.22c.13-.05.285-.075.468-.075v-.484c-.247-.007-.451.043-.613.15a1.237 1.237 0 0 0-.408.5h-.01v-.585h-.43zM25.044 21.935v3.834h.51v-1.638h1.247c.125 0 .225.019.3.056a.503.503 0 0 1 .183.15c.047.064.08.137.102.221.022.084.04.173.054.266.018.093.028.188.032.285l.01.27c.004.085.012.161.025.229a.32.32 0 0 0 .072.161h.57a.656.656 0 0 1-.121-.223 1.74 1.74 0 0 1-.062-.266 2.458 2.458 0 0 1-.027-.284 2.459 2.459 0 0 0-.062-.553.815.815 0 0 0-.09-.234.589.589 0 0 0-.167-.18.684.684 0 0 0-.271-.107v-.011c.232-.065.401-.184.507-.36.106-.175.158-.38.158-.612 0-.312-.102-.557-.308-.736-.206-.179-.492-.268-.857-.268h-1.805zm1.574 1.767h-1.063v-1.338h1.267c.24 0 .414.061.521.183.108.122.161.28.161.472 0 .14-.024.254-.072.341a.573.573 0 0 1-.194.21.738.738 0 0 1-.282.105c-.107.017-.22.026-.338.026zM30.576 24.115h-1.595a.952.952 0 0 1 .07-.303.81.81 0 0 1 .161-.25.737.737 0 0 1 .244-.17.795.795 0 0 1 .32-.061.78.78 0 0 1 .728.478.934.934 0 0 1 .072.306zm.44.773h-.45a.65.65 0 0 1-.245.409.79.79 0 0 1-.475.134.945.945 0 0 1-.392-.075.767.767 0 0 1-.43-.492 1.105 1.105 0 0 1-.043-.346h2.079a2.214 2.214 0 0 0-.046-.532 1.539 1.539 0 0 0-.204-.515 1.215 1.215 0 0 0-.392-.39 1.139 1.139 0 0 0-.615-.153 1.23 1.23 0 0 0-.937.408 1.384 1.384 0 0 0-.271.457 1.67 1.67 0 0 0-.097.58c.007.211.038.406.094.585.055.18.139.333.25.462.11.129.247.23.41.3.163.072.356.108.578.108.315 0 .576-.078.784-.236.207-.158.342-.392.403-.704zM33.927 25.533v-2.54h-.43v.397h-.005a.812.812 0 0 0-.343-.346 1.024 1.024 0 0 0-.484-.116c-.24 0-.442.046-.606.137a1.176 1.176 0 0 0-.398.35c-.1.14-.172.298-.215.472a2.112 2.112 0 0 0-.064.507c0 .19.026.37.078.54.052.17.13.319.233.446.104.127.233.228.387.303.154.075.335.113.542.113.18 0 .349-.04.508-.12a.768.768 0 0 0 .357-.38h.01v.183c0 .154-.014.296-.045.424a.886.886 0 0 1-.148.33.716.716 0 0 1-.257.215.847.847 0 0 1-.382.078c-.075 0-.154-.008-.236-.024a.858.858 0 0 1-.228-.078.568.568 0 0 1-.177-.14.337.337 0 0 1-.078-.209h-.457c.007.15.047.278.118.382a.85.85 0 0 0 .272.252c.109.064.23.111.365.14.134.028.266.043.395.043.444 0 .77-.113.977-.339.208-.225.311-.565.311-1.02zm-1.278-.134a.697.697 0 0 1-.376-.094.727.727 0 0 1-.241-.247 1.073 1.073 0 0 1-.13-.341 1.917 1.917 0 0 1-.037-.376c0-.133.015-.26.046-.382a.945.945 0 0 1 .145-.322.73.73 0 0 1 .63-.306c.144 0 .266.029.366.086.1.057.182.133.244.228.063.095.109.201.137.32.029.118.043.238.043.36 0 .128-.015.257-.045.386a1.13 1.13 0 0 1-.143.347.748.748 0 0 1-.255.247.74.74 0 0 1-.384.094zM35.098 22.493v-.558h-.456v.558h.456zm-.456.5v2.776h.456v-2.776h-.456zM36.14 24.384c0-.169.023-.318.067-.449a.97.97 0 0 1 .185-.33.79.79 0 0 1 .613-.274c.118 0 .23.023.335.07a.789.789 0 0 1 .277.204c.079.09.14.2.185.33.045.13.067.28.067.449 0 .168-.022.317-.067.448a.938.938 0 0 1-.185.328.804.804 0 0 1-.612.27.824.824 0 0 1-.613-.27.94.94 0 0 1-.185-.328 1.383 1.383 0 0 1-.067-.448zm-.483 0c0 .204.028.393.086.569.057.175.143.328.258.459.114.13.256.233.424.306.168.073.361.11.58.11.222 0 .416-.037.582-.11.167-.073.307-.175.422-.306a1.3 1.3 0 0 0 .258-.46c.057-.175.086-.364.086-.569 0-.203-.029-.394-.086-.571a1.22 1.22 0 0 0-.68-.77 1.404 1.404 0 0 0-.582-.114c-.219 0-.412.038-.58.113-.168.075-.31.178-.424.309-.115.13-.201.284-.258.462a1.849 1.849 0 0 0-.086.572zM38.89 22.993v2.776h.456v-1.568c0-.125.017-.24.051-.346a.786.786 0 0 1 .153-.277.68.68 0 0 1 .256-.183.93.93 0 0 1 .362-.064c.175 0 .313.05.414.15.1.1.15.237.15.409v1.88h.456v-1.827c0-.15-.015-.287-.045-.41a.777.777 0 0 0-.159-.32.75.75 0 0 0-.295-.21 1.205 1.205 0 0 0-.456-.075c-.412 0-.713.168-.903.505h-.01v-.44h-.43zM44.336 25.758a.645.645 0 0 1-.328.07.393.393 0 0 1-.282-.1c-.07-.065-.105-.174-.105-.324-.125.15-.27.259-.437.325-.167.066-.347.1-.54.1-.125 0-.244-.015-.357-.044a.831.831 0 0 1-.293-.134.644.644 0 0 1-.196-.239.805.805 0 0 1-.073-.357c0-.158.027-.287.081-.387a.703.703 0 0 1 .212-.244.973.973 0 0 1 .301-.142c.113-.033.228-.06.346-.081.126-.025.245-.044.358-.056.112-.013.212-.03.298-.054a.495.495 0 0 0 .204-.102c.05-.045.075-.11.075-.196 0-.1-.019-.181-.057-.242a.386.386 0 0 0-.145-.14.589.589 0 0 0-.198-.064 1.506 1.506 0 0 0-.218-.016.965.965 0 0 0-.483.11c-.129.073-.199.212-.21.416h-.456a.988.988 0 0 1 .107-.435.815.815 0 0 1 .258-.287c.108-.074.23-.126.368-.159.138-.032.285-.048.443-.048.125 0 .25.01.373.027a.976.976 0 0 1 .336.11c.1.056.18.133.242.234.06.1.091.23.091.392v1.428c0 .108.006.186.019.237.012.05.054.075.126.075.04 0 .086-.01.14-.027v.354zm-.742-1.423a.568.568 0 0 1-.225.094 3.43 3.43 0 0 1-.293.049c-.102.012-.205.026-.309.042a1.136 1.136 0 0 0-.279.078.508.508 0 0 0-.201.153.429.429 0 0 0-.078.272c0 .075.015.138.045.19a.38.38 0 0 0 .119.127.495.495 0 0 0 .169.07.94.94 0 0 0 .204.02c.15 0 .28-.02.387-.061a.812.812 0 0 0 .263-.156.615.615 0 0 0 .15-.204.515.515 0 0 0 .048-.207v-.467zM44.787 21.935v3.834h.456v-3.834h-.456zM48.25 25.77v-2.777h-.456v1.568c0 .125-.017.24-.05.346a.787.787 0 0 1-.154.277.682.682 0 0 1-.255.182.932.932 0 0 1-.362.065.559.559 0 0 1-.414-.15.552.552 0 0 1-.15-.409v-1.88h-.457v1.827c0 .15.015.287.046.41a.728.728 0 0 0 .454.526c.121.05.273.073.456.073.204 0 .381-.04.532-.12a.934.934 0 0 0 .37-.38h.011v.441h.43zM49.271 24.405c0-.136.014-.268.043-.397.029-.13.075-.244.14-.344a.726.726 0 0 1 .65-.333c.157 0 .291.03.402.088.111.06.202.137.272.234a.98.98 0 0 1 .153.336 1.601 1.601 0 0 1 .002.776.998.998 0 0 1-.147.335.787.787 0 0 1-.264.24.784.784 0 0 1-.392.09.763.763 0 0 1-.653-.317 1.02 1.02 0 0 1-.155-.33 1.421 1.421 0 0 1-.05-.378zm2.148 1.364v-3.834h-.456v1.428h-.01a.735.735 0 0 0-.186-.207 1.051 1.051 0 0 0-.234-.134 1.172 1.172 0 0 0-.247-.072 1.355 1.355 0 0 0-.787.094c-.159.077-.291.18-.397.311-.106.13-.184.284-.236.46a1.959 1.959 0 0 0-.078.558c0 .197.027.383.08.558.054.176.134.33.24.462.105.133.237.238.397.317.16.079.346.118.561.118.193 0 .37-.034.532-.102a.671.671 0 0 0 .354-.333h.01v.376h.457zM53.374 25.77l1.015-2.777h-.478l-.757 2.314h-.01l-.78-2.314h-.51l1.032 2.776h.488zM55.292 22.493v-.558h-.457v.558h.457zm-.457.5v2.776h.457v-2.776h-.457zM56.027 21.935v3.834h.457v-1.052l.43-.398.95 1.45h.58l-1.181-1.767 1.1-1.01h-.612l-1.267 1.214v-2.271h-.457zM58.815 21.935v3.834h.456v-3.834h-.456zM60.463 22.493v-.558h-.456v.558h.456zm-.456.5v2.776h.456v-2.776h-.456zM61.172 22.993v2.776h.457v-1.568c0-.125.017-.24.05-.346a.786.786 0 0 1 .154-.277.679.679 0 0 1 .255-.183.93.93 0 0 1 .362-.064c.176 0 .314.05.414.15.1.1.15.237.15.409v1.88h.457v-1.827c0-.15-.015-.287-.046-.41a.779.779 0 0 0-.158-.32.75.75 0 0 0-.296-.21 1.206 1.206 0 0 0-.456-.075c-.412 0-.712.168-.902.505h-.011v-.44h-.43zM66.554 25.533v-2.54h-.43v.397h-.005a.812.812 0 0 0-.344-.346 1.024 1.024 0 0 0-.483-.116c-.24 0-.443.046-.607.137a1.176 1.176 0 0 0-.398.35c-.1.14-.172.298-.215.472a2.112 2.112 0 0 0-.064.507c0 .19.026.37.078.54.052.17.13.319.234.446.103.127.232.228.386.303.154.075.335.113.543.113.179 0 .348-.04.507-.12a.768.768 0 0 0 .357-.38h.011v.183c0 .154-.015.296-.046.424a.888.888 0 0 1-.147.33.716.716 0 0 1-.258.215.847.847 0 0 1-.381.078c-.076 0-.154-.008-.237-.024a.858.858 0 0 1-.228-.078.568.568 0 0 1-.177-.14.337.337 0 0 1-.078-.209h-.457c.008.15.047.278.119.382a.85.85 0 0 0 .27.252c.11.064.232.111.366.14.134.028.266.043.395.043.444 0 .77-.113.977-.339.208-.225.312-.565.312-1.02zm-1.279-.134a.697.697 0 0 1-.376-.094.727.727 0 0 1-.241-.247 1.073 1.073 0 0 1-.13-.341 1.917 1.917 0 0 1-.037-.376c0-.133.016-.26.046-.382a.945.945 0 0 1 .145-.322.73.73 0 0 1 .631-.306c.143 0 .265.029.365.086.1.057.182.133.245.228.062.095.108.201.137.32.028.118.043.238.043.36 0 .128-.016.257-.046.386a1.13 1.13 0 0 1-.142.347.748.748 0 0 1-.256.247.74.74 0 0 1-.384.094z"/></g><g fill="#231f20"><path d="M1.943 5.1V2.135H2.8c.236 0 .434.033.594.1.161.065.292.162.394.288.102.127.175.28.22.46.044.181.066.386.066.614 0 .236-.024.436-.072.602-.048.166-.11.305-.185.415a.967.967 0 0 1-.254.263 1.248 1.248 0 0 1-.56.211 2.135 2.135 0 0 1-.214.014h-.846zm-.508-3.394v3.823h1.311c.318 0 .593-.045.825-.134.232-.089.423-.218.573-.388.15-.17.26-.378.332-.626.071-.249.107-.533.107-.855 0-.614-.159-1.07-.476-1.37-.318-.3-.772-.45-1.36-.45H1.434zM5.204 1.706v3.823H7.86v-.428H5.713V3.778H7.7V3.35H5.713V2.134h2.131v-.428h-2.64zM8.47 1.706v3.823h.483V2.461h.01l1.998 3.068h.556V1.706h-.481v3.1h-.011l-2.014-3.1h-.54zM13.83 1.706v3.823h2.657v-.428H14.34V3.778h1.986V3.35H14.34V2.134h2.132v-.428h-2.64zM20.155 4.148V1.706h-.509v2.442c0 .342-.085.602-.254.779-.17.176-.417.265-.742.265-.343 0-.605-.089-.787-.265-.182-.177-.273-.437-.273-.78V1.707h-.509v2.442c0 .51.138.882.415 1.116.277.234.661.35 1.154.35.482 0 .853-.121 1.114-.366.26-.245.39-.611.39-1.1zM20.969 1.706v3.823h.508V3.896h1.243c.125 0 .225.019.3.056a.502.502 0 0 1 .182.15c.046.063.08.136.101.22.022.084.04.172.054.265.018.093.028.187.032.283l.01.27c.004.085.012.16.025.228a.32.32 0 0 0 .072.161h.568a.653.653 0 0 1-.12-.222 1.74 1.74 0 0 1-.062-.265 2.445 2.445 0 0 1-.027-.284 7.287 7.287 0 0 0-.016-.284 2.467 2.467 0 0 0-.046-.268.813.813 0 0 0-.09-.232.585.585 0 0 0-.167-.18.68.68 0 0 0-.27-.107v-.01c.232-.065.4-.184.506-.36a1.16 1.16 0 0 0 .158-.61c0-.31-.103-.555-.308-.733-.205-.179-.49-.268-.854-.268h-1.8zm1.569 1.762h-1.06V2.134h1.263c.24 0 .412.06.52.182.107.122.16.279.16.471 0 .14-.024.253-.072.34a.572.572 0 0 1-.193.21.737.737 0 0 1-.281.104 2.05 2.05 0 0 1-.337.027zM24.931 3.617c0-.192.025-.382.075-.57a1.55 1.55 0 0 1 .236-.506c.107-.15.244-.27.412-.361a1.24 1.24 0 0 1 .6-.137c.232 0 .432.046.6.137.167.09.305.211.412.361.107.15.186.319.235.506a2.203 2.203 0 0 1 0 1.14c-.05.188-.128.357-.235.507-.107.15-.245.27-.412.361a1.24 1.24 0 0 1-.6.137 1.24 1.24 0 0 1-.6-.137 1.205 1.205 0 0 1-.412-.361 1.549 1.549 0 0 1-.236-.506 2.203 2.203 0 0 1-.075-.57zm-.509 0c0 .261.039.512.116.753.076.24.192.454.345.64.154.185.345.333.573.441.228.11.494.164.798.164.303 0 .57-.055.798-.164.228-.108.42-.256.573-.441.153-.186.268-.4.345-.64.077-.241.115-.492.115-.753 0-.26-.038-.51-.115-.752a1.897 1.897 0 0 0-.345-.64 1.686 1.686 0 0 0-.573-.444 1.81 1.81 0 0 0-.798-.166c-.304 0-.57.055-.798.166-.229.11-.42.259-.573.444a1.895 1.895 0 0 0-.345.64 2.462 2.462 0 0 0-.116.752zM29.215 3.537V2.134h.996c.29 0 .5.06.635.18.133.12.2.293.2.522 0 .228-.067.403-.2.524-.134.122-.346.18-.635.177h-.996zm-.509-1.831v3.823h.509V3.966h1.167c.386.003.678-.095.876-.295.198-.2.297-.478.297-.835s-.1-.635-.297-.833c-.198-.198-.49-.297-.876-.297h-1.676zM33.938 2.134h.22v1.853h-1.12l.9-1.853zm-.284-.428l-1.928 3.823h.568l.546-1.114h1.317V5.53h2.394v-.428h-1.912V3.778h1.767V3.35H34.64V2.134h1.88v-.428h-2.865zM37.156 1.706v3.823h.509V1.706h-.509zM40.733 2.825h.482a1.348 1.348 0 0 0-.12-.544 1.06 1.06 0 0 0-.3-.377 1.237 1.237 0 0 0-.442-.22 2.042 2.042 0 0 0-1.058-.002 1.406 1.406 0 0 0-.444.203 1.03 1.03 0 0 0-.313.348 1.012 1.012 0 0 0-.118.501c0 .175.035.32.104.436.07.116.163.211.279.284.116.073.247.132.393.177.147.044.296.084.447.118l.447.099c.147.032.278.074.394.126a.767.767 0 0 1 .279.2.48.48 0 0 1 .104.322c0 .139-.029.253-.086.342a.624.624 0 0 1-.225.212 1.017 1.017 0 0 1-.313.11 1.9 1.9 0 0 1-.345.032c-.143 0-.282-.018-.418-.054a1.04 1.04 0 0 1-.356-.166.853.853 0 0 1-.246-.286.863.863 0 0 1-.094-.415h-.482c0 .232.042.433.126.602.084.17.198.309.343.418.144.109.312.19.503.243a2.325 2.325 0 0 0 1.135.019c.177-.04.337-.107.48-.198.142-.09.259-.209.35-.353a.96.96 0 0 0 .137-.522.959.959 0 0 0-.105-.472.93.93 0 0 0-.278-.31 1.475 1.475 0 0 0-.394-.196 5.333 5.333 0 0 0-.447-.125c-.152-.036-.3-.07-.447-.1a2.346 2.346 0 0 1-.394-.115.774.774 0 0 1-.278-.18.399.399 0 0 1-.105-.286.62.62 0 0 1 .073-.313.562.562 0 0 1 .193-.2.84.84 0 0 1 .275-.108c.104-.021.21-.032.316-.032.264 0 .481.062.65.185.17.123.27.322.298.597zM41.991 1.706v3.823h.51V4.19l.636-.594L44.52 5.53h.642l-1.676-2.281 1.612-1.542h-.659L42.5 3.612V1.706h-.509zM45.563 1.706v3.823h2.656v-.428h-2.147V3.778h1.986V3.35h-1.986V2.134h2.13v-.428h-2.639zM53.376 4.148V1.706h-.51v2.442c0 .342-.084.602-.254.779-.169.176-.416.265-.741.265-.343 0-.605-.089-.787-.265-.182-.177-.273-.437-.273-.78V1.707h-.509v2.442c0 .51.138.882.415 1.116.277.234.661.35 1.154.35.482 0 .853-.121 1.114-.366.26-.245.39-.611.39-1.1zM54.184 1.706v3.823h.482V2.461h.01l1.998 3.068h.557V1.706h-.482v3.1h-.01l-2.014-3.1h-.54zM58.077 1.706v3.823h.509V1.706h-.509zM59.737 3.617c0-.192.025-.382.075-.57a1.55 1.55 0 0 1 .236-.506c.107-.15.244-.27.412-.361a1.24 1.24 0 0 1 .6-.137c.232 0 .432.046.6.137.167.09.305.211.412.361.107.15.185.319.235.506a2.203 2.203 0 0 1 0 1.14c-.05.188-.128.357-.235.507-.107.15-.245.27-.413.361a1.24 1.24 0 0 1-.6.137 1.24 1.24 0 0 1-.6-.137 1.205 1.205 0 0 1-.411-.361 1.549 1.549 0 0 1-.236-.506 2.203 2.203 0 0 1-.075-.57zm-.509 0c0 .261.039.512.115.753.077.24.192.454.346.64.153.185.344.333.573.441.228.11.494.164.798.164.303 0 .57-.055.797-.164.229-.108.42-.256.574-.441.153-.186.268-.4.345-.64.077-.241.115-.492.115-.753 0-.26-.038-.51-.115-.752a1.897 1.897 0 0 0-.346-.64 1.686 1.686 0 0 0-.572-.444 1.81 1.81 0 0 0-.798-.166c-.304 0-.57.055-.798.166-.229.11-.42.259-.573.444a1.895 1.895 0 0 0-.346.64 2.462 2.462 0 0 0-.115.752zM63.507 1.706v3.823h.482V2.461h.01l1.998 3.068h.557V1.706h-.482v3.1h-.011l-2.013-3.1h-.541z"/></g><path fill="#074ea2" d="M68.576 26.96H106.7V.733H68.576V26.96z"/><path fill="#fff" d="M67.844 0V27.694h39.589V0H67.844zm1.466 1.466h36.657v24.762H69.31V1.466z"/><path fill="#fff200" d="M83.58 5.35l.312.92h.975l-.803.59.312.916-.796-.557-.795.557.3-.931-.837-.574h1.026l.306-.921z"/><path fill="none" d="M83.58 5.35l.312.92h.975l-.803.59.312.916-.796-.557-.795.557.3-.931-.837-.574h1.026l.306-.921z"/><path fill="#fff200" d="M80.744 8.318l.312.92h.975l-.803.588.313.917-.797-.559-.795.56.301-.932-.838-.574h1.026l.306-.92z"/><path fill="none" d="M80.744 8.318l.312.92h.975l-.803.588.313.917-.797-.559-.795.56.301-.932-.838-.574h1.026l.306-.92z"/><path fill="#fff200" d="M87.694 4.402l.31.92h.977l-.804.59.312.915-.795-.556-.797.556.3-.93-.837-.575h1.027l.307-.92z"/><path fill="none" d="M87.694 4.402l.31.92h.977l-.804.59.312.915-.795-.556-.797.556.3-.93-.837-.575h1.027l.307-.92z"/><path fill="#fff200" d="M79.439 12.427l.312.92h.974l-.802.59.312.916-.796-.557-.796.557.3-.93-.837-.576h1.027l.306-.92z"/><path fill="none" d="M79.439 12.427l.312.92h.974l-.802.59.312.916-.796-.557-.796.557.3-.93-.837-.576h1.027l.306-.92z"/><path fill="#fff200" d="M80.744 16.496l.312.92h.975l-.803.591.313.916-.797-.558-.795.558.301-.93-.838-.577h1.026l.306-.92z"/><path fill="none" d="M80.744 16.496l.312.92h.975l-.803.591.313.916-.797-.558-.795.558.301-.93-.838-.577h1.026l.306-.92z"/><path fill="#fff200" d="M83.58 19.515l.312.922h.975l-.803.589.312.916-.796-.558-.795.558.3-.932-.837-.573h1.026l.306-.922z"/><path fill="none" d="M83.58 19.515l.312.922h.975l-.803.589.312.916-.796-.558-.795.558.3-.932-.837-.573h1.026l.306-.922z"/><path fill="#fff200" d="M87.694 20.574l.31.921h.977l-.804.59.312.916-.795-.557-.797.557.3-.93-.837-.576h1.027l.307-.92z"/><path fill="none" d="M87.694 20.574l.31.921h.977l-.804.59.312.916-.795-.557-.797.557.3-.93-.837-.576h1.027l.307-.92z"/><path fill="#fff200" d="M91.806 5.35l-.313.92h-.975l.803.59-.312.916.797-.557.795.557-.301-.931.837-.574h-1.025l-.306-.921z"/><path fill="none" d="M91.806 5.35l-.313.92h-.975l.803.59-.312.916.797-.557.795.557-.301-.931.837-.574h-1.025l-.306-.921z"/><path fill="#fff200" d="M94.64 8.318l-.311.92h-.974l.802.588-.313.917.797-.559.795.56-.3-.932.837-.574h-1.025l-.307-.92z"/><path fill="none" d="M94.64 8.318l-.311.92h-.974l.802.588-.313.917.797-.559.795.56-.3-.932.837-.574h-1.025l-.307-.92z"/><path fill="#fff200" d="M95.948 12.427l-.313.92h-.975l.803.59-.313.916.797-.557.796.557-.3-.93.837-.576h-1.028l-.304-.92z"/><path fill="none" d="M95.948 12.427l-.313.92h-.975l.803.59-.313.916.797-.557.796.557-.3-.93.837-.576h-1.028l-.304-.92z"/><path fill="#fff200" d="M94.64 16.496l-.311.92h-.974l.802.591-.313.916.797-.558.795.558-.3-.93.837-.577h-1.025l-.307-.92z"/><path fill="none" d="M94.64 16.496l-.311.92h-.974l.802.591-.313.916.797-.558.795.558-.3-.93.837-.577h-1.025l-.307-.92z"/><path fill="#fff200" d="M91.806 19.515l-.313.922h-.975l.803.589-.312.916.797-.558.795.558-.301-.932.837-.573h-1.025l-.306-.922z"/><path fill="none" d="M91.806 19.515l-.313.922h-.975l.803.589-.312.916.797-.558.795.558-.301-.932.837-.573h-1.025l-.306-.922z"/></g></svg>