<svg width="1037" height="201" viewBox="0 0 1037 201" fill="none" xmlns="http://www.w3.org/2000/svg">
<g>
<path d="M294.95 0H0V200.28H294.95V0Z" fill="white"/>
<path d="M289.27 5.48999H5.66998V194.56H289.27V5.48999Z" fill="#034EA2"/>
<path d="M141.43 46.69L147.41 42.32L153.4 46.69L151.12 39.62L157.2 35.26H149.71L147.41 28.11L145.12 35.27L137.63 35.26L143.71 39.62L141.43 46.69Z" fill="#FFF200"/>
<path d="M110.46 55.01L116.44 50.64L122.43 55.01L120.15 47.95L126.23 43.58H118.73L116.44 36.42L114.15 43.59L106.66 43.58L112.73 47.95L110.46 55.01Z" fill="#FFF200"/>
<path d="M93.79 59.13L91.49 66.3L84 66.29L90.08 70.66L87.8 77.72L93.79 73.35L99.77 77.72L97.49 70.66L103.57 66.29H96.08L93.79 59.13Z" fill="#FFF200"/>
<path d="M85.47 104.28L91.45 108.65L89.18 101.59L95.25 97.22H87.77L85.47 90.06L83.18 97.24L75.69 97.22L81.77 101.59L79.49 108.65L85.47 104.28Z" fill="#FFF200"/>
<path d="M96.08 128.24L93.78 121.09L91.49 128.25L84 128.24L90.08 132.61L87.8 139.67L93.78 135.3L99.77 139.67L97.49 132.61L103.57 128.24H96.08Z" fill="#FFF200"/>
<path d="M118.78 150.94L116.49 143.8L114.2 150.95L106.71 150.94L112.78 155.31L110.51 162.37L116.49 158.01L122.47 162.37L120.2 155.31L126.27 150.94H118.78Z" fill="#FFF200"/>
<path d="M149.71 159.17L147.42 152.02L145.13 159.18L137.64 159.17L143.71 163.54L141.44 170.6L147.42 166.23L153.4 170.6L151.12 163.54L157.2 159.17H149.71Z" fill="#FFF200"/>
<path d="M180.64 150.94L178.35 143.8L176.05 150.95L168.57 150.94L174.64 155.31L172.37 162.37L178.35 158.01L184.34 162.37L182.05 155.31L188.13 150.94H180.64Z" fill="#FFF200"/>
<path d="M203.35 128.24L201.05 121.09L198.76 128.25L191.27 128.24L197.35 132.61L195.07 139.67L201.05 135.3L207.04 139.67L204.76 132.61L210.84 128.24H203.35Z" fill="#FFF200"/>
<path d="M219.06 97.13H211.57L209.27 89.98L206.99 97.14L199.49 97.13L205.57 101.5L203.3 108.56L209.27 104.19L215.26 108.56L212.99 101.5L219.06 97.13Z" fill="#FFF200"/>
<path d="M195.07 77.62L201.05 73.26L207.04 77.62L204.76 70.56L210.84 66.2H203.35L201.05 59.05L198.76 66.21L191.27 66.2L197.35 70.56L195.07 77.62Z" fill="#FFF200"/>
<path d="M178.44 36.43L176.15 43.59L168.66 43.58L174.73 47.95L172.45 55.02L178.45 50.64L184.42 55.02L182.15 47.95L188.23 43.58H180.73L178.44 36.43Z" fill="#FFF200"/>
<path d="M330 77.33V30.8H344.06L352.5 62.54L360.85 30.8H374.94V77.33H366.21V40.7L356.97 77.33H347.92L338.72 40.7V77.33H329.99H330Z" fill="#034EA2"/>
<path d="M403.73 66.6L412.62 68.09C411.48 71.35 409.67 73.83 407.21 75.53C404.74 77.23 401.66 78.08 397.96 78.08C392.1 78.08 387.76 76.16 384.95 72.34C382.73 69.27 381.62 65.4 381.62 60.72C381.62 55.13 383.08 50.76 386 47.6C388.92 44.44 392.61 42.85 397.08 42.85C402.09 42.85 406.05 44.51 408.95 47.82C411.85 51.13 413.23 56.2 413.11 63.04H390.77C390.83 65.69 391.55 67.74 392.93 69.21C394.31 70.68 396.02 71.42 398.07 71.42C399.47 71.42 400.64 71.04 401.59 70.28C402.54 69.52 403.26 68.29 403.75 66.6H403.73ZM404.24 57.59C404.18 55.01 403.51 53.05 402.24 51.7C400.97 50.36 399.43 49.68 397.61 49.68C395.66 49.68 394.06 50.39 392.79 51.81C391.52 53.23 390.9 55.15 390.92 57.59H404.25H404.24Z" fill="#034EA2"/>
<path d="M451.27 77.33H442.99V72.38C441.61 74.31 439.99 75.74 438.12 76.68C436.25 77.62 434.36 78.09 432.45 78.09C428.58 78.09 425.26 76.53 422.5 73.41C419.74 70.29 418.36 65.94 418.36 60.35C418.36 54.76 419.7 50.3 422.39 47.32C425.08 44.35 428.47 42.86 432.58 42.86C436.35 42.86 439.6 44.43 442.36 47.56V30.8H451.28V77.33H451.27ZM427.47 59.75C427.47 63.35 427.97 65.95 428.96 67.56C430.4 69.89 432.41 71.05 434.99 71.05C437.04 71.05 438.79 70.18 440.23 68.43C441.67 66.68 442.39 64.08 442.39 60.61C442.39 56.74 441.69 53.95 440.3 52.25C438.91 50.55 437.11 49.69 434.94 49.69C432.77 49.69 431.05 50.53 429.62 52.21C428.19 53.89 427.48 56.41 427.48 59.75H427.47Z" fill="#034EA2"/>
<path d="M456.38 43.62H461.33V41.08C461.33 38.25 461.63 36.13 462.23 34.73C462.83 33.33 463.94 32.2 465.56 31.32C467.18 30.44 469.23 30 471.7 30C474.17 30 476.73 30.38 479.16 31.14L477.95 37.36C476.53 37.02 475.17 36.85 473.86 36.85C472.55 36.85 471.64 37.15 471.08 37.76C470.52 38.36 470.24 39.52 470.24 41.24V43.62H476.91V50.63H470.24V77.32H461.32V50.63H456.37V43.62H456.38ZM481.42 39.05V30.8H490.34V39.05H481.42ZM481.42 77.33V43.62H490.34V77.33H481.42Z" fill="#034EA2"/>
<path d="M530.43 77.33H521.51V60.13C521.51 56.49 521.32 54.14 520.94 53.07C520.56 52 519.94 51.17 519.08 50.58C518.22 49.99 517.19 49.69 515.99 49.69C514.45 49.69 513.06 50.11 511.83 50.96C510.6 51.81 509.76 52.93 509.31 54.33C508.85 55.73 508.63 58.31 508.63 62.07V77.34H499.71V43.62H507.99V48.57C510.93 44.76 514.63 42.86 519.1 42.86C521.07 42.86 522.87 43.21 524.5 43.92C526.13 44.63 527.36 45.53 528.2 46.63C529.04 47.73 529.62 48.98 529.95 50.38C530.28 51.78 530.44 53.78 530.44 56.38V77.33H530.43Z" fill="#034EA2"/>
<path d="M546.14 53.91L538.05 52.45C538.96 49.19 540.53 46.78 542.75 45.21C544.97 43.64 548.27 42.86 552.65 42.86C556.63 42.86 559.59 43.33 561.54 44.27C563.49 45.21 564.86 46.41 565.65 47.86C566.44 49.31 566.84 51.97 566.84 55.84L566.75 66.25C566.75 69.21 566.89 71.4 567.18 72.8C567.47 74.21 568 75.72 568.78 77.32H559.96C559.73 76.73 559.44 75.85 559.1 74.69C558.95 74.16 558.85 73.81 558.78 73.64C557.26 75.12 555.63 76.23 553.89 76.97C552.16 77.71 550.3 78.08 548.34 78.08C544.87 78.08 542.13 77.14 540.14 75.26C538.14 73.38 537.14 71 537.14 68.12C537.14 66.22 537.6 64.52 538.51 63.03C539.42 61.54 540.69 60.4 542.33 59.6C543.97 58.81 546.33 58.11 549.42 57.52C553.59 56.74 556.48 56.01 558.08 55.33V54.44C558.08 52.73 557.66 51.5 556.81 50.77C555.96 50.04 554.37 49.67 552.02 49.67C550.43 49.67 549.19 49.98 548.31 50.61C547.42 51.23 546.7 52.33 546.15 53.9L546.14 53.91ZM558.07 61.15C556.93 61.53 555.12 61.99 552.64 62.51C550.16 63.04 548.55 63.56 547.78 64.07C546.62 64.9 546.03 65.94 546.03 67.21C546.03 68.48 546.49 69.54 547.43 70.45C548.36 71.36 549.55 71.81 550.98 71.81C552.59 71.81 554.12 71.28 555.58 70.22C556.66 69.42 557.37 68.43 557.71 67.27C557.94 66.51 558.06 65.06 558.06 62.92V61.14L558.07 61.15Z" fill="#034EA2"/>
<path d="M606.28 77.33H597.36V60.13C597.36 56.49 597.17 54.14 596.79 53.07C596.41 52 595.79 51.17 594.93 50.58C594.07 49.99 593.04 49.69 591.84 49.69C590.3 49.69 588.91 50.11 587.68 50.96C586.45 51.81 585.61 52.93 585.16 54.33C584.7 55.73 584.48 58.31 584.48 62.07V77.34H575.56V43.62H583.84V48.57C586.78 44.76 590.48 42.86 594.95 42.86C596.92 42.86 598.72 43.21 600.35 43.92C601.98 44.63 603.21 45.53 604.05 46.63C604.89 47.73 605.47 48.98 605.8 50.38C606.13 51.78 606.29 53.78 606.29 56.38V77.33H606.28Z" fill="#034EA2"/>
<path d="M612.19 67.71L621.14 66.35C621.52 68.09 622.29 69.4 623.46 70.3C624.62 71.2 626.25 71.65 628.35 71.65C630.66 71.65 632.39 71.23 633.56 70.38C634.34 69.79 634.73 69 634.73 68C634.73 67.32 634.52 66.76 634.1 66.32C633.66 65.9 632.66 65.51 631.12 65.15C623.93 63.56 619.37 62.11 617.44 60.8C614.77 58.98 613.44 56.45 613.44 53.21C613.44 50.29 614.59 47.84 616.9 45.85C619.21 43.86 622.78 42.87 627.63 42.87C632.48 42.87 635.67 43.62 637.91 45.12C640.15 46.62 641.7 48.84 642.54 51.79L634.13 53.34C633.77 52.03 633.09 51.02 632.08 50.32C631.08 49.62 629.64 49.27 627.78 49.27C625.43 49.27 623.75 49.6 622.73 50.25C622.05 50.71 621.71 51.32 621.71 52.06C621.71 52.69 622.01 53.23 622.6 53.68C623.4 54.27 626.18 55.11 630.93 56.19C635.68 57.27 639 58.59 640.88 60.16C642.74 61.75 643.67 63.96 643.67 66.79C643.67 69.88 642.38 72.53 639.8 74.76C637.22 76.98 633.4 78.09 628.34 78.09C623.75 78.09 620.11 77.16 617.44 75.3C614.76 73.44 613.01 70.91 612.19 67.71V67.71Z" fill="#034EA2"/>
<path d="M651.48 39.05V30.8H660.4V39.05H651.48ZM651.48 77.33V43.62H660.4V77.33H651.48Z" fill="#034EA2"/>
<path d="M689.06 66.6L697.95 68.09C696.81 71.35 695 73.83 692.54 75.53C690.07 77.23 686.99 78.08 683.29 78.08C677.43 78.08 673.09 76.16 670.28 72.34C668.06 69.27 666.95 65.4 666.95 60.72C666.95 55.13 668.41 50.76 671.33 47.6C674.25 44.44 677.94 42.85 682.41 42.85C687.42 42.85 691.38 44.51 694.28 47.82C697.18 51.13 698.56 56.2 698.44 63.04H676.1C676.16 65.69 676.88 67.74 678.26 69.21C679.64 70.68 681.35 71.42 683.4 71.42C684.8 71.42 685.97 71.04 686.92 70.28C687.87 69.52 688.59 68.29 689.08 66.6H689.06ZM689.57 57.59C689.51 55.01 688.84 53.05 687.57 51.7C686.3 50.36 684.76 49.68 682.94 49.68C680.99 49.68 679.39 50.39 678.12 51.81C676.85 53.23 676.23 55.15 676.25 57.59H689.58H689.57Z" fill="#034EA2"/>
<path d="M714.23 77.33H705.31V43.62H713.59V48.41C715.01 46.15 716.28 44.66 717.41 43.94C718.54 43.22 719.83 42.86 721.27 42.86C723.3 42.86 725.26 43.42 727.14 44.54L724.38 52.32C722.88 51.35 721.48 50.86 720.19 50.86C718.9 50.86 717.88 51.2 717.02 51.89C716.15 52.58 715.47 53.82 714.97 55.62C714.47 57.42 714.22 61.19 714.22 66.92V77.33H714.23Z" fill="#034EA2"/>
<path d="M750.5 66.6L759.39 68.09C758.25 71.35 756.44 73.83 753.98 75.53C751.51 77.23 748.43 78.08 744.73 78.08C738.87 78.08 734.53 76.16 731.72 72.34C729.5 69.27 728.39 65.4 728.39 60.72C728.39 55.13 729.85 50.76 732.77 47.6C735.69 44.44 739.38 42.85 743.85 42.85C748.86 42.85 752.82 44.51 755.72 47.82C758.62 51.13 760 56.2 759.88 63.04H737.54C737.6 65.69 738.32 67.74 739.7 69.21C741.08 70.68 742.79 71.42 744.84 71.42C746.24 71.42 747.41 71.04 748.36 70.28C749.31 69.52 750.03 68.29 750.52 66.6H750.5ZM751.01 57.59C750.95 55.01 750.28 53.05 749.01 51.7C747.74 50.36 746.2 49.68 744.38 49.68C742.43 49.68 740.83 50.39 739.56 51.81C738.29 53.23 737.67 55.15 737.69 57.59H751.02H751.01Z" fill="#034EA2"/>
<path d="M782.59 43.62V50.73H776.5V64.31C776.5 67.06 776.56 68.66 776.67 69.12C776.79 69.58 777.05 69.95 777.46 70.25C777.87 70.55 778.38 70.7 778.97 70.7C779.8 70.7 780.99 70.41 782.56 69.84L783.32 76.76C781.25 77.65 778.9 78.09 776.28 78.09C774.67 78.09 773.22 77.82 771.93 77.28C770.64 76.74 769.69 76.04 769.09 75.19C768.49 74.33 768.07 73.17 767.84 71.72C767.65 70.68 767.55 68.59 767.55 65.43V50.74H763.46V43.63H767.55V36.93L776.5 31.72V43.62H782.59V43.62Z" fill="#034EA2"/>
<path d="M813.5 53.91L805.41 52.45C806.32 49.19 807.89 46.78 810.11 45.21C812.33 43.64 815.63 42.86 820.01 42.86C823.99 42.86 826.95 43.33 828.9 44.27C830.85 45.21 832.22 46.41 833.01 47.86C833.8 49.31 834.2 51.97 834.2 55.84L834.11 66.25C834.11 69.21 834.25 71.4 834.54 72.8C834.83 74.21 835.36 75.72 836.14 77.32H827.32C827.09 76.73 826.8 75.85 826.46 74.69C826.31 74.16 826.21 73.81 826.14 73.64C824.62 75.12 822.99 76.23 821.25 76.97C819.52 77.71 817.66 78.08 815.7 78.08C812.23 78.08 809.49 77.14 807.5 75.26C805.5 73.38 804.5 71 804.5 68.12C804.5 66.22 804.96 64.52 805.87 63.03C806.78 61.54 808.05 60.4 809.69 59.6C811.33 58.81 813.69 58.11 816.78 57.52C820.95 56.74 823.84 56.01 825.44 55.33V54.44C825.44 52.73 825.02 51.5 824.17 50.77C823.32 50.04 821.73 49.67 819.38 49.67C817.79 49.67 816.55 49.98 815.67 50.61C814.78 51.23 814.06 52.33 813.51 53.9L813.5 53.91ZM825.43 61.15C824.29 61.53 822.48 61.99 820 62.51C817.52 63.04 815.91 63.56 815.14 64.07C813.98 64.9 813.39 65.94 813.39 67.21C813.39 68.48 813.85 69.54 814.79 70.45C815.72 71.36 816.91 71.81 818.34 71.81C819.95 71.81 821.48 71.28 822.94 70.22C824.02 69.42 824.73 68.43 825.07 67.27C825.3 66.51 825.42 65.06 825.42 62.92V61.14L825.43 61.15Z" fill="#034EA2"/>
<path d="M839.08 43.62H844.03V41.08C844.03 38.25 844.33 36.13 844.93 34.73C845.53 33.33 846.64 32.2 848.26 31.32C849.88 30.44 851.93 30 854.4 30C856.87 30 859.42 30.38 861.86 31.14L860.65 37.36C859.23 37.02 857.87 36.85 856.56 36.85C855.25 36.85 854.34 37.15 853.78 37.76C853.22 38.36 852.94 39.52 852.94 41.24V43.62H859.61V50.63H852.94V77.32H844.02V50.63H839.07V43.62H839.08Z" fill="#034EA2"/>
<path d="M330.1 108.8H347.27C351.14 108.8 354.09 109.1 356.13 109.69C358.86 110.49 361.2 111.92 363.14 113.97C365.09 116.02 366.57 118.54 367.58 121.51C368.6 124.48 369.1 128.15 369.1 132.51C369.1 136.34 368.62 139.64 367.67 142.41C366.51 145.8 364.85 148.54 362.69 150.63C361.06 152.22 358.86 153.45 356.09 154.34C354.02 155 351.24 155.32 347.77 155.32H330.09V108.79L330.1 108.8ZM339.49 116.67V147.49H346.5C349.12 147.49 351.02 147.34 352.18 147.05C353.7 146.67 354.97 146.02 355.97 145.11C356.97 144.2 357.79 142.7 358.43 140.62C359.06 138.54 359.38 135.7 359.38 132.1C359.38 128.5 359.06 125.74 358.43 123.82C357.8 121.89 356.91 120.39 355.76 119.31C354.62 118.23 353.17 117.5 351.41 117.12C350.1 116.82 347.53 116.68 343.7 116.68H339.48L339.49 116.67Z" fill="#034EA2"/>
<path d="M396.53 144.6L405.42 146.09C404.28 149.35 402.47 151.83 400.01 153.53C397.54 155.23 394.46 156.08 390.76 156.08C384.9 156.08 380.56 154.16 377.75 150.34C375.53 147.27 374.42 143.4 374.42 138.72C374.42 133.13 375.88 128.76 378.8 125.6C381.72 122.44 385.41 120.85 389.88 120.85C394.89 120.85 398.85 122.51 401.75 125.82C404.65 129.13 406.03 134.2 405.91 141.04H383.57C383.63 143.69 384.35 145.74 385.73 147.21C387.11 148.68 388.82 149.42 390.87 149.42C392.27 149.42 393.44 149.04 394.39 148.28C395.34 147.52 396.06 146.29 396.55 144.6H396.53ZM397.04 135.59C396.98 133.01 396.31 131.05 395.04 129.7C393.77 128.36 392.23 127.68 390.41 127.68C388.46 127.68 386.86 128.39 385.59 129.81C384.32 131.23 383.7 133.15 383.72 135.59H397.05H397.04Z" fill="#034EA2"/>
<path d="M443.81 155.33H434.89V138.13C434.89 134.49 434.7 132.14 434.32 131.07C433.94 130 433.32 129.17 432.46 128.58C431.6 127.99 430.57 127.69 429.37 127.69C427.83 127.69 426.44 128.11 425.21 128.96C423.98 129.81 423.14 130.93 422.69 132.33C422.23 133.73 422.01 136.31 422.01 140.07V155.34H413.09V121.63H421.37V126.58C424.31 122.77 428.01 120.87 432.48 120.87C434.45 120.87 436.25 121.22 437.88 121.93C439.51 122.64 440.74 123.54 441.58 124.64C442.42 125.74 443 126.99 443.33 128.39C443.66 129.79 443.82 131.79 443.82 134.39V155.34L443.81 155.33Z" fill="#034EA2"/>
<path d="M470.98 155.33V108.8H505.48V116.67H480.37V126.99H503.73V134.83H480.37V147.49H506.36V155.33H470.97H470.98Z" fill="#034EA2"/>
<path d="M536.46 155.33V150.28C535.23 152.08 533.62 153.5 531.62 154.53C529.62 155.57 527.51 156.08 525.29 156.08C523.07 156.08 520.99 155.58 519.2 154.59C517.4 153.6 516.1 152.2 515.3 150.4C514.5 148.6 514.09 146.12 514.09 142.94V121.61H523.01V137.1C523.01 141.84 523.17 144.74 523.5 145.81C523.83 146.88 524.42 147.73 525.29 148.35C526.16 148.97 527.26 149.29 528.59 149.29C530.11 149.29 531.48 148.87 532.68 148.04C533.89 147.21 534.71 146.17 535.15 144.93C535.6 143.69 535.82 140.66 535.82 135.84V121.62H544.74V155.33H536.46V155.33Z" fill="#034EA2"/>
<path d="M562.52 155.33H553.6V121.62H561.88V126.41C563.3 124.15 564.57 122.66 565.7 121.94C566.83 121.22 568.12 120.86 569.56 120.86C571.59 120.86 573.55 121.42 575.43 122.54L572.67 130.32C571.17 129.35 569.77 128.86 568.48 128.86C567.19 128.86 566.17 129.2 565.31 129.89C564.44 130.58 563.76 131.82 563.26 133.62C562.76 135.42 562.51 139.19 562.51 144.92V155.33H562.52Z" fill="#034EA2"/>
<path d="M577.21 138C577.21 135.04 577.94 132.17 579.4 129.4C580.86 126.63 582.93 124.51 585.6 123.05C588.28 121.59 591.27 120.86 594.57 120.86C599.67 120.86 603.85 122.52 607.11 125.83C610.37 129.14 612 133.33 612 138.38C612 143.43 610.35 147.71 607.06 151.06C603.77 154.41 599.63 156.09 594.64 156.09C591.55 156.09 588.6 155.39 585.8 154C583 152.61 580.86 150.56 579.41 147.86C577.95 145.16 577.22 141.88 577.22 138.01L577.21 138ZM586.35 138.48C586.35 141.82 587.14 144.38 588.73 146.16C590.32 147.94 592.27 148.83 594.6 148.83C596.93 148.83 598.88 147.94 600.46 146.16C602.04 144.38 602.82 141.8 602.82 138.42C602.82 135.04 602.03 132.58 600.46 130.8C598.89 129.02 596.93 128.13 594.6 128.13C592.27 128.13 590.32 129.02 588.73 130.8C587.14 132.58 586.35 135.14 586.35 138.48Z" fill="#034EA2"/>
<path d="M618.73 121.62H627.04V126.57C628.12 124.88 629.58 123.5 631.42 122.44C633.26 121.38 635.3 120.85 637.54 120.85C641.45 120.85 644.78 122.38 647.51 125.45C650.24 128.52 651.6 132.79 651.6 138.27C651.6 143.75 650.22 148.27 647.47 151.39C644.72 154.51 641.39 156.07 637.47 156.07C635.61 156.07 633.92 155.7 632.41 154.96C630.9 154.22 629.3 152.95 627.63 151.15V168.13H618.71V121.6L618.73 121.62ZM627.55 137.9C627.55 141.69 628.3 144.48 629.8 146.29C631.3 148.1 633.13 149 635.29 149C637.45 149 639.09 148.17 640.46 146.51C641.84 144.85 642.52 142.13 642.52 138.34C642.52 134.81 641.81 132.18 640.39 130.47C638.97 128.76 637.22 127.9 635.12 127.9C633.02 127.9 631.13 128.74 629.69 130.42C628.25 132.1 627.53 134.59 627.53 137.89L627.55 137.9Z" fill="#034EA2"/>
<path d="M699.59 144.57L708.32 146.13C707.11 149.45 705.28 151.94 702.83 153.6C700.37 155.26 697.24 156.09 693.44 156.09C691.07 156.09 688.88 155.7 686.87 154.93C684.86 154.16 683.04 153 681.41 151.45C679.91 152.74 677.97 153.84 675.59 154.74C673.21 155.64 670.76 156.09 668.24 156.09C664.64 156.09 661.84 155.15 659.83 153.28C657.82 151.41 656.81 149.04 656.81 146.19C656.81 144.48 657.16 142.95 657.87 141.62C658.58 140.29 659.44 139.24 660.44 138.49C661.44 137.74 662.85 137.09 664.65 136.54C665.5 136.27 668.01 135.69 672.2 134.83C674.3 134.39 676.08 133.92 677.56 133.43V132.54C677.56 130.91 677.12 129.69 676.23 128.89C675.34 128.09 673.93 127.68 672.01 127.68C670.32 127.68 668.97 128.02 667.98 128.71C666.98 129.4 666.28 130.46 665.85 131.9L657.76 130.34C658.82 127.08 660.48 124.69 662.76 123.15C665.03 121.62 668.5 120.85 673.15 120.85C675.35 120.85 677.31 121.11 679.04 121.63C680.76 122.15 682.24 122.93 683.47 123.96C684.76 122.92 686.17 122.15 687.71 121.63C689.24 121.11 690.89 120.85 692.64 120.85C696.03 120.85 698.89 121.56 701.23 122.99C703.57 124.42 705.41 126.52 706.75 129.31C708.09 132.09 708.75 136.02 708.73 141.1H686.32C686.68 143.98 687.48 146.06 688.73 147.35C689.98 148.64 691.51 149.29 693.33 149.29C694.83 149.29 696.11 148.9 697.17 148.13C698.23 147.36 699.03 146.17 699.58 144.56L699.59 144.57ZM677.5 139.21C672.61 140.5 669.96 141.22 669.53 141.37C668.11 141.84 667.12 142.4 666.56 143.05C666 143.71 665.72 144.48 665.72 145.37C665.72 146.6 666.18 147.64 667.1 148.51C668.02 149.38 669.22 149.81 670.7 149.81C672.27 149.81 673.74 149.31 675.11 148.32C676.13 147.58 676.78 146.65 677.06 145.54C677.35 144.43 677.49 142.32 677.49 139.21H677.5ZM699.94 135.53C699.81 133.67 699.56 132.32 699.18 131.5C698.65 130.32 697.85 129.38 696.78 128.71C695.71 128.03 694.46 127.69 693.02 127.69C691.77 127.69 690.68 127.98 689.74 128.56C688.8 129.14 688.05 130.02 687.5 131.18C686.76 132.72 686.42 134.17 686.48 135.53H699.94V135.53Z" fill="#034EA2"/>
<path d="M716.48 117.05V108.8H725.4V117.05H716.48ZM716.48 155.33V121.62H725.4V155.33H716.48Z" fill="#034EA2"/>
<path d="M731.4 145.71L740.35 144.35C740.73 146.09 741.5 147.4 742.67 148.3C743.83 149.2 745.46 149.65 747.56 149.65C749.87 149.65 751.6 149.23 752.77 148.38C753.55 147.79 753.94 147 753.94 146C753.94 145.32 753.73 144.76 753.31 144.32C752.87 143.9 751.87 143.51 750.33 143.15C743.14 141.56 738.58 140.11 736.65 138.8C733.98 136.98 732.65 134.45 732.65 131.21C732.65 128.29 733.8 125.84 736.11 123.85C738.42 121.86 741.99 120.87 746.84 120.87C751.69 120.87 754.88 121.62 757.12 123.12C759.36 124.62 760.91 126.84 761.75 129.79L753.34 131.34C752.98 130.03 752.3 129.02 751.29 128.32C750.29 127.62 748.85 127.27 746.99 127.27C744.64 127.27 742.96 127.6 741.94 128.25C741.26 128.71 740.92 129.32 740.92 130.06C740.92 130.69 741.22 131.23 741.81 131.68C742.61 132.27 745.39 133.11 750.14 134.19C754.89 135.27 758.21 136.59 760.09 138.16C761.95 139.75 762.88 141.96 762.88 144.79C762.88 147.88 761.59 150.53 759.01 152.76C756.43 154.98 752.61 156.09 747.55 156.09C742.96 156.09 739.32 155.16 736.65 153.3C733.97 151.44 732.22 148.91 731.4 145.71V145.71Z" fill="#034EA2"/>
<path d="M770.37 155.33V108.8H779.29V133.49L789.73 121.62H800.71L789.19 133.93L801.54 155.32H791.92L783.45 140.18L779.29 144.53V155.32H770.37V155.33Z" fill="#034EA2"/>
<path d="M826.36 144.6L835.25 146.09C834.11 149.35 832.3 151.83 829.84 153.53C827.37 155.23 824.29 156.08 820.59 156.08C814.73 156.08 810.39 154.16 807.58 150.34C805.36 147.27 804.25 143.4 804.25 138.72C804.25 133.13 805.71 128.76 808.63 125.6C811.55 122.44 815.24 120.85 819.71 120.85C824.72 120.85 828.68 122.51 831.58 125.82C834.48 129.13 835.86 134.2 835.74 141.04H813.4C813.46 143.69 814.18 145.74 815.56 147.21C816.94 148.68 818.65 149.42 820.7 149.42C822.1 149.42 823.27 149.04 824.22 148.28C825.17 147.52 825.89 146.29 826.38 144.6H826.36ZM826.87 135.59C826.81 133.01 826.14 131.05 824.87 129.7C823.6 128.36 822.06 127.68 820.24 127.68C818.29 127.68 816.69 128.39 815.42 129.81C814.15 131.23 813.53 133.15 813.55 135.59H826.88H826.87Z" fill="#034EA2"/>
<path d="M861.05 108.8H870.44V134C870.44 138 870.56 140.59 870.79 141.78C871.19 143.68 872.15 145.21 873.66 146.37C875.17 147.53 877.24 148.1 879.87 148.1C882.5 148.1 884.55 147.56 885.9 146.47C887.25 145.38 888.07 144.04 888.34 142.46C888.61 140.87 888.75 138.24 888.75 134.56V108.82H898.14V133.26C898.14 138.85 897.89 142.79 897.38 145.1C896.87 147.41 895.94 149.35 894.57 150.94C893.2 152.53 891.38 153.79 889.1 154.73C886.82 155.67 883.83 156.14 880.15 156.14C875.71 156.14 872.34 155.63 870.04 154.6C867.74 153.57 865.93 152.24 864.6 150.6C863.27 148.96 862.39 147.24 861.97 145.44C861.36 142.77 861.05 138.84 861.05 133.63V108.81V108.8Z" fill="#034EA2"/>
<path d="M938.65 155.33H929.73V138.13C929.73 134.49 929.54 132.14 929.16 131.07C928.78 130 928.16 129.17 927.3 128.58C926.44 127.99 925.41 127.69 924.21 127.69C922.67 127.69 921.28 128.11 920.05 128.96C918.82 129.81 917.98 130.93 917.53 132.33C917.07 133.73 916.85 136.31 916.85 140.07V155.34H907.93V121.63H916.21V126.58C919.15 122.77 922.85 120.87 927.32 120.87C929.29 120.87 931.09 121.22 932.72 121.93C934.35 122.64 935.58 123.54 936.42 124.64C937.26 125.74 937.84 126.99 938.17 128.39C938.5 129.79 938.66 131.79 938.66 134.39V155.34L938.65 155.33Z" fill="#034EA2"/>
<path d="M947.69 117.05V108.8H956.61V117.05H947.69ZM947.69 155.33V121.62H956.61V155.33H947.69Z" fill="#034EA2"/>
<path d="M963.69 138C963.69 135.04 964.42 132.17 965.88 129.4C967.34 126.63 969.41 124.51 972.08 123.05C974.76 121.59 977.75 120.86 981.05 120.86C986.15 120.86 990.33 122.52 993.59 125.83C996.85 129.14 998.48 133.33 998.48 138.38C998.48 143.43 996.83 147.71 993.54 151.06C990.25 154.41 986.11 156.09 981.12 156.09C978.03 156.09 975.08 155.39 972.28 154C969.48 152.61 967.34 150.56 965.89 147.86C964.43 145.16 963.7 141.88 963.7 138.01L963.69 138ZM972.83 138.48C972.83 141.82 973.62 144.38 975.21 146.16C976.8 147.94 978.75 148.83 981.08 148.83C983.41 148.83 985.36 147.94 986.94 146.16C988.52 144.38 989.3 141.8 989.3 138.42C989.3 135.04 988.51 132.58 986.94 130.8C985.37 129.02 983.41 128.13 981.08 128.13C978.75 128.13 976.8 129.02 975.21 130.8C973.62 132.58 972.83 135.14 972.83 138.48Z" fill="#034EA2"/>
<path d="M1036.11 155.33H1027.19V138.13C1027.19 134.49 1027 132.14 1026.62 131.07C1026.24 130 1025.62 129.17 1024.76 128.58C1023.9 127.99 1022.87 127.69 1021.67 127.69C1020.13 127.69 1018.74 128.11 1017.51 128.96C1016.28 129.81 1015.44 130.93 1014.99 132.33C1014.53 133.73 1014.31 136.31 1014.31 140.07V155.34H1005.39V121.63H1013.67V126.58C1016.61 122.77 1020.31 120.87 1024.78 120.87C1026.75 120.87 1028.55 121.22 1030.18 121.93C1031.81 122.64 1033.04 123.54 1033.88 124.64C1034.72 125.74 1035.3 126.99 1035.63 128.39C1035.96 129.79 1036.12 131.79 1036.12 134.39V155.34L1036.11 155.33Z" fill="#034EA2"/>
</g>
</svg>
