<svg width="291" height="56" viewBox="0 0 291 56" fill="none" xmlns="http://www.w3.org/2000/svg">
<g>
<path d="M82.8391 0H0V56H82.8391V0Z" fill="white"/>
<path d="M81.2439 1.53503H1.59247V54.4006H81.2439V1.53503Z" fill="#034EA2"/>
<path d="M39.7218 13.0549L41.4013 11.833L43.0836 13.0549L42.4433 11.078L44.1509 9.85894H42.0473L41.4013 7.85974L40.7581 9.86174L38.6545 9.85894L40.3621 11.078L39.7218 13.0549Z" fill="#FFF200"/>
<path d="M31.0236 15.3813L32.7031 14.1594L34.3855 15.3813L33.7451 13.4072L35.4527 12.1853H33.3463L32.7031 10.1833L32.06 12.1881L29.9563 12.1853L31.6611 13.4072L31.0236 15.3813Z" fill="#FFF200"/>
<path d="M26.3417 16.5332L25.6957 18.538L23.5921 18.5352L25.2997 19.7571L24.6594 21.7311L26.3417 20.5092L28.0212 21.7311L27.3809 19.7571L29.0885 18.5352H26.9849L26.3417 16.5332Z" fill="#FFF200"/>
<path d="M24.0049 29.1576L25.6845 30.3794L25.0469 28.4054L26.7517 27.1835H24.6509L24.0049 25.1815L23.3618 27.1891L21.2581 27.1835L22.9658 28.4054L22.3254 30.3794L24.0049 29.1576Z" fill="#FFF200"/>
<path d="M26.9849 35.857L26.3389 33.8578L25.6957 35.8598L23.5921 35.857L25.2997 37.0789L24.6594 39.0529L26.3389 37.831L28.0212 39.0529L27.3809 37.0789L29.0885 35.857H26.9849Z" fill="#FFF200"/>
<path d="M33.3603 42.2042L32.7172 40.2078L32.074 42.207L29.9704 42.2042L31.6752 43.4261L31.0376 45.4001L32.7172 44.181L34.3967 45.4001L33.7591 43.4261L35.464 42.2042H33.3603Z" fill="#FFF200"/>
<path d="M42.0473 44.5053L41.4041 42.5061L40.7609 44.5081L38.6573 44.5053L40.3621 45.7272L39.7246 47.7012L41.4041 46.4793L43.0836 47.7012L42.4433 45.7272L44.1509 44.5053H42.0473Z" fill="#FFF200"/>
<path d="M50.7342 42.2042L50.0911 40.2078L49.4451 42.207L47.3443 42.2042L49.0491 43.4261L48.4115 45.4001L50.0911 44.181L51.7734 45.4001L51.1302 43.4261L52.8379 42.2042H50.7342Z" fill="#FFF200"/>
<path d="M57.1125 35.857L56.4666 33.8578L55.8234 35.8598L53.7198 35.857L55.4274 37.0789L54.787 39.0529L56.4666 37.831L58.1489 39.0529L57.5085 37.0789L59.2162 35.857H57.1125Z" fill="#FFF200"/>
<path d="M61.5248 27.1584H59.4212L58.7752 25.1592L58.1348 27.1612L56.0284 27.1584L57.736 28.3803L57.0985 30.3543L58.7752 29.1324L60.4575 30.3543L59.82 28.3803L61.5248 27.1584Z" fill="#FFF200"/>
<path d="M54.787 21.7032L56.4666 20.4841L58.1489 21.7032L57.5085 19.7292L59.2162 18.5101H57.1125L56.4666 16.5109L55.8234 18.5129L53.7198 18.5101L55.4274 19.7292L54.787 21.7032Z" fill="#FFF200"/>
<path d="M50.1163 10.1862L49.4732 12.1882L47.3695 12.1854L49.0743 13.4072L48.434 15.3841L50.1191 14.1594L51.7959 15.3841L51.1583 13.4072L52.8659 12.1854H50.7595L50.1163 10.1862Z" fill="#FFF200"/>
<path d="M92.7366 21.6221V8.61194H101.696V10.8125H95.3766V13.8909H100.831V16.0915H95.3766V21.6193H92.7394L92.7366 21.6221Z" fill="#034EA2"/>
<path d="M103.853 10.9187V8.61194H106.358V10.9187H103.853ZM103.853 21.6221V12.1965H106.358V21.6221H103.853Z" fill="#034EA2"/>
<path d="M117.536 21.6221H115.031V16.8129C115.031 15.7951 114.978 15.138 114.871 14.8388C114.764 14.5396 114.59 14.3076 114.349 14.1426C114.107 13.9776 113.818 13.8937 113.481 13.8937C113.048 13.8937 112.658 14.0112 112.312 14.2488C111.967 14.4865 111.731 14.7997 111.605 15.1911C111.475 15.5826 111.414 16.304 111.414 17.3553V21.6249H108.908V12.1993H111.234V13.5834C112.06 12.5181 113.099 11.9868 114.354 11.9868C114.908 11.9868 115.413 12.0847 115.871 12.2832C116.329 12.4817 116.674 12.7334 116.91 13.0409C117.146 13.3485 117.309 13.698 117.402 14.0895C117.494 14.4809 117.539 15.0401 117.539 15.7671V21.6249L117.536 21.6221Z" fill="#034EA2"/>
<path d="M121.949 15.0737L119.676 14.6655C119.932 13.7539 120.373 13.0801 120.997 12.6411C121.62 12.2021 122.547 11.984 123.777 11.984C124.895 11.984 125.726 12.1154 126.274 12.3783C126.822 12.6411 127.206 12.9766 127.428 13.3821C127.65 13.7875 127.762 14.5312 127.762 15.6133L127.737 18.5241C127.737 19.3517 127.776 19.964 127.858 20.3555C127.939 20.7497 128.088 21.1719 128.307 21.6193H125.83C125.765 21.4544 125.684 21.2083 125.589 20.8839C125.546 20.7358 125.518 20.6379 125.499 20.5904C125.072 21.0042 124.614 21.3145 124.125 21.5215C123.639 21.7284 123.117 21.8318 122.567 21.8318C121.592 21.8318 120.822 21.569 120.263 21.0433C119.702 20.5177 119.421 19.8522 119.421 19.0469C119.421 18.5157 119.55 18.0403 119.806 17.6237C120.061 17.2071 120.418 16.8883 120.879 16.6647C121.339 16.4438 122.002 16.248 122.87 16.0831C124.041 15.865 124.853 15.6609 125.302 15.4707V15.2219C125.302 14.7437 125.184 14.3998 124.945 14.1957C124.707 13.9916 124.26 13.8881 123.6 13.8881C123.153 13.8881 122.805 13.9748 122.558 14.151C122.308 14.3243 122.106 14.6319 121.951 15.0709L121.949 15.0737ZM125.299 17.098C124.979 17.2043 124.471 17.3329 123.774 17.4783C123.078 17.6265 122.625 17.7719 122.409 17.9145C122.083 18.1466 121.918 18.4374 121.918 18.7925C121.918 19.1476 122.047 19.444 122.311 19.6984C122.572 19.9529 122.906 20.0787 123.308 20.0787C123.76 20.0787 124.19 19.9305 124.6 19.6341C124.903 19.4104 125.103 19.1336 125.198 18.8093C125.263 18.5967 125.296 18.1913 125.296 17.593V17.0953L125.299 17.098Z" fill="#034EA2"/>
<path d="M138.839 21.6221H136.334V16.8129C136.334 15.7951 136.281 15.138 136.174 14.8388C136.067 14.5396 135.893 14.3076 135.652 14.1426C135.41 13.9776 135.121 13.8937 134.784 13.8937C134.351 13.8937 133.961 14.0112 133.615 14.2488C133.27 14.4865 133.034 14.7997 132.908 15.1911C132.779 15.5826 132.717 16.304 132.717 17.3553V21.6249H130.211V12.1993H132.537V13.5834C133.363 12.5181 134.402 11.9868 135.657 11.9868C136.211 11.9868 136.716 12.0847 137.174 12.2832C137.632 12.4817 137.977 12.7334 138.213 13.0409C138.449 13.3485 138.612 13.698 138.705 14.0895C138.797 14.4809 138.842 15.0401 138.842 15.7671V21.6249L138.839 21.6221Z" fill="#034EA2"/>
<path d="M140.499 18.9323L143.013 18.552C143.12 19.0385 143.336 19.4048 143.665 19.6565C143.99 19.9081 144.448 20.034 145.038 20.034C145.687 20.034 146.173 19.9165 146.501 19.6788C146.72 19.5139 146.83 19.293 146.83 19.0134C146.83 18.8232 146.771 18.6667 146.653 18.5436C146.529 18.4262 146.248 18.3172 145.816 18.2165C143.797 17.7719 142.516 17.3665 141.974 17.0002C141.224 16.4913 140.85 15.7839 140.85 14.878C140.85 14.0615 141.173 13.3765 141.822 12.82C142.471 12.2636 143.474 11.9868 144.836 11.9868C146.198 11.9868 147.094 12.1965 147.723 12.6159C148.352 13.0353 148.787 13.6561 149.023 14.4809L146.661 14.9143C146.56 14.548 146.369 14.2656 146.086 14.0699C145.805 13.8742 145.4 13.7763 144.878 13.7763C144.218 13.7763 143.746 13.8686 143.46 14.0503C143.269 14.1789 143.173 14.3495 143.173 14.5564C143.173 14.7326 143.257 14.8836 143.423 15.0094C143.648 15.1744 144.429 15.4092 145.763 15.7112C147.097 16.0132 148.029 16.3823 148.557 16.8212C149.08 17.2658 149.341 17.8838 149.341 18.6751C149.341 19.539 148.978 20.28 148.254 20.9035C147.529 21.5243 146.456 21.8346 145.035 21.8346C143.746 21.8346 142.724 21.5746 141.974 21.0545C141.221 20.5345 140.73 19.827 140.499 18.9323Z" fill="#034EA2"/>
<path d="M151.534 10.9187V8.61194H154.04V10.9187H151.534ZM151.534 21.6221V12.1965H154.04V21.6221H151.534Z" fill="#034EA2"/>
<path d="M162.089 18.6219L164.586 19.0385C164.266 19.95 163.757 20.6435 163.066 21.1188C162.373 21.5941 161.508 21.8318 160.468 21.8318C158.823 21.8318 157.604 21.295 156.814 20.2269C156.191 19.3685 155.879 18.2864 155.879 16.9778C155.879 15.4148 156.289 14.1929 157.109 13.3093C157.929 12.4258 158.966 11.9812 160.221 11.9812C161.628 11.9812 162.741 12.4454 163.555 13.3709C164.369 14.2964 164.757 15.714 164.723 17.6265H158.449C158.466 18.3675 158.668 18.9407 159.056 19.3517C159.443 19.7627 159.924 19.9696 160.499 19.9696C160.892 19.9696 161.221 19.8634 161.488 19.6509C161.755 19.4384 161.957 19.0944 162.095 18.6219H162.089ZM162.232 16.1026C162.215 15.3812 162.027 14.8332 161.67 14.4557C161.314 14.0811 160.881 13.8909 160.37 13.8909C159.822 13.8909 159.373 14.0895 159.016 14.4865C158.66 14.8835 158.486 15.4204 158.491 16.1026H162.235H162.232Z" fill="#034EA2"/>
<path d="M169.155 21.6221H166.65V12.1965H168.976V13.5358C169.374 12.9039 169.731 12.4873 170.048 12.286C170.366 12.0847 170.728 11.984 171.133 11.984C171.703 11.984 172.253 12.1406 172.781 12.4538L172.006 14.6291C171.585 14.3579 171.192 14.2209 170.829 14.2209C170.467 14.2209 170.18 14.3159 169.939 14.5089C169.695 14.7018 169.504 15.0485 169.363 15.5518C169.223 16.0551 169.152 17.1092 169.152 18.7114V21.6221H169.155Z" fill="#034EA2"/>
<path d="M179.345 18.6219L181.842 19.0385C181.521 19.95 181.013 20.6435 180.322 21.1188C179.629 21.5941 178.763 21.8318 177.724 21.8318C176.078 21.8318 174.86 21.295 174.07 20.2269C173.447 19.3685 173.135 18.2864 173.135 16.9778C173.135 15.4148 173.545 14.1929 174.365 13.3093C175.185 12.4258 176.222 11.9812 177.477 11.9812C178.884 11.9812 179.996 12.4454 180.811 13.3709C181.625 14.2964 182.013 15.714 181.979 17.6265H175.705C175.722 18.3675 175.924 18.9407 176.312 19.3517C176.699 19.7627 177.179 19.9696 177.755 19.9696C178.148 19.9696 178.477 19.8634 178.744 19.6509C179.011 19.4384 179.213 19.0944 179.35 18.6219H179.345ZM179.488 16.1026C179.471 15.3812 179.283 14.8332 178.926 14.4557C178.57 14.0811 178.137 13.8909 177.626 13.8909C177.078 13.8909 176.629 14.0895 176.272 14.4865C175.916 14.8835 175.741 15.4204 175.747 16.1026H179.491H179.488Z" fill="#034EA2"/>
<path d="M188.358 12.1965V14.1845H186.647V17.9816C186.647 18.7505 186.664 19.1979 186.695 19.3265C186.729 19.4551 186.802 19.5586 186.917 19.6425C187.032 19.7263 187.175 19.7683 187.341 19.7683C187.574 19.7683 187.908 19.6872 188.349 19.5278L188.563 21.4627C187.981 21.7116 187.321 21.8346 186.585 21.8346C186.133 21.8346 185.726 21.7591 185.364 21.6081C185.001 21.4571 184.734 21.2614 184.566 21.0237C184.397 20.7833 184.279 20.4589 184.215 20.0535C184.162 19.7627 184.133 19.1783 184.133 18.2947V14.1873H182.985V12.1993H184.133V10.3259L186.647 8.86914V12.1965H188.358Z" fill="#034EA2"/>
<path d="M197.039 15.0737L194.767 14.6655C195.022 13.7539 195.463 13.0801 196.087 12.6411C196.71 12.2021 197.637 11.984 198.867 11.984C199.985 11.984 200.816 12.1154 201.364 12.3783C201.912 12.6411 202.297 12.9766 202.518 13.3821C202.74 13.7875 202.853 14.5312 202.853 15.6133L202.827 18.5241C202.827 19.3517 202.867 19.964 202.948 20.3555C203.03 20.7497 203.178 21.1719 203.398 21.6193H200.92C200.856 21.4544 200.774 21.2083 200.679 20.8839C200.637 20.7358 200.609 20.6379 200.589 20.5904C200.162 21.0042 199.704 21.3145 199.216 21.5215C198.73 21.7284 198.207 21.8318 197.657 21.8318C196.682 21.8318 195.913 21.569 195.354 21.0433C194.792 20.5177 194.511 19.8522 194.511 19.0469C194.511 18.5157 194.64 18.0403 194.896 17.6237C195.152 17.2071 195.508 16.8883 195.969 16.6647C196.429 16.4438 197.092 16.248 197.96 16.0831C199.131 15.865 199.943 15.6609 200.392 15.4707V15.2219C200.392 14.7437 200.274 14.3998 200.036 14.1957C199.797 13.9916 199.35 13.8881 198.69 13.8881C198.244 13.8881 197.896 13.9748 197.648 14.151C197.398 14.3243 197.196 14.6319 197.042 15.0709L197.039 15.0737ZM200.39 17.098C200.069 17.2043 199.561 17.3329 198.864 17.4783C198.168 17.6265 197.716 17.7719 197.5 17.9145C197.174 18.1466 197.008 18.4374 197.008 18.7925C197.008 19.1476 197.137 19.444 197.401 19.6984C197.662 19.9529 197.997 20.0787 198.398 20.0787C198.85 20.0787 199.28 19.9305 199.69 19.6341C199.994 19.4104 200.193 19.1336 200.288 18.8093C200.353 18.5967 200.387 18.1913 200.387 17.593V17.0953L200.39 17.098Z" fill="#034EA2"/>
<path d="M204.223 12.1966H205.614V11.4864C205.614 10.6951 205.698 10.1023 205.866 9.71085C206.035 9.3194 206.347 9.00344 206.802 8.75739C207.257 8.51133 207.832 8.38831 208.526 8.38831C209.22 8.38831 209.936 8.49456 210.621 8.70706L210.281 10.4462C209.883 10.3512 209.501 10.3036 209.133 10.3036C208.765 10.3036 208.509 10.3875 208.352 10.5581C208.195 10.7258 208.116 11.0502 208.116 11.5311V12.1966H209.989V14.1566H208.116V21.6194H205.611V14.1566H204.22V12.1966H204.223Z" fill="#034EA2"/>
<path d="M92.7113 30.4214H97.5336C98.6206 30.4214 99.4491 30.5053 100.022 30.6702C100.789 30.8939 101.446 31.2938 101.991 31.867C102.539 32.4401 102.954 33.1448 103.238 33.9752C103.524 34.8056 103.665 35.8318 103.665 37.0509C103.665 38.1218 103.53 39.0445 103.263 39.819C102.937 40.7669 102.471 41.533 101.864 42.1174C101.407 42.562 100.789 42.9059 100.011 43.1547C99.4294 43.3393 98.6486 43.4288 97.6741 43.4288H92.7085V30.4186L92.7113 30.4214ZM95.3486 32.6219V41.2394H97.3174C98.0532 41.2394 98.5869 41.1975 98.9127 41.1164C99.3396 41.0102 99.6962 40.8284 99.9771 40.574C100.258 40.3195 100.488 39.9001 100.668 39.3185C100.845 38.7369 100.935 37.9428 100.935 36.9363C100.935 35.9297 100.845 35.1579 100.668 34.6211C100.491 34.0815 100.241 33.662 99.9181 33.3601C99.598 33.0581 99.1907 32.854 98.6964 32.7477C98.3285 32.6638 97.6067 32.6247 96.531 32.6247H95.3458L95.3486 32.6219Z" fill="#034EA2"/>
<path d="M111.369 40.4314L113.866 40.848C113.545 41.7595 113.037 42.4529 112.346 42.9283C111.652 43.4036 110.787 43.6413 109.748 43.6413C108.102 43.6413 106.883 43.1044 106.094 42.0363C105.471 41.1779 105.159 40.0958 105.159 38.7873C105.159 37.2242 105.569 36.0024 106.389 35.1188C107.209 34.2352 108.246 33.7906 109.501 33.7906C110.908 33.7906 112.02 34.2548 112.835 35.1803C113.649 36.1058 114.037 37.5234 114.003 39.4359H107.729C107.746 40.1769 107.948 40.7501 108.335 41.1611C108.723 41.5722 109.203 41.7791 109.779 41.7791C110.172 41.7791 110.501 41.6728 110.768 41.4603C111.034 41.2478 111.237 40.9039 111.374 40.4314H111.369ZM111.512 37.9121C111.495 37.1907 111.307 36.6427 110.95 36.2652C110.594 35.8905 110.161 35.7004 109.65 35.7004C109.102 35.7004 108.653 35.8989 108.296 36.2959C107.939 36.693 107.765 37.2298 107.771 37.9121H111.515H111.512Z" fill="#034EA2"/>
<path d="M124.648 43.4316H122.142V38.6223C122.142 37.6045 122.089 36.9475 121.982 36.6483C121.876 36.3491 121.701 36.117 121.46 35.952C121.218 35.7871 120.929 35.7032 120.592 35.7032C120.16 35.7032 119.769 35.8206 119.424 36.0583C119.078 36.296 118.842 36.6091 118.716 37.0006C118.587 37.392 118.525 38.1134 118.525 39.1648V43.4344H116.02V34.0088H118.345V35.3928C119.171 34.3275 120.21 33.7963 121.466 33.7963C122.019 33.7963 122.524 33.8941 122.982 34.0926C123.44 34.2912 123.785 34.5428 124.021 34.8504C124.257 35.158 124.42 35.5075 124.513 35.8989C124.606 36.2904 124.65 36.8496 124.65 37.5766V43.4344L124.648 43.4316Z" fill="#034EA2"/>
<path d="M132.279 43.4316V30.4214H141.968V32.6219H134.916V35.5075H141.477V37.6996H134.916V41.2394H142.215V43.4316H132.276H132.279Z" fill="#034EA2"/>
<path d="M150.669 43.4316V42.0196C150.324 42.5228 149.872 42.9199 149.31 43.2079C148.748 43.4987 148.156 43.6413 147.532 43.6413C146.909 43.6413 146.324 43.5015 145.822 43.2247C145.316 42.9479 144.951 42.5564 144.726 42.0531C144.502 41.5498 144.386 40.8564 144.386 39.9672V34.0032H146.892V38.3343C146.892 39.6597 146.937 40.4705 147.029 40.7697C147.122 41.0689 147.288 41.3066 147.532 41.4799C147.776 41.6533 148.085 41.7427 148.459 41.7427C148.886 41.7427 149.271 41.6253 149.608 41.3932C149.947 41.1612 150.178 40.8704 150.301 40.5236C150.428 40.1769 150.489 39.3297 150.489 37.982V34.006H152.995V43.4316H150.669Z" fill="#034EA2"/>
<path d="M157.988 43.4316H155.483V34.006H157.809V35.3453C158.207 34.7134 158.564 34.2968 158.881 34.0954C159.199 33.8941 159.561 33.7935 159.966 33.7935C160.536 33.7935 161.086 33.95 161.614 34.2632L160.839 36.4386C160.418 36.1673 160.025 36.0303 159.662 36.0303C159.3 36.0303 159.013 36.1254 158.772 36.3183C158.528 36.5113 158.337 36.858 158.196 37.3613C158.056 37.8646 157.986 38.9187 157.986 40.5208V43.4316H157.988Z" fill="#034EA2"/>
<path d="M162.114 38.5859C162.114 37.7583 162.319 36.9558 162.729 36.1813C163.139 35.4068 163.721 34.814 164.471 34.4058C165.223 33.9976 166.063 33.7935 166.99 33.7935C168.422 33.7935 169.596 34.2576 170.512 35.1831C171.427 36.1086 171.885 37.2802 171.885 38.6922C171.885 40.1042 171.422 41.3009 170.498 42.2376C169.574 43.1743 168.411 43.6441 167.01 43.6441C166.142 43.6441 165.313 43.4483 164.527 43.0597C163.74 42.671 163.139 42.0978 162.732 41.3429C162.322 40.5879 162.117 39.6708 162.117 38.5887L162.114 38.5859ZM164.681 38.7202C164.681 39.6541 164.903 40.3699 165.35 40.8676C165.796 41.3653 166.344 41.6141 166.998 41.6141C167.653 41.6141 168.2 41.3653 168.644 40.8676C169.088 40.3699 169.307 39.6485 169.307 38.7034C169.307 37.7583 169.085 37.0705 168.644 36.5728C168.203 36.0751 167.653 35.8262 166.998 35.8262C166.344 35.8262 165.796 36.0751 165.35 36.5728C164.903 37.0705 164.681 37.7863 164.681 38.7202Z" fill="#034EA2"/>
<path d="M173.775 34.0059H176.109V35.39C176.413 34.9175 176.823 34.5316 177.339 34.2352C177.856 33.9388 178.429 33.7906 179.058 33.7906C180.156 33.7906 181.092 34.2185 181.858 35.0768C182.625 35.9352 183.007 37.1292 183.007 38.6614C183.007 40.1937 182.62 41.4575 181.847 42.3299C181.075 43.2023 180.14 43.6385 179.039 43.6385C178.516 43.6385 178.042 43.535 177.618 43.3281C177.193 43.1212 176.744 42.7661 176.275 42.2628V47.0105H173.77V34.0004L173.775 34.0059ZM176.253 38.558C176.253 39.6177 176.463 40.3978 176.884 40.9039C177.306 41.41 177.82 41.6616 178.426 41.6616C179.033 41.6616 179.494 41.4296 179.878 40.9654C180.266 40.5013 180.457 39.7407 180.457 38.681C180.457 37.694 180.258 36.9586 179.859 36.4805C179.46 36.0024 178.968 35.7619 178.379 35.7619C177.789 35.7619 177.258 35.9968 176.854 36.4665C176.449 36.9362 176.247 37.6325 176.247 38.5552L176.253 38.558Z" fill="#034EA2"/>
<path d="M196.486 40.423L198.937 40.8592C198.598 41.7875 198.084 42.4837 197.396 42.9478C196.705 43.412 195.826 43.6441 194.758 43.6441C194.093 43.6441 193.478 43.535 192.913 43.3197C192.349 43.1044 191.837 42.7801 191.38 42.3467C190.958 42.7074 190.413 43.0149 189.745 43.2666C189.077 43.5182 188.388 43.6441 187.681 43.6441C186.67 43.6441 185.883 43.3812 185.319 42.8584C184.754 42.3355 184.47 41.6728 184.47 40.8759C184.47 40.3978 184.569 39.97 184.768 39.5981C184.968 39.2262 185.209 38.9327 185.49 38.7229C185.771 38.5132 186.167 38.3315 186.672 38.1777C186.911 38.1022 187.616 37.94 188.793 37.6996C189.383 37.5766 189.883 37.4451 190.298 37.3081V37.0593C190.298 36.6035 190.175 36.2624 189.925 36.0387C189.675 35.815 189.279 35.7004 188.74 35.7004C188.265 35.7004 187.886 35.7954 187.608 35.9884C187.327 36.1813 187.13 36.4777 187.009 36.8803L184.737 36.4441C185.035 35.5326 185.501 34.8643 186.142 34.4337C186.779 34.0059 187.754 33.7906 189.06 33.7906C189.678 33.7906 190.228 33.8633 190.714 34.0087C191.197 34.1541 191.613 34.3722 191.958 34.6602C192.32 34.3694 192.716 34.1541 193.149 34.0087C193.579 33.8633 194.042 33.7906 194.534 33.7906C195.486 33.7906 196.289 33.9892 196.946 34.389C197.603 34.7889 198.12 35.376 198.497 36.1561C198.873 36.9334 199.058 38.0323 199.053 39.4527H192.759C192.86 40.258 193.084 40.8396 193.435 41.2003C193.787 41.561 194.216 41.7427 194.727 41.7427C195.149 41.7427 195.508 41.6337 195.806 41.4184C196.104 41.2031 196.328 40.8703 196.483 40.4202L196.486 40.423ZM190.281 38.9243C188.908 39.285 188.164 39.4863 188.043 39.5282C187.644 39.6596 187.366 39.8162 187.209 39.998C187.052 40.1825 186.973 40.3978 186.973 40.6467C186.973 40.9906 187.102 41.2814 187.36 41.5246C187.619 41.7679 187.956 41.8881 188.372 41.8881C188.813 41.8881 189.225 41.7483 189.61 41.4715C189.897 41.2646 190.079 41.0045 190.158 40.6942C190.239 40.3838 190.279 39.7938 190.279 38.9243H190.281ZM196.584 37.8953C196.547 37.3752 196.477 36.9978 196.37 36.7685C196.222 36.4385 195.997 36.1757 195.696 35.9884C195.396 35.7982 195.045 35.7032 194.64 35.7032C194.289 35.7032 193.983 35.7843 193.719 35.9464C193.455 36.1086 193.244 36.3547 193.09 36.679C192.882 37.1096 192.787 37.515 192.804 37.8953H196.584Z" fill="#034EA2"/>
<path d="M201.229 32.7282V30.4214H203.735V32.7282H201.229ZM201.229 43.4316V34.006H203.735V43.4316H201.229Z" fill="#034EA2"/>
<path d="M205.42 40.7417L207.933 40.3615C208.04 40.848 208.256 41.2143 208.585 41.4659C208.911 41.7176 209.369 41.8434 209.958 41.8434C210.607 41.8434 211.093 41.726 211.422 41.4883C211.641 41.3233 211.75 41.1024 211.75 40.8228C211.75 40.6327 211.691 40.4761 211.573 40.3531C211.45 40.2357 211.169 40.1266 210.736 40.0259C208.717 39.5814 207.436 39.1759 206.894 38.8096C206.144 38.3008 205.771 37.5933 205.771 36.6874C205.771 35.871 206.094 35.1859 206.743 34.6295C207.391 34.0731 208.394 33.7963 209.756 33.7963C211.118 33.7963 212.014 34.006 212.643 34.4254C213.272 34.8448 213.708 35.4655 213.944 36.2904L211.582 36.7238C211.481 36.3575 211.29 36.0751 211.006 35.8793C210.725 35.6836 210.321 35.5858 209.798 35.5858C209.138 35.5858 208.666 35.678 208.38 35.8598C208.189 35.9884 208.093 36.159 208.093 36.3659C208.093 36.542 208.178 36.693 208.343 36.8188C208.568 36.9838 209.349 37.2187 210.683 37.5207C212.017 37.8226 212.949 38.1917 213.477 38.6307C214 39.0753 214.261 39.6932 214.261 40.4845C214.261 41.3485 213.899 42.0895 213.174 42.713C212.45 43.3337 211.377 43.6441 209.956 43.6441C208.666 43.6441 207.644 43.384 206.894 42.864C206.141 42.3439 205.65 41.6365 205.42 40.7417Z" fill="#034EA2"/>
<path d="M216.365 43.4316V30.4214H218.87V37.3249L221.802 34.006H224.886L221.65 37.4479L225.119 43.4288H222.417L220.038 39.1955L218.87 40.4118V43.4288H216.365V43.4316Z" fill="#034EA2"/>
<path d="M232.09 40.4314L234.587 40.848C234.267 41.7595 233.758 42.4529 233.067 42.9283C232.374 43.4036 231.509 43.6413 230.469 43.6413C228.824 43.6413 227.605 43.1044 226.816 42.0363C226.192 41.1779 225.88 40.0958 225.88 38.7873C225.88 37.2242 226.29 36.0024 227.11 35.1188C227.931 34.2352 228.967 33.7906 230.222 33.7906C231.629 33.7906 232.742 34.2548 233.556 35.1803C234.371 36.1058 234.758 37.5234 234.724 39.4359H228.45C228.467 40.1769 228.669 40.7501 229.057 41.1611C229.444 41.5722 229.925 41.7791 230.5 41.7791C230.894 41.7791 231.222 41.6728 231.489 41.4603C231.756 41.2478 231.958 40.9039 232.096 40.4314H232.09ZM232.233 37.9121C232.216 37.1907 232.028 36.6427 231.672 36.2652C231.315 35.8905 230.882 35.7004 230.371 35.7004C229.823 35.7004 229.374 35.8989 229.017 36.2959C228.661 36.693 228.487 37.2298 228.492 37.9121H232.236H232.233Z" fill="#034EA2"/>
<path d="M241.833 30.4214H244.47V37.4675C244.47 38.586 244.504 39.3101 244.569 39.6429C244.681 40.1741 244.95 40.6019 245.375 40.9263C245.799 41.2506 246.38 41.41 247.119 41.41C247.857 41.41 248.433 41.259 248.812 40.9542C249.191 40.6495 249.422 40.2748 249.498 39.833C249.573 39.3884 249.613 38.6531 249.613 37.6241V30.427H252.25V37.2606C252.25 38.8236 252.18 39.9253 252.037 40.5712C251.893 41.2171 251.632 41.7595 251.247 42.2041C250.863 42.6487 250.351 43.001 249.711 43.2638C249.071 43.5266 248.231 43.6581 247.197 43.6581C245.95 43.6581 245.004 43.5155 244.358 43.2275C243.712 42.9395 243.204 42.5676 242.83 42.109C242.456 41.6505 242.209 41.1695 242.091 40.6662C241.92 39.9197 241.833 38.8208 241.833 37.3641V30.4242V30.4214Z" fill="#034EA2"/>
<path d="M263.628 43.4316H261.122V38.6223C261.122 37.6045 261.069 36.9475 260.962 36.6483C260.856 36.3491 260.681 36.117 260.44 35.952C260.198 35.7871 259.909 35.7032 259.572 35.7032C259.139 35.7032 258.749 35.8206 258.404 36.0583C258.058 36.296 257.822 36.6091 257.696 37.0006C257.567 37.392 257.505 38.1134 257.505 39.1648V43.4344H255V34.0088H257.325V35.3928C258.151 34.3275 259.19 33.7963 260.445 33.7963C260.999 33.7963 261.504 33.8941 261.962 34.0926C262.42 34.2912 262.765 34.5428 263.001 34.8504C263.237 35.158 263.4 35.5075 263.493 35.8989C263.585 36.2904 263.63 36.8496 263.63 37.5766V43.4344L263.628 43.4316Z" fill="#034EA2"/>
<path d="M266.167 32.7282V30.4214H268.672V32.7282H266.167ZM266.167 43.4316V34.006H268.672V43.4316H266.167Z" fill="#034EA2"/>
<path d="M270.66 38.5859C270.66 37.7583 270.865 36.9558 271.275 36.1813C271.685 35.4068 272.267 34.814 273.017 34.4058C273.769 33.9976 274.609 33.7935 275.536 33.7935C276.968 33.7935 278.142 34.2576 279.058 35.1831C279.974 36.1086 280.431 37.2802 280.431 38.6922C280.431 40.1042 279.968 41.3009 279.044 42.2376C278.12 43.1743 276.957 43.6441 275.556 43.6441C274.688 43.6441 273.859 43.4483 273.073 43.0597C272.286 42.671 271.685 42.0978 271.278 41.3429C270.868 40.5879 270.663 39.6708 270.663 38.5887L270.66 38.5859ZM273.227 38.7202C273.227 39.6541 273.449 40.3699 273.896 40.8676C274.342 41.3653 274.89 41.6141 275.544 41.6141C276.199 41.6141 276.746 41.3653 277.19 40.8676C277.634 40.3699 277.853 39.6485 277.853 38.7034C277.853 37.7583 277.631 37.0705 277.19 36.5728C276.749 36.0751 276.199 35.8262 275.544 35.8262C274.89 35.8262 274.342 36.0751 273.896 36.5728C273.449 37.0705 273.227 37.7863 273.227 38.7202Z" fill="#034EA2"/>
<path d="M291 43.4316H288.495V38.6223C288.495 37.6045 288.441 36.9475 288.335 36.6483C288.228 36.3491 288.054 36.117 287.812 35.952C287.571 35.7871 287.281 35.7032 286.944 35.7032C286.512 35.7032 286.122 35.8206 285.776 36.0583C285.431 36.296 285.195 36.6091 285.068 37.0006C284.939 37.392 284.877 38.1134 284.877 39.1648V43.4344H282.372V34.0088H284.698V35.3928C285.523 34.3275 286.562 33.7963 287.818 33.7963C288.371 33.7963 288.877 33.8941 289.335 34.0926C289.792 34.2912 290.138 34.5428 290.374 34.8504C290.61 35.158 290.773 35.5075 290.865 35.8989C290.958 36.2904 291.003 36.8496 291.003 37.5766V43.4344L291 43.4316Z" fill="#034EA2"/>
</g>
</svg>
