<svg width="303" height="61" viewBox="0 0 303 61" fill="none" xmlns="http://www.w3.org/2000/svg">
<g>
<path d="M83.17 16.6899C84.7 16.6899 85.73 17.6599 86.13 19.1499C87.49 19.2699 88.83 19.4099 90.15 19.5499C89.59 16.1499 87.36 13.3799 83.17 13.3799C79.83 13.3799 77.28 15.4899 76.34 18.4099C77.68 18.4899 79.01 18.5799 80.33 18.6799C80.85 17.4399 81.83 16.6899 83.17 16.6899Z" fill="#9FAEE5"/>
<path d="M75.94 21.0199C75.94 25.4799 79.19 28.5599 83.58 28.5599C86.23 28.5599 88.19 27.5199 89.56 25.8399L87.19 23.7399C86.04 24.7999 85.03 25.2399 83.64 25.2399C81.78 25.2399 80.47 24.2599 80.06 22.3799H90.24C90.27 21.9999 90.29 21.6199 90.29 21.2899C90.29 20.6999 90.24 20.1199 90.15 19.5499C88.83 19.4099 87.49 19.2799 86.13 19.1499C86.18 19.3599 86.23 19.5699 86.26 19.7899H80.01C80.08 19.3799 80.19 19.0099 80.34 18.6699C79.02 18.5699 77.69 18.4899 76.35 18.3999C76.09 19.1999 75.95 20.0599 75.95 20.9499V21.0199H75.94Z" fill="#003399"/>
<path d="M5.04 9.17993H0.839996V22.0599C2.21 21.7999 3.61 21.5499 5.04 21.3199V9.17993Z" fill="#9FAEE5"/>
<path d="M30.73 17.1799H34.17V13.6399H30.73V9.90991H26.58V13.6399H24.84V17.1799H26.59V18.7799C27.96 18.6699 29.34 18.5799 30.74 18.4899V17.1799H30.73Z" fill="#9FAEE5"/>
<path d="M43.76 16.6901C44.78 16.6901 45.57 17.1201 46.11 17.8401C47.49 17.8101 48.88 17.7901 50.27 17.7701C49.31 15.2301 47.19 13.3701 43.76 13.3701C40.52 13.3701 38.03 15.3601 37.02 18.1401C38.44 18.0701 39.86 18.0201 41.3 17.9701C41.85 17.1601 42.69 16.6901 43.76 16.6901Z" fill="#9FAEE5"/>
<path d="M61.36 17.82C61.73 17.74 62.13 17.7 62.56 17.7H62.78V13.37C60.32 13.26 58.96 14.57 58.11 16.58V13.64H53.96V17.75H54.19C56.6 17.75 58.99 17.78 61.36 17.82Z" fill="#9FAEE5"/>
<path d="M73.97 17.7H74.19V13.37C71.73 13.26 70.37 14.57 69.52 16.58V13.64H65.37V17.91C67.53 17.97 69.66 18.05 71.78 18.15C72.4 17.85 73.14 17.7 73.97 17.7Z" fill="#9FAEE5"/>
<path d="M96.33 20.2301V20.1801C96.33 18.2001 97.86 16.8101 99.88 16.8101C101.9 16.8101 103.46 18.2001 103.46 20.1801V20.2301C103.46 20.6101 103.4 20.9701 103.29 21.3101C104.74 21.5501 106.17 21.8001 107.55 22.0601V13.6501H103.4V15.5501C102.28 14.3301 100.94 13.3701 98.68 13.3701C95.43 13.3701 92.39 15.6701 92.2 19.7701C93.6 19.9301 94.98 20.1001 96.33 20.2801V20.2301Z" fill="#9FAEE5"/>
<path d="M14.62 17.2101C14.89 17.0801 15.5 16.9501 15.8 16.9501C16.1 16.9501 16.71 17.0801 16.98 17.2101C18.04 17.7101 18.51 18.4601 18.65 19.5001C19.97 19.3601 21.3 19.2301 22.65 19.1101C22.19 16.9901 20.91 15.2001 18.94 14.2001C18.04 13.7401 16.99 13.3701 15.8 13.3701C14.61 13.3701 13.56 13.7501 12.66 14.2001C10.21 15.4401 8.83001 17.9201 8.76001 20.7301C10.12 20.5301 11.5 20.3401 12.9 20.1601C12.9 18.7601 13.35 17.8101 14.62 17.2101Z" fill="#9FAEE5"/>
<path d="M5.04 28.2301V21.3101C3.61 21.5501 2.2 21.7901 0.839996 22.0501V28.2201H5.04V28.2301Z" fill="#003399"/>
<path d="M30.84 28.47C32.23 28.47 33.24 28.14 34.12 27.63V24.31C33.52 24.64 32.84 24.83 32.07 24.83C31.14 24.83 30.73 24.37 30.73 23.42V18.5C29.33 18.59 27.95 18.69 26.58 18.79V24.1C26.59 27.46 28.31 28.47 30.84 28.47Z" fill="#003399"/>
<path d="M36.52 21.02C36.52 25.48 39.77 28.56 44.16 28.56C46.81 28.56 48.77 27.52 50.14 25.84L47.77 23.74C46.62 24.8 45.61 25.24 44.22 25.24C42.36 25.24 41.05 24.26 40.64 22.38H50.82C50.85 22 50.88 21.62 50.88 21.29C50.88 20.06 50.68 18.86 50.27 17.78C48.88 17.78 47.49 17.82 46.11 17.85C46.49 18.37 46.74 19.03 46.85 19.8H40.6C40.72 19.09 40.96 18.47 41.3 17.98C39.86 18.03 38.44 18.08 37.02 18.15C36.7 19.02 36.53 19.98 36.53 20.97V21.02H36.52Z" fill="#003399"/>
<path d="M58.11 28.23V22.84C58.11 19.9 59.32 18.26 61.36 17.82C58.99 17.78 56.6 17.75 54.19 17.75H53.96V28.22H58.11V28.23Z" fill="#003399"/>
<path d="M69.52 28.2299V22.8399C69.52 20.4099 70.34 18.8699 71.78 18.1599C69.67 18.0599 67.53 17.9799 65.37 17.9199V28.2299H69.52Z" fill="#003399"/>
<path d="M92.18 20.23C92.18 24.56 95.26 27.03 98.68 27.03C100.89 27.03 102.23 26.13 103.46 24.66V25.37C103.46 27.98 102.12 29.34 99.28 29.34C97.34 29.34 95.84 28.85 94.34 28.01L92.92 31.11C94.78 32.09 97.01 32.63 99.39 32.63C102.23 32.63 104.33 32.03 105.69 30.67C106.92 29.44 107.55 27.54 107.55 24.93V22.05C106.17 21.79 104.74 21.54 103.29 21.3C102.84 22.69 101.51 23.6 99.88 23.6C97.88 23.6 96.36 22.26 96.33 20.28C94.97 20.1 93.6 19.93 92.2 19.77C92.19 19.9 92.18 20.03 92.18 20.17V20.23Z" fill="#003399"/>
<path d="M18.7 20.2001V28.2201H22.85V20.9601C22.85 20.3201 22.78 19.7101 22.65 19.1101C21.3 19.2301 19.97 19.3601 18.65 19.5001C18.68 19.7201 18.7 19.9501 18.7 20.2001Z" fill="#003399"/>
<path d="M8.75 21.0099V28.2199H12.9V20.1699C11.49 20.3499 10.11 20.5399 8.76 20.7399C8.76 20.8099 8.75 20.8899 8.75 20.9599V21.0099Z" fill="#003399"/>
<path d="M173.66 0.530029H123.42V34.27H173.66V0.530029Z" fill="#003399"/>
<path d="M173.13 33.74H123.94V1.05H173.13V33.74ZM174.19 0H122.89V34.79H174.18V0H174.19Z" fill="white"/>
<path d="M157.43 11.5501L157.83 10.3101L158.23 11.5501H159.53L158.48 12.3101L158.87 13.5301L157.83 12.7701L156.79 13.5301L157.19 12.3101L156.14 11.5501H157.43Z" fill="#FFCC00"/>
<path d="M148.13 6.19996L148.53 4.95996L148.93 6.19996H150.23L149.17 6.95996L149.57 8.17996L148.53 7.41996L147.49 8.17996L147.89 6.95996L146.83 6.19996H148.13Z" fill="#FFCC00"/>
<path d="M136.09 16.9099L137.39 16.9199L137.78 15.6799L138.18 16.9099H139.48L138.43 17.6699L138.82 18.8899L137.78 18.1299L136.75 18.8899L137.14 17.6699L136.09 16.9099Z" fill="#FFCC00"/>
<path d="M140.27 24.25L139.23 23.5L138.19 24.25L138.59 23.03L137.53 22.28H138.83L139.23 21.04L139.63 22.28H140.92L139.87 23.03L140.27 24.25Z" fill="#FFCC00"/>
<path d="M139.87 12.3201L140.26 13.5401L139.23 12.7901L138.19 13.5401L138.59 12.3201L137.53 11.5701H138.83L139.23 10.3301L139.62 11.5701H140.92L139.87 12.3201Z" fill="#FFCC00"/>
<path d="M142.76 7.6399L143.16 6.3999L143.55 7.6399H144.85L143.8 8.3999L144.19 9.6199L143.16 8.8599L142.12 9.6199L142.51 8.3999L141.46 7.6399H142.76Z" fill="#FFCC00"/>
<path d="M144.2 28.18L143.16 27.42L142.13 28.18L142.52 26.96L141.47 26.2H142.77L143.16 24.97L143.56 26.2H144.86L143.81 26.96L144.2 28.18Z" fill="#FFCC00"/>
<path d="M149.57 29.5999L148.53 28.8499L147.49 29.5999L147.89 28.3799L146.83 27.6199L148.13 27.6299L148.53 26.3899L148.93 27.6199H150.23L149.17 28.3799L149.57 29.5999Z" fill="#FFCC00"/>
<path d="M154.93 28.18L153.89 27.42L152.86 28.18L153.25 26.96L152.2 26.2H153.5L153.89 24.97L154.29 26.2H155.59L154.54 26.96L154.93 28.18Z" fill="#FFCC00"/>
<path d="M154.55 8.3999L154.95 9.6199L153.91 8.8599L152.87 9.6199L153.27 8.3999L152.21 7.6399H153.51L153.91 6.3999L154.31 7.6399H155.61L154.55 8.3999Z" fill="#FFCC00"/>
<path d="M158.87 24.25L157.83 23.5L156.79 24.25L157.19 23.03L156.14 22.28H157.43L157.83 21.04L158.23 22.28H159.53L158.48 23.03L158.87 24.25Z" fill="#FFCC00"/>
<path d="M160.3 18.8699L159.26 18.1199L158.22 18.8699L158.62 17.6499L157.56 16.8999H158.86L159.26 15.6599L159.66 16.8999H160.96L159.9 17.6499L160.3 18.8699Z" fill="#FFCC00"/>
<path d="M2.07 57.84C1.42 57.49 0.92 57.01 0.55 56.4C0.18 55.79 0 55.1 0 54.34C0 53.58 0.18 52.89 0.55 52.28C0.92 51.67 1.42 51.19 2.07 50.84C2.72 50.49 3.44 50.32 4.25 50.32C5.06 50.32 5.78 50.49 6.42 50.84C7.06 51.19 7.57 51.67 7.94 52.28C8.31 52.89 8.5 53.58 8.5 54.34C8.5 55.1 8.31 55.79 7.94 56.4C7.57 57.01 7.06 57.49 6.42 57.84C5.78 58.19 5.05 58.36 4.25 58.36C3.44 58.37 2.71 58.19 2.07 57.84ZM5.49 56.52C5.86 56.31 6.15 56.02 6.36 55.64C6.57 55.26 6.68 54.83 6.68 54.35C6.68 53.87 6.57 53.44 6.36 53.06C6.15 52.68 5.86 52.39 5.49 52.18C5.12 51.97 4.71 51.86 4.25 51.86C3.79 51.86 3.38 51.97 3.01 52.18C2.64 52.39 2.35 52.68 2.14 53.06C1.93 53.44 1.82 53.87 1.82 54.35C1.82 54.83 1.93 55.26 2.14 55.64C2.35 56.02 2.64 56.31 3.01 56.52C3.38 56.73 3.79 56.84 4.25 56.84C4.71 56.84 5.12 56.73 5.49 56.52ZM2.57 49.57C2.42 49.43 2.35 49.24 2.35 49.02C2.35 48.8 2.42 48.62 2.57 48.47C2.72 48.33 2.9 48.25 3.12 48.25C3.34 48.25 3.53 48.32 3.67 48.47C3.81 48.62 3.89 48.8 3.89 49.02C3.89 49.24 3.82 49.42 3.67 49.57C3.53 49.71 3.34 49.79 3.12 49.79C2.9 49.78 2.72 49.71 2.57 49.57ZM4.82 49.57C4.68 49.43 4.6 49.24 4.6 49.02C4.6 48.8 4.67 48.62 4.82 48.47C4.96 48.33 5.15 48.25 5.37 48.25C5.59 48.25 5.78 48.32 5.93 48.47C6.08 48.61 6.15 48.8 6.15 49.02C6.15 49.24 6.08 49.42 5.93 49.57C5.78 49.71 5.6 49.79 5.37 49.79C5.14 49.78 4.96 49.71 4.82 49.57Z" fill="#003399"/>
<path d="M12.36 52.3999C12.71 52.2499 13.12 52.1799 13.57 52.1799V53.7799C13.38 53.7599 13.25 53.7599 13.18 53.7599C12.68 53.7599 12.3 53.8999 12.02 54.1799C11.74 54.4599 11.6 54.8699 11.6 55.4299V58.2499H9.87V52.2799H11.52V53.0699C11.73 52.7699 12.01 52.5499 12.36 52.3999Z" fill="#003399"/>
<path d="M20.61 55.7399H16.09C16.17 56.1099 16.36 56.3999 16.67 56.6199C16.97 56.8299 17.35 56.9399 17.8 56.9399C18.11 56.9399 18.39 56.8899 18.63 56.7999C18.87 56.7099 19.09 56.5599 19.3 56.3599L20.22 57.3599C19.66 57.9999 18.84 58.3199 17.76 58.3199C17.09 58.3199 16.49 58.1899 15.97 57.9299C15.45 57.6699 15.05 57.2999 14.77 56.8399C14.49 56.3699 14.35 55.8499 14.35 55.2499C14.35 54.6499 14.49 54.1399 14.77 53.6699C15.05 53.1999 15.43 52.8299 15.91 52.5699C16.39 52.3099 16.94 52.1799 17.54 52.1799C18.14 52.1799 18.65 52.3099 19.13 52.5599C19.6 52.8099 19.98 53.1699 20.24 53.6399C20.51 54.1099 20.65 54.6499 20.65 55.2799C20.65 55.2899 20.63 55.4499 20.61 55.7399ZM16.56 53.8199C16.29 54.0399 16.13 54.3499 16.07 54.7299H19.01C18.95 54.3499 18.79 54.0499 18.52 53.8299C18.25 53.5999 17.93 53.4899 17.54 53.4899C17.15 53.4899 16.83 53.5999 16.56 53.8199Z" fill="#003399"/>
<path d="M22.49 58.1399C22.02 58.0199 21.64 57.86 21.36 57.68L21.94 56.4399C22.21 56.6099 22.53 56.75 22.91 56.86C23.29 56.97 23.66 57.02 24.02 57.02C24.75 57.02 25.12 56.8399 25.12 56.4799C25.12 56.3099 25.02 56.19 24.82 56.11C24.62 56.04 24.31 55.9699 23.9 55.9199C23.41 55.8499 23.01 55.7599 22.69 55.6699C22.37 55.5699 22.1 55.4 21.86 55.16C21.63 54.92 21.51 54.5699 21.51 54.1199C21.51 53.7399 21.62 53.4099 21.84 53.1199C22.06 52.8299 22.38 52.5999 22.79 52.4399C23.21 52.2799 23.7 52.2 24.27 52.2C24.69 52.2 25.11 52.25 25.53 52.34C25.95 52.43 26.29 52.56 26.57 52.72L25.99 53.95C25.46 53.65 24.89 53.5099 24.27 53.5099C23.9 53.5099 23.62 53.5599 23.44 53.6699C23.26 53.7699 23.16 53.91 23.16 54.07C23.16 54.25 23.26 54.3799 23.46 54.4599C23.66 54.5299 23.98 54.5999 24.41 54.6699C24.9 54.7499 25.3 54.84 25.61 54.93C25.92 55.02 26.19 55.19 26.42 55.43C26.65 55.67 26.76 56.01 26.76 56.45C26.76 56.82 26.65 57.1499 26.43 57.4399C26.21 57.7299 25.88 57.95 25.46 58.11C25.03 58.27 24.53 58.3499 23.95 58.3499C23.45 58.3199 22.97 58.2599 22.49 58.1399Z" fill="#003399"/>
<path d="M33.99 52.27V58.24H32.35V57.53C32.12 57.79 31.85 57.99 31.53 58.12C31.21 58.26 30.87 58.33 30.5 58.33C29.72 58.33 29.09 58.1 28.64 57.65C28.18 57.2 27.95 56.53 27.95 55.64V52.27H29.68V55.39C29.68 56.35 30.08 56.83 30.89 56.83C31.3 56.83 31.64 56.69 31.89 56.43C32.14 56.16 32.27 55.76 32.27 55.23V52.28H33.99V52.27Z" fill="#003399"/>
<path d="M41.16 52.8399C41.61 53.2799 41.84 53.9399 41.84 54.8099V58.2299H40.11V55.0799C40.11 54.6099 40.01 54.2499 39.8 54.0199C39.59 53.7899 39.29 53.6699 38.9 53.6699C38.46 53.6699 38.12 53.8099 37.86 54.0699C37.6 54.3399 37.47 54.7399 37.47 55.2699V58.2199H35.74V52.2499H37.39V52.9499C37.62 52.6999 37.9 52.4999 38.24 52.3699C38.58 52.2299 38.95 52.1599 39.36 52.1599C40.11 52.1799 40.7 52.3999 41.16 52.8399Z" fill="#003399"/>
<path d="M49.63 50V58.23H47.98V57.54C47.55 58.06 46.93 58.32 46.12 58.32C45.56 58.32 45.05 58.19 44.59 57.94C44.14 57.69 43.78 57.33 43.52 56.86C43.26 56.39 43.13 55.85 43.13 55.24C43.13 54.63 43.26 54.09 43.52 53.62C43.78 53.15 44.14 52.8 44.59 52.54C45.04 52.29 45.55 52.16 46.12 52.16C46.88 52.16 47.48 52.4 47.91 52.88V49.99H49.63V50ZM47.5 56.45C47.79 56.15 47.93 55.75 47.93 55.25C47.93 54.75 47.79 54.35 47.5 54.05C47.21 53.75 46.85 53.6 46.41 53.6C45.97 53.6 45.6 53.75 45.31 54.05C45.02 54.35 44.88 54.75 44.88 55.25C44.88 55.75 45.02 56.15 45.31 56.45C45.6 56.75 45.96 56.9 46.41 56.9C46.85 56.9 47.21 56.75 47.5 56.45Z" fill="#003399"/>
<path d="M51.21 54.4199H54.35V55.8099H51.21V54.4199Z" fill="#003399"/>
<path d="M58.75 55.18L57.71 56.27V58.23H55.92V50.47H57.71V54.1L61.15 50.47H63.15L59.93 53.93L63.34 58.23H61.24L58.75 55.18Z" fill="#003399"/>
<path d="M68.69 52.8399C69.19 53.2799 69.43 53.9399 69.43 54.8299V58.2299H67.81V57.4899C67.48 58.0399 66.88 58.3199 65.99 58.3199C65.53 58.3199 65.13 58.2399 64.8 58.0899C64.46 57.9299 64.21 57.7199 64.03 57.4499C63.85 57.1799 63.76 56.8699 63.76 56.5199C63.76 55.9699 63.97 55.5299 64.39 55.2099C64.81 54.8899 65.45 54.7299 66.33 54.7299H67.71C67.71 54.3499 67.6 54.0599 67.37 53.8599C67.14 53.6599 66.8 53.5499 66.34 53.5499C66.02 53.5499 65.71 53.5999 65.4 53.6999C65.09 53.7999 64.83 53.9299 64.62 54.0999L64 52.8899C64.33 52.6599 64.72 52.4799 65.17 52.3599C65.62 52.2299 66.09 52.1699 66.57 52.1699C67.48 52.1799 68.19 52.3999 68.69 52.8399ZM67.21 56.9499C67.44 56.8099 67.6 56.6099 67.7 56.3499V55.7399H66.51C65.8 55.7399 65.44 55.9699 65.44 56.4399C65.44 56.6599 65.53 56.8399 65.7 56.9699C65.87 57.0999 66.11 57.1599 66.42 57.1599C66.73 57.1599 66.98 57.0899 67.21 56.9499Z" fill="#003399"/>
<path d="M74.99 57.9399C74.82 58.0699 74.61 58.1599 74.36 58.2199C74.11 58.2799 73.85 58.3099 73.58 58.3099C72.87 58.3099 72.32 58.1299 71.93 57.7699C71.54 57.4099 71.35 56.8799 71.35 56.1699V53.7199H70.43V52.3899H71.35V50.9399H73.08V52.3899H74.57V53.7199H73.08V56.1499C73.08 56.3999 73.14 56.5999 73.27 56.7299C73.4 56.8699 73.58 56.9399 73.82 56.9399C74.09 56.9399 74.33 56.8699 74.52 56.7199L74.99 57.9399Z" fill="#003399"/>
<path d="M79.96 57.9399C79.79 58.0699 79.58 58.1599 79.33 58.2199C79.08 58.2799 78.82 58.3099 78.55 58.3099C77.84 58.3099 77.29 58.1299 76.9 57.7699C76.51 57.4099 76.32 56.8799 76.32 56.1699V53.7199H75.4V52.3899H76.32V50.9399H78.05V52.3899H79.54V53.7199H78.05V56.1499C78.05 56.3999 78.11 56.5999 78.24 56.7299C78.37 56.8699 78.55 56.9399 78.79 56.9399C79.06 56.9399 79.3 56.8699 79.49 56.7199L79.96 57.9399Z" fill="#003399"/>
<path d="M86.89 55.7399H82.37C82.45 56.1099 82.64 56.3999 82.95 56.6199C83.25 56.8299 83.63 56.9399 84.08 56.9399C84.39 56.9399 84.67 56.8899 84.91 56.7999C85.15 56.7099 85.37 56.5599 85.58 56.3599L86.5 57.3599C85.94 57.9999 85.12 58.3199 84.04 58.3199C83.37 58.3199 82.77 58.1899 82.25 57.9299C81.73 57.6699 81.33 57.2999 81.05 56.8399C80.77 56.3699 80.63 55.8499 80.63 55.2499C80.63 54.6499 80.77 54.1399 81.05 53.6699C81.33 53.1999 81.71 52.8299 82.19 52.5699C82.67 52.3099 83.22 52.1799 83.82 52.1799C84.42 52.1799 84.93 52.3099 85.41 52.5599C85.88 52.8099 86.26 53.1699 86.52 53.6399C86.79 54.1099 86.93 54.6499 86.93 55.2799C86.93 55.2899 86.91 55.4499 86.89 55.7399ZM82.84 53.8199C82.57 54.0399 82.41 54.3499 82.35 54.7299H85.29C85.23 54.3499 85.07 54.0499 84.8 53.8299C84.53 53.6099 84.21 53.4899 83.82 53.4899C83.44 53.4899 83.11 53.5999 82.84 53.8199Z" fill="#003399"/>
<path d="M94.38 52.2699V57.2399C94.38 58.3299 94.1 59.1499 93.53 59.6799C92.96 60.2099 92.13 60.4799 91.03 60.4799C90.45 60.4799 89.91 60.4099 89.39 60.2699C88.87 60.1299 88.44 59.9299 88.1 59.6599L88.79 58.4199C89.04 58.6299 89.36 58.7899 89.74 58.9099C90.12 59.0299 90.51 59.0899 90.89 59.0899C91.49 59.0899 91.93 58.9499 92.22 58.6899C92.5 58.4199 92.65 58.0099 92.65 57.4599V57.2099C92.2 57.7099 91.57 57.9499 90.76 57.9499C90.21 57.9499 89.71 57.8299 89.26 57.5899C88.81 57.3499 88.44 57.0099 88.18 56.5799C87.91 56.1399 87.78 55.6399 87.78 55.0699C87.78 54.4999 87.91 53.9999 88.18 53.5599C88.45 53.1199 88.81 52.7899 89.26 52.5499C89.71 52.3099 90.22 52.1899 90.76 52.1899C91.63 52.1899 92.28 52.4699 92.73 53.0399V52.2699H94.38ZM92.23 56.1199C92.52 55.8499 92.67 55.4999 92.67 55.0599C92.67 54.6199 92.52 54.2699 92.23 53.9999C91.94 53.7299 91.56 53.5999 91.1 53.5999C90.64 53.5999 90.26 53.7399 89.97 53.9999C89.67 54.2699 89.53 54.6199 89.53 55.0599C89.53 55.4999 89.68 55.8499 89.97 56.1199C90.27 56.3899 90.64 56.5199 91.1 56.5199C91.56 56.5199 91.94 56.3899 92.23 56.1199Z" fill="#003399"/>
<path d="M100.67 52.8399C101.17 53.2799 101.41 53.9399 101.41 54.8299V58.2299H99.79V57.4899C99.46 58.0399 98.86 58.3199 97.97 58.3199C97.51 58.3199 97.11 58.2399 96.78 58.0899C96.44 57.9299 96.19 57.7199 96.01 57.4499C95.83 57.1799 95.74 56.8699 95.74 56.5199C95.74 55.9699 95.95 55.5299 96.37 55.2099C96.79 54.8899 97.43 54.7299 98.31 54.7299H99.69C99.69 54.3499 99.58 54.0599 99.35 53.8599C99.12 53.6599 98.78 53.5499 98.32 53.5499C98 53.5499 97.69 53.5999 97.38 53.6999C97.07 53.7999 96.81 53.9299 96.6 54.0999L95.98 52.8899C96.31 52.6599 96.7 52.4799 97.15 52.3599C97.6 52.2299 98.07 52.1699 98.55 52.1699C99.46 52.1799 100.17 52.3999 100.67 52.8399ZM99.19 56.9499C99.42 56.8099 99.58 56.6099 99.68 56.3499V55.7399H98.49C97.78 55.7399 97.42 55.9699 97.42 56.4399C97.42 56.6599 97.51 56.8399 97.68 56.9699C97.85 57.0999 98.09 57.1599 98.4 57.1599C98.71 57.1599 98.96 57.0899 99.19 56.9499Z" fill="#003399"/>
<path d="M106.97 57.9399C106.8 58.0699 106.59 58.1599 106.34 58.2199C106.09 58.2799 105.83 58.3099 105.56 58.3099C104.85 58.3099 104.3 58.1299 103.91 57.7699C103.52 57.4099 103.33 56.8799 103.33 56.1699V53.7199H102.41V52.3899H103.33V50.9399H105.06V52.3899H106.55V53.7199H105.06V56.1499C105.06 56.3999 105.12 56.5999 105.25 56.7299C105.38 56.8699 105.56 56.9399 105.8 56.9399C106.07 56.9399 106.31 56.8699 106.5 56.7199L106.97 57.9399Z" fill="#003399"/>
<path d="M107.87 54.4199H111.01V55.8099H107.87V54.4199Z" fill="#003399"/>
<path d="M113.41 58.1201C112.84 57.9501 112.38 57.7401 112.03 57.4701L112.64 56.1201C112.97 56.3601 113.37 56.5601 113.83 56.7101C114.29 56.8601 114.75 56.9301 115.21 56.9301C115.72 56.9301 116.1 56.8501 116.34 56.7001C116.58 56.5501 116.71 56.3501 116.71 56.1001C116.71 55.9101 116.64 55.7601 116.49 55.6401C116.34 55.5201 116.16 55.4201 115.94 55.3501C115.71 55.2801 115.41 55.1901 115.02 55.1101C114.43 54.9701 113.94 54.8301 113.57 54.6901C113.19 54.5501 112.87 54.3201 112.6 54.0101C112.33 53.7001 112.19 53.2901 112.19 52.7701C112.19 52.3201 112.31 51.9101 112.56 51.5401C112.8 51.1701 113.17 50.8801 113.66 50.6701C114.15 50.4601 114.75 50.3501 115.46 50.3501C115.96 50.3501 116.44 50.4101 116.91 50.5301C117.38 50.6501 117.8 50.8201 118.15 51.0401L117.6 52.4001C116.88 51.9901 116.17 51.7901 115.45 51.7901C114.95 51.7901 114.58 51.8701 114.34 52.0301C114.1 52.1901 113.98 52.4101 113.98 52.6701C113.98 52.9301 114.12 53.1301 114.4 53.2601C114.68 53.3901 115.1 53.5201 115.67 53.6401C116.26 53.7801 116.75 53.9201 117.12 54.0601C117.5 54.2001 117.82 54.4201 118.09 54.7301C118.36 55.0301 118.5 55.4401 118.5 55.9601C118.5 56.4001 118.38 56.8101 118.13 57.1701C117.88 57.5401 117.51 57.8301 117.02 58.0401C116.52 58.2501 115.92 58.3601 115.21 58.3601C114.58 58.3701 113.98 58.2801 113.41 58.1201Z" fill="#003399"/>
<path d="M122.3 55.89L121.47 56.71V58.23H119.74V50H121.47V54.66L124 52.26H126.06L123.57 54.79L126.28 58.23H124.18L122.3 55.89Z" fill="#003399"/>
<path d="M131.74 52.8399C132.24 53.2799 132.48 53.9399 132.48 54.8299V58.2299H130.86V57.4899C130.53 58.0399 129.93 58.3199 129.04 58.3199C128.58 58.3199 128.18 58.2399 127.85 58.0899C127.51 57.9299 127.26 57.7199 127.08 57.4499C126.9 57.1799 126.81 56.8699 126.81 56.5199C126.81 55.9699 127.02 55.5299 127.44 55.2099C127.86 54.8899 128.5 54.7299 129.38 54.7299H130.76C130.76 54.3499 130.65 54.0599 130.42 53.8599C130.19 53.6599 129.85 53.5499 129.39 53.5499C129.07 53.5499 128.76 53.5999 128.45 53.6999C128.14 53.7999 127.88 53.9299 127.67 54.0999L127.05 52.8899C127.38 52.6599 127.77 52.4799 128.22 52.3599C128.67 52.2299 129.14 52.1699 129.62 52.1699C130.54 52.1799 131.25 52.3999 131.74 52.8399ZM130.27 56.9499C130.5 56.8099 130.66 56.6099 130.76 56.3499V55.7399H129.57C128.86 55.7399 128.5 55.9699 128.5 56.4399C128.5 56.6599 128.59 56.8399 128.76 56.9699C128.93 57.0999 129.17 57.1599 129.48 57.1599C129.77 57.1599 130.04 57.0899 130.27 56.9499Z" fill="#003399"/>
<path d="M140.35 52.2699V57.2399C140.35 58.3299 140.07 59.1499 139.5 59.6799C138.93 60.2099 138.1 60.4799 137 60.4799C136.42 60.4799 135.88 60.4099 135.36 60.2699C134.84 60.1299 134.41 59.9299 134.07 59.6599L134.76 58.4199C135.01 58.6299 135.33 58.7899 135.71 58.9099C136.09 59.0299 136.48 59.0899 136.86 59.0899C137.46 59.0899 137.9 58.9499 138.19 58.6899C138.47 58.4199 138.62 58.0099 138.62 57.4599V57.2099C138.17 57.7099 137.54 57.9499 136.73 57.9499C136.18 57.9499 135.68 57.8299 135.23 57.5899C134.78 57.3499 134.41 57.0099 134.15 56.5799C133.88 56.1399 133.75 55.6399 133.75 55.0699C133.75 54.4999 133.88 53.9999 134.15 53.5599C134.42 53.1199 134.78 52.7899 135.23 52.5499C135.68 52.3099 136.19 52.1899 136.73 52.1899C137.6 52.1899 138.25 52.4699 138.7 53.0399V52.2699H140.35ZM138.2 56.1199C138.49 55.8499 138.64 55.4999 138.64 55.0599C138.64 54.6199 138.49 54.2699 138.2 53.9999C137.91 53.7299 137.53 53.5999 137.07 53.5999C136.61 53.5999 136.23 53.7399 135.94 53.9999C135.64 54.2699 135.5 54.6199 135.5 55.0599C135.5 55.4999 135.65 55.8499 135.94 56.1199C136.24 56.3899 136.61 56.5199 137.07 56.5199C137.53 56.5199 137.91 56.3899 138.2 56.1199Z" fill="#003399"/>
<path d="M147.91 55.7399H143.39C143.47 56.1099 143.66 56.3999 143.97 56.6199C144.28 56.8399 144.65 56.9399 145.1 56.9399C145.41 56.9399 145.69 56.8899 145.93 56.7999C146.17 56.7099 146.39 56.5599 146.6 56.3599L147.52 57.3599C146.96 57.9999 146.14 58.3199 145.06 58.3199C144.39 58.3199 143.79 58.1899 143.27 57.9299C142.75 57.6699 142.35 57.2999 142.07 56.8399C141.79 56.3699 141.65 55.8499 141.65 55.2499C141.65 54.6499 141.79 54.1399 142.07 53.6699C142.35 53.1999 142.73 52.8299 143.21 52.5699C143.69 52.3099 144.24 52.1799 144.84 52.1799C145.44 52.1799 145.95 52.3099 146.43 52.5599C146.9 52.8099 147.28 53.1699 147.54 53.6399C147.81 54.1099 147.95 54.6499 147.95 55.2799C147.95 55.2899 147.94 55.4499 147.91 55.7399ZM143.87 53.8199C143.6 54.0399 143.44 54.3499 143.38 54.7299H146.32C146.26 54.3499 146.1 54.0499 145.83 53.8299C145.56 53.6099 145.24 53.4899 144.85 53.4899C144.46 53.4899 144.13 53.5999 143.87 53.8199Z" fill="#003399"/>
<path d="M151.74 52.3999C152.09 52.2499 152.5 52.1799 152.95 52.1799V53.7799C152.76 53.7599 152.63 53.7599 152.56 53.7599C152.06 53.7599 151.68 53.8999 151.4 54.1799C151.12 54.4599 150.98 54.8699 150.98 55.4299V58.2499H149.25V52.2799H150.9V53.0699C151.11 52.7699 151.38 52.5499 151.74 52.3999Z" fill="#003399"/>
<path d="M156.66 52.3999C157.01 52.2499 157.42 52.1799 157.87 52.1799V53.7799C157.68 53.7599 157.55 53.7599 157.48 53.7599C156.98 53.7599 156.6 53.8999 156.32 54.1799C156.04 54.4599 155.9 54.8699 155.9 55.4299V58.2499H154.17V52.2799H155.82V53.0699C156.03 52.7699 156.31 52.5499 156.66 52.3999Z" fill="#003399"/>
<path d="M163.63 52.8399C164.13 53.2799 164.37 53.9399 164.37 54.8299V58.2299H162.75V57.4899C162.42 58.0399 161.82 58.3199 160.93 58.3199C160.47 58.3199 160.07 58.2399 159.74 58.0899C159.4 57.9299 159.15 57.7199 158.97 57.4499C158.79 57.1799 158.7 56.8699 158.7 56.5199C158.7 55.9699 158.91 55.5299 159.33 55.2099C159.75 54.8899 160.39 54.7299 161.27 54.7299H162.65C162.65 54.3499 162.54 54.0599 162.31 53.8599C162.08 53.6599 161.74 53.5499 161.28 53.5499C160.96 53.5499 160.65 53.5999 160.34 53.6999C160.03 53.7999 159.77 53.9299 159.56 54.0999L158.94 52.8899C159.27 52.6599 159.66 52.4799 160.11 52.3599C160.56 52.2299 161.03 52.1699 161.51 52.1699C162.43 52.1799 163.14 52.3999 163.63 52.8399ZM162.16 56.9499C162.39 56.8099 162.55 56.6099 162.65 56.3499V55.7399H161.46C160.75 55.7399 160.39 55.9699 160.39 56.4399C160.39 56.6599 160.48 56.8399 160.65 56.9699C160.82 57.0999 161.06 57.1599 161.37 57.1599C161.68 57.1599 161.93 57.0899 162.16 56.9499Z" fill="#003399"/>
<path d="M168.65 55.89L167.82 56.71V58.23H166.09V50H167.82V54.66L170.35 52.26H172.41L169.92 54.79L172.63 58.23H170.53L168.65 55.89Z" fill="#003399"/>
<path d="M180.21 13.4401V5.36011H182.65L184.12 10.8701L185.57 5.36011H188.02V13.4401H186.5V7.08011L184.9 13.4401H183.33L181.73 7.08011V13.4401H180.21Z" fill="#003399"/>
<path d="M193.02 11.5699L194.56 11.8299C194.36 12.3999 194.05 12.8299 193.62 13.1199C193.19 13.4199 192.66 13.5599 192.01 13.5599C190.99 13.5599 190.24 13.2299 189.75 12.5599C189.36 12.0299 189.17 11.3499 189.17 10.5399C189.17 9.56994 189.42 8.80994 189.93 8.25994C190.44 7.70994 191.08 7.43994 191.85 7.43994C192.72 7.43994 193.41 7.72994 193.91 8.29994C194.41 8.87994 194.65 9.75994 194.63 10.9399H190.75C190.75 11.3999 190.89 11.7599 191.12 12.0099C191.36 12.2699 191.66 12.3899 192.01 12.3899C192.25 12.3899 192.46 12.3199 192.62 12.1899C192.81 12.0799 192.93 11.8699 193.02 11.5699ZM193.1 10.0099C193.1 9.55994 192.97 9.21994 192.75 8.98994C192.53 8.75994 192.26 8.63994 191.94 8.63994C191.6 8.63994 191.32 8.75994 191.1 9.00994C190.88 9.25994 190.77 9.58994 190.77 10.0099H193.1Z" fill="#003399"/>
<path d="M201.27 13.4399H199.83V12.5799C199.59 12.9099 199.31 13.1599 198.98 13.3299C198.65 13.4899 198.33 13.5799 198 13.5799C197.33 13.5799 196.75 13.3099 196.27 12.7699C195.79 12.2299 195.55 11.4699 195.55 10.4999C195.55 9.52988 195.78 8.74988 196.25 8.23988C196.72 7.71988 197.31 7.46988 198.02 7.46988C198.67 7.46988 199.24 7.73988 199.72 8.28988V5.37988H201.27V13.4399ZM197.14 10.3799C197.14 10.9999 197.23 11.4599 197.4 11.7399C197.65 12.1399 198 12.3499 198.45 12.3499C198.81 12.3499 199.11 12.1999 199.36 11.8999C199.61 11.5999 199.73 11.1399 199.73 10.5399C199.73 9.86988 199.61 9.37988 199.37 9.08988C199.13 8.78988 198.82 8.64988 198.44 8.64988C198.06 8.64988 197.76 8.79988 197.52 9.08988C197.26 9.35988 197.14 9.79988 197.14 10.3799Z" fill="#003399"/>
<path d="M202.16 7.57997H203.02V7.13997C203.02 6.64997 203.07 6.27997 203.18 6.03997C203.28 5.79997 203.48 5.59997 203.76 5.44997C204.04 5.29997 204.4 5.21997 204.83 5.21997C205.26 5.21997 205.7 5.28997 206.13 5.41997L205.92 6.49997C205.67 6.43997 205.44 6.40997 205.21 6.40997C204.98 6.40997 204.82 6.45997 204.73 6.56997C204.63 6.66997 204.58 6.87997 204.58 7.16997V7.57997H205.74V8.79997H204.58V13.44H203.03V8.79997H202.17V7.57997H202.16ZM206.51 6.78997V5.35997H208.06V6.78997H206.51ZM206.51 13.44V7.58997H208.06V13.44H206.51Z" fill="#003399"/>
<path d="M215.02 13.44H213.47V10.45C213.47 9.81996 213.44 9.40996 213.37 9.21996C213.3 9.02996 213.2 8.88996 213.05 8.78996C212.9 8.68996 212.72 8.63996 212.51 8.63996C212.24 8.63996 212 8.70996 211.79 8.85996C211.58 9.00996 211.43 9.19996 211.35 9.43996C211.27 9.67996 211.23 10.13 211.23 10.79V13.44H209.68V7.58996H211.12V8.44996C211.63 7.78996 212.27 7.45996 213.05 7.45996C213.39 7.45996 213.7 7.51996 213.99 7.63996C214.27 7.75996 214.49 7.91996 214.63 8.10996C214.78 8.29996 214.88 8.51996 214.93 8.75996C214.99 8.99996 215.02 9.34996 215.02 9.79996V13.44Z" fill="#003399"/>
<path d="M217.75 9.36995L216.34 9.11995C216.5 8.54995 216.77 8.13995 217.16 7.85995C217.55 7.58995 218.12 7.44995 218.88 7.44995C219.57 7.44995 220.09 7.52995 220.42 7.69995C220.76 7.85995 221 8.06995 221.13 8.31995C221.27 8.56995 221.34 9.02995 221.34 9.70995L221.32 11.52C221.32 12.03 221.34 12.41 221.39 12.66C221.44 12.9 221.53 13.17 221.67 13.45H220.14C220.1 13.35 220.05 13.19 219.99 12.99C219.96 12.9 219.95 12.84 219.94 12.81C219.68 13.07 219.39 13.26 219.09 13.39C218.79 13.52 218.47 13.58 218.13 13.58C217.53 13.58 217.05 13.42 216.7 13.09C216.35 12.76 216.18 12.35 216.18 11.85C216.18 11.52 216.26 11.22 216.42 10.97C216.58 10.71 216.8 10.51 217.08 10.37C217.36 10.23 217.78 10.11 218.31 10.01C219.03 9.86995 219.54 9.74995 219.81 9.62995V9.47995C219.81 9.17995 219.74 8.96995 219.59 8.83995C219.44 8.70995 219.17 8.64995 218.76 8.64995C218.48 8.64995 218.27 8.69995 218.11 8.80995C217.97 8.90995 217.85 9.09995 217.75 9.36995ZM219.82 10.62C219.62 10.69 219.31 10.77 218.88 10.86C218.45 10.95 218.17 11.04 218.04 11.13C217.84 11.27 217.74 11.46 217.74 11.68C217.74 11.9 217.82 12.08 217.98 12.24C218.14 12.4 218.35 12.48 218.6 12.48C218.88 12.48 219.15 12.39 219.4 12.2C219.59 12.06 219.71 11.89 219.77 11.69C219.81 11.56 219.83 11.31 219.83 10.93V10.62H219.82Z" fill="#003399"/>
<path d="M228.2 13.44H226.65V10.45C226.65 9.81996 226.62 9.40996 226.55 9.21996C226.48 9.02996 226.38 8.88996 226.23 8.78996C226.08 8.68996 225.9 8.63996 225.69 8.63996C225.42 8.63996 225.18 8.70996 224.97 8.85996C224.76 9.00996 224.61 9.19996 224.53 9.43996C224.45 9.67996 224.41 10.13 224.41 10.79V13.44H222.86V7.58996H224.3V8.44996C224.81 7.78996 225.45 7.45996 226.23 7.45996C226.57 7.45996 226.88 7.51996 227.17 7.63996C227.45 7.75996 227.67 7.91996 227.81 8.10996C227.96 8.29996 228.06 8.51996 228.11 8.75996C228.17 8.99996 228.2 9.34996 228.2 9.79996V13.44Z" fill="#003399"/>
<path d="M229.22 11.77L230.77 11.53C230.84 11.83 230.97 12.06 231.17 12.22C231.37 12.38 231.66 12.45 232.02 12.45C232.42 12.45 232.72 12.38 232.92 12.23C233.06 12.13 233.12 11.99 233.12 11.82C233.12 11.7 233.08 11.61 233.01 11.53C232.93 11.46 232.76 11.39 232.49 11.33C231.24 11.05 230.45 10.8 230.11 10.57C229.65 10.25 229.42 9.80995 229.42 9.24995C229.42 8.73995 229.62 8.31995 230.02 7.96995C230.42 7.61995 231.04 7.44995 231.88 7.44995C232.72 7.44995 233.28 7.57995 233.67 7.83995C234.06 8.09995 234.33 8.48995 234.47 8.99995L233.01 9.26995C232.95 9.03995 232.83 8.86995 232.65 8.74995C232.48 8.62995 232.23 8.56995 231.9 8.56995C231.49 8.56995 231.2 8.62995 231.02 8.73995C230.9 8.81995 230.84 8.92995 230.84 9.04995C230.84 9.15995 230.89 9.24995 230.99 9.32995C231.13 9.42995 231.61 9.57995 232.44 9.76995C233.27 9.95995 233.84 10.19 234.17 10.46C234.49 10.74 234.66 11.12 234.66 11.61C234.66 12.15 234.44 12.61 233.99 12.99C233.54 13.38 232.88 13.57 232 13.57C231.2 13.57 230.57 13.41 230.11 13.08C229.67 12.76 229.37 12.32 229.22 11.77Z" fill="#003399"/>
<path d="M236.05 6.79011V5.36011H237.6V6.79011H236.05ZM236.05 13.4401V7.59011H237.6V13.4401H236.05Z" fill="#003399"/>
<path d="M242.57 11.5699L244.11 11.8299C243.91 12.3999 243.6 12.8299 243.17 13.1199C242.74 13.4199 242.21 13.5599 241.56 13.5599C240.54 13.5599 239.79 13.2299 239.3 12.5599C238.91 12.0299 238.72 11.3499 238.72 10.5399C238.72 9.56994 238.97 8.80994 239.48 8.25994C239.99 7.70994 240.63 7.43994 241.4 7.43994C242.27 7.43994 242.96 7.72994 243.46 8.29994C243.96 8.87994 244.2 9.75994 244.18 10.9399H240.3C240.3 11.3999 240.44 11.7599 240.67 12.0099C240.91 12.2699 241.21 12.3899 241.56 12.3899C241.8 12.3899 242.01 12.3199 242.17 12.1899C242.37 12.0799 242.49 11.8699 242.57 11.5699ZM242.66 10.0099C242.65 9.55994 242.53 9.21994 242.31 8.98994C242.09 8.75994 241.82 8.63994 241.5 8.63994C241.16 8.63994 240.88 8.75994 240.66 9.00994C240.44 9.25994 240.33 9.58994 240.33 10.0099H242.66Z" fill="#003399"/>
<path d="M246.95 13.44H245.4V7.58995H246.84V8.41995C247.09 8.02995 247.31 7.76995 247.5 7.63995C247.7 7.51995 247.92 7.44995 248.17 7.44995C248.52 7.44995 248.86 7.54995 249.19 7.73995L248.71 9.08995C248.45 8.91995 248.21 8.83995 247.98 8.83995C247.75 8.83995 247.58 8.89995 247.43 9.01995C247.28 9.13995 247.16 9.35995 247.07 9.66995C246.98 9.97995 246.94 10.64 246.94 11.63V13.44H246.95Z" fill="#003399"/>
<path d="M253.25 11.5699L254.79 11.8299C254.59 12.3999 254.28 12.8299 253.85 13.1199C253.42 13.4199 252.89 13.5599 252.24 13.5599C251.22 13.5599 250.47 13.2299 249.98 12.5599C249.59 12.0299 249.4 11.3499 249.4 10.5399C249.4 9.56994 249.65 8.80994 250.16 8.25994C250.67 7.70994 251.31 7.43994 252.08 7.43994C252.95 7.43994 253.64 7.72994 254.14 8.29994C254.64 8.87994 254.88 9.75994 254.86 10.9399H250.98C250.99 11.3999 251.12 11.7599 251.35 12.0099C251.59 12.2699 251.89 12.3899 252.24 12.3899C252.48 12.3899 252.69 12.3199 252.85 12.1899C253.04 12.0799 253.16 11.8699 253.25 11.5699ZM253.34 10.0099C253.33 9.55994 253.21 9.21994 252.99 8.98994C252.77 8.75994 252.5 8.63994 252.18 8.63994C251.84 8.63994 251.56 8.75994 251.34 9.00994C251.12 9.25994 251.01 9.58994 251.01 10.0099H253.34Z" fill="#003399"/>
<path d="M258.82 7.58004V8.81004H257.76V11.17C257.76 11.65 257.77 11.93 257.79 12.01C257.81 12.09 257.86 12.15 257.93 12.21C258 12.26 258.09 12.29 258.19 12.29C258.33 12.29 258.54 12.24 258.81 12.14L258.94 13.34C258.58 13.49 258.17 13.57 257.72 13.57C257.44 13.57 257.19 13.52 256.96 13.43C256.74 13.34 256.57 13.22 256.47 13.07C256.37 12.92 256.29 12.72 256.25 12.47C256.22 12.29 256.2 11.93 256.2 11.38V8.83004H255.49V7.60004H256.2V6.44004L257.75 5.54004V7.61004H258.82V7.58004Z" fill="#003399"/>
<path d="M264.19 9.36995L262.78 9.11995C262.94 8.54995 263.21 8.13995 263.6 7.85995C263.99 7.58995 264.56 7.44995 265.32 7.44995C266.01 7.44995 266.53 7.52995 266.86 7.69995C267.2 7.85995 267.44 8.06995 267.57 8.31995C267.71 8.56995 267.78 9.02995 267.78 9.70995L267.76 11.52C267.76 12.03 267.78 12.41 267.83 12.66C267.88 12.9 267.97 13.17 268.11 13.45H266.58C266.54 13.35 266.49 13.19 266.43 12.99C266.4 12.9 266.39 12.84 266.38 12.81C266.12 13.07 265.83 13.26 265.53 13.39C265.23 13.52 264.91 13.58 264.57 13.58C263.97 13.58 263.49 13.42 263.15 13.09C262.8 12.76 262.63 12.35 262.63 11.85C262.63 11.52 262.71 11.22 262.87 10.97C263.03 10.71 263.25 10.51 263.53 10.37C263.81 10.23 264.23 10.11 264.76 10.01C265.48 9.86995 265.99 9.74995 266.26 9.62995V9.47995C266.26 9.17995 266.19 8.96995 266.04 8.83995C265.89 8.70995 265.62 8.64995 265.21 8.64995C264.93 8.64995 264.72 8.69995 264.56 8.80995C264.41 8.90995 264.29 9.09995 264.19 9.36995ZM266.26 10.62C266.06 10.69 265.75 10.77 265.32 10.86C264.89 10.95 264.61 11.04 264.48 11.13C264.28 11.27 264.18 11.46 264.18 11.68C264.18 11.9 264.26 12.08 264.42 12.24C264.58 12.4 264.79 12.48 265.04 12.48C265.32 12.48 265.59 12.39 265.84 12.2C266.03 12.06 266.15 11.89 266.21 11.69C266.25 11.56 266.27 11.31 266.27 10.93V10.62H266.26Z" fill="#003399"/>
<path d="M268.63 7.57997H269.49V7.13997C269.49 6.64997 269.54 6.27997 269.65 6.03997C269.75 5.79997 269.95 5.59997 270.23 5.44997C270.51 5.29997 270.87 5.21997 271.3 5.21997C271.73 5.21997 272.17 5.28997 272.6 5.41997L272.39 6.49997C272.14 6.43997 271.91 6.40997 271.68 6.40997C271.45 6.40997 271.29 6.45997 271.2 6.56997C271.1 6.66997 271.05 6.87997 271.05 7.16997V7.57997H272.21V8.79997H271.05V13.44H269.5V8.79997H268.64V7.57997H268.63Z" fill="#003399"/>
<path d="M180.23 18.8999H183.21C183.88 18.8999 184.4 18.9499 184.75 19.0499C185.22 19.1899 185.63 19.4399 185.97 19.7899C186.31 20.1499 186.57 20.5799 186.74 21.0999C186.92 21.6199 187 22.2499 187 23.0099C187 23.6799 186.92 24.2499 186.75 24.7299C186.55 25.3199 186.26 25.7899 185.88 26.1599C185.6 26.4399 185.21 26.6499 184.73 26.7999C184.37 26.9099 183.89 26.9699 183.29 26.9699H180.22V18.8999H180.23ZM181.86 20.2699V25.6199H183.08C183.54 25.6199 183.86 25.5899 184.07 25.5399C184.33 25.4699 184.55 25.3599 184.73 25.1999C184.9 25.0399 185.05 24.7799 185.16 24.4199C185.27 24.0599 185.33 23.5599 185.33 22.9399C185.33 22.3199 185.27 21.8399 185.16 21.4999C185.05 21.1699 184.9 20.8999 184.7 20.7199C184.5 20.5299 184.25 20.4099 183.94 20.3399C183.71 20.2899 183.27 20.2599 182.6 20.2599H181.86V20.2699Z" fill="#003399"/>
<path d="M191.76 25.12L193.3 25.38C193.1 25.95 192.79 26.38 192.36 26.67C191.93 26.97 191.4 27.11 190.75 27.11C189.73 27.11 188.98 26.78 188.49 26.11C188.1 25.58 187.91 24.9 187.91 24.09C187.91 23.12 188.16 22.36 188.67 21.81C189.18 21.26 189.82 20.99 190.59 20.99C191.46 20.99 192.15 21.28 192.65 21.85C193.15 22.43 193.39 23.31 193.37 24.49H189.49C189.49 24.95 189.63 25.31 189.86 25.56C190.1 25.82 190.4 25.94 190.75 25.94C190.99 25.94 191.2 25.87 191.36 25.74C191.55 25.63 191.68 25.41 191.76 25.12ZM191.85 23.56C191.85 23.11 191.72 22.77 191.5 22.54C191.28 22.31 191.01 22.19 190.69 22.19C190.35 22.19 190.07 22.31 189.85 22.56C189.63 22.81 189.52 23.14 189.52 23.56H191.85Z" fill="#003399"/>
<path d="M199.98 26.98H198.43V23.99C198.43 23.36 198.4 22.95 198.33 22.76C198.26 22.57 198.16 22.43 198.01 22.33C197.86 22.23 197.68 22.18 197.47 22.18C197.2 22.18 196.96 22.25 196.75 22.4C196.54 22.55 196.39 22.74 196.31 22.98C196.23 23.22 196.19 23.67 196.19 24.33V26.98H194.64V21.13H196.08V21.99C196.59 21.33 197.23 21 198.01 21C198.35 21 198.66 21.06 198.95 21.18C199.23 21.3 199.45 21.46 199.59 21.65C199.74 21.84 199.84 22.06 199.89 22.3C199.95 22.54 199.98 22.89 199.98 23.34V26.98Z" fill="#003399"/>
<path d="M204.7 26.9799V18.8999H210.69V20.2699H206.33V22.0599H210.39V23.4199H206.33V25.6199H210.85V26.9799H204.7Z" fill="#003399"/>
<path d="M216.07 26.9801V26.1101C215.86 26.4201 215.58 26.6701 215.23 26.8501C214.88 27.0301 214.52 27.1201 214.13 27.1201C213.74 27.1201 213.38 27.0301 213.07 26.8601C212.76 26.6901 212.53 26.4401 212.39 26.1301C212.25 25.8201 212.18 25.3901 212.18 24.8301V21.1301H213.73V23.8201C213.73 24.6401 213.76 25.1501 213.82 25.3301C213.88 25.5201 213.98 25.6601 214.13 25.7701C214.28 25.8801 214.47 25.9301 214.7 25.9301C214.96 25.9301 215.2 25.8601 215.41 25.7101C215.62 25.5601 215.76 25.3801 215.84 25.1701C215.92 24.9601 215.96 24.4301 215.96 23.5901V21.1201H217.51V26.9701H216.07V26.9801Z" fill="#003399"/>
<path d="M220.6 26.98H219.05V21.13H220.49V21.96C220.74 21.57 220.96 21.31 221.15 21.18C221.35 21.06 221.57 20.99 221.82 20.99C222.17 20.99 222.51 21.09 222.84 21.28L222.36 22.63C222.1 22.46 221.86 22.38 221.63 22.38C221.4 22.38 221.23 22.44 221.08 22.56C220.93 22.68 220.81 22.9 220.72 23.21C220.63 23.52 220.59 24.18 220.59 25.17V26.98H220.6Z" fill="#003399"/>
<path d="M223.15 23.97C223.15 23.46 223.28 22.96 223.53 22.48C223.78 22 224.14 21.63 224.61 21.38C225.07 21.13 225.59 21 226.17 21C227.06 21 227.78 21.29 228.35 21.86C228.92 22.44 229.2 23.16 229.2 24.04C229.2 24.92 228.91 25.66 228.34 26.24C227.77 26.82 227.05 27.11 226.18 27.11C225.64 27.11 225.13 26.99 224.64 26.75C224.15 26.51 223.78 26.15 223.53 25.68C223.27 25.22 223.15 24.65 223.15 23.97ZM224.74 24.06C224.74 24.64 224.88 25.09 225.15 25.39C225.43 25.7 225.77 25.85 226.17 25.85C226.57 25.85 226.91 25.7 227.19 25.39C227.46 25.08 227.6 24.63 227.6 24.04C227.6 23.45 227.46 23.03 227.19 22.72C226.92 22.41 226.58 22.26 226.17 22.26C225.76 22.26 225.43 22.41 225.15 22.72C224.87 23.03 224.74 23.48 224.74 24.06Z" fill="#003399"/>
<path d="M230.36 21.13H231.8V21.99C231.99 21.7 232.24 21.46 232.56 21.27C232.88 21.09 233.23 20.99 233.62 20.99C234.3 20.99 234.88 21.26 235.35 21.79C235.82 22.32 236.06 23.07 236.06 24.02C236.06 24.97 235.82 25.76 235.34 26.3C234.86 26.84 234.28 27.11 233.6 27.11C233.28 27.11 232.98 27.05 232.72 26.92C232.46 26.79 232.18 26.57 231.89 26.26V29.21H230.34V21.13H230.36ZM231.89 23.96C231.89 24.62 232.02 25.1 232.28 25.42C232.54 25.73 232.86 25.89 233.23 25.89C233.6 25.89 233.89 25.75 234.13 25.46C234.37 25.17 234.49 24.7 234.49 24.04C234.49 23.43 234.37 22.97 234.12 22.67C233.87 22.37 233.57 22.22 233.2 22.22C232.83 22.22 232.51 22.37 232.26 22.66C232.02 22.95 231.89 23.38 231.89 23.96Z" fill="#003399"/>
<path d="M244.41 25.12L245.93 25.39C245.72 25.97 245.4 26.4 244.98 26.69C244.55 26.98 244.01 27.12 243.35 27.12C242.94 27.12 242.56 27.05 242.21 26.92C241.86 26.79 241.54 26.58 241.26 26.32C241 26.54 240.66 26.73 240.25 26.89C239.84 27.05 239.41 27.12 238.97 27.12C238.35 27.12 237.86 26.96 237.51 26.63C237.16 26.3 236.99 25.89 236.99 25.4C236.99 25.1 237.05 24.84 237.17 24.61C237.29 24.38 237.44 24.2 237.62 24.07C237.79 23.94 238.04 23.83 238.35 23.73C238.5 23.68 238.93 23.58 239.66 23.43C240.02 23.35 240.33 23.27 240.59 23.19V23.04C240.59 22.76 240.51 22.55 240.36 22.41C240.21 22.27 239.96 22.2 239.63 22.2C239.34 22.2 239.1 22.26 238.93 22.38C238.76 22.5 238.63 22.68 238.56 22.93L237.15 22.66C237.33 22.09 237.62 21.68 238.02 21.41C238.42 21.14 239.02 21.01 239.83 21.01C240.21 21.01 240.55 21.06 240.85 21.15C241.15 21.24 241.41 21.38 241.62 21.56C241.84 21.38 242.09 21.24 242.36 21.15C242.63 21.06 242.91 21.01 243.22 21.01C243.81 21.01 244.31 21.13 244.71 21.38C245.12 21.63 245.44 21.99 245.67 22.48C245.9 22.96 246.02 23.65 246.01 24.53H242.12C242.18 25.03 242.32 25.39 242.54 25.62C242.76 25.84 243.02 25.96 243.34 25.96C243.6 25.96 243.82 25.89 244.01 25.76C244.17 25.6 244.31 25.39 244.41 25.12ZM240.57 24.18C239.72 24.4 239.26 24.53 239.19 24.55C238.94 24.63 238.77 24.73 238.67 24.84C238.57 24.95 238.52 25.09 238.52 25.24C238.52 25.45 238.6 25.64 238.76 25.79C238.92 25.94 239.13 26.02 239.39 26.02C239.65 26.02 239.92 25.93 240.16 25.76C240.34 25.63 240.45 25.47 240.5 25.28C240.54 25.09 240.57 24.72 240.57 24.18ZM244.47 23.54C244.45 23.22 244.4 22.98 244.34 22.84C244.25 22.63 244.11 22.47 243.92 22.35C243.73 22.23 243.52 22.17 243.27 22.17C243.05 22.17 242.86 22.22 242.7 22.32C242.54 22.42 242.41 22.57 242.31 22.77C242.18 23.04 242.12 23.29 242.13 23.53H244.47V23.54Z" fill="#003399"/>
<path d="M247.34 20.3399V18.9099H248.89V20.3399H247.34ZM247.34 26.9799V21.1299H248.89V26.9799H247.34Z" fill="#003399"/>
<path d="M249.93 25.31L251.48 25.07C251.55 25.37 251.68 25.6 251.88 25.76C252.08 25.92 252.37 25.99 252.73 25.99C253.13 25.99 253.43 25.92 253.63 25.77C253.77 25.67 253.83 25.53 253.83 25.36C253.83 25.24 253.79 25.15 253.72 25.07C253.64 25 253.47 24.93 253.2 24.87C251.95 24.59 251.16 24.34 250.82 24.11C250.36 23.79 250.13 23.35 250.13 22.79C250.13 22.28 250.33 21.86 250.73 21.51C251.13 21.16 251.75 20.99 252.59 20.99C253.43 20.99 253.99 21.12 254.38 21.38C254.77 21.64 255.04 22.03 255.18 22.54L253.72 22.81C253.66 22.58 253.54 22.41 253.36 22.29C253.19 22.17 252.94 22.11 252.61 22.11C252.2 22.11 251.91 22.17 251.73 22.28C251.61 22.36 251.55 22.47 251.55 22.59C251.55 22.7 251.6 22.79 251.7 22.87C251.84 22.97 252.32 23.12 253.15 23.31C253.98 23.5 254.55 23.73 254.88 24C255.2 24.28 255.37 24.66 255.37 25.15C255.37 25.69 255.15 26.15 254.7 26.53C254.25 26.92 253.59 27.11 252.71 27.11C251.91 27.11 251.28 26.95 250.82 26.62C250.38 26.31 250.07 25.87 249.93 25.31Z" fill="#003399"/>
<path d="M256.7 26.9799V18.8999H258.25V23.1899L260.06 21.1299H261.97L259.97 23.2699L262.11 26.9899H260.44L258.97 24.3599L258.25 25.1199V26.9899H256.7V26.9799Z" fill="#003399"/>
<path d="M266.42 25.12L267.96 25.38C267.76 25.95 267.45 26.38 267.02 26.67C266.59 26.97 266.06 27.11 265.41 27.11C264.39 27.11 263.64 26.78 263.15 26.11C262.76 25.58 262.57 24.9 262.57 24.09C262.57 23.12 262.82 22.36 263.33 21.81C263.84 21.26 264.48 20.99 265.25 20.99C266.12 20.99 266.81 21.28 267.31 21.85C267.81 22.43 268.05 23.31 268.03 24.49H264.15C264.16 24.95 264.29 25.31 264.52 25.56C264.76 25.82 265.06 25.94 265.41 25.94C265.65 25.94 265.86 25.87 266.02 25.74C266.18 25.61 266.34 25.41 266.42 25.12ZM266.51 23.56C266.5 23.11 266.38 22.77 266.16 22.54C265.94 22.31 265.67 22.19 265.35 22.19C265.01 22.19 264.73 22.31 264.51 22.56C264.29 22.81 264.18 23.14 264.18 23.56H266.51Z" fill="#003399"/>
<path d="M272.45 18.8999H274.08V23.2799C274.08 23.9699 274.1 24.4199 274.14 24.6299C274.21 24.9599 274.38 25.2299 274.64 25.4299C274.9 25.6299 275.26 25.7299 275.72 25.7299C276.18 25.7299 276.53 25.6399 276.77 25.4499C277.01 25.2599 277.15 25.0299 277.19 24.7499C277.24 24.4699 277.26 24.0199 277.26 23.3799V18.9099H278.89V23.1499C278.89 24.1199 278.85 24.8099 278.76 25.2099C278.67 25.6099 278.51 25.9499 278.27 26.2199C278.03 26.4999 277.72 26.7199 277.32 26.8799C276.92 27.0399 276.4 27.1299 275.77 27.1299C275 27.1299 274.41 27.0399 274.01 26.8599C273.61 26.6799 273.3 26.4499 273.06 26.1699C272.83 25.8899 272.68 25.5899 272.6 25.2699C272.49 24.8099 272.44 24.1199 272.44 23.2199V18.8999H272.45Z" fill="#003399"/>
<path d="M285.93 26.98H284.38V23.99C284.38 23.36 284.35 22.95 284.28 22.76C284.21 22.57 284.11 22.43 283.96 22.33C283.81 22.23 283.63 22.18 283.42 22.18C283.15 22.18 282.91 22.25 282.7 22.4C282.49 22.55 282.34 22.74 282.26 22.98C282.18 23.22 282.14 23.67 282.14 24.33V26.98H280.59V21.13H282.03V21.99C282.54 21.33 283.18 21 283.96 21C284.3 21 284.61 21.06 284.9 21.18C285.18 21.3 285.4 21.46 285.54 21.65C285.69 21.84 285.79 22.06 285.84 22.3C285.9 22.54 285.93 22.89 285.93 23.34V26.98Z" fill="#003399"/>
<path d="M287.5 20.3399V18.9099H289.05V20.3399H287.5ZM287.5 26.9799V21.1299H289.05V26.9799H287.5Z" fill="#003399"/>
<path d="M290.28 23.97C290.28 23.46 290.41 22.96 290.66 22.48C290.91 22 291.27 21.63 291.74 21.38C292.2 21.13 292.72 21 293.3 21C294.19 21 294.91 21.29 295.48 21.86C296.05 22.44 296.33 23.16 296.33 24.04C296.33 24.92 296.04 25.66 295.47 26.24C294.9 26.82 294.18 27.11 293.31 27.11C292.77 27.11 292.26 26.99 291.77 26.75C291.28 26.51 290.91 26.15 290.66 25.68C290.4 25.22 290.28 24.65 290.28 23.97ZM291.86 24.06C291.86 24.64 292 25.09 292.27 25.39C292.55 25.7 292.89 25.85 293.29 25.85C293.69 25.85 294.03 25.7 294.31 25.39C294.58 25.08 294.72 24.63 294.72 24.04C294.72 23.45 294.58 23.03 294.31 22.72C294.04 22.41 293.7 22.26 293.29 22.26C292.88 22.26 292.55 22.41 292.27 22.72C292 23.03 291.86 23.48 291.86 24.06Z" fill="#003399"/>
<path d="M302.86 26.98H301.31V23.99C301.31 23.36 301.28 22.95 301.21 22.76C301.14 22.57 301.04 22.43 300.89 22.33C300.74 22.23 300.56 22.18 300.35 22.18C300.08 22.18 299.84 22.25 299.63 22.4C299.42 22.55 299.27 22.74 299.19 22.98C299.11 23.22 299.07 23.67 299.07 24.33V26.98H297.52V21.13H298.96V21.99C299.47 21.33 300.11 21 300.89 21C301.23 21 301.54 21.06 301.83 21.18C302.11 21.3 302.33 21.46 302.47 21.65C302.62 21.84 302.72 22.06 302.77 22.3C302.83 22.54 302.86 22.89 302.86 23.34V26.98Z" fill="#003399"/>
</g>
</svg>
