<?xml version="1.0" encoding="utf-8"?>
<!-- Generator: Adobe Illustrator 24.1.1, SVG Export Plug-In . SVG Version: 6.00 Build 0)  -->
<svg version="1.1" id="Interreg_Europe" xmlns="http://www.w3.org/2000/svg" xmlns:xlink="http://www.w3.org/1999/xlink" x="0px"
	 y="0px" viewBox="0 0 513.7507935 194" style="enable-background:new 0 0 513.7507935 194;" xml:space="preserve">
<style type="text/css">
	.st0{fill:#9FAEE5;}
	.st1{fill:#000099;}
	.st2{fill:#FFFFFF;}
	.st3{fill:#FFCC00;}
</style>
<g>
	<path d="M19.0477848,169.0425873h-7.2150583v-12.9428864h7.2150583v1.3365021h-5.7096481v4.1697845h5.365118v1.3278809h-5.365118
		v4.7631378h5.7096481V169.0425873z"/>
	<path d="M23.0759296,159.3397369v6.2943878c0,0.7909851,0.1799221,1.3809967,0.5397663,1.7705078
		c0.3598423,0.3895111,0.9235344,0.5842743,1.6910744,0.5842743c1.0154095,0,1.7571087-0.2770691,2.2270107-0.8321381
		c0.4689465-0.5546112,0.7034187-1.460434,0.7034187-2.7174988v-5.0995331h1.4699993v9.7028503h-1.2135162l-0.2124596-1.3015594
		h-0.0794334c-0.3005085,0.4780426-0.7187309,0.844101-1.2527542,1.0977173
		c-0.5340233,0.2540894-1.143652,0.3809052-1.8279305,0.3809052c-1.1809769,0-2.0643158-0.2804108-2.6519337-0.8412323
		c-0.5866604-0.5603485-0.8804684-1.4575653-0.8804684-2.6911774v-6.3475037H23.0759296z"/>
	<path d="M37.2495613,159.162674c0.4306641,0,0.8173065,0.0354156,1.1599236,0.1062317l-0.2038498,1.3632965
		c-0.4009933-0.0885315-0.7550964-0.1325531-1.0623016-0.1325531c-0.7847672,0-1.4556465,0.3186951-2.0135956,0.9560852
		c-0.5579491,0.6373749-0.8364449,1.4312286-0.8364449,2.3815613v5.2052917h-1.4700012v-9.7028503h1.2125587l0.168438,1.7973022
		h0.0708199c0.3598442-0.6316376,0.7933807-1.1183014,1.3015633-1.460907
		C36.0839005,159.3339844,36.6418495,159.162674,37.2495613,159.162674z"/>
	<path d="M48.5989952,164.182312c0,1.5819702-0.3981247,2.8165436-1.1953316,3.7051392
		c-0.7962494,0.8881226-1.8977928,1.3321991-3.3017578,1.3321991c-0.8680267,0-1.6384354-0.2038574-2.3112297-0.6110687
		c-0.6727943-0.4072266-1.1915054-0.9914856-1.5580482-1.7528076c-0.3655853-0.761322-0.548378-1.6523132-0.548378-2.6734619
		c0-1.5814972,0.395256-2.8136749,1.1857605-3.6960602c0.7914658-0.8823853,1.889183-1.3235779,3.2941017-1.3235779
		c1.3570709,0,2.4356461,0.4517212,3.2357254,1.3546906C48.1989555,161.4203186,48.5989952,162.6419678,48.5989952,164.182312z
		 M41.2068863,164.182312c0,1.2393494,0.2478714,2.1839447,0.7436142,2.8328094
		c0.4957428,0.649353,1.224041,0.9737854,2.1868172,0.9737854c0.9618149,0,1.6920319-0.322998,2.1906433-0.9689941
		c0.4986153-0.6464844,0.7483978-1.5920258,0.7483978-2.8376007c0-1.2336121-0.2497826-2.1705475-0.7483978-2.8108063
		c-0.4986115-0.6402588-1.2345695-0.9603729-2.208828-0.9603729c-0.9618149,0-1.6882019,0.3158112-2.1772461,0.9469757
		C41.4518852,161.9897461,41.2068863,162.9309845,41.2068863,164.182312z"/>
	<path d="M55.6905975,169.2196503c-0.6316414,0-1.2087288-0.1167603-1.7312698-0.3498077
		c-0.5215797-0.2330322-0.9598999-0.5914459-1.314003-1.0756989H52.539093
		c0.0708199,0.5665588,0.1062317,1.1039429,0.1062317,1.6116486v3.9922485h-1.4700012v-14.0583038h1.1953316l0.2038498,1.3278809
		h0.0708199c0.3770714-0.5311584,0.8173027-0.914444,1.3187904-1.1508331
		c0.5014839-0.2359161,1.0766602-0.3541107,1.7264824-0.3541107c1.2862511,0,2.2796478,0.4397583,2.9792404,1.3192749
		c0.6986313,0.8795166,1.0489044,2.1126404,1.0489044,3.7003632c0,1.5934601-0.3560143,2.8313751-1.0670891,3.7137604
		S56.9529228,169.2196503,55.6905975,169.2196503z M55.478138,160.4111328c-0.9914856,0-1.709259,0.2741852-2.1514091,0.8230438
		c-0.4431038,0.5488586-0.6699219,1.4226227-0.6814041,2.6208344v0.327301c0,1.3632813,0.2268143,2.338501,0.6814041,2.9261169
		c0.4545898,0.5871429,1.1828918,0.8804779,2.1868172,0.8804779c0.8374023,0,1.493927-0.3392792,1.9695702-1.017807
		c0.4746895-0.6785431,0.7129898-1.6140289,0.7129898-2.8065033c0-1.2096863-0.2383003-2.1380005-0.7129898-2.7839966
		C57.007473,160.7341309,56.3394661,160.4111328,55.478138,160.4111328z"/>
	<path d="M66.3844681,169.2196503c-1.4345932,0-2.5658035-0.4368896-3.3955498-1.3101807
		c-0.8287888-0.873291-1.2431831-2.0863342-1.2431831-3.6386414c0-1.5637817,0.3847275-2.806488,1.1551361-3.7271576
		c0.7704086-0.9206543,1.8040009-1.3809967,3.1026917-1.3809967c1.2163925,0,2.1782074,0.4000397,2.8864136,1.199646
		c0.7081985,0.7995911,1.0623016,1.8547211,1.0623016,3.1649017v0.9297485h-6.6839066
		c0.0296669,1.1388702,0.3167763,2.0035553,0.8632431,2.5935669c0.5455093,0.5904846,1.314003,0.8852539,2.3064423,0.8852539
		c1.0441208,0,2.0767593-0.2182159,3.0979156-0.6550903v1.3101654c-0.5196686,0.2244263-1.0106277,0.3852081-1.4738312,0.4828339
		C67.598938,169.1708374,67.0400314,169.2196503,66.3844681,169.2196503z M65.9863434,160.3934174
		c-0.7790298,0-1.4001389,0.2536163-1.8633423,0.761322c-0.4641609,0.5077057-0.7369156,1.2096863-0.8192215,2.1069031h5.0722656
		c0-0.9264069-0.2067184-1.6360474-0.619194-2.1289063C67.3434067,160.6398621,66.7529221,160.3934174,65.9863434,160.3934174z"/>
	<path d="M78.4248734,169.0425873l-0.291893-1.3809814h-0.0708237c-0.4842529,0.6077118-0.9665985,1.0197144-1.4479828,1.2350464
		c-0.4813919,0.215332-1.0814438,0.322998-1.8011322,0.322998c-0.9627762,0-1.7159576-0.247879-2.2624207-0.7436218
		c-0.5455093-0.4957428-0.8182678-1.2010803-0.8182678-2.1159973c0-1.9590454,1.5666656-2.9864197,4.700943-3.0806885
		l1.6460876-0.0531006v-0.6019745c0-0.761322-0.1636505-1.3235779-0.4909515-1.6862946
		c-0.3282623-0.3631897-0.8517609-0.5445557-1.5714493-0.5445557c-0.8086929,0-1.7236099,0.247879-2.7447662,0.7436218
		l-0.4517136-1.1245117c0.4785156-0.2593536,1.0020065-0.4632111,1.5714417-0.6105957
		c0.5694351-0.1478577,1.1407852-0.2215424,1.713089-0.2215424c1.1570511,0,2.0145493,0.256958,2.5715408,0.770401
		c0.5579453,0.5134583,0.8374023,1.3365021,0.8374023,2.4696198v6.6221771H78.4248734z M75.1049347,168.0066071
		c0.9149246,0,1.6336517-0.2507477,2.1552353-0.7522278c0.5225372-0.5014801,0.7838058-1.203949,0.7838058-2.1069031v-0.8766479
		l-1.4690399,0.0622101c-1.1694946,0.041153-2.0116806,0.2225189-2.5275192,0.5440826
		c-0.5167999,0.3220367-0.7751999,0.8220825-0.7751999,1.5006104c0,0.5311584,0.1607819,0.9355011,0.4823456,1.2130432
		S74.5259323,168.0066071,75.1049347,168.0066071z"/>
	<path d="M89.1809464,169.0425873v-6.2766876c0-0.7909851-0.1799164-1.3809967-0.5397644-1.7705078
		c-0.3608017-0.3895111-0.9244919-0.584259-1.6910706-0.584259c-1.0154114,0-1.7590256,0.2741852-2.2308426,0.8230438
		c-0.4727707,0.5488586-0.7081985,1.4551697-0.7081985,2.7179718v5.0904388H82.541069v-9.7028503h1.1953278l0.2392578,1.3278809
		h0.0708237c0.3005066-0.4780426,0.7225571-0.8484192,1.2651901-1.1111145
		c0.5435944-0.2622375,1.1484375-0.3938293,1.8154907-0.3938293c1.1685333,0,2.0480499,0.2818451,2.6375809,0.8455505
		c0.5904846,0.5636902,0.8852539,1.46521,0.8852539,2.7045593v6.3298035H89.1809464z"/>
	<path d="M108.3742142,156.0997009v8.3749847c0,1.4752655-0.4459763,2.6351776-1.3369751,3.4788055
		c-0.8909988,0.844101-2.1159973,1.2661591-3.6740417,1.2661591c-1.5580521,0-2.7639084-0.4249268-3.6166229-1.2747803
		c-0.8527145-0.8498383-1.278595-2.0183716-1.278595-3.5056v-8.3395691h1.5044556v8.4458008
		c0,1.0800171,0.2947617,1.9092712,0.8852539,2.4873199c0.5904846,0.578537,1.4575577,0.8675537,2.6031265,0.8675537
		c1.0919724,0,1.9322433-0.2904663,2.522728-0.8718567c0.5904922-0.5813904,0.8852539-1.4149628,0.8852539-2.5007172v-8.4281006
		H108.3742142z"/>
	<path d="M118.2182312,169.0425873v-6.2766876c0-0.7909851-0.1799164-1.3809967-0.5397644-1.7705078
		c-0.3608017-0.3895111-0.9244919-0.584259-1.6910706-0.584259c-1.0154114,0-1.7590256,0.2741852-2.2308426,0.8230438
		c-0.4727707,0.5488586-0.7081985,1.4551697-0.7081985,2.7179718v5.0904388h-1.4700012v-9.7028503h1.1953278l0.2392578,1.3278809
		h0.0708237c0.3005066-0.4780426,0.7225571-0.8484192,1.2651978-1.1111145
		c0.5435867-0.2622375,1.1484375-0.3938293,1.8154831-0.3938293c1.1685333,0,2.0480499,0.2818451,2.6375809,0.8455505
		c0.5904846,0.5636902,0.8852539,1.46521,0.8852539,2.7045593v6.3298035H118.2182312z"/>
	<path d="M122.583252,156.7102814c0-0.3363953,0.0823059-0.5823517,0.2478714-0.7388153
		c0.1646118-0.1564789,0.3713303-0.2349548,0.6192017-0.2349548c0.2363892,0,0.4392776,0.0799103,0.6105881,0.2392578
		c0.1713028,0.1593475,0.2574387,0.4043427,0.2574387,0.7345123c0,0.330658-0.0861359,0.5771027-0.2574387,0.7393188
		c-0.1713104,0.1626892-0.3741989,0.2435608-0.6105881,0.2435608c-0.2478714,0-0.4545898-0.0808716-0.6192017-0.2435608
		C122.6655579,157.287384,122.583252,157.0409393,122.583252,156.7102814z M124.176712,169.0425873h-1.4700012v-9.7028503h1.4700012
		V169.0425873z"/>
	<path d="M135.6677856,164.182312c0,1.5819702-0.3981323,2.8165436-1.1953278,3.7051392
		c-0.7962494,0.8881226-1.8977966,1.3321991-3.3017578,1.3321991c-0.8680267,0-1.638443-0.2038574-2.3112335-0.6110687
		c-0.6727905-0.4072266-1.1915054-0.9914856-1.5580521-1.7528076c-0.3655853-0.761322-0.548378-1.6523132-0.548378-2.6734619
		c0-1.5814972,0.395256-2.8136749,1.1857681-3.6960602c0.7914658-0.8823853,1.889183-1.3235779,3.2940903-1.3235779
		c1.3570709,0,2.4356537,0.4517212,3.235733,1.3546906C135.267746,161.4203186,135.6677856,162.6419678,135.6677856,164.182312z
		 M128.2756805,164.182312c0,1.2393494,0.2478638,2.1839447,0.7436066,2.8328094
		c0.4957428,0.649353,1.2240448,0.9737854,2.1868134,0.9737854c0.9618225,0,1.6920319-0.322998,2.1906433-0.9689941
		c0.4986267-0.6464844,0.7483978-1.5920258,0.7483978-2.8376007c0-1.2336121-0.2497711-2.1705475-0.7483978-2.8108063
		c-0.4986115-0.6402588-1.2345581-0.9603729-2.2088165-0.9603729c-0.9618225,0-1.6882019,0.3158112-2.1772461,0.9469757
		C128.5206757,161.9897461,128.2756805,162.9309845,128.2756805,164.182312z"/>
	<path d="M144.8840027,169.0425873v-6.2766876c0-0.7909851-0.1799316-1.3809967-0.5397797-1.7705078
		c-0.3607941-0.3895111-0.9244843-0.584259-1.6910706-0.584259c-1.0154114,0-1.7590179,0.2741852-2.230835,0.8230438
		c-0.4727783,0.5488586-0.7082062,1.4551697-0.7082062,2.7179718v5.0904388h-1.4700012v-9.7028503h1.1953278l0.2392578,1.3278809
		h0.0708313c0.3005066-0.4780426,0.7225494-0.8484192,1.2651978-1.1111145
		c0.5435944-0.2622375,1.1484375-0.3938293,1.8154755-0.3938293c1.1685486,0,2.0480499,0.2818451,2.6375885,0.8455505
		c0.5904846,0.5636902,0.8852539,1.46521,0.8852539,2.7045593v6.3298035H144.8840027z"/>
	<path d="M156.8976135,155.2675629h1.2479706v18.1658936h-1.2479706V155.2675629z"/>
	<path d="M176.2133636,169.0425873h-7.2150574v-12.9428864h7.2150574v1.3365021h-5.7096405v4.1697845h5.3651123v1.3278809
		h-5.3651123v4.7631378h5.7096405V169.0425873z"/>
	<path d="M180.2415161,159.3397369v6.2943878c0,0.7909851,0.1799164,1.3809967,0.5397644,1.7705078
		s0.9235382,0.5842743,1.6910706,0.5842743c1.0154114,0,1.7571106-0.2770691,2.2270203-0.8321381
		c0.4689484-0.5546112,0.7034149-1.460434,0.7034149-2.7174988v-5.0995331h1.4700012v9.7028503h-1.2135162l-0.2124634-1.3015594
		h-0.0794373c-0.3005066,0.4780426-0.7187195,0.844101-1.2527466,1.0977173
		c-0.5340271,0.2540894-1.1436615,0.3809052-1.8279266,0.3809052c-1.1809845,0-2.0643158-0.2804108-2.651947-0.8412323
		c-0.5866547-0.5603485-0.8804626-1.4575653-0.8804626-2.6911774v-6.3475037H180.2415161z"/>
	<path d="M194.4151459,159.162674c0.4306641,0,0.8173065,0.0354156,1.1599274,0.1062317l-0.2038574,1.3632965
		c-0.4009857-0.0885315-0.7550964-0.1325531-1.0623016-0.1325531c-0.7847595,0-1.4556427,0.3186951-2.0135956,0.9560852
		c-0.5579376,0.6373749-0.836441,1.4312286-0.836441,2.3815613v5.2052917h-1.4700012v-9.7028503h1.2125549l0.1684418,1.7973022
		h0.070816c0.359848-0.6316376,0.7933807-1.1183014,1.3015747-1.460907
		C193.2494812,159.3339844,193.8074341,159.162674,194.4151459,159.162674z"/>
	<path d="M205.7655334,164.182312c0,1.5819702-0.3981171,2.8165436-1.1953278,3.7051392
		c-0.7962494,0.8881226-1.8977966,1.3321991-3.3017578,1.3321991c-0.8680267,0-1.638443-0.2038574-2.3112335-0.6110687
		c-0.6727905-0.4072266-1.1914978-0.9914856-1.5580444-1.7528076c-0.3655853-0.761322-0.5483704-1.6523132-0.5483704-2.6734619
		c0-1.5814972,0.3952484-2.8136749,1.1857605-3.6960602c0.7914581-0.8823853,1.8891754-1.3235779,3.2940979-1.3235779
		c1.3570709,0,2.4356384,0.4517212,3.2357178,1.3546906C205.3654938,161.4203186,205.7655334,162.6419678,205.7655334,164.182312z
		 M198.3734283,164.182312c0,1.2393494,0.247879,2.1839447,0.7436218,2.8328094
		c0.4957275,0.649353,1.2240295,0.9737854,2.1868134,0.9737854c0.9618073,0,1.6920319-0.322998,2.1906433-0.9689941
		c0.4986115-0.6464844,0.7483978-1.5920258,0.7483978-2.8376007c0-1.2336121-0.2497864-2.1705475-0.7483978-2.8108063
		s-1.2345734-0.9603729-2.2088318-0.9603729c-0.9618225,0-1.6882019,0.3158112-2.1772461,0.9469757
		C198.6184235,161.9897461,198.3734283,162.9309845,198.3734283,164.182312z"/>
	<path d="M212.8561859,169.2196503c-0.6316376,0-1.2087402-0.1167603-1.7312775-0.3498077
		c-0.5215759-0.2330322-0.9598999-0.5914459-1.3139954-1.0756989h-0.1062317
		c0.070816,0.5665588,0.1062317,1.1039429,0.1062317,1.6116486v3.9922485h-1.4700012v-14.0583038h1.1953278l0.2038574,1.3278809
		h0.070816c0.3770599-0.5311584,0.8173065-0.914444,1.3187866-1.1508331
		c0.5014801-0.2359161,1.0766602-0.3541107,1.7264862-0.3541107c1.2862549,0,2.2796478,0.4397583,2.9792328,1.3192749
		c0.6986389,0.8795166,1.0489044,2.1126404,1.0489044,3.7003632c0,1.5934601-0.3560181,2.8313751-1.0670776,3.7137604
		C215.1061707,168.7784576,214.118515,169.2196503,212.8561859,169.2196503z M212.6437225,160.4111328
		c-0.9914856,0-1.709259,0.2741852-2.151413,0.8230438c-0.4431,0.5488586-0.6699219,1.4226227-0.6813965,2.6208344v0.327301
		c0,1.3632813,0.2268066,2.338501,0.6813965,2.9261169c0.4545898,0.5871429,1.1828918,0.8804779,2.1868286,0.8804779
		c0.8374023,0,1.493927-0.3392792,1.9695587-1.017807c0.4747009-0.6785431,0.7129974-1.6140289,0.7129974-2.8065033
		c0-1.2096863-0.2382965-2.1380005-0.7129974-2.7839966C214.1730652,160.7341309,213.5050507,160.4111328,212.6437225,160.4111328z"
		/>
	<path d="M223.5510101,169.2196503c-1.4345856,0-2.5657959-0.4368896-3.3955536-1.3101807
		c-0.8287811-0.873291-1.2431793-2.0863342-1.2431793-3.6386414c0-1.5637817,0.3847198-2.806488,1.1551361-3.7271576
		c0.7704163-0.9206543,1.8040009-1.3809967,3.1026917-1.3809967c1.2163849,0,2.1782074,0.4000397,2.8864136,1.199646
		c0.7082062,0.7995911,1.0623016,1.8547211,1.0623016,3.1649017v0.9297485h-6.6838989
		c0.0296631,1.1388702,0.3167725,2.0035553,0.8632355,2.5935669c0.5455017,0.5904846,1.3140106,0.8852539,2.3064423,0.8852539
		c1.0441284,0,2.076767-0.2182159,3.0979156-0.6550903v1.3101654c-0.5196686,0.2244263-1.0106354,0.3852081-1.4738312,0.4828339
		C224.7654877,169.1708374,224.2065735,169.2196503,223.5510101,169.2196503z M223.1528778,160.3934174
		c-0.7790222,0-1.4001312,0.2536163-1.8633423,0.761322c-0.4641571,0.5077057-0.736908,1.2096863-0.8192139,2.1069031h5.0722656
		c0-0.9264069-0.2067108-1.6360474-0.6192017-2.1289063C224.5099487,160.6398621,223.9194641,160.3934174,223.1528778,160.3934174z"
		/>
	<path d="M235.5904541,169.0425873l-0.2918854-1.3809814h-0.070816c-0.4842682,0.6077118-0.9666138,1.0197144-1.447998,1.2350464
		s-1.0814362,0.322998-1.8011322,0.322998c-0.9627686,0-1.7159576-0.247879-2.2624207-0.7436218
		c-0.5455017-0.4957428-0.8182678-1.2010803-0.8182678-2.1159973c0-1.9590454,1.5666656-2.9864197,4.700943-3.0806885
		l1.6461029-0.0531006v-0.6019745c0-0.761322-0.1636658-1.3235779-0.4909668-1.6862946
		c-0.3282623-0.3631897-0.8517609-0.5445557-1.5714417-0.5445557c-0.8086853,0-1.7236176,0.247879-2.7447662,0.7436218
		l-0.4517212-1.1245117c0.4785156-0.2593536,1.0020142-0.4632111,1.5714417-0.6105957
		c0.5694427-0.1478577,1.1407928-0.2215424,1.713089-0.2215424c1.1570587,0,2.0145569,0.256958,2.5715485,0.770401
		c0.5579529,0.5134583,0.8374023,1.3365021,0.8374023,2.4696198v6.6221771H235.5904541z M232.2705231,168.0066071
		c0.914917,0,1.6336517-0.2507477,2.1552277-0.7522278c0.5225372-0.5014801,0.7838135-1.203949,0.7838135-2.1069031v-0.8766479
		l-1.4690399,0.0622101c-1.1694946,0.041153-2.0116882,0.2225189-2.5275269,0.5440826
		c-0.5167999,0.3220367-0.7751923,0.8220825-0.7751923,1.5006104c0,0.5311584,0.1607819,0.9355011,0.4823456,1.2130432
		S231.6915131,168.0066071,232.2705231,168.0066071z"/>
	<path d="M246.3465424,169.0425873v-6.2766876c0-0.7909851-0.1799316-1.3809967-0.5397797-1.7705078
		c-0.3607941-0.3895111-0.9244843-0.584259-1.6910706-0.584259c-1.0154114,0-1.7590179,0.2741852-2.230835,0.8230438
		c-0.4727783,0.5488586-0.7082062,1.4551697-0.7082062,2.7179718v5.0904388h-1.4700012v-9.7028503h1.1953278l0.2392578,1.3278809
		h0.0708313c0.3005066-0.4780426,0.7225494-0.8484192,1.2651978-1.1111145
		c0.5435944-0.2622375,1.1484375-0.3938293,1.8154755-0.3938293c1.1685486,0,2.0480499,0.2818451,2.6375885,0.8455505
		c0.5904846,0.5636902,0.8852539,1.46521,0.8852539,2.7045593v6.3298035H246.3465424z"/>
	<path d="M257.2710571,163.6602478v5.3823395h-1.5054169v-12.9428864h3.5505829
		c1.5877075,0,2.7600708,0.3038635,3.5190125,0.9115753c0.7579651,0.6081848,1.1369324,1.5231171,1.1369324,2.7447662
		c0,1.7116547-0.8670654,2.8682251-2.6021423,3.4701996l3.5141907,5.8163452h-1.7791138l-3.1342773-5.3823395H257.2710571z
		 M257.2710571,162.3672943h2.0623779c1.0623169,0,1.8413391-0.2105408,2.3370972-0.6325989
		c0.4957275-0.4220428,0.7435913-1.0551147,0.7435913-1.8992157c0-0.8555908-0.2516785-1.4723969-0.7569885-1.8504333
		c-0.504364-0.3775482-1.3140259-0.5665588-2.4299011-0.5665588h-1.9561768V162.3672943z"/>
	<path d="M270.8513184,169.2196503c-1.4346008,0-2.5657959-0.4368896-3.3955383-1.3101807
		c-0.8287964-0.873291-1.2431946-2.0863342-1.2431946-3.6386414c0-1.5637817,0.3847351-2.806488,1.1551514-3.7271576
		c0.7703857-0.9206543,1.8039856-1.3809967,3.1026917-1.3809967c1.2163696,0,2.1781921,0.4000397,2.8864136,1.199646
		c0.7081909,0.7995911,1.0622864,1.8547211,1.0622864,3.1649017v0.9297485h-6.6838989
		c0.0296631,1.1388702,0.3167725,2.0035553,0.8632507,2.5935669c0.5455017,0.5904846,1.3139954,0.8852539,2.306427,0.8852539
		c1.0441284,0,2.0767517-0.2182159,3.0979309-0.6550903v1.3101654c-0.5196838,0.2244263-1.0106506,0.3852081-1.4738464,0.4828339
		C272.0657959,169.1708374,271.506897,169.2196503,270.8513184,169.2196503z M270.453186,160.3934174
		c-0.7790222,0-1.400116,0.2536163-1.8633423,0.761322c-0.4641418,0.5077057-0.736908,1.2096863-0.8192139,2.1069031h5.0722656
		c0-0.9264069-0.2067261-1.6360474-0.6192017-2.1289063C271.8102722,160.6398621,271.2197876,160.3934174,270.453186,160.3934174z"
		/>
	<path d="M284.8660889,159.3397369v0.9297485l-1.7973022,0.2124634c0.1646118,0.2067108,0.3129578,0.476593,0.4421387,0.8101196
		c0.1301575,0.3335266,0.1952515,0.7096405,0.1952515,1.1283417c0,0.9503326-0.3244324,1.708786-0.9742737,2.2753448
		c-0.6488647,0.5665588-1.539856,0.8498383-2.6729736,0.8498383c-0.289978,0-0.5608215-0.0234375-0.8144531-0.070816
		c-0.625885,0.330658-0.9388428,0.7469635-0.9388428,1.2484436c0,0.2655792,0.1091003,0.4617767,0.327301,0.5885773
		c0.2182007,0.1268158,0.5933533,0.1904449,1.1245117,0.1904449h1.717865c1.0498657,0,1.857605,0.2210846,2.4212952,0.6637115
		s0.8450623,1.0862274,0.8450623,1.9303284c0,1.0737915-0.4306641,1.8930054-1.2919922,2.4566956
		c-0.8622742,0.5632172-2.118866,0.8450623-3.7716675,0.8450623c-1.2690125,0-2.2471008-0.2359009-2.9352112-0.7082062
		c-0.6871338-0.47229-1.0307007-1.1388702-1.0307007-2.0006714c0-0.5900116,0.1885071-1.1005859,0.5665588-1.53125
		c0.3770447-0.4311371,0.9082031-0.7230377,1.5934448-0.8766327c-0.2478638-0.1119843-0.4565125-0.2861633-0.6239929-0.5225525
		c-0.1684265-0.2359009-0.252655-0.5100861-0.252655-0.8230438c0-0.3540955,0.0947571-0.6641693,0.2832947-0.9297485
		s0.4871216-0.5220642,0.8938599-0.769928c-0.5014954-0.2067261-0.9101257-0.5579529-1.2259521-1.0536957
		s-0.4737244-1.0623016-0.4737244-1.6996918c0-1.0623016,0.3186951-1.8815155,0.9560547-2.4566956
		c0.6373901-0.5756531,1.5408325-0.8632507,2.7093811-0.8632507c0.5072021,0,0.9646606,0.0593414,1.3723755,0.177063H284.8660889z
		 M277.128479,170.671463c0,0.5254059,0.2210693,0.9235382,0.6641846,1.1953278
		c0.4421387,0.2713165,1.0766602,0.4072113,1.9025879,0.4072113c1.2336121,0,2.147583-0.1847076,2.7399902-0.5536346
		c0.5933533-0.368454,0.8900146-0.868988,0.8900146-1.5001526c0-0.5254059-0.1626892-0.8900299-0.4871216-1.093399
		c-0.3244324-0.2038574-0.9350281-0.3057709-1.8317566-0.3057709h-1.7619019c-0.6670532,0-1.1867065,0.1593475-1.5580444,0.4785156
		C277.3141479,169.6182404,277.128479,170.0752258,277.128479,170.671463z M277.9247437,162.4472046
		c0,0.6785431,0.1923523,1.1919861,0.5761414,1.5403442c0.3828125,0.3483582,0.9177856,0.5225372,1.6020508,0.5225372
		c1.4346008,0,2.1513977-0.6967163,2.1513977-2.0896759c0-1.45755-0.7263794-2.1863403-2.1781921-2.1863403
		c-0.6900024,0-1.2211609,0.1856689-1.5934448,0.5574799C278.1113586,161.1633606,277.9247437,161.7155609,277.9247437,162.4472046z
		"/>
	<path d="M286.7342224,156.7102814c0-0.3363953,0.0823059-0.5823517,0.2478638-0.7388153
		c0.1646118-0.1564789,0.3713379-0.2349548,0.6192017-0.2349548c0.2363892,0,0.43927,0.0799103,0.6105652,0.2392578
		c0.1713257,0.1593475,0.2574463,0.4043427,0.2574463,0.7345123c0,0.330658-0.0861206,0.5771027-0.2574463,0.7393188
		c-0.1712952,0.1626892-0.374176,0.2435608-0.6105652,0.2435608c-0.2478638,0-0.4545898-0.0808716-0.6192017-0.2435608
		C286.8165283,157.287384,286.7342224,157.0409393,286.7342224,156.7102814z M288.3276672,169.0425873h-1.4700012v-9.7028503
		h1.4700012V169.0425873z"/>
	<path d="M299.8187561,164.182312c0,1.5819702-0.3981323,2.8165436-1.195343,3.7051392
		c-0.7962646,0.8881226-1.8977966,1.3321991-3.3017578,1.3321991c-0.868042,0-1.6384277-0.2038574-2.3112183-0.6110687
		c-0.672821-0.4072266-1.1915283-0.9914856-1.558075-1.7528076c-0.3655701-0.761322-0.5483704-1.6523132-0.5483704-2.6734619
		c0-1.5814972,0.3952637-2.8136749,1.1857605-3.6960602c0.7914734-0.8823853,1.8891907-1.3235779,3.2940979-1.3235779
		c1.3570862,0,2.4356689,0.4517212,3.2357178,1.3546906C299.4187012,161.4203186,299.8187561,162.6419678,299.8187561,164.182312z
		 M292.4266357,164.182312c0,1.2393494,0.2478638,2.1839447,0.7436218,2.8328094
		c0.4957275,0.649353,1.2240295,0.9737854,2.1867981,0.9737854c0.9618225,0,1.6920471-0.322998,2.1906433-0.9689941
		c0.4986267-0.6464844,0.7484131-1.5920258,0.7484131-2.8376007c0-1.2336121-0.2497864-2.1705475-0.7484131-2.8108063
		c-0.4985962-0.6402588-1.2345581-0.9603729-2.2088318-0.9603729c-0.961792,0-1.6882019,0.3158112-2.1772461,0.9469757
		C292.6716309,161.9897461,292.4266357,162.9309845,292.4266357,164.182312z"/>
	<path d="M309.0339966,169.0425873v-6.2766876c0-0.7909851-0.1799316-1.3809967-0.5397644-1.7705078
		c-0.3608093-0.3895111-0.9244995-0.584259-1.6910706-0.584259c-1.0154114,0-1.7590332,0.2741852-2.230835,0.8230438
		c-0.4727783,0.5488586-0.7082214,1.4551697-0.7082214,2.7179718v5.0904388h-1.4700012v-9.7028503h1.195343l0.2392578,1.3278809
		h0.0708313c0.3005066-0.4780426,0.7225342-0.8484192,1.2651978-1.1111145
		c0.5435791-0.2622375,1.1484375-0.3938293,1.8154602-0.3938293c1.1685486,0,2.0480652,0.2818451,2.6376038,0.8455505
		c0.5904846,0.5636902,0.8852539,1.46521,0.8852539,2.7045593v6.3298035H309.0339966z"/>
	<path d="M319.489563,169.0425873l-0.2919006-1.3809814h-0.0708008c-0.4842834,0.6077118-0.9666138,1.0197144-1.447998,1.2350464
		s-1.0814514,0.322998-1.8011475,0.322998c-0.9627686,0-1.7159424-0.247879-2.2624207-0.7436218
		c-0.5455017-0.4957428-0.8182373-1.2010803-0.8182373-2.1159973c0-1.9590454,1.5666504-2.9864197,4.7009277-3.0806885
		l1.6460876-0.0531006v-0.6019745c0-0.761322-0.1636658-1.3235779-0.4909668-1.6862946
		c-0.3282471-0.3631897-0.8517456-0.5445557-1.5714417-0.5445557c-0.8086853,0-1.7236023,0.247879-2.744751,0.7436218
		l-0.4517212-1.1245117c0.4785156-0.2593536,1.0020142-0.4632111,1.5714417-0.6105957
		c0.5694275-0.1478577,1.1407776-0.2215424,1.7130737-0.2215424c1.157074,0,2.0145569,0.256958,2.5715637,0.770401
		c0.5579529,0.5134583,0.8374023,1.3365021,0.8374023,2.4696198v6.6221771H319.489563z M316.1696167,168.0066071
		c0.914917,0,1.633667-0.2507477,2.1552429-0.7522278c0.522522-0.5014801,0.7838135-1.203949,0.7838135-2.1069031v-0.8766479
		l-1.4690552,0.0622101c-1.1694946,0.041153-2.0116882,0.2225189-2.5275269,0.5440826
		c-0.5167847,0.3220367-0.775177,0.8220825-0.775177,1.5006104c0,0.5311584,0.1607666,0.9355011,0.4823303,1.2130432
		S315.5906067,168.0066071,316.1696167,168.0066071z"/>
	<path d="M325.0757446,169.0425873h-1.4700012v-13.7750244h1.4700012V169.0425873z"/>
	<path d="M343.4545898,162.4472046c0,2.1365814-0.5799561,3.7697601-1.7398987,4.9000092
		c-1.1599121,1.130249-2.8289795,1.6953735-5.0062256,1.6953735h-3.5859985v-12.9428864h3.9668884
		c2.0116882,0,3.5764465,0.5574646,4.6913757,1.6728973C342.896637,158.8884888,343.4545898,160.4465332,343.4545898,162.4472046z
		 M341.8601685,162.5003204c0-1.6877136-0.4230042-2.95961-1.269989-3.8156738
		c-0.8469543-0.8555908-2.1054688-1.2838593-3.7754822-1.2838593h-2.1868286v10.3402405h1.8327332
		c1.7934875,0,3.1428833-0.4407043,4.0453796-1.3230896C341.4093933,165.535553,341.8601685,164.2296753,341.8601685,162.5003204z"
		/>
	<path d="M350.217926,169.2196503c-1.4346008,0-2.5657959-0.4368896-3.3955383-1.3101807
		c-0.8287964-0.873291-1.2431946-2.0863342-1.2431946-3.6386414c0-1.5637817,0.3847351-2.806488,1.1551208-3.7271576
		c0.7704163-0.9206543,1.8040161-1.3809967,3.1027222-1.3809967c1.2163696,0,2.1781921,0.4000397,2.8863831,1.199646
		c0.7082214,0.7995911,1.0623169,1.8547211,1.0623169,3.1649017v0.9297485h-6.6838989
		c0.0296631,1.1388702,0.3167725,2.0035553,0.8632202,2.5935669c0.5455322,0.5904846,1.3140259,0.8852539,2.3064575,0.8852539
		c1.0441284,0,2.0767517-0.2182159,3.0979004-0.6550903v1.3101654c-0.5196533,0.2244263-1.0106201,0.3852081-1.4738159,0.4828339
		C351.4324036,169.1708374,350.8734741,169.2196503,350.217926,169.2196503z M349.8197937,160.3934174
		c-0.7790222,0-1.4001465,0.2536163-1.8633423,0.761322c-0.4641418,0.5077057-0.736908,1.2096863-0.8192139,2.1069031h5.0722656
		c0-0.9264069-0.2067261-1.6360474-0.6192017-2.1289063C351.1768799,160.6398621,350.5863647,160.3934174,349.8197937,160.3934174z"
		/>
	<path d="M358.415863,169.0425873l-3.6826782-9.7028503h1.5762329l2.0892029,5.7546234
		c0.4718323,1.3455811,0.7493591,2.2188721,0.831665,2.6203461h0.0708313
		c0.0650635-0.3129425,0.2698669-0.9603729,0.6153564-1.9432526c0.3454895-0.9828644,1.1197205-3.1266174,2.3236694-6.4317169
		h1.5762329l-3.6826477,9.7028503H358.415863z"/>
	<path d="M369.4733887,169.2196503c-1.4346008,0-2.5657959-0.4368896-3.3955383-1.3101807
		c-0.8287964-0.873291-1.2431946-2.0863342-1.2431946-3.6386414c0-1.5637817,0.3847351-2.806488,1.1551514-3.7271576
		c0.7703857-0.9206543,1.8039856-1.3809967,3.1026917-1.3809967c1.2163696,0,2.1781921,0.4000397,2.8864136,1.199646
		c0.7081909,0.7995911,1.0622864,1.8547211,1.0622864,3.1649017v0.9297485h-6.6838989
		c0.0296631,1.1388702,0.3167725,2.0035553,0.8632507,2.5935669c0.5455017,0.5904846,1.3139954,0.8852539,2.306427,0.8852539
		c1.0441284,0,2.0767517-0.2182159,3.0979309-0.6550903v1.3101654c-0.5196838,0.2244263-1.0106506,0.3852081-1.4738464,0.4828339
		C370.6878662,169.1708374,370.1289673,169.2196503,369.4733887,169.2196503z M369.0752563,160.3934174
		c-0.7790222,0-1.400116,0.2536163-1.8633423,0.761322c-0.4641418,0.5077057-0.736908,1.2096863-0.8192139,2.1069031h5.0722656
		c0-0.9264069-0.2067261-1.6360474-0.6192017-2.1289063C370.4323425,160.6398621,369.8418579,160.3934174,369.0752563,160.3934174z"
		/>
	<path d="M377.0157471,169.0425873h-1.4700012v-13.7750244h1.4700012V169.0425873z"/>
	<path d="M388.5068359,164.182312c0,1.5819702-0.3981323,2.8165436-1.195343,3.7051392
		c-0.7962341,0.8881226-1.8977966,1.3321991-3.3017578,1.3321991c-0.8680115,0-1.6384277-0.2038574-2.3112183-0.6110687
		c-0.6727905-0.4072266-1.1914978-0.9914856-1.5580444-1.7528076c-0.3656006-0.761322-0.5484009-1.6523132-0.5484009-2.6734619
		c0-1.5814972,0.3952637-2.8136749,1.1857605-3.6960602c0.7914734-0.8823853,1.8891907-1.3235779,3.2941284-1.3235779
		c1.3570557,0,2.4356384,0.4517212,3.2357178,1.3546906C388.106781,161.4203186,388.5068359,162.6419678,388.5068359,164.182312z
		 M381.1147156,164.182312c0,1.2393494,0.2478638,2.1839447,0.7436218,2.8328094
		c0.4957275,0.649353,1.2240295,0.9737854,2.1867981,0.9737854c0.9618225,0,1.6920471-0.322998,2.1906433-0.9689941
		c0.4986267-0.6464844,0.7484131-1.5920258,0.7484131-2.8376007c0-1.2336121-0.2497864-2.1705475-0.7484131-2.8108063
		c-0.4985962-0.6402588-1.2345581-0.9603729-2.2088013-0.9603729c-0.9618225,0-1.6882019,0.3158112-2.1772461,0.9469757
		C381.3597107,161.9897461,381.1147156,162.9309845,381.1147156,164.182312z"/>
	<path d="M395.5984192,169.2196503c-0.6316223,0-1.2087097-0.1167603-1.7312622-0.3498077
		c-0.5215759-0.2330322-0.9598999-0.5914459-1.3139954-1.0756989h-0.1062317
		c0.0708313,0.5665588,0.1062317,1.1039429,0.1062317,1.6116486v3.9922485h-1.4700012v-14.0583038h1.195343l0.2038269,1.3278809
		h0.0708313c0.3770752-0.5311584,0.8172913-0.914444,1.3187866-1.1508331
		c0.5014954-0.2359161,1.0766602-0.3541107,1.7264709-0.3541107c1.2862549,0,2.2796631,0.4397583,2.979248,1.3192749
		c0.6986389,0.8795166,1.0489197,2.1126404,1.0489197,3.7003632c0,1.5934601-0.3560181,2.8313751-1.0671082,3.7137604
		C397.8484192,168.7784576,396.8607483,169.2196503,395.5984192,169.2196503z M395.3859558,160.4111328
		c-0.9914856,0-1.709259,0.2741852-2.1513977,0.8230438c-0.4431152,0.5488586-0.6699219,1.4226227-0.6813965,2.6208344v0.327301
		c0,1.3632813,0.2268066,2.338501,0.6813965,2.9261169c0.4545898,0.5871429,1.1828918,0.8804779,2.1868286,0.8804779
		c0.8374023,0,1.493927-0.3392792,1.969574-1.017807c0.4746704-0.6785431,0.7129822-1.6140289,0.7129822-2.8065033
		c0-1.2096863-0.2383118-2.1380005-0.7129822-2.7839966C396.9153137,160.7341309,396.2472839,160.4111328,395.3859558,160.4111328z"
		/>
	<path d="M414.5610352,169.0425873v-6.312088c0-0.7732849-0.1655579-1.3532562-0.4957275-1.7394104
		c-0.3311462-0.3866425-0.8441162-0.5799561-1.5408325-0.5799561c-0.914917,0-1.5905762,0.2626953-2.0269775,0.7876282
		c-0.4373779,0.5254059-0.6555786,1.3341064-0.6555786,2.4260712v5.4177551h-1.4690247v-6.312088
		c0-0.7732849-0.1655884-1.3532562-0.4957581-1.7394104c-0.3311157-0.3866425-0.8469543-0.5799561-1.5494385-0.5799561
		c-0.9206543,0-1.5953674,0.2756195-2.0231628,0.8278198c-0.4277954,0.5517426-0.6412048,1.456131-0.6412048,2.7131958v5.0904388
		h-1.4700012v-9.7028503h1.195343l0.2392578,1.3278809h0.0708008c0.2765808-0.471817,0.6680298-0.8407593,1.1723633-1.1063385
		c0.5053101-0.2655792,1.0699768-0.3986053,1.6958618-0.3986053c1.5169067,0,2.5083923,0.5488586,2.9744568,1.6465759h0.0708313
		c0.289032-0.5072174,0.7081909-0.9086914,1.2565918-1.203949c0.5493164-0.294754,1.1752319-0.442627,1.8776855-0.442627
		c1.0977173,0,1.9188538,0.2818451,2.4653015,0.8455505c0.5455017,0.5636902,0.8182678,1.46521,0.8182678,2.7045593v6.3298035
		H414.5610352z"/>
	<path d="M423.1571045,169.2196503c-1.4346008,0-2.5657959-0.4368896-3.3955383-1.3101807
		c-0.8287964-0.873291-1.2431946-2.0863342-1.2431946-3.6386414c0-1.5637817,0.3847351-2.806488,1.1551514-3.7271576
		c0.7703857-0.9206543,1.8039856-1.3809967,3.1026917-1.3809967c1.2163696,0,2.1781921,0.4000397,2.8863831,1.199646
		c0.7082214,0.7995911,1.0623169,1.8547211,1.0623169,3.1649017v0.9297485h-6.6838989
		c0.0296631,1.1388702,0.3167725,2.0035553,0.8632202,2.5935669c0.5455322,0.5904846,1.3140259,0.8852539,2.3064575,0.8852539
		c1.0441284,0,2.0767517-0.2182159,3.0979004-0.6550903v1.3101654c-0.5196533,0.2244263-1.0106201,0.3852081-1.4738159,0.4828339
		C424.371582,169.1708374,423.8126831,169.2196503,423.1571045,169.2196503z M422.7589722,160.3934174
		c-0.7790222,0-1.4001465,0.2536163-1.8633423,0.761322c-0.4641418,0.5077057-0.736908,1.2096863-0.8192139,2.1069031h5.0722656
		c0-0.9264069-0.2067261-1.6360474-0.6192017-2.1289063C424.1160583,160.6398621,423.5255737,160.3934174,422.7589722,160.3934174z"
		/>
	<path d="M435.8703003,169.0425873v-6.2766876c0-0.7909851-0.1799316-1.3809967-0.5397644-1.7705078
		c-0.3608093-0.3895111-0.9244995-0.584259-1.6910706-0.584259c-1.0154114,0-1.7590332,0.2741852-2.230835,0.8230438
		c-0.4727783,0.5488586-0.7082214,1.4551697-0.7082214,2.7179718v5.0904388h-1.4700012v-9.7028503h1.195343l0.2392578,1.3278809
		h0.0708313c0.3005066-0.4780426,0.7225647-0.8484192,1.2651978-1.1111145
		c0.5435791-0.2622375,1.1484375-0.3938293,1.8154907-0.3938293c1.1685181,0,2.0480347,0.2818451,2.6375732,0.8455505
		c0.5904846,0.5636902,0.8852539,1.46521,0.8852539,2.7045593v6.3298035H435.8703003z"/>
	<path d="M443.4930725,168.0066071c0.2593384,0,0.5100708-0.0186615,0.7522278-0.0574188
		c0.2421265-0.0382843,0.4335327-0.0780029,0.5751648-0.1196289v1.1245117
		c-0.1588745,0.0765533-0.3933411,0.1401978-0.7034302,0.1904449c-0.3100586,0.0497589-0.588562,0.0751343-0.8364258,0.0751343
		c-1.8767395,0-2.8155823-0.9886169-2.8155823-2.9658508v-5.7718506h-1.3896179v-0.7082062l1.3896179-0.6110687l0.6201477-2.0714874
		h0.849823v2.2485504h2.8146362v1.1422119h-2.8146362v5.7101288c0,0.584259,0.1378174,1.0326385,0.4153748,1.3455811
		C442.6278992,167.8506165,443.0087891,168.0066071,443.4930725,168.0066071z"/>
	<path d="M453.1954346,169.0425873h-1.5054016v-12.9428864h7.2150574v1.3365021h-5.7096558v4.7363434h5.3651123v1.3369751
		h-5.3651123V169.0425873z"/>
	<path d="M462.2077942,159.3397369v6.2943878c0,0.7909851,0.1799316,1.3809967,0.5397644,1.7705078
		c0.3598633,0.3895111,0.9235535,0.5842743,1.6911011,0.5842743c1.0153809,0,1.7570801-0.2770691,2.2269897-0.8321381
		c0.4689636-0.5546112,0.7034302-1.460434,0.7034302-2.7174988v-5.0995331h1.4700012v9.7028503h-1.2135315l-0.2124634-1.3015594
		h-0.0794067c-0.3005371,0.4780426-0.71875,0.844101-1.2527771,1.0977173
		c-0.5340271,0.2540894-1.1436462,0.3809052-1.8279114,0.3809052c-1.1809998,0-2.0643311-0.2804108-2.651947-0.8412323
		c-0.5866699-0.5603485-0.8804626-1.4575653-0.8804626-2.6911774v-6.3475037H462.2077942z"/>
	<path d="M478.5940857,169.0425873v-6.2766876c0-0.7909851-0.1799011-1.3809967-0.5397644-1.7705078
		c-0.3607788-0.3895111-0.9244995-0.584259-1.6910706-0.584259c-1.0154114,0-1.7590332,0.2741852-2.230835,0.8230438
		c-0.4727783,0.5488586-0.7081909,1.4551697-0.7081909,2.7179718v5.0904388h-1.4700012v-9.7028503h1.1953125l0.2392578,1.3278809
		h0.0708313c0.3005066-0.4780426,0.7225647-0.8484192,1.2651978-1.1111145
		c0.5435791-0.2622375,1.1484375-0.3938293,1.8154907-0.3938293c1.1685181,0,2.0480347,0.2818451,2.6375732,0.8455505
		c0.5904846,0.5636902,0.8852539,1.46521,0.8852539,2.7045593v6.3298035H478.5940857z"/>
	<path d="M489.6870422,167.7410278h-0.0794373c-0.6794739,0.9857483-1.6939392,1.4786224-3.0462341,1.4786224
		c-1.2690125,0-2.2557068-0.434021-2.9610596-1.3015747c-0.7053223-0.8675385-1.0574951-2.1006775-1.0574951-3.7003632
		c0-1.5991974,0.3540955-2.8419037,1.0622864-3.7271576c0.7082214-0.8852539,1.6939392-1.3278809,2.9562683-1.3278809
		c1.3168945,0,2.325592,0.4780426,3.0280457,1.4341125h0.1148682l-0.0612793-0.6991119l-0.0354004-0.6818848v-3.9482269h1.4690552
		v13.7750244h-1.195343L489.6870422,167.7410278z M486.7479858,167.9889069c1.0029907,0,1.7303162-0.2727661,2.1820374-0.8187408
		c0.4517212-0.54599,0.6775818-1.4264679,0.6775818-2.6423645v-0.3100891c0-1.3752441-0.2287292-2.3562012-0.6861877-2.9433441
		c-0.4574585-0.587616-1.1876831-0.8809509-2.1915894-0.8809509c-0.8613281,0-1.5207214,0.3349609-1.9781799,1.0048828
		c-0.457489,0.6699219-0.6862183,1.6154785-0.6862183,2.8371277c0,1.2393494,0.2268372,2.1748505,0.681427,2.806488
		S485.8684998,167.9889069,486.7479858,167.9889069z"/>
</g>
<path class="st0" d="M23.0306416,17.9718018H11.801405v34.5028992c3.648632-0.6921005,7.3971272-1.3563309,11.2292366-1.9903717
	V17.9718018z"/>
<path class="st0" d="M91.6715775,39.4083748h9.1877594v-9.4780712h-9.1877594v-9.9890327H80.5886459v9.9890327h-4.6658783v9.4780712
	h4.6658783v4.2919655c3.6579285-0.2833443,7.3506851-0.5457878,11.0829315-0.7873268V39.4083748z"/>
<path class="st0" d="M126.4543381,38.0961723c2.7196274,0,4.840065,1.1449852,6.2707138,3.0796204
	c3.6881104-0.0789604,7.3948059-0.1370277,11.1200867-0.1741829c-2.5709991-6.8048935-8.2332458-11.8005657-17.3908005-11.8005657
	c-8.6559219,0-15.3168182,5.3254642-18.01091,12.7876225c3.7810135-0.1741867,7.5922241-0.3274689,11.4289703-0.457531
	C121.3657608,39.364254,123.5999908,38.0961723,126.4543381,38.0961723"/>
<path class="st0" d="M173.4956512,41.128643c0.9986572-0.2159882,2.0600433-0.3344383,3.2003937-0.3344383h0.5852661V29.2003441
	c-6.5633698-0.2903118-10.209671,3.2073593-12.4694519,8.6048164v-7.8755569h-11.0829163V40.94981
	c0.2020569,0,0.4041138-0.0023193,0.6061859-0.0023193C160.7707367,40.9474907,167.1598969,41.0102005,173.4956512,41.128643"/>
<path class="st0" d="M207.1780243,40.7937393h0.5829468V29.1998825c-6.5610504-0.2903118-10.2073517,3.2096786-12.4671326,8.6048164
	V29.929142h-11.0829163v11.4568367c5.762085,0.1695404,11.4707642,0.3855324,17.1097717,0.6502991
	C202.9835968,41.2094688,204.9484253,40.7937393,207.1780243,40.7937393"/>
<path class="st0" d="M231.7534332,38.0961723c4.1015167,0,6.8490143,2.5918999,7.9010925,6.584259
	c3.625412,0.3344345,7.2090149,0.6897774,10.7438507,1.066021c-1.4864044-9.1018372-7.4621735-16.5454082-18.6449432-16.5454082
	c-8.9253235,0-15.7232513,5.6668682-18.2431641,13.4959812c3.5836029,0.215992,7.1346893,0.4528847,10.6532593,0.7083588
	C225.5477295,40.1167412,228.155899,38.0961723,231.7534332,38.0961723"/>
<path class="st0" d="M266.9022217,47.5751801v-0.1463165c0-5.3231468,4.0829163-9.0414505,9.4780579-9.0414505
	c5.3974609,0,9.5523987,3.7183037,9.5523987,9.0414505v0.1463165c0,1.0265427-0.1578979,1.9903717-0.4459229,2.8822098
	c3.8878479,0.6433334,7.6851501,1.3145294,11.3825378,2.0182419V29.9289112h-11.0829468v5.104826
	c-2.9890442-3.2816715-6.5610046-5.8340855-12.6134338-5.8340855c-8.6860657,0-16.7985535,6.1708508-17.3048553,17.1539021
	c3.739212,0.4273376,7.4203644,0.8802223,11.0411224,1.3563309
	C266.9091797,47.6634331,266.9022217,47.6216316,266.9022217,47.5751801"/>
<path class="st0" d="M48.6133232,39.485714c0.7315826-0.3483696,2.3573265-0.6897774,3.1539345-0.6897774
	c0.7989426,0,2.4223557,0.3414078,3.1539459,0.6897774c2.8218231,1.3424034,4.0968704,3.3467064,4.4638176,6.1429863
	c3.5116043-0.369278,7.0743065-0.7153282,10.6764793-1.0427971c-1.2425308-5.6854515-4.6496201-10.4813957-9.9077339-13.1545734
	c-2.41539-1.2262726-5.2186356-2.2342377-8.3865089-2.2342377c-3.1678696,0-5.9711151,1.0079651-8.384182,2.2342377
	c-6.556385,3.3304462-10.2398567,9.961153-10.4256554,17.5022717c3.6207619-0.5295258,7.3135185-1.0358276,11.068985-1.5165825
	C44.0473061,43.6360054,45.2201653,41.0998497,48.6133232,39.485714"/>
<path class="st1" d="M23.0306416,69.0117569v-18.52882c-3.8321095,0.636364-7.5806046,1.2982712-11.2292366,1.9926949v16.5361252
	H23.0306416z"/>
<path class="st1" d="M91.9635086,69.6678543c3.7182999,0,6.4170303-0.8755722,8.7488098-2.2597809v-8.895134
	c-1.6048431,0.8732567-3.4256668,1.3842049-5.4671402,1.3842049c-2.4804153,0-3.5743103-1.2402077-3.5743103-3.7903023V42.9127769
	c-3.7322388,0.241539-7.4249954,0.5039825-11.0829163,0.7873268v14.2275734
	C80.5879517,66.9714432,85.1818314,69.6678543,91.9635086,69.6678543"/>
<path class="st1" d="M107.1321487,49.6895714c0,11.9584961,8.6768188,20.1963692,20.4170074,20.1963692
	c7.0719681,0,12.3207779-2.7707367,15.9671097-7.2902946l-6.3427277-5.6157837
	c-3.0633545,2.8450508-5.7597809,4.0109444-9.4780807,4.0109444c-4.958519,0-8.4608231-2.6244164-9.5523911-7.6549263h27.1963501
	c0.071991-1.0218964,0.1463165-2.0414696,0.1463165-2.9170456c0-3.3072243-0.5457764-6.5238724-1.639679-9.4176941
	c-3.7252808,0.037159-7.4319763,0.0952225-11.1200867,0.1741867c1.0219116,1.3818817,1.6930847,3.1655502,1.9671478,5.2325706
	h-16.6963654c0.3321152-1.9044456,0.966156-3.5557327,1.8765793-4.8772278
	c-3.8367538,0.1323776-7.6479645,0.2833405-11.428978,0.4575272c-0.8477097,2.3410721-1.3122025,4.8888397-1.3122025,7.5550575
	V49.6895714z"/>
<path class="st1" d="M164.8116455,69.0117569V54.575161c0-7.8871727,3.2375488-12.274353,8.6837769-13.4472084
	c-6.3357544-0.1184502-12.7249146-0.1811562-19.1605377-0.1811562c-0.2020569,0-0.4041138,0.0023193-0.6061707,0.0023193v28.0626411
	H164.8116455z"/>
<path class="st1" d="M195.2929077,69.0117569V54.575161c0-6.5076141,2.2017212-10.6323547,6.0291748-12.5391197
	c-5.6413116-0.2647629-11.3499908-0.480751-17.1120911-0.6502991v27.6260147H195.2929077z"/>
<path class="st1" d="M212.431015,49.6895714c0,11.9584961,8.6768188,20.1963692,20.4170074,20.1963692
	c7.0719757,0,12.3207855-2.7707367,15.9671173-7.2902946l-6.3427277-5.6157837
	c-3.0633698,2.8450508-5.7597809,4.0109444-9.4780884,4.0109444c-4.9585114,0-8.4608154-2.6244164-9.5523834-7.6549263h27.1963348
	c0.071991-1.0218964,0.1463318-2.0414696,0.1463318-2.9170456c0-1.5885849-0.1370392-3.1492996-0.3855438-4.6728516
	c-3.5348358-0.3762398-7.1184235-0.7315788-10.74617-1.066021c0.1463318,0.5504341,0.2601471,1.1264076,0.3390961,1.7279358
	h-16.6963806c0.1881256-1.0892525,0.483078-2.0925674,0.8662872-3.0006599
	c-3.5162506-0.2577972-7.067337-0.4946899-10.6509247-0.7106819c-0.6920929,2.1459808-1.0799561,4.4452477-1.0799561,6.8466988
	V49.6895714z"/>
<path class="st1" d="M255.8190613,47.5751801c0,11.5938683,8.2402039,18.2292175,17.3536377,18.2292175
	c5.9060974,0,9.4780579-2.4060974,12.7597351-6.3450394v1.8974724c0,6.9999809-3.5719604,10.6439705-11.1549072,10.6439705
	c-5.1768188,0-9.1877747-1.3122101-13.1987-3.571991l-3.7902832,8.3121872
	c4.9561768,2.6244125,10.9365845,4.0829391,17.2792969,4.0829391c7.5829163,0,13.1987-1.6048431,16.8426819-5.2488251
	c3.2816772-3.2816772,4.9585266-8.3865128,4.9585266-15.3864899v-7.7129898
	c-3.6950684-0.7037125-7.4946594-1.3749084-11.3825378-2.0182419c-1.2053528,3.7345619-4.7494812,6.1592445-9.1064453,6.1592445
	c-5.3487244,0-9.4037781-3.5859261-9.4711304-8.9067497c-3.6207581-0.4761086-7.3019104-0.9289932-11.0411072-1.3563309
	c-0.0162506,0.3576584-0.0487671,0.7060356-0.0487671,1.0753098V47.5751801z"/>
<path class="st1" d="M59.5134583,47.5120049v3.8042412v16.2551041v1.4283295h11.0829163V49.6765671v-0.1463165
	c0-1.7000618-0.1881256-3.3559952-0.5341721-4.9445763c-3.6021881,0.3274689-7.1648865,0.6735191-10.6788101,1.0427971
	C59.4623566,46.2230263,59.5134583,46.843132,59.5134583,47.5120049"/>
<path class="st1" d="M32.939537,49.6767998v19.3231087h11.0829201V67.571579V51.3164787v-3.8042374
	c0-0.0325165,0.0046463-0.0627098,0.0046463-0.0952225c-3.7554665,0.4807549-7.4482269,0.9870605-11.068985,1.5165825
	c-0.0046463,0.1997375-0.0185814,0.3971519-0.0185814,0.5968819V49.6767998z"/>
<g>
	<g>
		<rect x="324.3311768" y="15.7683916" class="st1" width="169.4140625" height="114.4345703"/>
		<g>
			<path class="st2" d="M491.505249,18.0084743v109.954071H326.5716553V18.0084743H491.505249 M495.9852295,13.5284624h-4.4799805
				H326.5716553h-4.4799805v4.4800119v109.954071v4.4800034h4.4799805H491.505249h4.4799805v-4.4800034V18.0084743V13.5284624
				L495.9852295,13.5284624z"/>
		</g>
	</g>
	<polygon class="st3" points="405.5206909,41.964016 409.007843,39.4274216 412.4850464,41.964016 411.1592102,37.8564377 
		414.6964417,35.314846 410.3336487,35.314846 409.007843,31.1622467 407.6719971,35.3248482 403.3142395,35.314846 
		406.8465271,37.8564377 	"/>
	<polygon class="st3" points="387.5169067,46.8050461 390.9940491,44.2634544 394.4712524,46.8050461 393.1503906,42.6974716 
		396.6825867,40.1558762 392.3249207,40.1558762 390.9890137,35.9982567 389.6582031,40.1608772 385.3004456,40.1558762 
		388.8326416,42.6974716 	"/>
	<polygon class="st3" points="377.8143005,49.2060585 376.483429,53.3686752 372.1256714,53.3686752 375.6629028,55.9102707 
		374.3370667,60.0078468 377.8143005,57.4712524 381.2964783,60.0078468 379.9706421,55.9102707 383.5028381,53.3686752 
		379.150116,53.3686752 	"/>
	<polygon class="st3" points="372.9777222,75.4630585 376.4648743,77.9996567 375.1390381,73.8870697 378.6662598,71.3504791 
		374.318512,71.3504791 372.9777222,67.1928635 371.651825,71.3604813 367.2891235,71.3504791 370.8212891,73.8870697 
		369.5005188,77.9996567 	"/>
	<polygon class="st3" points="379.1505737,89.3948135 377.8146667,85.2322083 376.4838867,89.399826 372.1261292,89.3948135 
		375.6633606,91.9364166 374.3375244,96.0439911 377.8146667,93.4973984 381.296875,96.0439911 379.9710388,91.9364166 
		383.5032959,89.3948135 	"/>
	<polygon class="st3" points="392.3539124,102.5996094 391.0180054,98.4420013 389.6872253,102.6046143 385.3344421,102.5996094 
		388.8666992,105.1362076 387.540863,109.2487869 391.0180054,106.7121964 394.5001831,109.2487869 393.1794128,105.1362076 
		396.7115784,102.5996094 	"/>
	<polygon class="st3" points="410.3396912,107.3811111 409.0037842,103.2184982 407.6730042,107.3861237 403.3102112,107.3811111 
		406.8474426,109.9227142 405.5266418,114.0302887 409.0088196,111.4936981 412.4859619,114.0302887 411.1601257,109.9227142 
		414.6973572,107.3811111 	"/>
	<polygon class="st3" points="428.3259888,102.5996094 426.9900818,98.4420013 425.6593018,102.6046143 421.3065186,102.5996094 
		424.8337402,105.1362076 423.5129395,109.2487869 426.9900818,106.7121964 430.4773254,109.2487869 429.1464539,105.1362076 
		432.6836548,102.5996094 	"/>
	<polygon class="st3" points="441.5352783,89.3948135 440.1993713,85.2322083 438.8685913,89.399826 434.5108337,89.3948135 
		438.0430298,91.9364166 436.722229,96.0439911 440.1993713,93.4973984 443.6815491,96.0439911 442.3557434,91.9364166 
		445.8880005,89.3948135 	"/>
	<polygon class="st3" points="451.566864,73.9512405 447.2091064,73.9512405 445.873291,69.7886276 444.5424194,73.9562531 
		440.1896973,73.9512405 443.7169495,76.4878464 442.4010925,80.5954208 445.873291,78.0488129 449.3554688,80.5954208 
		448.0296326,76.4878464 	"/>
	<polygon class="st3" points="436.7202454,59.9588165 440.1973877,57.4172211 443.6795654,59.9588165 442.3537598,55.8512383 
		445.8859253,53.3146439 441.5332336,53.3146439 440.1973877,49.1570473 438.8665161,53.3196449 434.5088501,53.3146439 
		438.0410461,55.8512383 	"/>
	<polygon class="st3" points="427.0471802,36.0012741 425.7112732,40.1688919 421.3585815,40.1588936 424.8858032,42.7054863 
		423.5649414,46.8080826 427.0521545,44.261467 430.5243225,46.8080826 429.2035522,42.7054863 432.7357483,40.1588936 
		428.3779907,40.1588936 	"/>
</g>
<g>
	<path class="st1" d="M47.2338905,120.1170883H27.7208672c-5.835144-0.1132431-8.0629978-3.4141769-8.0629978-8.8172989v-5.5202866
		h0.2230377v-0.0498352h23.742857v-7.3592529h-23.742857v-11.235733h26.5199528v-7.3592529H11.6886225v25.0867615h-0.0145388
		v8.6591797c0,8.8172989,4.5287666,13.9004898,13.5692253,13.9566574c1.0134792,0.006279,1.9843025-0.0045853,2.6523342,0.0108643
		l-0.0002422-0.0154495c3.6596584-0.002533,12.6560745,0.0013275,19.3384895,0.0024185V120.1170883z"/>
	<path class="st1" d="M108.2681427,97.9012909c2.4990921-4.9986725,6.9422531-7.6367645,12.774437-7.6367645v7.6367645
		c-7.4287491-0.4169922-12.14991,3.9571457-12.774437,10.2743835v19.3001862h-7.9837875V90.542038h7.9837875V97.9012909z"/>
	<path class="st1" d="M161.9325714,109.0091934c0,11.1078949-7.8457489,18.7441788-19.2311554,18.7441788
		c-11.4549103,0-19.2997055-7.6362839-19.2997055-18.7441788c0-11.1773987,7.8447952-18.7446671,19.2997055-18.7446671
		C154.0868225,90.2645264,161.9325714,97.8317947,161.9325714,109.0091934z M131.385498,109.0782089
		c0,7.1507492,4.6516571,12.0104294,11.315918,12.0104294c6.5957184,0,11.2473755-4.8596802,11.2473755-12.0104294
		c0-7.0812531-4.6516571-11.9409256-11.2473755-11.9409256C136.0371552,97.1372833,131.385498,101.9969559,131.385498,109.0782089z"
		/>
	<path class="st1" d="M208.3757935,109.1477051c0,11.0383987-6.9422455,18.6056671-17.4946289,18.6056671
		c-5.9016876,0-10.3448486-2.3600922-13.0524445-6.6647339v19.8556976h-7.9837952V90.542038h7.9837952v6.3872223
		c2.7075958-4.3046417,7.1507568-6.6647339,12.9134369-6.6647339
		C201.2250366,90.2645264,208.3757935,97.9012909,208.3757935,109.1477051z M200.3225098,108.8701935
		c0-6.8732376-4.6516571-11.9409332-11.2464142-11.9409332c-6.5957184,0-11.2473755,4.9981918-11.2473755,11.9409332
		c0,7.1507492,4.6516571,12.0799255,11.2473755,12.0799255C195.6708527,120.950119,200.3225098,115.9514465,200.3225098,108.8701935
		z"/>
	<path class="st1" d="M248.4317932,112.0638046h-27.9089813c1.2500305,5.6927032,5.6236877,9.2333298,11.4549103,9.2333298
		c4.0271301,0,7.70578-1.5275421,10.4133759-4.3041611l4.2356262,4.5121765
		c-3.6101227,3.9576263-8.8863068,6.2482224-15.2735291,6.2482224c-11.3854218,0-18.883667-7.5672684-18.883667-18.6751633
		c0-11.176918,7.70578-18.7441864,18.6751556-18.8136826C244.1266632,90.2645264,249.4028625,98.7343292,248.4317932,112.0638046z
		 M241.4885712,106.2320938c-0.2770386-5.9707031-4.2346649-9.5808334-10.2743835-9.5808334
		c-5.8321838,0-9.9278412,3.6796265-10.8303833,9.5808334H241.4885712z"/>
</g>
<path class="st1" d="M89.9058914,110.3007584c0,9.6854019-7.8302155,17.5160599-17.5156174,17.5160599
	s-17.536972-7.8515701-17.536972-17.536972v0.041832l-0.0794525-19.6832886h8.0174828v20.2670822l0.0078583-0.0544052
	c0,5.3021088,4.2982063,9.6003189,9.6003151,9.6003189s9.5764694-4.2710114,9.5764694-9.5731125l0,0l-0.1271667-20.2398834
	h8.0357285L89.9058914,110.3007584L89.9058914,110.3007584z"/>
</svg>
