<svg width="966" height="201" viewBox="0 0 966 201" fill="none" xmlns="http://www.w3.org/2000/svg">
<g>
<path d="M294.95 0H0V200.28H294.95V0Z" fill="white"/>
<path d="M289.27 5.49001H5.66998V194.56H289.27V5.49001Z" fill="#034EA2"/>
<path d="M141.43 46.69L147.41 42.32L153.4 46.69L151.12 39.62L157.2 35.26H149.71L147.41 28.11L145.12 35.27L137.63 35.26L143.71 39.62L141.43 46.69Z" fill="#FFF100"/>
<path d="M110.46 55.01L116.44 50.64L122.43 55.01L120.15 47.95L126.23 43.58H118.73L116.44 36.42L114.15 43.59L106.66 43.58L112.73 47.95L110.46 55.01Z" fill="#FFF100"/>
<path d="M93.79 59.13L91.49 66.3L84 66.29L90.08 70.66L87.8 77.72L93.79 73.35L99.77 77.72L97.49 70.66L103.57 66.29H96.08L93.79 59.13Z" fill="#FFF100"/>
<path d="M85.47 104.28L91.45 108.65L89.18 101.59L95.25 97.22H87.77L85.47 90.06L83.18 97.24L75.69 97.22L81.77 101.59L79.49 108.65L85.47 104.28Z" fill="#FFF100"/>
<path d="M96.08 128.24L93.78 121.09L91.49 128.25L84 128.24L90.08 132.61L87.8 139.67L93.78 135.3L99.77 139.67L97.49 132.61L103.57 128.24H96.08Z" fill="#FFF100"/>
<path d="M118.78 150.94L116.49 143.8L114.2 150.95L106.71 150.94L112.78 155.31L110.51 162.37L116.49 158.01L122.47 162.37L120.2 155.31L126.27 150.94H118.78Z" fill="#FFF100"/>
<path d="M149.71 159.17L147.42 152.02L145.13 159.18L137.64 159.17L143.71 163.54L141.44 170.6L147.42 166.23L153.4 170.6L151.12 163.54L157.2 159.17H149.71Z" fill="#FFF100"/>
<path d="M180.64 150.94L178.35 143.8L176.05 150.95L168.57 150.94L174.64 155.31L172.37 162.37L178.35 158.01L184.34 162.37L182.05 155.31L188.13 150.94H180.64Z" fill="#FFF100"/>
<path d="M203.35 128.24L201.05 121.09L198.76 128.25L191.27 128.24L197.35 132.61L195.07 139.67L201.05 135.3L207.04 139.67L204.76 132.61L210.84 128.24H203.35Z" fill="#FFF100"/>
<path d="M219.06 97.13H211.57L209.27 89.98L206.99 97.14L199.49 97.13L205.57 101.5L203.3 108.56L209.27 104.19L215.26 108.56L212.99 101.5L219.06 97.13Z" fill="#FFF100"/>
<path d="M195.07 77.62L201.05 73.26L207.04 77.62L204.76 70.56L210.84 66.2H203.35L201.05 59.05L198.76 66.21L191.27 66.2L197.35 70.56L195.07 77.62Z" fill="#FFF100"/>
<path d="M178.44 36.43L176.15 43.59L168.66 43.58L174.73 47.95L172.45 55.02L178.45 50.64L184.42 55.02L182.15 47.95L188.23 43.58H180.73L178.44 36.43Z" fill="#FFF100"/>
<path d="M324.38 47.72V5.48H353.33V12.62H332.9V22.62H350.53V29.76H332.9V47.71H324.37L324.38 47.72Z" fill="#034EA2"/>
<path d="M360.31 12.97V5.48H368.41V12.97H360.31ZM360.31 47.71V17.12H368.41V47.71H360.31Z" fill="#034EA2"/>
<path d="M404.53 47.72H396.43V32.11C396.43 28.81 396.26 26.67 395.91 25.7C395.56 24.73 395 23.98 394.22 23.44C393.44 22.9 392.51 22.63 391.41 22.63C390.01 22.63 388.75 23.01 387.64 23.78C386.53 24.55 385.76 25.57 385.35 26.83C384.94 28.09 384.73 30.44 384.73 33.86V47.72H376.64V17.12H384.16V21.61C386.83 18.15 390.19 16.42 394.24 16.42C396.03 16.42 397.66 16.74 399.14 17.38C400.62 18.02 401.74 18.84 402.5 19.84C403.26 20.84 403.79 21.97 404.08 23.24C404.37 24.51 404.53 26.32 404.53 28.68V47.69V47.72Z" fill="#034EA2"/>
<path d="M418.79 26.46L411.44 25.13C412.27 22.17 413.69 19.98 415.7 18.56C417.72 17.14 420.71 16.43 424.69 16.43C428.3 16.43 430.99 16.86 432.76 17.71C434.53 18.56 435.77 19.65 436.49 20.96C437.21 22.28 437.57 24.69 437.57 28.21L437.48 37.66C437.48 40.35 437.61 42.33 437.87 43.61C438.13 44.89 438.61 46.26 439.33 47.72H431.32C431.11 47.18 430.85 46.39 430.54 45.33C430.41 44.85 430.31 44.53 430.25 44.38C428.87 45.72 427.39 46.73 425.81 47.4C424.23 48.07 422.55 48.41 420.77 48.41C417.62 48.41 415.14 47.56 413.32 45.85C411.51 44.14 410.6 41.98 410.6 39.37C410.6 37.64 411.01 36.1 411.84 34.75C412.67 33.4 413.82 32.36 415.31 31.64C416.8 30.92 418.94 30.29 421.75 29.75C425.53 29.04 428.16 28.38 429.62 27.76V26.95C429.62 25.39 429.24 24.29 428.47 23.62C427.7 22.96 426.25 22.63 424.12 22.63C422.68 22.63 421.56 22.91 420.75 23.48C419.94 24.05 419.29 25.04 418.79 26.46V26.46ZM429.62 33.03C428.58 33.38 426.94 33.79 424.69 34.27C422.44 34.75 420.97 35.22 420.28 35.68C419.22 36.43 418.7 37.38 418.7 38.53C418.7 39.68 419.12 40.64 419.97 41.47C420.81 42.3 421.89 42.71 423.2 42.71C424.66 42.71 426.05 42.23 427.38 41.27C428.36 40.54 429 39.65 429.31 38.59C429.52 37.9 429.63 36.58 429.63 34.64V33.03H429.62Z" fill="#034EA2"/>
<path d="M473.38 47.72H465.28V32.11C465.28 28.81 465.11 26.67 464.76 25.7C464.41 24.73 463.85 23.98 463.07 23.44C462.29 22.9 461.36 22.63 460.26 22.63C458.86 22.63 457.6 23.01 456.49 23.78C455.38 24.55 454.61 25.57 454.2 26.83C453.79 28.09 453.58 30.44 453.58 33.86V47.72H445.49V17.12H453.01V21.61C455.68 18.15 459.04 16.42 463.09 16.42C464.88 16.42 466.51 16.74 467.99 17.38C469.47 18.02 470.59 18.84 471.35 19.84C472.11 20.84 472.64 21.97 472.93 23.24C473.22 24.51 473.38 26.32 473.38 28.68V47.69V47.72Z" fill="#034EA2"/>
<path d="M478.74 38.99L486.86 37.75C487.21 39.33 487.91 40.52 488.96 41.34C490.02 42.16 491.5 42.56 493.4 42.56C495.49 42.56 497.07 42.18 498.12 41.41C498.83 40.87 499.19 40.15 499.19 39.25C499.19 38.64 499 38.13 498.61 37.72C498.21 37.34 497.3 36.98 495.9 36.65C489.37 35.21 485.23 33.89 483.48 32.7C481.06 31.05 479.85 28.75 479.85 25.81C479.85 23.16 480.9 20.93 482.99 19.13C485.08 17.32 488.33 16.42 492.73 16.42C497.13 16.42 500.03 17.1 502.06 18.47C504.1 19.83 505.5 21.85 506.27 24.52L498.64 25.93C498.31 24.74 497.69 23.83 496.78 23.19C495.87 22.56 494.57 22.24 492.88 22.24C490.75 22.24 489.22 22.54 488.3 23.13C487.68 23.55 487.38 24.1 487.38 24.77C487.38 25.35 487.65 25.84 488.19 26.24C488.92 26.78 491.44 27.54 495.75 28.52C500.06 29.5 503.07 30.7 504.78 32.12C506.47 33.56 507.32 35.57 507.32 38.14C507.32 40.94 506.15 43.35 503.81 45.37C501.47 47.39 498 48.39 493.41 48.39C489.24 48.39 485.94 47.55 483.51 45.85C481.08 44.16 479.49 41.87 478.74 38.96V38.99Z" fill="#034EA2"/>
<path d="M514.41 12.97V5.48H522.51V12.97H514.41ZM514.41 47.71V17.12H522.51V47.71H514.41Z" fill="#034EA2"/>
<path d="M548.52 37.98L556.59 39.33C555.55 42.29 553.92 44.54 551.68 46.09C549.44 47.64 546.64 48.41 543.28 48.41C537.96 48.41 534.02 46.67 531.47 43.2C529.45 40.42 528.45 36.9 528.45 32.66C528.45 27.59 529.77 23.62 532.42 20.75C535.07 17.88 538.42 16.44 542.47 16.44C547.02 16.44 550.61 17.94 553.24 20.95C555.87 23.96 557.13 28.56 557.01 34.76H536.73C536.79 37.16 537.44 39.03 538.69 40.36C539.94 41.69 541.49 42.36 543.36 42.36C544.63 42.36 545.69 42.01 546.56 41.32C547.43 40.63 548.08 39.51 548.52 37.98V37.98ZM548.98 29.8C548.92 27.46 548.32 25.68 547.16 24.46C546 23.24 544.61 22.63 542.95 22.63C541.18 22.63 539.72 23.27 538.57 24.56C537.42 25.85 536.85 27.59 536.87 29.8H548.97H548.98Z" fill="#034EA2"/>
<path d="M571.36 47.72H563.26V17.12H570.78V21.47C572.07 19.42 573.22 18.06 574.25 17.41C575.28 16.76 576.44 16.43 577.75 16.43C579.59 16.43 581.37 16.94 583.08 17.96L580.57 25.02C579.21 24.14 577.94 23.69 576.77 23.69C575.6 23.69 574.68 24 573.89 24.63C573.1 25.25 572.48 26.38 572.03 28.01C571.58 29.64 571.35 33.06 571.35 38.27V47.72H571.36Z" fill="#034EA2"/>
<path d="M604.29 37.98L612.36 39.33C611.32 42.29 609.69 44.54 607.45 46.09C605.21 47.64 602.41 48.41 599.05 48.41C593.73 48.41 589.79 46.67 587.24 43.2C585.22 40.42 584.22 36.9 584.22 32.66C584.22 27.59 585.54 23.62 588.19 20.75C590.84 17.88 594.19 16.44 598.24 16.44C602.79 16.44 606.38 17.94 609.01 20.95C611.64 23.96 612.9 28.56 612.78 34.76H592.5C592.56 37.16 593.21 39.03 594.46 40.36C595.71 41.69 597.26 42.36 599.13 42.36C600.4 42.36 601.46 42.01 602.33 41.32C603.2 40.63 603.85 39.51 604.29 37.98V37.98ZM604.75 29.8C604.69 27.46 604.09 25.68 602.93 24.46C601.77 23.24 600.38 22.63 598.72 22.63C596.95 22.63 595.49 23.27 594.34 24.56C593.19 25.85 592.62 27.59 592.64 29.8H604.74H604.75Z" fill="#034EA2"/>
<path d="M633.41 17.12V23.57H627.88V35.9C627.88 38.4 627.93 39.85 628.04 40.26C628.15 40.67 628.39 41.01 628.76 41.28C629.13 41.55 629.59 41.68 630.13 41.68C630.88 41.68 631.96 41.42 633.39 40.9L634.08 47.18C632.2 47.99 630.07 48.39 627.68 48.39C626.22 48.39 624.9 48.14 623.73 47.66C622.56 47.17 621.7 46.54 621.15 45.76C620.6 44.98 620.22 43.93 620.01 42.61C619.84 41.67 619.75 39.77 619.75 36.91V23.57H616.03V17.12H619.75V11.04L627.87 6.31999V17.12H633.4H633.41Z" fill="#034EA2"/>
<path d="M661.47 26.46L654.12 25.13C654.95 22.17 656.37 19.98 658.38 18.56C660.4 17.14 663.39 16.43 667.37 16.43C670.98 16.43 673.67 16.86 675.44 17.71C677.21 18.56 678.45 19.65 679.17 20.96C679.89 22.28 680.25 24.69 680.25 28.21L680.16 37.66C680.16 40.35 680.29 42.33 680.55 43.61C680.81 44.89 681.29 46.26 682.01 47.72H674C673.79 47.18 673.53 46.39 673.22 45.33C673.09 44.85 672.99 44.53 672.93 44.38C671.55 45.72 670.07 46.73 668.49 47.4C666.91 48.07 665.23 48.41 663.45 48.41C660.3 48.41 657.82 47.56 656 45.85C654.19 44.14 653.28 41.98 653.28 39.37C653.28 37.64 653.69 36.1 654.52 34.75C655.35 33.4 656.5 32.36 657.99 31.64C659.48 30.92 661.62 30.29 664.43 29.75C668.21 29.04 670.84 28.38 672.3 27.76V26.95C672.3 25.39 671.92 24.29 671.15 23.62C670.38 22.96 668.93 22.63 666.8 22.63C665.36 22.63 664.24 22.91 663.43 23.48C662.62 24.05 661.97 25.04 661.47 26.46V26.46ZM672.3 33.03C671.26 33.38 669.62 33.79 667.37 34.27C665.12 34.75 663.65 35.22 662.96 35.68C661.9 36.43 661.38 37.38 661.38 38.53C661.38 39.68 661.8 40.64 662.65 41.47C663.49 42.3 664.57 42.71 665.88 42.71C667.34 42.71 668.73 42.23 670.06 41.27C671.04 40.54 671.68 39.65 671.99 38.59C672.2 37.9 672.31 36.58 672.31 34.64V33.03H672.3Z" fill="#034EA2"/>
<path d="M684.69 17.12H689.18V14.82C689.18 12.25 689.45 10.33 690 9.05999C690.55 7.78999 691.56 6.75999 693.02 5.95999C694.49 5.15999 696.35 4.75999 698.59 4.75999C700.83 4.75999 703.15 5.10999 705.36 5.79999L704.27 11.45C702.98 11.14 701.74 10.99 700.55 10.99C699.36 10.99 698.54 11.26 698.03 11.81C697.52 12.36 697.27 13.41 697.27 14.96V17.12H703.32V23.49H697.27V47.72H689.17V23.49H684.68V17.12H684.69Z" fill="#034EA2"/>
<path d="M324.3 76.28H339.89C343.4 76.28 346.08 76.55 347.93 77.09C350.41 77.82 352.53 79.12 354.3 80.98C356.07 82.84 357.41 85.12 358.33 87.82C359.25 90.52 359.71 93.85 359.71 97.8C359.71 101.28 359.28 104.27 358.41 106.79C357.35 109.86 355.85 112.35 353.89 114.25C352.41 115.69 350.41 116.81 347.9 117.62C346.02 118.22 343.5 118.51 340.35 118.51H324.3V76.28V76.28ZM332.83 83.42V111.39H339.2C341.58 111.39 343.3 111.26 344.36 110.99C345.74 110.64 346.89 110.06 347.8 109.23C348.71 108.4 349.46 107.05 350.03 105.15C350.6 103.25 350.89 100.68 350.89 97.41C350.89 94.14 350.6 91.64 350.03 89.89C349.45 88.14 348.65 86.78 347.61 85.8C346.57 84.82 345.26 84.16 343.66 83.81C342.47 83.54 340.14 83.41 336.66 83.41H332.83V83.42Z" fill="#034EA2"/>
<path d="M384.59 108.78L392.66 110.13C391.62 113.09 389.99 115.34 387.75 116.89C385.51 118.44 382.71 119.21 379.35 119.21C374.03 119.21 370.09 117.47 367.54 114C365.52 111.22 364.52 107.7 364.52 103.46C364.52 98.39 365.84 94.42 368.49 91.55C371.14 88.68 374.49 87.24 378.54 87.24C383.09 87.24 386.68 88.74 389.31 91.75C391.94 94.76 393.2 99.36 393.08 105.56H372.8C372.86 107.96 373.51 109.83 374.76 111.16C376.01 112.49 377.56 113.16 379.43 113.16C380.7 113.16 381.76 112.81 382.63 112.12C383.5 111.43 384.15 110.31 384.59 108.78V108.78ZM385.05 100.6C384.99 98.26 384.39 96.48 383.23 95.26C382.07 94.04 380.68 93.43 379.02 93.43C377.25 93.43 375.79 94.07 374.64 95.36C373.49 96.65 372.92 98.39 372.94 100.6H385.04H385.05Z" fill="#034EA2"/>
<path d="M427.52 118.52H419.42V102.91C419.42 99.61 419.25 97.47 418.9 96.5C418.55 95.53 417.99 94.78 417.21 94.24C416.43 93.7 415.5 93.43 414.4 93.43C413 93.43 411.74 93.81 410.63 94.58C409.52 95.35 408.75 96.37 408.34 97.63C407.93 98.89 407.72 101.24 407.72 104.66V118.52H399.63V87.93H407.15V92.42C409.82 88.96 413.18 87.23 417.23 87.23C419.02 87.23 420.65 87.55 422.13 88.19C423.61 88.83 424.73 89.65 425.49 90.65C426.25 91.65 426.78 92.78 427.07 94.05C427.36 95.32 427.52 97.13 427.52 99.49V118.5V118.52Z" fill="#034EA2"/>
<path d="M452.18 118.52V76.29H483.49V83.43H460.7V92.79H481.9V99.91H460.7V111.4H484.29V118.52H452.17H452.18Z" fill="#034EA2"/>
<path d="M511.61 118.52V113.94C510.5 115.57 509.03 116.86 507.22 117.8C505.41 118.74 503.49 119.21 501.47 119.21C499.45 119.21 497.57 118.76 495.94 117.86C494.31 116.96 493.13 115.69 492.4 114.06C491.67 112.43 491.31 110.17 491.31 107.29V87.93H499.4V101.99C499.4 106.29 499.55 108.93 499.85 109.9C500.15 110.87 500.69 111.64 501.48 112.2C502.27 112.77 503.27 113.05 504.48 113.05C505.86 113.05 507.1 112.67 508.2 111.91C509.3 111.15 510.04 110.21 510.45 109.09C510.85 107.97 511.05 105.21 511.05 100.84V87.93H519.14V118.52H511.62H511.61Z" fill="#034EA2"/>
<path d="M535.26 118.52H527.16V87.93H534.68V92.28C535.97 90.23 537.12 88.87 538.15 88.22C539.18 87.57 540.34 87.24 541.65 87.24C543.49 87.24 545.27 87.75 546.98 88.77L544.47 95.83C543.11 94.95 541.84 94.5 540.67 94.5C539.5 94.5 538.58 94.81 537.79 95.44C537 96.06 536.38 97.19 535.93 98.82C535.48 100.45 535.25 103.87 535.25 109.08V118.53L535.26 118.52Z" fill="#034EA2"/>
<path d="M548.6 102.79C548.6 100.1 549.26 97.5 550.59 94.98C551.92 92.46 553.79 90.54 556.22 89.22C558.65 87.89 561.36 87.23 564.36 87.23C568.99 87.23 572.78 88.73 575.74 91.74C578.7 94.75 580.18 98.54 580.18 103.13C580.18 107.72 578.69 111.59 575.7 114.64C572.71 117.68 568.95 119.21 564.42 119.21C561.62 119.21 558.94 118.58 556.4 117.31C553.86 116.04 551.92 114.18 550.59 111.74C549.27 109.29 548.6 106.31 548.6 102.79V102.79ZM556.9 103.22C556.9 106.25 557.62 108.58 559.06 110.19C560.5 111.8 562.28 112.61 564.39 112.61C566.5 112.61 568.27 111.8 569.71 110.19C571.14 108.58 571.86 106.23 571.86 103.16C571.86 100.09 571.14 97.86 569.71 96.25C568.28 94.64 566.51 93.83 564.39 93.83C562.27 93.83 560.5 94.64 559.06 96.25C557.62 97.86 556.9 100.19 556.9 103.22Z" fill="#034EA2"/>
<path d="M586.28 87.92H593.83V92.41C594.81 90.87 596.13 89.63 597.8 88.66C599.47 87.7 601.32 87.22 603.36 87.22C606.91 87.22 609.93 88.61 612.41 91.4C614.89 94.19 616.13 98.06 616.13 103.04C616.13 108.02 614.88 112.12 612.39 114.95C609.89 117.78 606.87 119.2 603.31 119.2C601.62 119.2 600.09 118.86 598.72 118.19C597.35 117.52 595.9 116.37 594.38 114.73V130.14H586.28V87.91V87.92ZM594.29 102.7C594.29 106.14 594.97 108.68 596.33 110.32C597.69 111.96 599.36 112.78 601.31 112.78C603.26 112.78 604.76 112.03 606.01 110.52C607.26 109.01 607.88 106.54 607.88 103.1C607.88 99.89 607.24 97.51 605.95 95.96C604.66 94.4 603.07 93.63 601.17 93.63C599.27 93.63 597.55 94.39 596.24 95.92C594.93 97.45 594.28 99.71 594.28 102.7H594.29Z" fill="#034EA2"/>
<path d="M659.69 108.75L667.61 110.16C666.52 113.18 664.85 115.44 662.63 116.94C660.4 118.45 657.56 119.2 654.1 119.2C651.95 119.2 649.96 118.85 648.14 118.15C646.32 117.45 644.66 116.4 643.18 115C641.82 116.17 640.06 117.17 637.89 117.98C635.73 118.8 633.51 119.2 631.22 119.2C627.95 119.2 625.41 118.35 623.59 116.65C621.77 114.95 620.85 112.8 620.85 110.21C620.85 108.65 621.17 107.27 621.81 106.06C622.45 104.85 623.23 103.9 624.14 103.22C625.05 102.54 626.32 101.95 627.96 101.45C628.73 101.2 631.01 100.68 634.82 99.89C636.72 99.49 638.34 99.06 639.69 98.62V97.81C639.69 96.33 639.29 95.23 638.48 94.5C637.67 93.77 636.4 93.41 634.65 93.41C633.11 93.41 631.89 93.72 630.99 94.35C630.09 94.97 629.44 95.94 629.06 97.25L621.71 95.84C622.67 92.88 624.18 90.71 626.25 89.32C628.32 87.93 631.46 87.23 635.68 87.23C637.68 87.23 639.46 87.47 641.02 87.94C642.58 88.41 643.92 89.12 645.04 90.06C646.21 89.12 647.49 88.41 648.89 87.94C650.29 87.47 651.78 87.23 653.37 87.23C656.44 87.23 659.04 87.88 661.16 89.17C663.28 90.47 664.95 92.38 666.17 94.9C667.39 97.42 667.99 100.99 667.97 105.6H647.63C647.96 108.21 648.69 110.1 649.82 111.27C650.95 112.44 652.35 113.03 654 113.03C655.36 113.03 656.53 112.68 657.49 111.98C658.45 111.28 659.18 110.2 659.68 108.74L659.69 108.75ZM639.64 103.88C635.2 105.05 632.79 105.7 632.41 105.84C631.12 106.26 630.22 106.77 629.72 107.37C629.21 107.97 628.96 108.67 628.96 109.47C628.96 110.58 629.38 111.53 630.21 112.32C631.04 113.11 632.13 113.5 633.48 113.5C634.9 113.5 636.24 113.05 637.48 112.15C638.4 111.48 638.99 110.64 639.25 109.63C639.51 108.62 639.64 106.71 639.64 103.88V103.88ZM660.01 100.54C659.89 98.85 659.66 97.63 659.32 96.88C658.84 95.8 658.11 94.96 657.15 94.34C656.18 93.73 655.04 93.42 653.74 93.42C652.61 93.42 651.61 93.68 650.76 94.21C649.91 94.74 649.23 95.53 648.73 96.59C648.06 97.99 647.75 99.31 647.81 100.54H660.02H660.01Z" fill="#034EA2"/>
<path d="M675.01 83.77V76.28H683.11V83.77H675.01ZM675.01 118.51V87.92H683.11V118.51H675.01Z" fill="#034EA2"/>
<path d="M688.55 109.79L696.67 108.55C697.02 110.13 697.72 111.32 698.77 112.14C699.83 112.96 701.31 113.36 703.21 113.36C705.3 113.36 706.88 112.98 707.93 112.21C708.64 111.67 709 110.95 709 110.05C709 109.44 708.81 108.93 708.42 108.52C708.02 108.14 707.11 107.78 705.71 107.45C699.18 106.01 695.04 104.69 693.29 103.5C690.87 101.85 689.66 99.55 689.66 96.61C689.66 93.96 690.71 91.73 692.8 89.93C694.89 88.12 698.14 87.22 702.54 87.22C706.94 87.22 709.84 87.9 711.87 89.27C713.91 90.63 715.31 92.65 716.08 95.32L708.45 96.73C708.12 95.54 707.5 94.63 706.59 93.99C705.68 93.36 704.38 93.04 702.69 93.04C700.56 93.04 699.03 93.34 698.11 93.93C697.49 94.35 697.19 94.9 697.19 95.57C697.19 96.15 697.46 96.64 698 97.04C698.73 97.58 701.25 98.34 705.56 99.32C709.87 100.3 712.88 101.5 714.59 102.92C716.28 104.36 717.13 106.37 717.13 108.94C717.13 111.74 715.96 114.15 713.62 116.17C711.28 118.19 707.81 119.2 703.22 119.2C699.05 119.2 695.75 118.36 693.32 116.66C690.89 114.96 689.3 112.67 688.55 109.77V109.79Z" fill="#034EA2"/>
<path d="M723.93 118.52V76.29H732.02V98.7L741.5 87.93H751.47L741.01 99.11L752.22 118.53H743.49L735.8 104.79L732.03 108.74V118.53H723.94L723.93 118.52Z" fill="#034EA2"/>
<path d="M774.75 108.78L782.82 110.13C781.78 113.09 780.15 115.34 777.91 116.89C775.67 118.44 772.87 119.21 769.51 119.21C764.19 119.21 760.25 117.47 757.7 114C755.68 111.22 754.68 107.7 754.68 103.46C754.68 98.39 756 94.42 758.65 91.55C761.3 88.68 764.65 87.24 768.7 87.24C773.25 87.24 776.84 88.74 779.47 91.75C782.1 94.76 783.36 99.36 783.24 105.56H762.96C763.02 107.96 763.67 109.83 764.92 111.16C766.17 112.49 767.72 113.16 769.59 113.16C770.86 113.16 771.92 112.81 772.79 112.12C773.66 111.43 774.31 110.31 774.75 108.78V108.78ZM775.21 100.6C775.15 98.26 774.55 96.48 773.39 95.26C772.23 94.04 770.84 93.43 769.18 93.43C767.41 93.43 765.95 94.07 764.8 95.36C763.65 96.65 763.08 98.39 763.1 100.6H775.2H775.21Z" fill="#034EA2"/>
<path d="M806.24 76.28H814.77V99.15C814.77 102.78 814.88 105.13 815.09 106.21C815.45 107.94 816.32 109.33 817.7 110.37C819.07 111.42 820.95 111.94 823.33 111.94C825.71 111.94 827.57 111.45 828.8 110.46C830.03 109.47 830.77 108.26 831.02 106.82C831.27 105.38 831.4 102.99 831.4 99.65V76.29H839.93V98.47C839.93 103.54 839.7 107.12 839.24 109.22C838.78 111.31 837.93 113.08 836.69 114.52C835.45 115.96 833.79 117.11 831.72 117.96C829.65 118.81 826.94 119.24 823.6 119.24C819.57 119.24 816.51 118.77 814.42 117.84C812.34 116.91 810.69 115.7 809.48 114.21C808.27 112.72 807.47 111.16 807.09 109.53C806.53 107.11 806.25 103.54 806.25 98.81V76.28H806.24Z" fill="#034EA2"/>
<path d="M876.67 118.52H868.57V102.91C868.57 99.61 868.4 97.47 868.05 96.5C867.7 95.53 867.14 94.78 866.36 94.24C865.58 93.7 864.65 93.43 863.55 93.43C862.15 93.43 860.89 93.81 859.78 94.58C858.67 95.35 857.9 96.37 857.49 97.63C857.08 98.89 856.87 101.24 856.87 104.66V118.52H848.78V87.93H856.3V92.42C858.97 88.96 862.33 87.23 866.38 87.23C868.17 87.23 869.8 87.55 871.28 88.19C872.76 88.83 873.88 89.65 874.64 90.65C875.4 91.65 875.93 92.78 876.22 94.05C876.51 95.32 876.67 97.13 876.67 99.49V118.5V118.52Z" fill="#034EA2"/>
<path d="M884.88 83.77V76.28H892.98V83.77H884.88ZM884.88 118.51V87.92H892.98V118.51H884.88Z" fill="#034EA2"/>
<path d="M899.4 102.79C899.4 100.1 900.06 97.5 901.39 94.98C902.72 92.46 904.59 90.54 907.02 89.22C909.45 87.89 912.16 87.23 915.16 87.23C919.79 87.23 923.58 88.73 926.54 91.74C929.5 94.75 930.98 98.54 930.98 103.13C930.98 107.72 929.49 111.59 926.5 114.64C923.51 117.68 919.75 119.21 915.22 119.21C912.42 119.21 909.74 118.58 907.2 117.31C904.66 116.04 902.72 114.18 901.39 111.74C900.07 109.29 899.4 106.31 899.4 102.79V102.79ZM907.7 103.22C907.7 106.25 908.42 108.58 909.86 110.19C911.3 111.8 913.08 112.61 915.19 112.61C917.3 112.61 919.07 111.8 920.51 110.19C921.94 108.58 922.66 106.23 922.66 103.16C922.66 100.09 921.94 97.86 920.51 96.25C919.08 94.64 917.31 93.83 915.19 93.83C913.07 93.83 911.3 94.64 909.86 96.25C908.42 97.86 907.7 100.19 907.7 103.22Z" fill="#034EA2"/>
<path d="M965.15 118.52H957.05V102.91C957.05 99.61 956.88 97.47 956.53 96.5C956.18 95.53 955.62 94.78 954.84 94.24C954.06 93.7 953.13 93.43 952.03 93.43C950.63 93.43 949.37 93.81 948.26 94.58C947.15 95.35 946.38 96.37 945.97 97.63C945.56 98.89 945.35 101.24 945.35 104.66V118.52H937.26V87.93H944.78V92.42C947.45 88.96 950.81 87.23 954.86 87.23C956.65 87.23 958.28 87.55 959.76 88.19C961.24 88.83 962.36 89.65 963.12 90.65C963.88 91.65 964.41 92.78 964.7 94.05C964.99 95.32 965.15 97.13 965.15 99.49V118.5V118.52Z" fill="#034EA2"/>
<path d="M324.34 194.5V157.99H329.3L348.48 186.65V157.99H353.11V194.5H348.15L328.98 165.81V194.5H324.35H324.34Z" fill="#58595B"/>
<path d="M378.75 185.98L383.38 186.55C382.65 189.26 381.3 191.36 379.32 192.85C377.34 194.34 374.82 195.09 371.75 195.09C367.88 195.09 364.81 193.9 362.55 191.52C360.28 189.14 359.15 185.8 359.15 181.5C359.15 177.2 360.3 173.6 362.59 171.14C364.88 168.68 367.85 167.45 371.5 167.45C375.15 167.45 377.93 168.65 380.17 171.06C382.41 173.47 383.53 176.85 383.53 181.22C383.53 181.49 383.53 181.88 383.51 182.42H363.79C363.96 185.33 364.78 187.55 366.25 189.09C367.72 190.63 369.57 191.41 371.78 191.41C373.42 191.41 374.83 190.98 375.99 190.12C377.15 189.26 378.07 187.88 378.75 185.99V185.98ZM364.03 178.73H378.8C378.6 176.51 378.04 174.84 377.11 173.73C375.68 172 373.83 171.14 371.56 171.14C369.5 171.14 367.77 171.83 366.37 173.21C364.97 174.59 364.19 176.43 364.04 178.74L364.03 178.73Z" fill="#58595B"/>
<path d="M386.02 194.5L395.68 180.75L386.74 168.05H392.34L396.4 174.25C397.16 175.43 397.78 176.42 398.24 177.21C398.97 176.11 399.64 175.14 400.26 174.3L404.72 168.05H410.07L400.93 180.5L410.77 194.5H405.27L399.84 186.28L398.4 184.06L391.45 194.49H386.02V194.5Z" fill="#58595B"/>
<path d="M424.3 190.49L424.95 194.45C423.69 194.71 422.56 194.85 421.56 194.85C419.93 194.85 418.67 194.59 417.77 194.08C416.87 193.57 416.24 192.89 415.88 192.05C415.51 191.21 415.33 189.45 415.33 186.76V171.55H412.04V168.06H415.33V161.51L419.79 158.82V168.06H424.3V171.55H419.79V187.01C419.79 188.29 419.87 189.11 420.03 189.48C420.19 189.85 420.44 190.14 420.8 190.35C421.16 190.57 421.67 190.67 422.33 190.67C422.83 190.67 423.48 190.61 424.3 190.5V190.49Z" fill="#58595B"/>
<path d="M446.33 180.18V175.9L461.79 175.88V189.43C459.41 191.32 456.97 192.75 454.44 193.7C451.91 194.65 449.33 195.13 446.67 195.13C443.08 195.13 439.83 194.36 436.9 192.83C433.97 191.29 431.76 189.07 430.26 186.17C428.77 183.27 428.02 180.02 428.02 176.43C428.02 172.84 428.76 169.56 430.25 166.48C431.74 163.4 433.87 161.11 436.66 159.62C439.45 158.13 442.66 157.38 446.3 157.38C448.94 157.38 451.33 157.81 453.46 158.66C455.59 159.51 457.27 160.71 458.48 162.23C459.69 163.75 460.61 165.75 461.24 168.21L456.88 169.41C456.33 167.55 455.65 166.09 454.84 165.03C454.03 163.97 452.86 163.12 451.35 162.48C449.84 161.84 448.16 161.52 446.32 161.52C444.11 161.52 442.2 161.86 440.59 162.53C438.98 163.2 437.68 164.09 436.69 165.18C435.7 166.27 434.93 167.48 434.39 168.79C433.46 171.05 433 173.5 433 176.14C433 179.39 433.56 182.12 434.68 184.31C435.8 186.5 437.43 188.13 439.57 189.19C441.71 190.25 443.99 190.78 446.39 190.78C448.48 190.78 450.52 190.38 452.52 189.57C454.51 188.77 456.02 187.91 457.05 186.99V180.19H446.32L446.33 180.18Z" fill="#58595B"/>
<path d="M486.45 185.98L491.08 186.55C490.35 189.26 489 191.36 487.02 192.85C485.04 194.34 482.52 195.09 479.45 195.09C475.58 195.09 472.51 193.9 470.25 191.52C467.98 189.14 466.85 185.8 466.85 181.5C466.85 177.2 468 173.6 470.29 171.14C472.58 168.68 475.55 167.45 479.2 167.45C482.85 167.45 485.63 168.65 487.87 171.06C490.11 173.47 491.23 176.85 491.23 181.22C491.23 181.49 491.23 181.88 491.21 182.42H471.49C471.66 185.33 472.48 187.55 473.95 189.09C475.42 190.63 477.27 191.41 479.48 191.41C481.12 191.41 482.53 190.98 483.69 190.12C484.85 189.26 485.77 187.88 486.45 185.99V185.98ZM471.73 178.73H486.5C486.3 176.51 485.74 174.84 484.81 173.73C483.38 172 481.53 171.14 479.26 171.14C477.2 171.14 475.47 171.83 474.07 173.21C472.67 174.59 471.89 176.43 471.74 178.74L471.73 178.73Z" fill="#58595B"/>
<path d="M496.71 194.5V168.05H500.75V171.81C502.69 168.91 505.5 167.45 509.17 167.45C510.76 167.45 512.23 167.74 513.57 168.31C514.91 168.88 515.91 169.63 516.57 170.56C517.23 171.49 517.7 172.59 517.96 173.87C518.13 174.7 518.21 176.15 518.21 178.23V194.49H513.73V178.4C513.73 176.57 513.56 175.21 513.21 174.3C512.86 173.4 512.24 172.67 511.35 172.13C510.46 171.59 509.42 171.32 508.23 171.32C506.32 171.32 504.67 171.93 503.29 173.14C501.9 174.35 501.21 176.65 501.21 180.04V194.48H496.73L496.71 194.5Z" fill="#58595B"/>
<path d="M543.18 185.98L547.81 186.55C547.08 189.26 545.73 191.36 543.75 192.85C541.77 194.34 539.25 195.09 536.18 195.09C532.31 195.09 529.24 193.9 526.98 191.52C524.71 189.14 523.58 185.8 523.58 181.5C523.58 177.2 524.73 173.6 527.02 171.14C529.31 168.68 532.28 167.45 535.93 167.45C539.58 167.45 542.36 168.65 544.6 171.06C546.84 173.47 547.96 176.85 547.96 181.22C547.96 181.49 547.96 181.88 547.94 182.42H528.22C528.39 185.33 529.21 187.55 530.68 189.09C532.15 190.63 534 191.41 536.21 191.41C537.85 191.41 539.26 190.98 540.42 190.12C541.58 189.26 542.5 187.88 543.18 185.99V185.98ZM528.46 178.73H543.23C543.03 176.51 542.47 174.84 541.54 173.73C540.11 172 538.26 171.14 535.99 171.14C533.93 171.14 532.2 171.83 530.8 173.21C529.4 174.59 528.62 176.43 528.47 178.74L528.46 178.73Z" fill="#58595B"/>
<path d="M553.39 194.5V168.05H557.42V172.06C558.45 170.18 559.4 168.95 560.27 168.35C561.14 167.75 562.1 167.45 563.15 167.45C564.66 167.45 566.2 167.93 567.76 168.89L566.22 173.05C565.12 172.4 564.03 172.08 562.93 172.08C561.95 172.08 561.07 172.37 560.29 172.96C559.51 173.55 558.95 174.37 558.62 175.41C558.12 177 557.87 178.75 557.87 180.64V194.49H553.39V194.5Z" fill="#58595B"/>
<path d="M587.68 191.23C586.02 192.64 584.42 193.64 582.89 194.22C581.36 194.8 579.71 195.09 577.95 195.09C575.04 195.09 572.81 194.38 571.25 192.96C569.69 191.54 568.91 189.73 568.91 187.52C568.91 186.23 569.2 185.04 569.79 183.97C570.38 182.9 571.15 182.04 572.11 181.39C573.06 180.74 574.14 180.25 575.33 179.92C576.21 179.69 577.54 179.46 579.31 179.25C582.93 178.82 585.59 178.3 587.3 177.71C587.32 177.1 587.32 176.71 587.32 176.54C587.32 174.71 586.9 173.43 586.05 172.68C584.91 171.67 583.2 171.16 580.95 171.16C578.84 171.16 577.28 171.53 576.28 172.27C575.28 173.01 574.53 174.32 574.05 176.19L569.67 175.59C570.07 173.71 570.72 172.2 571.64 171.05C572.55 169.9 573.87 169.01 575.6 168.38C577.33 167.76 579.33 167.45 581.6 167.45C583.87 167.45 585.69 167.72 587.1 168.25C588.51 168.78 589.55 169.45 590.21 170.25C590.87 171.05 591.34 172.07 591.6 173.3C591.75 174.06 591.82 175.44 591.82 177.43V183.41C591.82 187.58 591.92 190.21 592.11 191.32C592.3 192.42 592.68 193.48 593.24 194.49H588.56C588.1 193.56 587.8 192.47 587.66 191.23H587.68ZM587.31 181.22C585.68 181.88 583.24 182.45 579.99 182.91C578.15 183.18 576.84 183.47 576.08 183.81C575.32 184.14 574.73 184.63 574.31 185.27C573.89 185.91 573.69 186.62 573.69 187.4C573.69 188.6 574.14 189.59 575.05 190.39C575.95 191.19 577.28 191.59 579.02 191.59C580.76 191.59 582.28 191.21 583.63 190.46C584.97 189.71 585.96 188.67 586.59 187.36C587.07 186.35 587.31 184.85 587.31 182.88V181.24V181.22Z" fill="#58595B"/>
<path d="M608.57 190.49L609.22 194.45C607.96 194.71 606.83 194.85 605.83 194.85C604.2 194.85 602.94 194.59 602.04 194.08C601.14 193.57 600.51 192.89 600.15 192.05C599.78 191.21 599.6 189.45 599.6 186.76V171.55H596.31V168.06H599.6V161.51L604.06 158.82V168.06H608.57V171.55H604.06V187.01C604.06 188.29 604.14 189.11 604.3 189.48C604.46 189.85 604.71 190.14 605.07 190.35C605.43 190.57 605.94 190.67 606.6 190.67C607.1 190.67 607.75 190.61 608.57 190.5V190.49Z" fill="#58595B"/>
<path d="M612.98 163.14V157.99H617.46V163.14H612.98ZM612.98 194.49V168.04H617.46V194.49H612.98Z" fill="#58595B"/>
<path d="M622.62 181.27C622.62 176.37 623.98 172.75 626.7 170.39C628.97 168.43 631.75 167.45 635.02 167.45C638.66 167.45 641.63 168.64 643.94 171.02C646.25 173.4 647.4 176.69 647.4 180.89C647.4 184.29 646.89 186.97 645.87 188.92C644.85 190.87 643.36 192.38 641.41 193.46C639.46 194.54 637.33 195.08 635.02 195.08C631.32 195.08 628.32 193.89 626.04 191.52C623.76 189.15 622.62 185.73 622.62 181.26V181.27ZM627.23 181.27C627.23 184.66 627.97 187.19 629.45 188.88C630.93 190.56 632.79 191.41 635.03 191.41C637.27 191.41 639.11 190.56 640.58 188.87C642.06 187.18 642.8 184.6 642.8 181.12C642.8 177.85 642.06 175.37 640.57 173.69C639.08 172 637.24 171.16 635.03 171.16C632.82 171.16 630.93 172 629.45 173.68C627.97 175.36 627.23 177.89 627.23 181.27V181.27Z" fill="#58595B"/>
<path d="M652.65 194.5V168.05H656.69V171.81C658.63 168.91 661.44 167.45 665.11 167.45C666.7 167.45 668.17 167.74 669.51 168.31C670.85 168.88 671.85 169.63 672.51 170.56C673.17 171.49 673.64 172.59 673.9 173.87C674.07 174.7 674.15 176.15 674.15 178.23V194.49H669.67V178.4C669.67 176.57 669.5 175.21 669.15 174.3C668.8 173.4 668.18 172.67 667.29 172.13C666.4 171.59 665.36 171.32 664.17 171.32C662.26 171.32 660.61 171.93 659.23 173.14C657.84 174.35 657.15 176.65 657.15 180.04V194.48H652.67L652.65 194.5Z" fill="#58595B"/>
<path d="M681.69 194.5V157.99H708.09V162.3H686.52V173.48H706.72V177.76H686.52V190.19H708.93V194.5H681.69V194.5Z" fill="#58595B"/>
<path d="M739.56 157.99H744.39V179.08C744.39 182.75 743.97 185.66 743.14 187.82C742.31 189.98 740.81 191.73 738.64 193.09C736.47 194.44 733.63 195.12 730.11 195.12C726.59 195.12 723.89 194.53 721.72 193.35C719.55 192.17 717.99 190.47 717.06 188.23C716.13 186 715.67 182.95 715.67 179.08V157.99H720.5V179.06C720.5 182.23 720.79 184.57 721.38 186.07C721.97 187.57 722.98 188.73 724.42 189.54C725.86 190.35 727.61 190.76 729.69 190.76C733.24 190.76 735.77 189.95 737.29 188.34C738.8 186.73 739.56 183.63 739.56 179.05V157.98V157.99Z" fill="#58595B"/>
</g>
</svg>
