<svg viewBox="0 0 24 24" xmlns="http://www.w3.org/2000/svg">
  <path d="M12.5 5.99995C16.29 5.99995 19.67 8.12995 21.32 11.5C20.73 12.72 19.9 13.77 18.91 14.62L20.32 16.03C21.71 14.8 22.81 13.26 23.5 11.5C21.77 7.10995 17.5 3.99995 12.5 3.99995C11.23 3.99995 10.01 4.19995 8.86 4.56995L10.51 6.21995C11.16 6.08995 11.82 5.99995 12.5 5.99995ZM11.43 7.13995L13.5 9.20995C14.07 9.45995 14.53 9.91995 14.78 10.49L16.85 12.56C16.93 12.22 16.99 11.86 16.99 11.49C17 9.00995 14.98 6.99995 12.5 6.99995C12.13 6.99995 11.78 7.04995 11.43 7.13995ZM2.51 3.86995L5.19 6.54995C3.56 7.82995 2.27 9.52995 1.5 11.5C3.23 15.89 7.5 19 12.5 19C14.02 19 15.48 18.71 16.82 18.18L20.24 21.6L21.65 20.19L3.92 2.44995L2.51 3.86995ZM10.01 11.37L12.62 13.98C12.58 13.99 12.54 14 12.5 14C11.12 14 10 12.88 10 11.5C10 11.45 10.01 11.42 10.01 11.37ZM6.61 7.96995L8.36 9.71995C8.13 10.27 8 10.87 8 11.5C8 13.98 10.02 16 12.5 16C13.13 16 13.73 15.87 14.27 15.64L15.25 16.62C14.37 16.86 13.45 17 12.5 17C8.71 17 5.33 14.87 3.68 11.5C4.38 10.07 5.4 8.88995 6.61 7.96995Z" />
</svg>