<svg viewBox="0 0 119 78" xmlns="http://www.w3.org/2000/svg">
  <path d="M117.03 73.506c-7.069.343-14.259-1.03-21.102-2.673-9.115-2.18-18.049-5.21-26.682-8.854-17.552-7.406-35.646-17.454-47.828-32.4-5.4-6.63-9.386-14.663-9.235-23.338 2.887 3.076 5.775 6.152 8.663 9.213.496.522.993 1.045 1.474 1.568.632.672.782-.463.782-.941a6.63 6.63 0 0 0-.21-1.717c-.106-.403-.226-.956-.512-1.27-3.534-3.762-7.084-7.525-10.618-11.287-.136-.15-.271-.284-.407-.433-.06-.164-.105-.329-.18-.463C10.814.239 9.912-.478 9.31.388c-2.602 3.748-5.204 7.51-7.806 11.258L.39 13.26c-.602.866-.451 2.21.03 3.106.361.672 1.263 1.388 1.865.522 2.241-3.225 4.467-6.435 6.708-9.66.466 17.589 14.243 31.654 27.78 41.463 16.454 11.9 35.841 20.456 55.469 25.667 8.227 2.18 16.92 4.002 25.478 3.584 2.076-.105 1.444-4.525-.706-4.42l.015-.015z" />
</svg>