<svg width="24" height="24" viewBox="0 0 24 24" fill="none" xmlns="http://www.w3.org/2000/svg">
  <g>
    <path d="M20.522 2H3.478C2.662 2 2 2.642 2 3.433v17.135C2 21.358 2.662 22 3.478 22h17.044c.816 0 1.478-.641 1.478-1.432V3.433C22 2.642 21.338 2 20.522 2zM5.042 18.742V9.711h3.02v9.031h-3.02zm1.51-10.264h-.019c-1.014 0-1.67-.694-1.67-1.56 0-.887.676-1.56 1.71-1.56 1.033 0 1.669.673 1.689 1.56 0 .867-.656 1.56-1.71 1.56zm12.403 10.264h-3.02v-4.83c0-1.215-.438-2.043-1.53-2.043-.835 0-1.332.558-1.55 1.098-.08.192-.1.463-.1.732v5.043h-3.02s.04-8.183 0-9.03h3.02v1.278c.402-.616 1.12-1.49 2.723-1.49 1.988 0 3.478 1.29 3.478 4.064v5.178z" fill="#1A1A1A"/>
  </g>
</svg>
