<svg width="16" height="17" viewBox="0 0 16 17" fill="none" xmlns="http://www.w3.org/2000/svg">
  <g>
    <path
      d="M12 5.42h-.666V4.087a3.335 3.335 0 0 0-6.667 0V5.42H4c-.733 0-1.333.6-1.333 1.334v6.666c0 .733.6 1.334 1.333 1.334h8c.734 0 1.334-.6 1.334-1.334V6.754c0-.734-.6-1.334-1.334-1.334zM6 4.087c0-1.107.894-2 2-2 1.107 0 2 .893 2 2V5.42H6V4.087zm6 9.333H4V6.754h8v6.666zm-4-2c.734 0 1.334-.6 1.334-1.333S8.734 8.754 8 8.754c-.733 0-1.333.6-1.333 1.333S7.267 11.42 8 11.42z"
    />
  </g>
</svg>