<svg width="39" height="27" viewBox="0 0 39 27" fill="none" xmlns="http://www.w3.org/2000/svg">
  <path d="M10.4565 0C13.0314 0 14.8841 0.631582 16.0145 1.89474C17.2077 3.09474 17.8043 4.61053 17.8043 6.44211V8.24211C17.8043 9.94737 17.5531 11.6842 17.0507 13.4526C16.6111 15.1579 15.9517 16.8316 15.0725 18.4737C14.1932 20.1158 13.157 21.6632 11.9638 23.1158C10.7705 24.5684 9.48309 25.8632 8.10145 27H0C2.00966 25.1053 3.70531 23.2105 5.08696 21.3158C6.4686 19.3579 7.50483 17.2105 8.19565 14.8737C6.3744 14.5579 5.05556 13.8316 4.23913 12.6947C3.42271 11.4947 3.01449 10.1053 3.01449 8.52632L3.01449 6.44211C3.01449 4.61053 3.57971 3.09474 4.71015 1.89474C5.90338 0.631582 7.81884 0 10.4565 0ZM31.6522 0C34.2271 0 36.0797 0.631582 37.2101 1.89474C38.4034 3.09474 39 4.61053 39 6.44211V8.24211C39 9.94737 38.7488 11.6842 38.2464 13.4526C37.8068 15.1579 37.1473 16.8316 36.2681 18.4737C35.3889 20.1158 34.3527 21.6632 33.1594 23.1158C31.9662 24.5684 30.6787 25.8632 29.2971 27H21.1957C23.2053 25.1053 24.901 23.2105 26.2826 21.3158C27.6643 19.3579 28.7005 17.2105 29.3913 14.8737C27.5701 14.5579 26.2512 13.8316 25.4348 12.6947C24.6184 11.4947 24.2101 10.1053 24.2101 8.52632V6.44211C24.2101 4.61053 24.7754 3.09474 25.9058 1.89474C27.099 0.631582 29.0145 0 31.6522 0Z" fill="#1A1A1A" />
</svg>