<svg viewBox="0 0 24 24" xmlns="http://www.w3.org/2000/svg">
  <path d="M11 19c0 .55-.196 1.02-.588 1.413A1.926 1.926 0 0 1 9 21H5c-.55 0-1.02-.196-1.413-.587A1.926 1.926 0 0 1 3 19V5c0-.55.196-1.02.587-1.413A1.926 1.926 0 0 1 5 3h4c.55 0 1.02.196 1.412.587C10.804 3.98 11 4.45 11 5v14zm-2 0V5H5v14h4zm12 0c0 .55-.196 1.02-.587 1.413A1.926 1.926 0 0 1 19 21h-4c-.55 0-1.02-.196-1.412-.587A1.926 1.926 0 0 1 13 19V5c0-.55.196-1.02.588-1.413A1.926 1.926 0 0 1 15 3h4c.55 0 1.02.196 1.413.587C20.803 3.98 21 4.45 21 5v14zm-2 0V5h-4v14h4z" fill="#1A1A1A"/>
</svg>
